<svg xmlns="http://www.w3.org/2000/svg" width="59" height="59" fill="none"><path d="M56.563 40.021h-7.907V23.614c0-.47-.3.572-.77.572-.47 0-.93-1.042-.93-.572V40.02H32.18v-3.684a.85.85 0 00-.85-.85h-8.538v-20.27h9.657v3.499a1.36 1.36 0 001.357 1.357h2.134a1.36 1.36 0 001.358-1.357v-3.498h9.656v8.396a.85.85 0 101.7 0v-8.616c0-.816-.663-1.48-1.48-1.48H29.28V1.502c0-.816-.664-1.48-1.48-1.48H12.182c-.816 0-1.48.664-1.48 1.48v5.375a.85.85 0 101.7 0V1.723h5.164v3.498a1.36 1.36 0 001.357 1.358h2.134a1.36 1.36 0 001.358-1.358V1.723h5.163v11.794h-5.636a.85.85 0 00-.85.85v7.086h-8.69V6.878c0-.47-.325.378-.794.378-.47 0-.906-.847-.906-.378v14.575H5.696c-.816 0-1.48.664-1.48 1.48v12.553H1.48c-.816 0-1.48.665-1.48 1.481v20.205c0 .47.38.85.85.85h12.403c.47 0-.193.008-.193-.461 0-.47.662-1.239.193-1.239H1.7V37.187h11.966v3.498c0 .748.609 1.357 1.357 1.357h2.134a1.36 1.36 0 001.358-1.357v-3.498H30.48v19.135H13.253a.85.85 0 100 1.7h43.94c.47 0 .85-.38.85-.85v-15.67a1.48 1.48 0 00-1.48-1.48zM20.715 4.878h-1.448V1.723h1.448v3.155zm14.883 10.34v3.155H34.15v-3.155h1.448zM12.78 23.154h1.449v3.154H12.78v-3.154zm-6.864 0h5.164v3.497a1.36 1.36 0 001.357 1.358h2.135a1.36 1.36 0 001.357-1.358v-3.497h5.164v12.332H5.916V23.154zm10.899 17.188h-1.449v-3.155h1.449v3.155zm28.171 1.38v3.154h-1.448v-3.154h1.448zm11.357 14.6H32.181v-14.6h9.656v3.497c0 .749.61 1.358 1.358 1.358h2.134a1.36 1.36 0 001.358-1.358v-3.497h9.656v14.6z" fill="#0C9DF7"/></svg>