<svg xmlns="http://www.w3.org/2000/svg" width="58" height="58" fill="none"><path d="M17.399 50.267h7.732a.966.966 0 100-1.933H17.4a6.774 6.774 0 01-6.767-6.766v-1.533l2.217 2.217a.968.968 0 001.65-.684.966.966 0 00-.283-.683l-3.866-3.867a.97.97 0 00-1.368 0l-3.866 3.867a.966.966 0 101.367 1.367L8.7 40.035v1.533a8.709 8.709 0 008.7 8.7zM40.597 7.738h-7.733a.966.966 0 100 1.933h7.733a6.774 6.774 0 016.766 6.766v1.533l-2.216-2.217a.967.967 0 00-1.367 1.367l3.866 3.867a.965.965 0 001.367 0l3.866-3.867a.967.967 0 10-1.367-1.367l-2.216 2.217v-1.533a8.71 8.71 0 00-8.7-8.7zM26.634 26.907a.967.967 0 00.43-.804c0-6.514-4.03-12.037-9.558-13.86a6.766 6.766 0 10-7.948 0C4.03 14.065 0 19.588 0 26.102a.967.967 0 00.43.804c.247.165 6.124 4.029 13.102 4.029 6.979 0 12.856-3.864 13.102-4.03zM8.699 6.77a4.833 4.833 0 119.666 0 4.833 4.833 0 01-9.666 0zm4.833 6.766c6.232 0 11.331 5.35 11.589 12.034-1.44.855-6.224 3.431-11.589 3.431-5.348 0-10.144-2.577-11.589-3.432.259-6.683 5.358-12.033 11.59-12.033zm34.905 25.771a6.766 6.766 0 10-7.948 0c-5.528 1.823-9.558 7.347-9.558 13.86a.968.968 0 00.43.804c.246.165 6.123 4.029 13.102 4.029 6.978 0 12.855-3.864 13.102-4.029a.968.968 0 00.43-.804c0-6.513-4.03-12.037-9.558-13.86zm-8.807-5.472a4.833 4.833 0 114.833 4.833 4.838 4.838 0 01-4.833-4.833zm4.833 22.232c-5.348 0-10.145-2.578-11.589-3.433.259-6.682 5.358-12.032 11.589-12.032 6.23 0 11.33 5.35 11.589 12.034-1.441.855-6.225 3.43-11.59 3.43z" fill="#0C9DF7"/></svg>