<svg xmlns="http://www.w3.org/2000/svg" width="58" height="58" fill="none"><path d="M3.742 4.709h18.71v1.87H3.742V4.71zm0 4.583H18.71v1.871H3.742v-1.87zm0 23.481h16.839v1.871H3.742v-1.87zm0 4.584H18.71v1.87H3.742v-1.87z" fill="#0C9DF7"/><path d="M31.806 48.645H14.032v-3.742h12.162v-9.64l7.066-2.651 23.11-23.11A5.536 5.536 0 0058 5.567 5.572 5.572 0 0052.434 0a5.53 5.53 0 00-3.936 1.63L25.39 24.74l-1.247 3.325h-10.11V16.838h12.162V0H0v16.839h12.161v11.226H0v16.838h12.161v5.613h19.645V58H58V41.161H31.806v7.484zM1.872 1.871h22.452v13.097H1.87V1.87zm23.643 28.065v-.199l1.045-2.79 4.494 4.494-5.854 2.195c-.405.153-.876-.172-.876-.607 0-.078.014-.153.04-.226l1.076-2.867h.075zm5.277-1.404l15.515-15.516 1.952 1.952-15.516 15.516-1.951-1.952zM44.355 8.42l1.484-1.483 5.225 5.225-1.483 1.484-5.226-5.226zm.629 3.274L29.468 27.21l-1.952-1.95L43.032 9.741l1.952 1.951zm4.837-8.74a3.67 3.67 0 012.613-1.082 3.7 3.7 0 013.695 3.695 3.67 3.67 0 01-1.082 2.613l-2.66 2.66-5.226-5.226 2.66-2.66zM1.871 29.935h21.57l-.828 2.208a2.508 2.508 0 001.709 3.311v7.578H1.872V29.936zm31.806 13.097H56.13V56.13H33.677V43.032z" fill="#0C9DF7"/><path d="M35.549 45.87h18.71v1.87h-18.71v-1.87zm0 4.584h14.968v1.87H35.549v-1.87z" fill="#0C9DF7"/></svg>