<svg width="58" height="58" fill="none" xmlns="http://www.w3.org/2000/svg"><g clip-path="url(#clip0)" fill="#0278AE"><path d="M32.844 30.904a7.711 7.711 0 00-1.952-7.554 7.71 7.71 0 00-7.554-1.952L19.24 17.3a.858.858 0 00-1.357.188l-6.996 12.498-7.295 7.295a3.345 3.345 0 00-.986 2.381c0 .9.35 1.745.986 2.38L12.2 50.65a3.356 3.356 0 002.38.985c.63 0 1.258-.176 1.807-.526l1.925 1.326a.86.86 0 10.974-1.415l-1.595-1.1 3.592-3.592 4.504 3.102.003.003.002.001 4.388 3.023a.594.594 0 01.259.441.596.596 0 01-.175.482l-2.725 2.725a.603.603 0 01-.768.07l-5.508-3.793a.86.86 0 10-.975 1.414l5.508 3.794a2.317 2.317 0 002.958-.27l2.725-2.725a2.314 2.314 0 00.67-1.853 2.317 2.317 0 00-.994-1.7l-3.725-2.566a7.11 7.11 0 00-.16-6.808l9.485-5.308a.86.86 0 00.188-1.357l-4.099-4.099zm-3.167-6.34a5.987 5.987 0 011.709 4.881l-6.59-6.588a5.985 5.985 0 014.881 1.708zM13.414 49.436l-8.607-8.608a1.638 1.638 0 01-.483-1.165c0-.44.172-.855.483-1.166l6.772-6.772 10.939 10.939-6.772 6.772a1.651 1.651 0 01-2.332 0zm12.587-1.944l-3.482-2.399 1.738-1.737 1.515-.848c.89 1.513.974 3.4.229 4.984zm-2.12-5.895L12.646 30.362l6.181-11.044 16.097 16.096-11.043 6.182z"/><path d="M12.31 36.1a.859.859 0 00-1.215 0l-3.888 3.888a.86.86 0 001.215 1.215l3.888-3.888a.859.859 0 000-1.215zm2.249 2.248a.86.86 0 00-1.215 0l-3.888 3.888a.86.86 0 001.215 1.215l3.888-3.888a.86.86 0 000-1.215zm2.247 2.248a.859.859 0 00-1.214 0l-3.888 3.888a.858.858 0 101.215 1.215l3.888-3.888a.859.859 0 000-1.215zM22.59 18.18a.859.859 0 00.856-.943c-.002-.031-.3-3.136-.112-6.39.225-3.915 1.08-6.44 2.345-6.927 1.265-.487 1.616-.052 2.458 1.868.642 1.463 1.44 3.283 3.563 3.283 2.084 0 3.36-1.938 4.594-3.813l.164-.249a.86.86 0 10-1.434-.947l-.165.251c-1.029 1.564-2.001 3.04-3.16 3.04-.9 0-1.316-.722-1.988-2.254-.683-1.558-1.714-3.911-4.649-2.782-2.036.783-3.163 3.54-3.444 8.432a48.223 48.223 0 00.119 6.655.859.859 0 00.854.776zm28.459 2.323c2.021-1.331 4.313-2.84 4.313-5.43 0-1.433-.726-2.458-2.156-3.046-1.088-.448-2.478-.596-3.822-.74-1.693-.18-3.444-.367-4.193-1.117-.749-.749-.936-2.5-1.117-4.193-.143-1.344-.291-2.733-.74-3.822C42.747.725 41.722 0 40.289 0c-1.349 0-2.566.64-3.72 1.955a.86.86 0 001.292 1.133c.83-.947 1.58-1.37 2.428-1.37 1.446 0 1.755 1.422 2.078 4.442.212 1.99.432 4.047 1.61 5.226 1.178 1.178 3.236 1.397 5.226 1.61 3.019.322 4.441.632 4.441 2.077 0 1.665-1.719 2.796-3.54 3.994-1.874 1.234-3.813 2.51-3.813 4.595 0 2.123 1.82 2.92 3.283 3.562 1.92.842 2.355 1.194 1.868 2.459-.374.973-1.972 1.72-4.498 2.102a.86.86 0 00.257 1.699c3.301-.5 5.213-1.542 5.845-3.185 1.128-2.934-1.225-3.966-2.782-4.648-1.533-.673-2.255-1.088-2.255-1.99 0-1.157 1.477-2.13 3.041-3.159zm-6.444 11.52c-3.28.196-6.449-.105-6.48-.108a.86.86 0 00-.167 1.71c.1.01 1.92.184 4.265.184.784 0 1.628-.02 2.485-.071a.86.86 0 00-.103-1.715zm-8.306-15.312v-2.464c0-.812-.256-1.427-.76-1.826-.445-.352-1.07-.53-1.857-.53-.794 0-1.421.178-1.863.53-.5.398-.754 1.012-.754 1.826v2.464c0 .814.254 1.429.754 1.826.442.352 1.069.53 1.863.53.787 0 1.412-.178 1.856-.53.505-.399.76-1.014.76-1.826zm-2.617.818c-.555 0-.836-.275-.836-.818v-2.464c0-.543.281-.818.836-.818.558 0 .853.283.853.818v2.464c0 .536-.295.818-.853.818z"/><path d="M40.64 11.18c-.34 0-.61.16-.742.441l-6.09 12.51a.785.785 0 00-.088.335c0 .451.396.934.986.934.346 0 .672-.181.793-.441l6.107-12.51a.765.765 0 00.071-.336c0-.558-.536-.934-1.038-.934zm-1.612 8.654v2.464c0 .814.254 1.429.755 1.826.441.352 1.069.53 1.862.53.788 0 1.413-.178 1.857-.53.505-.4.76-1.013.76-1.826v-2.464c0-.813-.255-1.427-.76-1.826-.444-.352-1.069-.53-1.857-.53-.793 0-1.42.178-1.863.53-.5.398-.754 1.012-.754 1.826zm3.47 2.464c0 .535-.294.818-.853.818-.554 0-.836-.275-.836-.818v-2.464c0-.543.282-.818.836-.818.559 0 .854.282.854.818v2.464z"/></g><defs><clipPath id="clip0"><path fill="#fff" d="M0 0h58v58H0z"/></clipPath></defs></svg>