<svg width="58" height="58" fill="none" xmlns="http://www.w3.org/2000/svg"><path d="M46.955 21.357h-3.651l1.1-12.632a.818.818 0 00.002-.068V8.65a.85.85 0 00-.512-.779l-.008-.003a.846.846 0 00-.058-.022l-.022-.007-.049-.013-.034-.008-.044-.007-.041-.006h-.007c-.015-.002-.03-.002-.045-.002l-.03-.002H26.17a.85.85 0 000 1.7h16.46l-1.69 19.413v.005l-.427 4.898H10.99l.494-5.097h5.621a.85.85 0 100-1.7H11.65l1.043-10.76h8.946a.85.85 0 100-1.7h-8.782l.49-5.06h9.425c.468 0 .85-.381.85-.849a.85.85 0 00-.85-.85H12.575a.85.85 0 00-.83.67l-.002.01-.01.064c0 .007-.002.013-.003.02v.004l-.58 5.991H.85a.85.85 0 100 1.7h10.134L9.942 27.02H6.91a.85.85 0 100 1.7h2.867l-.568 5.859v.002l-.878 9.06v.007c-.002.012-.001.023-.002.035l-.002.047v.002c0 .022.001.043.003.065l.001.02a.824.824 0 00.01.066l.003.019.012.048.009.033.003.01a.85.85 0 00.202.332l.005.005c.009.01.019.017.028.026.059.054.125.1.198.135l.045.022.014.005a.894.894 0 00.065.024l.006.001a.89.89 0 00.076.02l.01.001a.843.843 0 00.16.016h3.783c.418 3.166 3.133 5.619 6.412 5.619s5.993-2.453 6.411-5.62h13.628c.417 3.167 3.132 5.62 6.411 5.62 3.279 0 5.994-2.453 6.411-5.62h3.787a.86.86 0 00.083-.004l.015-.002a.83.83 0 00.066-.01l.027-.006a.908.908 0 00.05-.013l.032-.011a.902.902 0 00.042-.015l.034-.015a.972.972 0 00.137-.078l.034-.026.028-.022a.817.817 0 00.034-.03l.023-.023a.874.874 0 00.034-.037l.018-.021a.876.876 0 00.035-.047l.012-.017a.845.845 0 00.04-.064l.001-.004a.838.838 0 00.036-.072l.008-.022a.846.846 0 00.02-.053l.009-.036.01-.043.008-.039.005-.034c.036-.289.702-5.626.999-9.078v-.01c.086-.995.141-1.833.141-2.346 0-6.09-4.955-11.045-11.045-11.045zm-3.8 1.699h3.476l-.444 5.097h-3.475l.444-5.097zM19.373 48.499c-2.63 0-4.77-2.14-4.77-4.77 0-2.63 2.14-4.769 4.77-4.769 2.63 0 4.77 2.14 4.77 4.77 0 2.63-2.14 4.77-4.77 4.77zm26.45 0c-2.63 0-4.77-2.14-4.77-4.77 0-2.63 2.14-4.769 4.77-4.769 2.63 0 4.77 2.14 4.77 4.77 0 2.63-2.14 4.77-4.77 4.77zm9.444-5.62h-3.032c-.418-3.166-3.133-5.619-6.412-5.619s-5.994 2.453-6.411 5.62H25.783c-.417-3.167-3.132-5.62-6.41-5.62-3.28 0-5.995 2.453-6.412 5.62h-2.849l.714-7.364h30.466a.843.843 0 00.085-.004l.015-.002a.854.854 0 00.066-.01l.028-.007.05-.013.034-.012.042-.015a.688.688 0 00.072-.034 1.062 1.062 0 00.07-.04l.031-.022a.853.853 0 00.15-.136l.021-.026a.987.987 0 00.07-.104l.018-.03.02-.041.014-.033.015-.041c.004-.012.009-.024.012-.037l.01-.04a.292.292 0 00.01-.04l.006-.04.006-.043.001-.006.426-4.888h4.39c2.604 0 3.778 1.349 5.02 2.777 1.026 1.178 2.171 2.492 4.117 2.813a316.16 316.16 0 01-.825 7.438zm.97-9.14c-1.262-.257-2.039-1.144-2.98-2.225-1.177-1.352-2.613-3.002-5.367-3.31l.439-5.046c4.505.666 7.973 4.557 7.973 9.244 0 .318-.024.78-.064 1.338z" fill="#0278AE"/><path d="M19.372 40.614a3.119 3.119 0 00-3.115 3.116 3.119 3.119 0 003.115 3.115 3.119 3.119 0 003.115-3.115 3.119 3.119 0 00-3.115-3.116zm0 4.532c-.78 0-1.416-.636-1.416-1.416 0-.781.635-1.416 1.416-1.416.78 0 1.416.635 1.416 1.416 0 .78-.635 1.416-1.416 1.416zm26.45-4.532a3.119 3.119 0 00-3.115 3.116 3.119 3.119 0 003.115 3.115 3.119 3.119 0 003.115-3.115 3.119 3.119 0 00-3.115-3.116zm0 4.532c-.78 0-1.416-.636-1.416-1.416 0-.781.635-1.416 1.416-1.416.78 0 1.416.635 1.416 1.416 0 .78-.635 1.416-1.416 1.416zM8.043 21.357H3.889a.85.85 0 100 1.699h4.154a.85.85 0 100-1.7z" fill="#0278AE"/></svg>