<svg width="58" height="58" fill="none" xmlns="http://www.w3.org/2000/svg"><g clip-path="url(#clip0)" fill="#0278AE"><path d="M37.487 4.573a.848.848 0 00-1.224.274l-.02.029a.863.863 0 01-1.2.212.85.85 0 00-1.183.208l-1.238 1.769a.85.85 0 001.392.974l.834-1.191c.783.218 1.634.05 2.276-.456l1.253.878a.85.85 0 00.974-1.392l-1.864-1.305zm9.396 10.702l-.834 1.191a.85.85 0 001.392.975l1.238-1.768a.85.85 0 00-.208-1.184.863.863 0 01-.212-1.2c.007-.01.013-.02.02-.028a.85.85 0 00-.161-1.244l-1.864-1.305a.85.85 0 00-.975 1.392l1.253.877a2.572 2.572 0 00.351 2.294zm-4.509 19.088c.404 0 .779.161 1.056.455a.85.85 0 001.235-1.167 3.164 3.164 0 00-2.29-.988 3.154 3.154 0 00-3.15 3.151 3.154 3.154 0 003.15 3.15c.841 0 1.632-.327 2.227-.922A.85.85 0 1043.4 36.84a1.453 1.453 0 01-2.477-1.026c0-.8.65-1.451 1.45-1.451z"/><path d="M49.939 29.83v-6.805c0-2.31-1.88-4.19-4.19-4.19H41.24c.264-2.279-.48-4.282-2.05-5.381-1.328-.93-3.05-1.098-4.849-.47-1.7.593-3.28 1.84-4.45 3.511a10.19 10.19 0 00-1.23 2.34h-5.532l11.89-16.98 16.497 11.552-2.513 3.59a.85.85 0 101.392.974l2.74-3.913a1.305 1.305 0 00-.32-1.816L35.67.237a1.295 1.295 0 00-.974-.217c-.343.06-.642.25-.842.536L29.92 6.173V2.786c0-.72-.585-1.304-1.304-1.304H8.24c-.72 0-1.304.585-1.304 1.304v4.65a.85.85 0 101.7 0V3.182h2.46v15.653h-2.26c-.067 0-.134.002-.2.005v-8.004a.85.85 0 10-1.7 0v8.455a4.195 4.195 0 00-2.29 3.735v25.578c0 2.31 1.88 4.19 4.19 4.19h6.343a.85.85 0 100-1.699H8.835a2.494 2.494 0 01-2.491-2.49v-25.58a2.495 2.495 0 012.491-2.49H45.75a2.494 2.494 0 012.491 2.49v6.688h-6.083a6.11 6.11 0 00-6.102 6.102 6.11 6.11 0 006.102 6.102h6.083v6.688a2.494 2.494 0 01-2.491 2.49h-6.492a.85.85 0 100 1.7h6.492c2.31 0 4.19-1.88 4.19-4.19V41.8a4.372 4.372 0 003.357-4.247v-3.475a4.373 4.373 0 00-3.357-4.248zM31.282 17.47c1.938-2.767 5.049-3.944 6.935-2.624 1.086.76 1.564 2.253 1.31 3.988h-9.03c.215-.47.477-.925.785-1.363zm-3.06-8.87l-7.167 10.234H16.87V3.181h11.353v5.418zM12.795 3.18h2.374v15.654h-2.374V3.18zm38.801 34.371a2.668 2.668 0 01-2.666 2.666h-6.773a4.408 4.408 0 01-4.403-4.403 4.408 4.408 0 014.403-4.403h6.773a2.669 2.669 0 012.666 2.666v3.474z"/><path d="M27.291 37.47c-5.66 0-10.264 4.605-10.264 10.266 0 5.66 4.605 10.264 10.264 10.264 5.66 0 10.265-4.605 10.265-10.264 0-5.66-4.604-10.265-10.264-10.265zm0 18.83c-4.722 0-8.565-3.841-8.565-8.564 0-4.724 3.843-8.566 8.566-8.566 4.723 0 8.565 3.842 8.565 8.566 0 4.723-3.842 8.565-8.566 8.565z"/><path d="M28.016 46.886h-1.449a.775.775 0 010-1.549h2.773a.85.85 0 000-1.699h-1.043v-.718a.85.85 0 00-1.699 0v.718h-.03a2.477 2.477 0 00-2.475 2.474 2.477 2.477 0 002.474 2.473h1.45a.775.775 0 010 1.548h-2.774a.85.85 0 100 1.7h1.355v.718a.85.85 0 001.7 0v-.734a2.478 2.478 0 002.192-2.458 2.476 2.476 0 00-2.474-2.473z"/></g><defs><clipPath id="clip0"><path fill="#fff" d="M0 0h58v58H0z"/></clipPath></defs></svg>