<svg width="58" height="58" fill="none" xmlns="http://www.w3.org/2000/svg"><g clip-path="url(#clip0)" fill="#0278AE"><path d="M9.528 33.222a.849.849 0 00-1.193 0L5.62 35.904a.849.849 0 101.193 1.208l1.27-1.254V41.3a.849.849 0 101.697 0v-5.44l1.27 1.253a.849.849 0 101.193-1.208l-2.715-2.682zm8.103 8.927a.85.85 0 00.85-.85v-5.44l1.269 1.253a.849.849 0 101.193-1.208l-2.715-2.681a.849.849 0 00-1.193 0l-2.716 2.681a.85.85 0 101.194 1.208l1.27-1.254V41.3c0 .469.38.849.848.849zm-9.549 3.059c0 .47.38.85.85.85h8.7a.85.85 0 100-1.699h-8.7a.85.85 0 00-.85.85zM32.035 34.25l.971.946a.849.849 0 101.184-1.217l-.97-.946a3.46 3.46 0 00-4.887.066c-.522.606-.974.8-.967 1.35.003.225.095.44.257.597l3.798 3.697-3.798 3.698a.849.849 0 00-.017 1.2l.726.746a3.455 3.455 0 004.887.066l3.898-3.794a2.686 2.686 0 00.645-2.841c-.298-.818-.874-1.167-1.34-1.668a.85.85 0 00-1.185 1.217c.554.567.816.72.93 1.032a.973.973 0 01-.234 1.043l-3.898 3.795a1.757 1.757 0 01-2.486-.034l-.134-.138 3.816-3.713a.849.849 0 000-1.217l-3.816-3.714.134-.137a1.76 1.76 0 012.486-.034z"/><path d="M43.699 16.77h-.242V9.568a2.299 2.299 0 00-2.296-2.297H2.296A2.299 2.299 0 000 9.568v8.05a.849.849 0 101.698 0v-8.05c0-.33.268-.598.598-.598h15.149v5.157c0 .944.768 1.711 1.711 1.711h5.145c.943 0 1.711-.767 1.711-1.71v-5.16h15.149a.6.6 0 01.598.599v7.202h-3.026a.849.849 0 100 1.698H43.7c6.91 0 12.563 5.555 12.603 12.384.04 6.902-5.553 12.53-12.457 12.53h-.388v-6.51h.388c3.224 0 5.891-2.621 5.947-5.844.057-3.378-2.764-6.05-6.038-6.05H31.06c-.78 0-1.413.633-1.413 1.411v1.247l-6.122-5.91 6.122-5.91v1.24c0 .778.634 1.412 1.413 1.412h4.279a.849.849 0 100-1.698h-3.993v-2.28a1.133 1.133 0 00-1.923-.817L22.08 20.76a1.35 1.35 0 00-.41.966c0 .362.15.714.41.966l7.343 7.087a1.133 1.133 0 001.923-.817v-2.287h10.413V48.3a.73.73 0 01-.73.73h-38.6a.731.731 0 01-.73-.73V21.014a.849.849 0 10-1.699 0V48.3a2.431 2.431 0 002.428 2.428h38.6a2.431 2.431 0 002.429-2.428v-3.22h.388c7.845 0 14.2-6.392 14.155-14.238-.045-7.76-6.46-14.072-14.301-14.072zm-19.385-2.643a.013.013 0 01-.013.013h-5.145a.013.013 0 01-.013-.013V8.97h5.17v5.158h.001zm19.44 12.548c2.363 0 4.381 1.93 4.34 4.324-.04 2.302-1.946 4.175-4.249 4.175h-.388v-8.499h.298z"/></g><defs><clipPath id="clip0"><path fill="#fff" d="M0 0h58v58H0z"/></clipPath></defs></svg>