<svg width="58" height="58" fill="none" xmlns="http://www.w3.org/2000/svg"><g clip-path="url(#clip0)" fill="#0278AE"><path d="M50.373 19.32c-.458-.682-.89-1.326-1.052-1.933-.173-.647-.121-1.446-.066-2.291.081-1.262.166-2.568-.479-3.682-.655-1.133-1.838-1.713-2.982-2.275-.75-.37-1.46-.718-1.922-1.179-.46-.46-.81-1.17-1.178-1.922-.562-1.144-1.143-2.326-2.275-2.981-1.115-.645-2.42-.56-3.682-.479-.846.055-1.644.107-2.292-.066-.607-.163-1.25-.595-1.932-1.052C31.495.776 30.34 0 29 0c-1.34 0-2.495.776-3.514 1.46-.68.457-1.324.89-1.931 1.052-.648.173-1.447.121-2.292.066-1.262-.082-2.567-.166-3.682.479-1.132.655-1.713 1.837-2.275 2.981-.369.751-.717 1.461-1.178 1.922-.461.461-1.171.81-1.923 1.179-1.143.562-2.326 1.142-2.981 2.275-.645 1.114-.56 2.42-.479 3.682.055.845.107 1.644-.066 2.291-.162.607-.594 1.25-1.052 1.932-.684 1.02-1.46 2.174-1.46 3.514 0 1.34.776 2.494 1.46 3.513.458.681.89 1.325 1.052 1.932.173.648.121 1.446.066 2.292-.081 1.262-.166 2.567.479 3.682.655 1.132 1.838 1.713 2.981 2.274.752.37 1.462.718 1.923 1.18.46.46.81 1.17 1.178 1.921.562 1.144 1.143 2.327 2.275 2.982 1.115.645 2.42.56 3.682.478.246-.016.487-.03.723-.04v13.176c0 .624.317 1.19.85 1.515a1.77 1.77 0 001.735.065l4.392-2.252a.08.08 0 01.073 0l4.393 2.252c.554.284 1.203.26 1.735-.065s.85-.892.85-1.515v-5.207a.848.848 0 10-1.695 0v5.207c0 .013 0 .045-.039.068-.038.024-.066.01-.078.003l-4.392-2.252a1.781 1.781 0 00-1.62 0l-4.393 2.252a.073.073 0 01-.078-.003c-.038-.023-.038-.055-.038-.068v-13.03c.57.185 1.17.587 1.805 1.013 1.019.684 2.174 1.46 3.514 1.46 1.34 0 2.494-.776 3.513-1.46.635-.426 1.236-.828 1.806-1.012v3.9a.848.848 0 101.695 0v-4.048c.235.01.477.025.723.041 1.262.082 2.567.167 3.682-.478 1.132-.655 1.713-1.838 2.274-2.982.37-.751.718-1.46 1.18-1.922.46-.461 1.17-.81 1.921-1.179 1.144-.561 2.327-1.142 2.982-2.274.645-1.115.56-2.42.478-3.683-.055-.845-.106-1.643.067-2.291.162-.607.594-1.25 1.052-1.932.684-1.019 1.46-2.174 1.46-3.513 0-1.34-.776-2.495-1.46-3.514zm-1.407 6.08c-.515.767-1.048 1.56-1.283 2.44-.245.916-.182 1.893-.12 2.838.068 1.056.133 2.054-.254 2.724-.398.686-1.303 1.13-2.262 1.602-.842.413-1.713.841-2.373 1.501-.66.66-1.088 1.532-1.502 2.374-.47.959-.915 1.864-1.602 2.261-.67.388-1.667.323-2.723.255-.945-.062-1.922-.125-2.84.12-.88.235-1.672.767-2.439 1.282-.897.603-1.744 1.172-2.568 1.172-.824 0-1.671-.57-2.568-1.172-.767-.515-1.56-1.047-2.44-1.282-.503-.135-1.025-.176-1.55-.176-.43 0-.863.028-1.289.055-1.056.069-2.054.134-2.723-.254-.687-.397-1.131-1.302-1.602-2.26-.414-.843-.842-1.715-1.502-2.375-.66-.66-1.53-1.087-2.373-1.501-.96-.471-1.865-.916-2.262-1.602-.387-.67-.322-1.667-.254-2.723.061-.945.125-1.923-.12-2.84-.236-.88-.768-1.672-1.283-2.439-.602-.897-1.172-1.745-1.172-2.568 0-.824.57-1.671 1.172-2.568.515-.767 1.047-1.56 1.283-2.44.245-.917.181-1.894.12-2.839-.068-1.056-.133-2.054.254-2.723.397-.687 1.303-1.131 2.262-1.602.842-.414 1.713-.842 2.373-1.502.66-.66 1.088-1.53 1.502-2.373.47-.959.915-1.865 1.602-2.262.67-.387 1.667-.322 2.723-.254.945.061 1.922.125 2.84-.12.88-.235 1.672-.768 2.438-1.283.898-.603 1.745-1.172 2.569-1.172.824 0 1.671.57 2.568 1.172.767.515 1.56 1.047 2.44 1.282.916.246 1.894.182 2.839.12 1.056-.068 2.053-.132 2.723.255.687.397 1.131 1.303 1.602 2.261.414.843.842 1.714 1.502 2.374.66.66 1.53 1.088 2.373 1.502.959.47 1.865.915 2.262 1.601.387.67.322 1.668.254 2.724-.062.945-.125 1.922.12 2.84.235.879.768 1.672 1.283 2.438.602.898 1.171 1.745 1.171 2.569 0 .823-.569 1.67-1.172 2.568z"/><path d="M29 6.658c-2.829 0-5.613.742-8.051 2.144a.848.848 0 10.845 1.47A14.473 14.473 0 0129 8.354c7.984 0 14.479 6.495 14.479 14.479 0 7.983-6.495 14.478-14.479 14.478-7.984 0-14.479-6.495-14.479-14.478a14.38 14.38 0 014.236-10.234l.112-.11a.847.847 0 10-1.19-1.208l-.116.115a16.068 16.068 0 00-4.737 11.437c0 8.918 7.256 16.174 16.174 16.174 8.919 0 16.174-7.256 16.174-16.174 0-8.919-7.256-16.175-16.174-16.175z"/><path d="M18.45 26.962c.469 0 .848-.38.848-.847V19.55a.848.848 0 00-.847-.848h-1.403a.848.848 0 100 1.695h.555v5.717c0 .468.38.847.848.847zm20.745-8.715a.848.848 0 00-1.11.454l-3.192 7.607a.848.848 0 001.563.657l3.193-7.608a.848.848 0 00-.454-1.11zm-4.48 2.749a1.125 1.125 0 100-2.25 1.125 1.125 0 000 2.25zM40 26.91a1.125 1.125 0 10-.36-2.221 1.125 1.125 0 00.36 2.22zm-16.967.186a2.749 2.749 0 002.746-2.746v-3.035a2.749 2.749 0 00-2.746-2.746 2.749 2.749 0 00-2.746 2.746v3.035a2.749 2.749 0 002.746 2.746zm-1.05-5.781a1.051 1.051 0 012.1 0v3.035a1.05 1.05 0 11-2.1 0v-3.035zm10.333 3.035v-3.035a2.749 2.749 0 00-2.746-2.746 2.749 2.749 0 00-2.746 2.746v3.035a2.749 2.749 0 002.746 2.746 2.749 2.749 0 002.745-2.746zm-3.797 0v-3.035a1.051 1.051 0 012.101 0v3.035a1.052 1.052 0 01-2.1 0z"/></g><defs><clipPath id="clip0"><path fill="#fff" d="M0 0h58v58H0z"/></clipPath></defs></svg>