<svg width="18" height="13" fill="none" xmlns="http://www.w3.org/2000/svg"><path d="M17.713 4.913c0-.388-.065-.84-.065-1.357a88.45 88.45 0 00-.194-1.487c-.129-.517-.323-.905-.71-1.229-.324-.323-.776-.517-1.229-.581C14.028.065 11.83 0 8.857 0 5.883 0 3.62.065 2.198.259 1.745.323 1.293.517.97.84a2.58 2.58 0 00-.711 1.23c-.13.452-.194.905-.194 1.487C0 4.073 0 4.526 0 4.913v2.974c0 .388.065.84.065 1.357.064.518.129 1.035.194 1.487.129.518.323.905.71 1.229.324.323.776.517 1.229.581 1.487.194 3.685.259 6.659.259 2.973 0 5.236-.065 6.658-.259.453-.064.905-.258 1.228-.581.324-.324.582-.712.712-1.229a5.19 5.19 0 00.194-1.487c.064-.517.064-.97.064-1.357V4.913zm-5.43 2.004l-5.107 3.168a.494.494 0 01-.323.13c-.13 0-.194 0-.324-.066a.679.679 0 01-.323-.581v-6.4a.68.68 0 01.323-.582.587.587 0 01.647 0l5.107 3.168c.194.129.323.323.323.517s-.13.517-.323.646z" fill="#fff"/></svg>