<svg version="1.1" id="Ebene_1" xmlns="http://www.w3.org/2000/svg" x="0" y="0" viewBox="0 0 346.1 83.1" xml:space="preserve"><style>.st6{fill:#1d1e1b}</style><g id="Gruppe_109" transform="translate(90.412 36.587)"><path id="Pfad_85" class="st6" d="M13.8 12c.5.7.8 1.5.8 2.4.1 1.1-.5 2.2-1.4 2.9-1.2.8-2.7 1.1-4.1 1H2.3V3.6h6.4c1.3-.1 2.7.3 3.8 1 .9.6 1.4 1.7 1.4 2.8 0 .7-.2 1.5-.6 2.1-.4.6-1 1-1.7 1.3.8.1 1.6.6 2.2 1.2zm-10-7.1v5.4h4.7c1 .1 1.9-.2 2.8-.7 1.1-.9 1.3-2.5.4-3.6-.1-.2-.3-.3-.4-.4-.8-.5-1.8-.7-2.8-.7H3.8zM12 16.4c.7-.5 1.1-1.3 1-2.1 0-1.8-1.3-2.8-4-2.8H3.8V17H9c1.1.2 2.1-.1 3-.6z"/><path id="Pfad_86" class="st6" d="M27.7 7.3v11.1h-1.4v-2c-.4.7-.9 1.2-1.6 1.6-.7.4-1.5.6-2.4.6-2.4.2-4.5-1.5-4.7-3.9V7.3h1.5v6.3c-.1 1 .2 1.9.9 2.7.7.6 1.6 1 2.5.9 1 .1 2-.3 2.8-1.1.7-.8 1.1-1.9 1-3V7.3h1.4z"/><path id="Pfad_87" class="st6" d="M40.4 8.4c.9 1 1.3 2.2 1.2 3.5v6.4h-1.5V12c.1-1-.2-1.9-.9-2.6-.7-.6-1.6-1-2.5-.9-1.1-.1-2.1.3-2.8 1.1-.7.8-1.1 1.9-1 2.9v5.8h-1.5v-11h1.4v2c.4-.7 1-1.2 1.7-1.6.8-.4 1.6-.6 2.5-.6 1.3.1 2.5.5 3.4 1.3z"/><path id="Pfad_88" class="st6" d="M55.6 2.7v15.6h-1.4v-2.2c-.4.7-1 1.3-1.8 1.7-.8.4-1.6.6-2.5.6-1 0-2-.2-2.8-.7-.8-.5-1.5-1.2-2-2-1-1.8-1-4 0-5.9.5-.8 1.1-1.5 2-2 .9-.5 1.8-.7 2.8-.7.8 0 1.7.2 2.4.6.7.4 1.3.9 1.8 1.6V2.8l1.5-.1zm-3.5 13.9c.6-.4 1.1-.9 1.5-1.5.7-1.4.7-3.1 0-4.5-.3-.6-.8-1.2-1.5-1.5-1.3-.7-2.9-.7-4.2 0-.6.4-1.1.9-1.5 1.5-.7 1.4-.7 3.1 0 4.5.3.6.8 1.2 1.5 1.5.6.4 1.4.6 2.1.5.7.1 1.4-.1 2.1-.5z"/><path id="Pfad_89" class="st6" d="M69.2 13.3h-9.3c0 1.1.5 2.1 1.3 2.8.8.7 1.9 1.1 3 1.1.7 0 1.3-.1 1.9-.4.6-.2 1.1-.6 1.5-1.1l.8 1c-.5.6-1.1 1.1-1.8 1.3-.8.3-1.6.5-2.4.5-1.1 0-2.1-.2-3-.7-.9-.5-1.6-1.2-2.1-2-.5-.9-.8-1.9-.7-2.9 0-1 .2-2 .7-2.9.4-.8 1.1-1.5 1.9-2 1.7-1 3.8-1 5.5 0 .8.5 1.5 1.2 1.9 2 .5.9.7 1.9.7 2.9l.1.4zm-8-3.8c-.7.7-1.2 1.7-1.2 2.7h7.9c-.1-1-.5-2-1.2-2.7-1.7-1.3-4-1.3-5.5 0z"/><path id="Pfad_90" class="st6" d="M72.7 18.1c-.7-.2-1.4-.5-1.9-1l.7-1.2c.5.4 1.1.7 1.8.9.7.2 1.4.3 2.2.3.8.1 1.6-.1 2.2-.5.5-.3.7-.8.7-1.3 0-.4-.1-.7-.4-1-.3-.2-.6-.4-1-.5-.5-.1-1.1-.3-1.6-.3-.7-.1-1.5-.3-2.2-.5-.5-.2-1-.5-1.4-.9-.4-.5-.6-1.1-.6-1.8 0-.9.4-1.8 1.2-2.3.9-.6 2.1-1 3.2-.9.7 0 1.4.1 2.2.3.6.2 1.2.4 1.8.7l-.7 1.2c-1-.6-2.1-1-3.3-.9-.8.1-1.6.2-2.2.6-.5.3-.7.8-.7 1.3 0 .4.1.8.4 1 .3.3.6.5 1 .6.6.2 1.1.3 1.7.4.7.1 1.4.3 2.1.5.5.2 1 .5 1.4.9.4.5.6 1.1.6 1.7 0 .9-.4 1.8-1.2 2.3-1 .6-2.2.9-3.4.9-.9-.1-1.8-.2-2.6-.5z"/><path id="Pfad_91" class="st6" d="M92.2 7.3l-4.9 11.1h-1.5l-5-11.1h1.6l4.2 9.4 4.2-9.4h1.4z"/><path id="Pfad_92" class="st6" d="M103.6 13.3h-9.3c0 1.1.5 2.1 1.3 2.8.8.7 1.9 1.1 3 1.1.7 0 1.3-.1 1.9-.4.6-.2 1.1-.6 1.5-1.1l.8 1c-.5.6-1.1 1.1-1.8 1.3-.8.3-1.6.5-2.4.5-1.1 0-2.1-.2-3-.7-.9-.5-1.6-1.2-2.1-2-.5-.9-.8-1.9-.7-2.9 0-1 .2-2 .7-2.9.4-.8 1.1-1.5 1.9-2 1.7-1 3.8-1 5.5 0 .8.5 1.5 1.2 1.9 2 .5.9.7 1.9.7 2.9l.1.4zm-8-3.8c-.7.7-1.2 1.7-1.2 2.7h7.9c-.1-1-.5-2-1.2-2.7-1.6-1.3-4-1.3-5.5 0z"/><path id="Pfad_93" class="st6" d="M109.4 7.8c.8-.4 1.7-.6 2.6-.6v1.5h-.4c-1-.1-2 .3-2.7 1.1-.7.8-1.1 1.9-1 3v5.7h-1.5V7.3h1.4v2.2c.4-.7.9-1.3 1.6-1.7z"/><path id="Pfad_94" class="st6" d="M123 7.9c.8.5 1.5 1.2 2 2 1 1.8 1 4 0 5.9-.5.8-1.1 1.5-2 2-.9.5-1.8.7-2.8.7-.9 0-1.7-.2-2.5-.6-.7-.4-1.4-1-1.8-1.7v2.2h-1.4V2.7h1.5v6.7c.4-.7 1.1-1.3 1.8-1.6.8-.4 1.6-.6 2.4-.6.9 0 1.9.2 2.8.7zm-.8 8.7c.6-.4 1.1-.9 1.5-1.5.7-1.4.7-3.1 0-4.5-.3-.6-.9-1.2-1.5-1.5-1.3-.7-2.9-.7-4.2 0-.6.4-1.1.9-1.5 1.5-.7 1.4-.7 3.1 0 4.5.3.6.8 1.2 1.5 1.5 1.3.7 2.8.7 4.2 0z"/><path id="Pfad_95" class="st6" d="M135.8 8.3c.8.9 1.2 2 1.2 3.2v6.9h-1.4v-1.7c-.4.6-.9 1.1-1.5 1.3-.7.3-1.5.5-2.3.5-1.1.1-2.1-.3-2.9-.9-.7-.6-1.1-1.4-1.1-2.3 0-.9.3-1.7 1-2.3 1-.7 2.1-1 3.3-.9h3.5v-.7c.1-.8-.2-1.6-.8-2.2-.7-.5-1.5-.8-2.3-.7-.7 0-1.4.1-2 .3-.6.2-1.2.5-1.7 1l-.7-1.1c.6-.5 1.3-.9 2-1.1.8-.3 1.6-.4 2.5-.4 1-.1 2.2.3 3.2 1.1zm-1.7 8.4c.6-.4 1.1-1 1.3-1.7v-1.8H132c-1.9 0-2.8.7-2.8 2 0 .6.3 1.2.7 1.5.6.4 1.3.6 2.1.6.7 0 1.4-.2 2.1-.6z"/><path id="Pfad_96" class="st6" d="M149.6 8.4c.9 1 1.3 2.2 1.2 3.5v6.4h-1.5V12c.1-1-.2-1.9-.9-2.6-.7-.6-1.6-1-2.5-.9-1.1-.1-2.1.3-2.8 1.1-.7.8-1.1 1.9-1 2.9v5.8h-1.5v-11h1.4v2c.4-.7 1-1.2 1.7-1.6.8-.4 1.6-.6 2.5-.6 1.3.1 2.5.5 3.4 1.3z"/><path id="Pfad_97" class="st6" d="M164.8 2.7v15.6h-1.4v-2.2c-.4.7-1 1.3-1.8 1.7-.8.4-1.6.6-2.5.6-1 0-2-.2-2.8-.7-.8-.5-1.5-1.2-2-2-1-1.8-1-4 0-5.9.5-.8 1.1-1.5 2-2 .9-.5 1.8-.7 2.8-.7.8 0 1.7.2 2.4.6.7.4 1.3.9 1.8 1.6V2.8l1.5-.1zm-3.5 13.9c.6-.4 1.1-.9 1.5-1.5.7-1.4.7-3.1 0-4.5-.3-.6-.8-1.2-1.5-1.5-1.3-.7-2.9-.7-4.2 0-.6.4-1.1.9-1.5 1.5-.7 1.4-.7 3.1 0 4.5.3.6.8 1.2 1.5 1.5.6.4 1.4.6 2.1.5.7.1 1.5-.1 2.1-.5z"/></g><g id="Gruppe_110" transform="translate(90.412 61.879)"><path id="Pfad_98" class="st6" d="M2.3 3.6h6c1.4 0 2.9.3 4.1.9 1.2.6 2.1 1.5 2.8 2.6 1.3 2.4 1.3 5.3 0 7.7-.7 1.1-1.6 2-2.8 2.6-1.3.6-2.7 1-4.1.9h-6V3.6zM8.2 17c1.2 0 2.3-.2 3.4-.8.9-.5 1.7-1.2 2.3-2.1.5-1 .8-2 .8-3.1s-.3-2.2-.8-3.1c-.5-.9-1.3-1.6-2.3-2.1-1-.5-2.2-.8-3.4-.8H3.8v12h4.4z"/><path id="Pfad_99" class="st6" d="M29.1 13.3h-9.3c0 1.1.5 2.1 1.3 2.8.8.7 1.9 1.1 3 1.1.7 0 1.3-.1 1.9-.4.6-.2 1.1-.6 1.5-1.1l.8 1c-.5.6-1.1 1.1-1.8 1.3-.8.3-1.6.5-2.4.5-1.1 0-2.1-.2-3-.7-.9-.5-1.6-1.2-2.1-2-.5-.9-.8-1.9-.7-2.9 0-1 .2-2 .7-2.9.4-.8 1.1-1.5 1.9-2 1.7-1 3.8-1 5.5 0 .8.5 1.5 1.2 1.9 2 .5.9.7 1.9.7 2.9l.1.4zM21 9.5c-.7.7-1.2 1.7-1.2 2.7h7.9c-.1-1-.5-2-1.2-2.7-.7-.7-1.7-1.1-2.7-1-1.1 0-2 .3-2.8 1z"/><path id="Pfad_100" class="st6" d="M41.8 7.3v11.1h-1.4v-2c-.4.7-.9 1.2-1.6 1.6-.7.4-1.5.6-2.4.6-2.4.2-4.5-1.5-4.7-3.9V7.3h1.5v6.3c-.1 1 .2 1.9.9 2.7.7.6 1.6 1 2.5.9 1 .1 2-.3 2.8-1.1.7-.8 1.1-1.9 1-3V7.3h1.4z"/><path id="Pfad_101" class="st6" d="M51.6 17.7c-.3.3-.7.5-1 .6-.4.1-.9.2-1.3.2-.9.1-1.7-.2-2.4-.8-.6-.7-.9-1.6-.9-2.4V8.6h-2V7.3h2V4.9h1.5v2.4h3.4v1.3h-3.4v6.6c0 .5.1 1.1.5 1.5.4.4.9.6 1.4.5.3 0 .6 0 .9-.2.3-.1.5-.2.7-.4l.6 1.1z"/><path id="Pfad_102" class="st6" d="M55.1 18.1c-.7-.2-1.4-.5-1.9-1l.7-1.2c.5.4 1.1.7 1.8.9.7.2 1.4.3 2.2.3.8.1 1.6-.1 2.2-.5.5-.3.7-.8.7-1.3 0-.4-.1-.7-.4-1-.3-.2-.6-.4-1-.5-.5-.1-1.1-.3-1.6-.3-.7-.1-1.5-.3-2.2-.5-.5-.2-1-.5-1.4-.9-.4-.5-.6-1.1-.6-1.8 0-.9.4-1.8 1.2-2.3.9-.6 2.1-1 3.2-.9.7 0 1.4.1 2.2.3.6.2 1.2.4 1.8.7l-.7 1.2c-1-.6-2.1-1-3.3-.9-.8-.1-1.5.1-2.2.5-.5.4-.8.9-.8 1.4 0 .4.1.8.4 1 .3.3.6.5 1 .6.6.2 1.1.3 1.7.4.7.1 1.4.3 2.1.5.5.2 1 .5 1.4.9.4.5.6 1.1.6 1.7 0 .9-.4 1.8-1.2 2.3-1 .6-2.2.9-3.4.9-.8-.1-1.7-.2-2.5-.5z"/><path id="Pfad_103" class="st6" d="M66.7 17.8c-.9-.5-1.6-1.2-2-2-.5-.9-.8-1.9-.7-2.9 0-1 .2-2 .7-2.9.5-.8 1.2-1.5 2-2 .9-.5 1.9-.7 2.9-.7.9 0 1.8.2 2.6.6.7.4 1.4.9 1.8 1.6l-1.1.8c-.3-.5-.8-1-1.4-1.2-.6-.3-1.2-.4-1.8-.4-.8 0-1.5.2-2.2.5-.6.4-1.2.9-1.5 1.5-.7 1.4-.7 3.1 0 4.5.3.6.9 1.2 1.5 1.5.7.4 1.4.6 2.2.5.6 0 1.3-.1 1.8-.4.6-.3 1.1-.7 1.4-1.2l1.1.8c-.4.7-1 1.3-1.8 1.6-.8.4-1.7.6-2.6.6-1-.1-2-.3-2.9-.8z"/><path id="Pfad_104" class="st6" d="M85.5 8.4c.9 1 1.3 2.2 1.2 3.5v6.4h-1.5V12c.1-1-.2-1.9-.9-2.6-.7-.6-1.6-1-2.5-.9-1.1-.1-2.1.3-2.8 1.1-.7.8-1.1 1.9-1 2.9v5.8h-1.5V2.7H78v6.5c.4-.6 1-1.2 1.7-1.5.8-.4 1.6-.5 2.5-.5 1.2 0 2.4.4 3.3 1.2z"/><path id="Pfad_105" class="st6" d="M100.3 13.3H91c0 1.1.5 2.1 1.3 2.8.8.7 1.9 1.1 3 1.1.7 0 1.3-.1 1.9-.4.6-.2 1.1-.6 1.5-1.1l.8 1c-.5.6-1.1 1.1-1.8 1.3-.8.3-1.6.5-2.4.5-1.1 0-2.1-.2-3-.7-.9-.5-1.6-1.2-2.1-2-.5-.9-.8-1.9-.7-2.9 0-1 .2-2 .7-2.9.4-.8 1.1-1.5 1.9-2 1.7-1 3.8-1 5.5 0 .8.5 1.5 1.2 1.9 2 .5.9.7 1.9.7 2.9l.1.4zm-8.1-3.8c-.7.7-1.2 1.7-1.2 2.7h7.9c-.1-1-.5-2-1.2-2.7-1.6-1.3-3.9-1.3-5.5 0z"/><path id="Pfad_106" class="st6" d="M106.1 7.8c.8-.4 1.7-.6 2.6-.6v1.5h-.4c-1-.1-2 .3-2.7 1.1-.7.8-1.1 1.9-1 3v5.7h-1.5V7.3h1.4v2.2c.3-.7.9-1.3 1.6-1.7z"/><path id="Pfad_107" class="st6" d="M128.9 12c.5.7.8 1.5.8 2.4.1 1.1-.5 2.2-1.4 2.9-1.2.8-2.7 1.1-4.1 1h-6.8V3.6h6.4c1.3-.1 2.7.3 3.8 1 .9.6 1.4 1.7 1.4 2.8 0 .7-.2 1.5-.6 2.1-.4.6-1 1-1.7 1.3.8.1 1.6.6 2.2 1.2zm-10-7.1v5.4h4.7c1 .1 1.9-.2 2.8-.7 1.1-.9 1.3-2.5.4-3.6-.1-.2-.3-.3-.4-.4-.8-.5-1.8-.7-2.8-.7h-4.7zm8.2 11.5c.7-.5 1.1-1.3 1-2.1 0-1.8-1.3-2.8-4-2.8h-5.2V17h5.2c1.1.2 2.1-.1 3-.6z"/><path id="Pfad_108" class="st6" d="M142.6 13.3h-9.3c0 1.1.5 2.1 1.3 2.8.8.7 1.9 1.1 3 1.1.7 0 1.3-.1 1.9-.4.6-.2 1.1-.6 1.5-1.1l.8 1c-.5.6-1.1 1.1-1.8 1.3-.8.3-1.6.5-2.4.5-1.1 0-2.1-.2-3-.7-.9-.5-1.6-1.2-2.1-2-.5-.9-.8-1.9-.7-2.9 0-1 .2-2 .7-2.9.4-.8 1.1-1.5 1.9-2 1.7-1 3.8-1 5.5 0 .8.5 1.5 1.2 1.9 2 .5.9.7 1.9.7 2.9l.1.4zm-8-3.8c-.7.7-1.2 1.7-1.2 2.7h7.9c-.1-1-.5-2-1.2-2.7-1.7-1.3-4-1.3-5.5 0z"/><path id="Pfad_109" class="st6" d="M146.1 18.1c-.7-.2-1.4-.5-1.9-1l.7-1.2c.5.4 1.1.7 1.8.9.7.2 1.4.3 2.2.3.8.1 1.6-.1 2.2-.5.5-.3.7-.8.7-1.3 0-.4-.1-.7-.4-1-.3-.2-.6-.4-1-.5-.5-.1-1.1-.3-1.6-.3-.7-.1-1.5-.3-2.2-.5-.5-.2-1-.5-1.4-.9-.4-.5-.6-1.1-.6-1.8 0-.9.4-1.8 1.2-2.3.9-.6 2.1-1 3.2-.9.7 0 1.4.1 2.2.3.6.2 1.2.4 1.8.7l-.7 1.2c-1-.6-2.1-1-3.3-.9-.8-.1-1.5.1-2.2.5-.5.3-.7.8-.7 1.3 0 .4.1.8.4 1 .3.3.6.5 1 .6.6.2 1.1.3 1.7.4.7.1 1.4.3 2.1.5.5.2 1 .5 1.4.9.4.5.6 1.1.6 1.7 0 .9-.4 1.8-1.2 2.3-1 .6-2.2.9-3.4.9-.9 0-1.8-.1-2.6-.4z"/><path id="Pfad_110" class="st6" d="M162.1 17.7c-.3.3-.7.5-1 .6-.4.1-.9.2-1.3.2-.9.1-1.7-.2-2.4-.8-.6-.6-.9-1.5-.8-2.4V8.6h-2V7.3h2V4.9h1.5v2.4h3.4v1.3H158v6.6c0 .5.1 1.1.5 1.5.4.4.9.6 1.4.5.3 0 .6 0 .9-.2.3-.1.5-.2.7-.4l.6 1.1z"/><path id="Pfad_111" class="st6" d="M171.8 8.3c.8.9 1.2 2 1.2 3.2v6.9h-1.4v-1.7c-.4.6-.9 1.1-1.5 1.3-.7.3-1.5.5-2.3.5-1.1.1-2.1-.3-2.9-.9-.7-.6-1.1-1.4-1.1-2.3 0-.9.3-1.7 1-2.3 1-.7 2.1-1 3.3-.9h3.5v-.7c.1-.8-.2-1.6-.8-2.2-.7-.5-1.5-.8-2.3-.7-.7 0-1.4.1-2 .3-.6.2-1.2.5-1.7 1l-.7-1.1c.6-.5 1.3-.9 2-1.1.8-.3 1.6-.4 2.5-.4 1.1-.1 2.3.3 3.2 1.1zm-1.7 8.4c.6-.4 1.1-1 1.3-1.7v-1.8H168c-1.9 0-2.8.7-2.8 2 0 .6.3 1.2.7 1.5.6.4 1.3.6 2.1.6.7 0 1.5-.2 2.1-.6z"/><path id="Pfad_112" class="st6" d="M182.4 17.7c-.3.3-.7.5-1 .6-.4.1-.9.2-1.3.2-.9.1-1.7-.2-2.4-.8-.6-.6-.9-1.5-.8-2.4V8.6h-2V7.3h2V4.9h1.5v2.4h3.4v1.3h-3.4v6.6c0 .5.1 1.1.5 1.5.4.4.9.6 1.4.5.3 0 .6 0 .9-.2.3-.1.5-.2.7-.4l.5 1.1z"/><path id="Pfad_113" class="st6" d="M191 17.7c-.3.3-.7.5-1 .6-.4.1-.9.2-1.3.2-.9.1-1.7-.2-2.4-.8-.6-.6-.9-1.5-.8-2.4V8.6h-2V7.3h2V4.9h1.5v2.4h3.4v1.3H187v6.6c0 .5.1 1.1.5 1.5.4.4.9.6 1.4.5.3 0 .6 0 .9-.2.3-.1.5-.2.7-.4l.5 1.1z"/><path id="Pfad_114" class="st6" d="M202.8 13.3h-9.3c0 1.1.5 2.1 1.3 2.8.8.7 1.9 1.1 3 1.1.7 0 1.3-.1 1.9-.4.6-.2 1.1-.6 1.5-1.1l.8 1c-.5.6-1.1 1.1-1.8 1.3-.8.3-1.6.5-2.4.5-1.1 0-2.1-.2-3-.7-.9-.5-1.6-1.2-2.1-2-.5-.9-.8-1.9-.7-2.9 0-1 .2-2 .7-2.9.4-.8 1.1-1.5 1.9-2 1.7-1 3.8-1 5.5 0 .8.5 1.5 1.2 1.9 2 .5.9.7 1.9.7 2.9l.1.4zm-8-3.8c-.7.7-1.2 1.7-1.2 2.7h7.9c-.1-1-.5-2-1.2-2.7-1.7-1.3-4-1.3-5.5 0z"/><path id="Pfad_115" class="st6" d="M208.6 7.8c.8-.4 1.7-.6 2.6-.6v1.5h-.4c-1-.1-2 .3-2.7 1.1-.7.8-1.1 1.9-1 3v5.7h-1.5V7.3h1.4v2.2c.4-.7.9-1.3 1.6-1.7z"/><path id="Pfad_116" class="st6" d="M229.2 13.3H220c0 1.1.5 2.1 1.3 2.8.8.7 1.9 1.1 3 1.1.7 0 1.3-.1 1.9-.4.6-.2 1.1-.6 1.5-1.1l.8 1c-.5.6-1.1 1.1-1.8 1.3-.8.3-1.6.5-2.4.5-1.1 0-2.1-.2-3-.7-.9-.5-1.6-1.2-2.1-2-.5-.9-.8-1.9-.7-2.9 0-1 .2-2 .7-2.9.4-.8 1.1-1.5 1.9-2 1.7-1 3.8-1 5.5 0 .8.5 1.5 1.2 1.9 2 .5.9.7 1.9.7 2.9v.4zm-8-3.8c-.7.7-1.2 1.7-1.2 2.7h7.9c-.1-1-.5-2-1.2-2.7-1.7-1.3-4-1.3-5.5 0z"/><path id="Pfad_117" class="st6" d="M231.5 18.2c-.2-.2-.3-.5-.3-.8 0-.3.1-.6.3-.8.2-.2.5-.3.8-.3.3 0 .6.1.8.3.2.2.3.5.3.8 0 .3-.1.6-.3.8-.4.4-1.1.4-1.6 0z"/><path id="Pfad_118" class="st6" d="M251.6 3.6L245 18.4h-1.5L237 3.6h1.7l5.7 12.8L250 3.6h1.6z"/><path id="Pfad_119" class="st6" d="M251.5 18.2c-.2-.2-.3-.5-.3-.8 0-.3.1-.6.3-.8.2-.2.5-.3.8-.3.3 0 .6.1.8.3.2.2.3.5.3.8 0 .3-.1.6-.3.8-.4.4-1.1.4-1.6 0z"/></g><path id="Rechteck_30" fill="#fff" d="M2.3 2.7h67.6v77.4H2.3z"/><g id="Gruppe_111" transform="translate(4.793 5.528)"><path id="Pfad_120" class="st6" d="M3.9 10.7h5.8c2.9 0 4.6 1 4.6 3 0 2.4-2.1 3.2-4.6 3.1H3.9v-6.1zM2.3 18h7.4c5.7 0 6.3-2.9 6.3-4.3 0-2-1.5-3.5-3.7-3.7 1.7-.3 3-1.7 3-3.4 0-2.8-2.7-3.7-5.6-3.7H2.3V18zM3.9 4h5.8c2.6 0 4 1 4 2.9 0 1.4-1.3 2.6-4 2.6H3.9V4z"/><path id="Pfad_121" class="st6" d="M26.2 4h3.6c5 0 7.2 1.8 7.2 6.4s-2.2 6.4-7.2 6.4h-3.6V4zm-1.6 14h6.1c5.3-.1 8.1-2.6 8.1-7.6S36 2.9 30.7 2.8h-6.1V18z"/><path id="Pfad_122" class="st6" d="M49 10.7h5.8c2.9 0 4.6 1 4.6 3 0 2.4-2.1 3.2-4.6 3.1H49v-6.1zM47.3 18h7.4c5.7 0 6.3-2.9 6.3-4.3 0-2-1.4-3.5-3.7-3.7 1.7-.3 3-1.7 3.1-3.4 0-2.8-2.7-3.7-5.6-3.7h-7.4V18zM49 4h5.8c2.6 0 4 1 4 2.9 0 1.4-1.3 2.6-4 2.6H49V4z"/></g><path id="Pfad_123" class="st6" d="M3.7 4.1h64.8v74.6H3.7V4.1zM2.3 80.2h67.6V2.7H2.3v77.5z"/><g id="Gruppe_112" transform="translate(4.779 22.467)"><path id="Pfad_124" d="M58.8 26.8c-14.4.5-24.7 15.7-27.5 23.5-2.9-7.8-13.2-23-27.5-23.5V4.3C22.5 5 30.6 35.2 30.6 40H32c0-4.8 8.1-35 26.8-35.7v22.5zm.8-24.1c-17 0-25.8 21.7-28.3 32.2C28.8 24.4 20 2.7 3 2.7h-.7v25.6H3c16.5 0 27.6 21.1 27.6 25.5H32c0-4.4 11.1-25.5 27.6-25.5h.7V2.7h-.7z" fill="#009a8f"/></g></svg>