<svg version="1.1" id="Ebene_1" xmlns="http://www.w3.org/2000/svg" xmlns:xlink="http://www.w3.org/1999/xlink" x="0" y="0" viewBox="0 0 57 62" xml:space="preserve"><style>.st3{fill:#1c1c1c}</style><path id="Rechteck_17" opacity=".764" fill="#fff" d="M0 0h57v62H0z"/><g id="Gruppe_33" transform="translate(4 3)"><defs><path id="SVGID_1_" d="M0 0h48.5v55.5H0z"/></defs><clipPath id="SVGID_2_"><use xlink:href="#SVGID_1_" overflow="visible"/></clipPath><g id="Gruppe_14" transform="translate(0 .002)" clip-path="url(#SVGID_2_)"><g id="Gruppe_13" transform="translate(3.436 3.962)"><path id="Pfad_43" class="st3" d="M16 0v10.9h4.4c3.8-.1 5.8-1.9 5.8-5.5s-2-5.4-5.8-5.5H16zM0 0v10.9h5.3c4.1 0 4.5-2.1 4.5-3.1 0-1.5-1.2-2.6-2.7-2.7C8.4 5 9.3 3.9 9.4 2.7c0-2-1.9-2.7-4-2.7H0zm32.3 0v10.9h5.3c4.1 0 4.5-2.1 4.5-3.1 0-1.5-1.2-2.6-2.7-2.7 1.2-.2 2.1-1.2 2.2-2.4 0-2-1.9-2.7-4-2.7h-5.3zM1.2.9h4.1c1.9 0 2.8.7 2.8 2.1 0 1-.9 1.9-2.8 1.9H1.2v-4zm16 0h2.6C23.4.9 25 2.2 25 5.5s-1.6 4.6-5.2 4.6h-2.6V.9zm16.3 0h4.1c1.9 0 2.8.7 2.8 2.1 0 1-.9 1.9-2.8 1.9h-4.1v-4zM1.2 5.7h4.1c2.1 0 3.3.7 3.3 2.1 0 1.7-1.5 2.3-3.3 2.2H1.2V5.7zm32.3 0h4.1c2.1 0 3.3.7 3.3 2.1 0 1.7-1.5 2.3-3.3 2.2h-4.1V5.7z"/></g></g><path id="Pfad_45" class="st3" d="M0 55.5h48.5V0H0v55.5zM1 1h46.5v53.5H1V1z"/><defs><path id="SVGID_3_" d="M0 0h48.5v55.5H0z"/></defs><clipPath id="SVGID_4_"><use xlink:href="#SVGID_3_" overflow="visible"/></clipPath><g id="Gruppe_16" transform="translate(0 .002)" clip-path="url(#SVGID_4_)"><g id="Gruppe_15" transform="translate(3.426 16.104)"><path id="Pfad_46" d="M40.6 17.3c-10.3.4-17.7 11.3-19.7 16.9-2-5.6-9.4-16.5-19.7-16.9V1.1c13.4.6 19.3 22.1 19.3 25.6h1c0-3.4 5.8-25 19.3-25.6l-.2 16.2zM41.1 0C28.9 0 22.6 15.5 20.8 23.1 19 15.5 12.7 0 .5 0H0v18.3h.5c11.8 0 19.8 15.2 19.8 18.3h1c0-3.2 8-18.3 19.8-18.3h.5V0h-.5z" fill="#00998e"/></g></g></g></svg>