<svg version="1.1" id="Ebene_1" xmlns="http://www.w3.org/2000/svg" x="0" y="0" viewBox="0 0 121.5 137" xml:space="preserve"><style>.st0{fill:#ca7c34}</style><g id="Gruppe_120_1_" transform="translate(-1228.146 -462.188)"><path class="st0" d="M1288.9 598.2c-32.9 0-59.6-26.7-59.6-59.6h3c0 31.2 25.4 56.6 56.6 56.6s56.6-25.4 56.6-56.6h3c0 32.9-26.7 59.6-59.6 59.6z"/><g id="Gruppe_118_1_" transform="translate(1252.812 478.966)"><path id="Pfad_134_1_" class="st0" d="M13.1 1c-1 .1-2 .5-2.7 1.3-4.2 5.6-9.3 16.1-9.3 33.8C1 48.3 3.8 60.3 9.2 71.3c2.5 4.9 5.5 9.4 9.1 13.5.8.7 1.8 1.2 2.9 1.3h30c1.1-.1 2.1-.5 2.9-1.3 3.6-4.1 6.7-8.7 9.1-13.5 5.5-10.9 8.2-23 8.1-35.2 0-17.7-5.1-28.2-9.3-33.9-.6-.7-1.6-1.2-2.6-1.2H13.1zm38.8 81.5H20.6l-.5-.5c-.7-.7-15.4-15.8-15.4-45.9 0-21.1 7.5-30.5 7.9-30.9l.6-.7h46.3l.5.7c.3.4 7.9 9.8 7.9 30.9 0 30.1-14.8 45.2-15.4 45.9l-.6.5z"/></g><g id="Gruppe_119_1_" transform="translate(1264.317 462.187)"><path id="Pfad_135_1_" class="st0" d="M47 12.1H2.5c-1.4 0-1.8-.8-.8-1.8l3.7-3.7c1.2-1.1 2.8-1.8 4.5-1.8h7.4v-.7c0-1.7 1.4-3.1 3.1-3.1H29c1.7 0 3.1 1.4 3.1 3.1v.6h7.4c1.7.1 3.2.7 4.5 1.8l3.7 3.7c1.1 1.1.8 1.9-.7 1.9z"/></g></g></svg>