<svg version="1.1" id="Ebene_1" xmlns="http://www.w3.org/2000/svg" x="0" y="0" viewBox="0 0 274.1 103.4" xml:space="preserve"><style>.st0{fill:#fff}</style><g id="Gruppe_1"><path id="Pfad_1" class="st0" d="M12.4 85.8c0 .4-.1.8-.2 1.2-.1.3-.3.7-.6.9-.2.3-.5.5-.8.7-.3.2-.7.3-1 .5v.1c.5.1.9.2 1.3.4s.7.5 1 .8c.3.3.5.7.7 1.1.2.5.2 1 .2 1.5.1 1.2-.4 2.3-1.3 3-1.2.8-2.6 1.1-4.1 1H1.4v-.9h.3c.2 0 .5 0 .7-.1.2 0 .4-.1.5-.2.2-.1.3-.3.4-.5.1-.3.1-.5.1-.8V84.3c0-.3 0-.5-.1-.7-.1-.2-.2-.3-.4-.4-.2-.2-.4-.2-.6-.3h-.9V82H7c1.4-.1 2.8.2 4.1.9.9.7 1.4 1.7 1.3 2.9m-6.9 2.8H7c.5 0 1 0 1.5-.2.4-.1.7-.3 1-.5.3-.2.4-.6.5-.9.1-.4.2-.9.2-1.3s0-.9-.2-1.3c-.1-.3-.3-.6-.6-.8-.3-.2-.6-.4-1-.5-.5-.1-1-.1-1.5-.1H5.5v5.6zm0 7.4h2c.5 0 1 0 1.5-.2.4-.1.7-.3 1-.5.3-.3.5-.6.6-1 .1-.5.2-.9.2-1.4 0-.5 0-1-.2-1.4-.2-.8-.8-1.4-1.5-1.6-.5-.1-1-.2-1.5-.2H5.5V96z"/><path id="Pfad_2" class="st0" d="M20.4 97.2c-.7 0-1.4-.1-2.1-.4-.6-.2-1.1-.6-1.5-1.1-.4-.5-.8-1.2-1-1.8-.2-.8-.3-1.6-.3-2.4-.1-1.6.3-3.1 1.2-4.4.9-1 2.1-1.6 3.5-1.5.6 0 1.2.1 1.8.3.5.2 1 .5 1.4.9.4.5.7 1 .9 1.6.2.7.3 1.4.3 2.2v1h-7c0 .7.1 1.3.2 2 .1.5.3 1 .6 1.4.2.3.6.6 1 .8.4.2.9.3 1.3.3.3 0 .7 0 1-.1.3-.1.6-.2.8-.3.2-.1.5-.3.7-.5.2-.2.3-.3.5-.6.1.1.2.1.3.3.1.1.1.3.1.5s-.1.5-.2.7c-.2.3-.4.5-.7.7-.4.2-.7.4-1.2.5-.5-.1-1-.1-1.6-.1m-.3-10.5c-.7 0-1.4.3-1.8 1-.5.8-.7 1.8-.7 2.8h4.8c0-.5 0-1-.1-1.5-.1-.4-.2-.8-.4-1.2-.2-.3-.4-.6-.7-.8-.3-.3-.7-.3-1.1-.3"/><path id="Pfad_3" class="st0" d="M30 97.2c-.5 0-1 0-1.4-.1-.4-.1-.8-.2-1.1-.4-.3-.2-.5-.4-.7-.7-.2-.3-.3-.6-.2-1 0-.2 0-.5.1-.7.1-.2.2-.3.3-.4.1-.1.3-.2.4-.2.1 0 .3-.1.4-.1 0 .3 0 .7.1 1 .1.3.2.6.4.8.2.2.4.4.7.6.3.2.7.2 1.1.2.3 0 .7 0 1-.1.3-.1.5-.2.7-.4.2-.2.3-.4.4-.6.1-.2.2-.5.2-.8 0-.2 0-.5-.1-.7-.1-.2-.2-.4-.4-.5-.2-.2-.5-.4-.8-.5-.3-.2-.8-.4-1.3-.6-.5-.2-1-.5-1.4-.7-.4-.2-.7-.4-1-.7-.3-.3-.5-.6-.6-.9-.1-.4-.2-.8-.2-1.2 0-.4.1-.9.3-1.3.2-.4.5-.7.8-.9.4-.3.8-.5 1.3-.6.5-.1 1.1-.2 1.6-.2.4 0 .9 0 1.3.2.3.1.7.2 1 .4l.6.6c.1.2.2.5.2.7 0 .4-.1.7-.4.9-.3.2-.7.4-1.1.3 0-.6-.1-1.2-.4-1.6-.3-.4-.8-.6-1.4-.6-.3 0-.6 0-.9.1l-.6.3c-.2.1-.3.3-.4.5-.1.2-.1.4-.1.7 0 .2 0 .5.1.7.1.2.3.4.5.5.3.2.5.4.8.5.3.2.7.3 1.2.5s1 .4 1.4.7c.4.2.7.4 1 .7.3.3.4.6.6.9.1.4.2.8.2 1.2 0 .5-.1 1-.3 1.4-.2.4-.5.8-.8 1-.4.3-.8.5-1.3.6-.6.5-1.2.5-1.8.5"/><path id="Pfad_4" class="st0" d="M40.7 96.1h.7c.2 0 .4-.1.6-.1v.9c-.1 0-.2.1-.3.1-.2 0-.3.1-.5.1s-.3.1-.5.1h-.5c-.5 0-.9 0-1.4-.2-.4-.1-.7-.3-.9-.6-.3-.3-.5-.6-.5-1-.1-.5-.2-1-.2-1.5v-7h-1.6v-.8c.3 0 .6-.1.8-.2.3-.1.6-.3.8-.5l.6-.9c.2-.4.3-.9.4-1.4h1v2.6h2.7v1.2h-2.8V94c0 .6.1 1.1.4 1.6.3.4.8.5 1.2.5"/><path id="Pfad_5" class="st0" d="M48.2 86.6c-.3 0-.7 0-1 .2-.2.1-.4.3-.6.5-.1.2-.2.5-.3.7 0 .3-.1.6-.1.9-.5 0-.9-.1-1.3-.3-.3-.2-.5-.6-.5-1 0-.3.1-.7.3-.9.2-.3.5-.5.8-.6.4-.2.8-.3 1.2-.4.5-.1 1-.1 1.5-.1.6 0 1.1.1 1.7.2.4.1.9.3 1.2.6.3.3.6.7.7 1.1.2.5.3 1.1.2 1.7v5.5c0 .2 0 .5.1.7 0 .2.1.3.2.5.1.1.2.2.4.2.2.1.4.1.6.1h.1v.8h-2.8l-.3-1.8h-.2c-.2.3-.4.6-.6.8-.2.2-.4.5-.7.6-.3.2-.5.3-.8.4-.4.1-.7.2-1.1.2-.4 0-.9-.1-1.3-.2s-.7-.3-1-.6c-.3-.3-.5-.7-.7-1-.2-.5-.3-1-.2-1.5-.1-1 .4-1.9 1.2-2.5 1.1-.6 2.3-.9 3.6-.9l1.7-.1v-1.3c0-.3 0-.7-.1-1 0-.3-.1-.6-.3-.8-.1-.2-.3-.4-.6-.5-.3-.2-.7-.2-1-.2M45.6 94c0 .5.1 1 .4 1.5.3.3.8.5 1.3.5.4 0 .8-.1 1.2-.2.3-.1.6-.3.9-.6.3-.3.4-.6.6-.9.1-.4.2-.8.2-1.2v-1.7l-1.3.1c-.5 0-1 .1-1.5.2-.4.1-.7.3-1 .5-.2.2-.4.5-.5.8-.2.2-.3.6-.3 1"/><path id="Pfad_6" class="st0" d="M60 96.1h.7c.2 0 .4-.1.6-.1v.9c-.1.1-.2.1-.3.1-.2 0-.3.1-.5.1s-.3.1-.5.1h-.5c-.5 0-.9 0-1.4-.2-.4-.1-.7-.3-.9-.6-.3-.3-.5-.6-.5-1-.1-.5-.2-1-.2-1.5v-7h-1.6v-.8c.3 0 .6-.1.8-.2.3-.1.6-.3.8-.5l.6-.9c.2-.4.3-.9.4-1.4h1v2.6h2.8v1.2h-2.8V94c0 .6.1 1.1.4 1.6.2.4.6.5 1.1.5"/><path id="Pfad_7" class="st0" d="M67.4 96.1h.7c.2 0 .4-.1.6-.1v.9c-.1 0-.2.1-.3.1-.2 0-.3.1-.5.1s-.3.1-.5.1h-.5c-.5 0-.9 0-1.4-.2-.4-.1-.7-.3-.9-.6-.3-.3-.5-.6-.6-1-.1-.5-.2-1-.2-1.5v-7h-1.6v-.8c.3 0 .6-.1.8-.2.3-.1.6-.3.8-.5l.6-.9c.2-.4.3-.9.4-1.4h1v2.6h2.8v1.2h-2.8V94c0 .6.1 1.1.4 1.6.3.4.7.5 1.2.5"/><path id="Pfad_8" class="st0" d="M80.3 94.7c0 .3 0 .5.1.7.1.2.2.3.4.4.2.1.4.2.6.2h.8v1h-3.3l-.3-1.7h-.1c-.2.4-.4.7-.7 1-.2.2-.5.4-.8.6l-.9.3c-.3.1-.7.1-1 .1-.5 0-1-.1-1.5-.2-.4-.1-.8-.4-1.1-.7-.3-.4-.5-.8-.7-1.3-.2-.6-.2-1.2-.2-1.9v-5c0-.3 0-.5-.1-.7-.1-.2-.2-.3-.4-.4-.2-.1-.4-.2-.5-.2-.2 0-.4-.1-.7-.1h-.1v-.9h3.8V93c0 .4 0 .8.1 1.2.1.3.2.6.4.9.2.2.4.4.7.6.3.1.7.2 1.1.2.4 0 .8-.1 1.2-.2.3-.2.6-.4.8-.7.2-.3.4-.7.5-1.1.1-.5.1-.9.1-1.4v-4.3c0-.3 0-.5-.1-.8-.1-.2-.2-.3-.4-.5-.2-.1-.3-.2-.5-.2s-.4-.1-.7-.1h-.1v-.9h3.8v9z"/><path id="Pfad_9" class="st0" d="M88.8 96.1v.9h-5.7v-.9h.2c.2 0 .5 0 .7-.1.2 0 .4-.1.5-.2.2-.1.3-.3.4-.5.1-.3.1-.5.1-.8v-6.6c0-.3 0-.5-.1-.7-.1-.2-.2-.3-.4-.4-.2-.1-.4-.2-.6-.2-.2 0-.4-.1-.7-.1h-.1v-.9h3.4l.3 1.7h.2c.2-.4.4-.7.7-1 .2-.2.5-.4.8-.6l.9-.3c.3-.1.6-.1 1-.1.5 0 1 .1 1.5.2.4.2.8.4 1.1.7.3.4.6.8.7 1.3.2.6.3 1.2.2 1.9v5c0 .3 0 .5.1.8.1.2.2.3.3.5.2.1.3.2.5.2s.4.1.6.1h.1v1h-3.7v-7.3c0-.4 0-.8-.1-1.2-.1-.3-.2-.6-.4-.9-.2-.2-.4-.4-.7-.6-.3-.1-.7-.2-1.1-.2-.4 0-.8.1-1.2.3-.3.2-.6.4-.8.8-.2.3-.4.7-.4 1.1-.1.4-.1.9-.1 1.3v4.4c0 .3 0 .5.1.7.1.2.2.3.4.4.2.1.4.2.6.2.2.1.4.1.7.1z"/><path id="Pfad_10" class="st0" d="M107.2 86.2c0 .1 0 .3-.1.4 0 .1-.1.2-.2.3-.1.1-.2.2-.3.2-.2.1-.3.1-.5.1V87c0-.1-.1-.2-.1-.2l-.2-.2c-.1 0-.2-.1-.3-.1-.2 0-.3 0-.5.1-.1 0-.3.1-.4.2.3.3.5.7.6 1 .2.5.2 1 .2 1.5s-.1 1-.2 1.4c-.1.4-.4.8-.7 1.1-.3.3-.7.6-1.2.8-.5.2-1.1.3-1.7.3h-1.1c-.1.1-.3.1-.4.2l-.3.3c-.1.1-.2.2-.2.3-.1.1-.1.3-.1.4 0 .1 0 .3.1.4.1.1.2.2.3.2.1.1.3.1.4.1h2.9c.5 0 1.1.1 1.6.2.4.1.8.4 1.1.7.3.3.5.6.6 1 .1.4.2.8.2 1.3 0 .6-.1 1.1-.3 1.6-.2.5-.6.9-1 1.2-.5.4-1.1.6-1.7.8-.8.2-1.6.3-2.5.3-1.2.1-2.3-.2-3.3-.8-.7-.5-1.1-1.4-1.1-2.3 0-.4.1-.7.2-1.1.1-.3.3-.6.6-.8.2-.2.5-.4.8-.5.3-.1.7-.2 1-.3-.2-.1-.3-.1-.4-.2-.1-.1-.3-.2-.4-.4-.1-.2-.2-.3-.3-.5-.1-.2-.1-.4-.1-.6 0-.4.1-.8.3-1.1.3-.4.6-.7 1-.9-.3-.1-.6-.3-.8-.5-.2-.2-.4-.5-.6-.7-.2-.3-.3-.6-.4-.9-.1-.3-.1-.7-.1-1 0-.6.1-1.1.2-1.6.3-.9 1-1.7 2-2 .6-.2 1.1-.3 1.7-.3.3 0 .5 0 .8.1.2 0 .5.1.7.2.2.1.4.1.6.2.1.1.3.2.4.3l.4-.4c.1-.1.3-.3.5-.4l.6-.3c.2-.1.4-.1.7-.1.2 0 .4 0 .6.1.1.1.3.1.4.2.1.1.2.2.2.3-.2.3-.2.4-.2.6m-8.9 12.7c0 .3 0 .6.1.9.1.3.2.5.4.7.2.2.5.4.8.5.4.1.9.2 1.3.2.6 0 1.3-.1 1.9-.2.4-.1.8-.3 1.2-.5.3-.2.5-.5.6-.8.1-.3.2-.7.2-1 0-.3 0-.5-.1-.8-.1-.2-.2-.4-.4-.5-.2-.1-.4-.2-.7-.3-.3-.1-.6-.1-.9-.1h-2.1c-.3 0-.6 0-.9.1-.3 0-.5.1-.7.3-.2.2-.4.4-.5.6-.1.2-.2.5-.2.9m1.3-9.5c-.1.7.1 1.4.4 2 .4.4.9.7 1.5.6.3 0 .6 0 .9-.2.2-.1.4-.3.6-.5.2-.2.3-.5.3-.8.1-.4.1-.8.1-1.2.1-.7-.1-1.5-.4-2.1-.7-.8-1.9-.9-2.7-.2l-.3.3c-.3.6-.5 1.3-.4 2.1"/><path id="Pfad_11" class="st0" d="M113.5 97.2c-.7 0-1.4-.1-2.1-.4-.6-.2-1.1-.6-1.5-1.1-.4-.5-.8-1.2-1-1.8-.2-.8-.3-1.6-.3-2.4-.1-1.6.3-3.1 1.2-4.4.9-1 2.1-1.6 3.5-1.5.6 0 1.2.1 1.8.3.5.2 1 .5 1.4.9.4.5.7 1 .9 1.6.2.7.3 1.4.3 2.2v1h-7c0 .7.1 1.3.2 2 .1.5.3 1 .6 1.4.2.3.6.6 1 .8.4.2.9.3 1.3.3.3 0 .7 0 1-.1.3-.1.6-.2.8-.3.2-.1.5-.3.7-.5.2-.2.3-.3.5-.6.1.1.2.1.3.3.1.1.1.3.1.5s-.1.5-.2.7c-.2.3-.4.5-.7.7-.4.2-.7.4-1.2.5-.5-.1-1-.1-1.6-.1m-.2-10.5c-.7 0-1.4.3-1.8 1-.5.8-.7 1.8-.7 2.8h4.8c0-.5 0-1-.1-1.5-.1-.4-.2-.8-.4-1.2-.2-.3-.4-.6-.7-.8-.4-.3-.8-.3-1.1-.3"/><path id="Pfad_12" class="st0" d="M125 96.1v.9h-5.7v-.9h.2c.2 0 .5 0 .7-.1.2 0 .4-.1.5-.2.2-.1.3-.3.4-.5.1-.3.1-.5.1-.8v-6.6c0-.3 0-.5-.1-.7-.1-.2-.2-.3-.4-.4-.2-.1-.4-.2-.6-.2-.2 0-.4-.1-.7-.1h-.1v-.9h3.4l.3 1.7h.1c.2-.3.4-.7.7-1 .2-.2.5-.4.8-.6l.9-.3c.3-.1.6-.1 1-.1.5 0 1 .1 1.5.2.4.2.8.4 1.1.7.3.4.6.8.7 1.3.2.6.3 1.2.2 1.9v5c0 .3 0 .5.1.8.1.2.2.3.3.5.2.1.3.2.5.2s.4.1.6.1h.1v1h-3.7v-7.3c0-.4 0-.8-.1-1.2-.1-.3-.2-.6-.4-.9-.2-.2-.4-.4-.7-.6-.3-.1-.7-.2-1.1-.2-.4 0-.8.1-1.2.3-.3.2-.6.4-.8.8-.2.3-.4.7-.4 1.1-.1.4-.1.9-.1 1.3v4.4c0 .3 0 .5.1.7.1.2.2.3.4.4.2.1.4.2.6.2.3.1.5.1.8.1z"/><path id="Pfad_13" class="st0" d="M149.8 97l-1.7-1.9c-.3.3-.5.6-.8.8-.3.3-.7.5-1 .7-.4.2-.8.3-1.2.4-.5.1-1 .2-1.5.2-.7 0-1.5-.1-2.2-.3-.6-.2-1.1-.5-1.6-.9-.4-.4-.7-.9-.9-1.4-.2-.6-.3-1.2-.3-1.8 0-.5.1-1.1.2-1.6.2-.4.4-.8.7-1.2.3-.3.7-.6 1.1-.9.4-.3.9-.5 1.4-.7-.3-.3-.5-.6-.7-.9-.2-.3-.4-.6-.5-.9l-.3-.9c-.1-.3-.1-.6-.1-1s.1-.9.2-1.3c.2-.4.4-.7.7-1 .4-.3.8-.5 1.2-.6.6-.2 1.2-.2 1.8-.2.6 0 1.2.1 1.7.2.4.1.8.4 1.2.6.3.3.5.6.6 1 .1.4.2.8.2 1.2 0 .4-.1.8-.2 1.2-.1.4-.4.7-.6 1-.3.3-.7.6-1.1.8-.5.3-1.1.6-1.6.8l3.8 4.1c.1-.3.2-.6.2-1 .1-.3.1-.6.1-1 0-.3.1-.6.1-.9V88h3.8v1h-.9c-.2 0-.4.1-.6.2-.2.1-.4.3-.5.4-.2.2-.3.5-.4.8-.1.5-.3.9-.4 1.5-.2.5-.4 1.1-.6 1.6l2 2.1.3.3c.1.1.2.1.4.2.2 0 .3.1.5.1h.9v.8h-3.4zm-6.1-.9c.4 0 .8 0 1.1-.1.3-.1.7-.2 1-.4.3-.1.6-.3.8-.5.2-.2.5-.4.7-.7l-4.7-5-.9.6c-.3.2-.5.5-.7.7-.2.3-.3.6-.4 1-.1.4-.1.8-.1 1.2 0 .5.1.9.2 1.4.1.4.4.7.6 1 .3.3.6.5 1 .6.6.1 1 .2 1.4.2m2.4-11.3c0-.3 0-.5-.1-.8-.1-.5-.5-.9-.9-1-.3-.1-.6-.2-.9-.2-.5 0-1.1.2-1.4.5-.3.4-.5.9-.5 1.4 0 .3 0 .5.1.8.1.2.1.5.3.7.1.3.3.5.5.7.2.2.4.5.7.8.4-.2.7-.3 1.1-.6.3-.2.5-.4.8-.7.2-.2.3-.5.4-.8-.1-.1-.1-.5-.1-.8"/><path id="Pfad_14" class="st0" d="M166.4 94.6c0 .3 0 .5.1.8.1.2.2.3.4.5.2.1.4.2.5.2.2 0 .4.1.7.1h.5v.8H162v-.9h1.2c.2 0 .4-.1.6-.2.2-.1.3-.3.4-.4.1-.2.1-.5.1-.7V83.1h-2c-.3 0-.5 0-.8.1-.2.1-.4.2-.5.4-.1.2-.2.3-.3.6-.1.2-.1.4-.1.7l-.1.9h-1.1l.1-3.7h11.9l.1 3.7h-1.1l-.1-.9c0-.2-.1-.4-.1-.7l-.3-.6c-.1-.2-.3-.3-.5-.4-.3-.1-.5-.1-.8-.1h-2l-.2 11.5z"/><path id="Pfad_15" class="st0" d="M178.5 97h-6.1v-.9h.1c.2 0 .5 0 .7-.1.2 0 .4-.1.5-.2.2-.1.3-.3.4-.5.1-.3.1-.5.1-.8v-6.6c0-.3 0-.5-.1-.7-.1-.2-.2-.3-.4-.4-.2-.1-.4-.2-.6-.2-.2 0-.4-.1-.7-.1h-.1v-.9h3.2l.4 2.1h.1c.1-.3.3-.6.4-.9.1-.3.3-.5.5-.7.2-.2.5-.4.8-.5.4-.1.8-.2 1.2-.2.6 0 1.2.1 1.7.4.4.3.6.7.6 1.1 0 .2 0 .4-.1.6-.1.2-.2.3-.3.5l-.6.3c-.3.1-.6.1-.9.1 0-.4-.1-.9-.2-1.3-.2-.3-.5-.4-.9-.4-.3 0-.5.1-.7.2-.2.2-.4.4-.5.6-.2.3-.3.5-.4.8-.1.3-.2.6-.3 1-.1.3-.1.7-.1 1v4.2c0 .3 0 .5.1.7.1.2.2.3.4.4.2.1.4.2.6.2h1.3l-.1 1.2z"/><path id="Pfad_16" class="st0" d="M187.3 86.6c-.3 0-.7 0-1 .2-.2.1-.4.3-.6.5-.1.2-.2.5-.3.7 0 .3-.1.6-.1.9-.5 0-.9-.1-1.3-.3-.3-.2-.5-.6-.5-1 0-.3.1-.7.3-.9.2-.3.5-.5.8-.6.4-.2.8-.3 1.2-.4.5-.1 1-.1 1.5-.1.6 0 1.1.1 1.7.2.4.1.9.3 1.2.6.3.3.6.7.7 1.1.2.5.3 1.1.2 1.7v5.5c0 .2 0 .5.1.7 0 .2.1.3.2.5.1.1.2.2.4.2.2.1.4.1.6.1h.1v.8h-2.8l-.3-1.8h-.2c-.2.3-.4.6-.6.8-.2.2-.4.5-.7.6-.3.2-.5.3-.8.4-.4.1-.7.2-1.1.2-.4 0-.9-.1-1.3-.2s-.7-.3-1-.6c-.3-.3-.5-.7-.7-1-.2-.5-.3-1-.2-1.5-.1-1 .4-1.9 1.2-2.5 1.1-.6 2.3-.9 3.6-.9l1.7-.1v-1.3c0-.3 0-.7-.1-1 0-.3-.1-.6-.3-.8-.1-.2-.3-.4-.6-.5-.3-.2-.6-.2-1-.2m-2.5 7.4c0 .5.1 1 .4 1.5.3.3.8.5 1.3.5.4 0 .8-.1 1.2-.2.3-.1.6-.3.9-.6.3-.3.4-.6.6-.9.1-.4.2-.8.2-1.2v-1.7l-1.3.1c-.5 0-1 .1-1.5.2-.4.1-.7.3-1 .5-.2.2-.4.5-.5.8-.3.2-.3.6-.3 1"/><path id="Pfad_17" class="st0" d="M204.6 94.7c0 .3 0 .5.1.7.1.2.2.3.4.4.2.1.4.2.6.2h.8v1h-3.3l-.3-1.7h-.1c-.2.4-.4.7-.7 1-.2.2-.5.4-.8.6l-.9.3c-.3.1-.7.1-1 .1-.5 0-1-.1-1.5-.2-.4-.1-.8-.4-1.1-.7-.3-.4-.5-.8-.7-1.3-.2-.6-.2-1.2-.2-1.9v-5c0-.3 0-.5-.1-.7-.1-.2-.2-.3-.4-.4-.2-.1-.4-.2-.5-.2-.2 0-.4-.1-.7-.1h-.2v-.9h3.8V93c0 .4 0 .8.1 1.2.1.3.2.6.4.9.2.2.4.4.7.6.3.1.7.2 1.1.2.4 0 .8-.1 1.2-.2.3-.2.6-.4.8-.7.2-.3.4-.7.5-1.1.1-.5.2-.9.2-1.4v-4.3c0-.3 0-.5-.1-.8-.1-.2-.2-.3-.4-.5-.2-.1-.4-.2-.5-.2-.2 0-.4-.1-.7-.1h-.1v-.9h3.8l-.2 9z"/><path id="Pfad_18" class="st0" d="M212.9 97.2c-.7 0-1.4-.1-2.1-.4-.6-.2-1.1-.6-1.5-1.1-.4-.5-.8-1.2-1-1.8-.2-.8-.3-1.6-.3-2.4-.1-1.6.3-3.1 1.2-4.4.9-1 2.1-1.6 3.5-1.5.6 0 1.2.1 1.8.3.5.2 1 .5 1.4.9.4.5.7 1 .9 1.6.2.7.3 1.4.3 2.2v1h-7c0 .7.1 1.3.2 2 .1.5.3 1 .6 1.4.2.3.6.6 1 .8.4.2.9.3 1.3.3.3 0 .7 0 1-.1.3-.1.6-.2.8-.3.2-.1.5-.3.7-.5.2-.2.3-.3.5-.6.1.1.2.1.3.3.1.1.1.3.1.5s-.1.5-.2.7c-.2.3-.4.5-.7.7-.4.2-.7.4-1.2.5-.5-.1-1-.1-1.6-.1m-.2-10.5c-.7 0-1.4.3-1.8 1-.5.8-.7 1.8-.7 2.8h4.8c0-.5 0-1-.1-1.5-.1-.4-.2-.8-.4-1.2-.2-.3-.4-.6-.7-.8-.4-.3-.7-.3-1.1-.3"/><path id="Pfad_19" class="st0" d="M224.9 97h-6.1v-.9h.1c.2 0 .5 0 .7-.1.2 0 .4-.1.5-.2.2-.1.3-.3.4-.5.1-.3.1-.5.1-.8v-6.6c0-.3 0-.5-.1-.7-.1-.2-.2-.3-.4-.4-.2-.1-.4-.2-.6-.2-.2 0-.4-.1-.7-.1h-.1v-.9h3.2l.4 2.1h.1c.1-.3.3-.6.4-.9.1-.3.3-.5.5-.7.2-.2.5-.4.8-.5.4-.1.8-.2 1.2-.2.6 0 1.2.1 1.7.4.4.3.6.7.6 1.1 0 .2 0 .4-.1.6-.1.2-.2.3-.3.5l-.6.3c-.3.1-.6.1-.9.1 0-.4-.1-.9-.2-1.3-.2-.3-.5-.4-.9-.4-.3 0-.5.1-.7.2-.2.2-.4.4-.5.6-.2.3-.3.5-.4.8-.1.3-.2.6-.3 1-.1.3-.1.7-.1 1v4.2c0 .3 0 .5.1.7.1.2.2.3.4.4.2.1.4.2.5.2h1.3V97z"/><path id="Pfad_20" class="st0" d="M234.1 96.1v.9h-5.7v-.9h.2c.2 0 .5 0 .7-.1.2 0 .4-.1.5-.2.2-.1.3-.3.4-.5.1-.3.2-.5.1-.8V83.3c0-.3 0-.5-.1-.7-.1-.2-.2-.3-.4-.4-.2-.1-.4-.2-.5-.2h-.9v-1h3.9v6.4h.1c.5-1.2 1.8-2 3.1-1.9.5 0 1.1.1 1.6.2.4.1.8.4 1.2.7.3.4.6.8.7 1.3.2.6.3 1.2.2 1.9v5c0 .3 0 .5.1.8.1.2.2.3.3.5.2.1.3.2.5.2s.4.1.6.1h.1v.8h-3.7v-7.3c0-.4 0-.8-.1-1.2-.1-.3-.2-.6-.4-.9-.2-.2-.4-.4-.7-.6-.3-.1-.7-.2-1.1-.2-.4 0-.8.1-1.1.2-.3.2-.6.4-.8.7-.2.3-.4.7-.5 1.1-.1.5-.2.9-.2 1.4v4.4c0 .3 0 .5.1.7.1.2.2.3.4.4.2.1.4.2.5.2.4.2.6.2.9.2z"/><path id="Pfad_21" class="st0" d="M242.2 96.1h.7c.2 0 .4-.1.6-.2.2-.1.3-.3.4-.4.1-.2.1-.5.1-.7v-6.7c0-.3 0-.5-.1-.7-.1-.2-.2-.3-.4-.4-.2-.1-.4-.2-.6-.2-.2 0-.4-.1-.7-.1h-.1v-.9h3.8v8.9c0 .3 0 .5.1.8.1.2.2.3.4.5.2.1.4.2.6.2.2 0 .4.1.7.1h.3v.7h-6v-.9h.2zm1.4-13.8c0-.2 0-.4.1-.6.1-.2.1-.3.3-.4.1-.1.2-.2.4-.2s.3-.1.5-.1.3 0 .5.1c.1 0 .3.1.4.2.1.1.2.3.3.4.1.4.1.8 0 1.2-.1.2-.1.3-.3.4-.1.1-.2.2-.4.2-.1 0-.3.1-.5.1s-.3 0-.5-.1c-.1 0-.3-.1-.4-.2-.1-.1-.2-.2-.3-.4 0-.2-.1-.4-.1-.6"/><path id="Pfad_22" class="st0" d="M248.7 96.1c.2 0 .4 0 .7-.1.2 0 .4-.1.5-.2.2-.1.3-.3.4-.5.1-.3.2-.5.1-.8V83.3c0-.3 0-.5-.1-.7-.1-.2-.2-.3-.4-.4-.2-.1-.4-.2-.5-.2h-1v-1h4v13.6c0 .3 0 .5.1.8.1.2.2.3.4.5.2.1.4.2.5.2.2 0 .4.1.7.1h.3v.8h-6v-.9h.3z"/><path id="Pfad_23" class="st0" d="M261.8 96.1v.9h-6.5v-.9h.3c.2 0 .5 0 .7-.1.2 0 .4-.1.5-.2.2-.1.3-.3.4-.5.1-.3.2-.5.1-.8v-7.9h-1.9v-1h1.9v-1c0-.6.1-1.1.3-1.7.2-.5.4-.9.7-1.2.3-.3.7-.6 1.2-.7.5-.2 1-.3 1.6-.3.5 0 .9 0 1.4.1l.9.3c.2.1.4.3.5.5.1.2.2.4.2.6 0 .2 0 .4-.1.5-.1.2-.2.3-.4.4-.2.1-.4.2-.5.2-.2.1-.5.1-.7.1 0-.2 0-.4-.1-.6 0-.2-.1-.4-.2-.5-.1-.2-.3-.3-.4-.4-.2-.1-.4-.2-.7-.1-.3 0-.5.1-.8.2-.2.1-.4.3-.5.5-.1.3-.2.6-.3.8-.1.4-.1.8-.1 1.2v1.2h3v1h-3v7.9c0 .3 0 .5.1.8.1.2.2.3.4.5.2.1.4.2.6.2.2 0 .4.1.7.1l.7-.1z"/><path id="Pfad_24" class="st0" d="M268.5 97.2c-.7 0-1.4-.1-2-.4-.6-.2-1.1-.6-1.5-1.1-.4-.5-.8-1.2-1-1.8-.2-.8-.3-1.6-.3-2.4-.1-1.6.3-3.1 1.2-4.4.9-1 2.1-1.6 3.5-1.5.6 0 1.2.1 1.8.3.5.2 1 .5 1.4.9.4.5.7 1 .9 1.6.2.7.3 1.4.3 2.2v1h-7c0 .7.1 1.3.2 2 .1.5.3 1 .6 1.4.2.3.6.6 1 .8.4.2.9.3 1.3.3.3 0 .7 0 1-.1.3-.1.6-.2.8-.3.2-.1.5-.3.7-.5.2-.2.3-.3.5-.6.1.1.2.1.3.3.1.1.1.3.1.5s-.1.5-.2.7c-.2.3-.4.5-.7.7-.4.2-.7.4-1.2.5-.6-.1-1.1-.1-1.7-.1m-.2-10.5c-.7 0-1.4.3-1.8 1-.5.8-.7 1.8-.7 2.8h4.8c0-.5 0-1-.1-1.5-.1-.4-.2-.8-.4-1.2-.2-.3-.4-.6-.7-.8-.4-.3-.7-.3-1.1-.3"/><path id="Pfad_25" class="st0" d="M156.6 49.7c0-1.1-.2-2.2-.6-3.2-.4-1.1-1.1-2.1-1.9-3-.9-1.1-2.2-1.8-3.5-2.2-1.8-.5-3.7-.8-5.5-.7-.4 0-.7 0-1.1.1-.4 0-.8.1-1.2.2-.2 0-.4.1-.7.1s-.5.1-.7.1c-.2.1-.5.2-.7.3s-.5.2-.7.3c-.8.4-1.6.9-2.2 1.5-.8.7-1.5 1.4-2.1 2.2-.7.9-1.2 1.8-1.5 2.9-.4 1.3-.7 2.5-.7 3.9 0 1.8.3 3.5.8 5.1.5 1.4 1.4 2.7 2.5 3.7 1.1.9 2.3 1.6 3.5 2.2 1.2.5 2.6.9 3.9 1h.4c0 .1.1.1.2.1h.9c.5 0 1.1 0 1.6-.1s1-.2 1.4-.4c.5-.2.9-.4 1.3-.6.5-.3.9-.6 1.3-.9.3-.2.5-.3.7-.6.2-.2.5-.4.7-.6l.7-.7.8-.8v8c0 .1-.1.2-.1.2v.1c-.6.4-1.2.8-1.8 1.1-.6.3-1.3.6-2 .8-.8.2-1.7.4-2.5.5-1.1.1-2.3.2-3.4.2h-1c-2.1 0-4.3-.4-6.2-1.2-2-.9-3.8-2.1-5.3-3.7-1.6-1.7-2.8-3.7-3.6-5.9-.8-2.4-1.3-5-1.2-7.5 0-2.3.4-4.6 1.2-6.8.8-2.1 2-4.1 3.5-5.8 1.6-1.8 3.6-3.1 5.8-4 2.6-.9 5.3-1.4 8-1.3 2.6 0 5.2.4 7.7 1.2 2.1.7 4.1 1.9 5.6 3.5 1.5 1.4 2.6 3.1 3.5 5 .8 1.7 1.1 3.5 1.1 5.4V70h-7V49.7zm-19.8-26c.2-.5.6-1 1-1.3.4-.4.9-.7 1.4-.8.5-.2 1-.3 1.5-.3s1.1.1 1.6.2c.5.2 1 .4 1.4.8.5.4.8.8 1 1.4a5 5 0 010 3.8c-.2.5-.5 1-.9 1.4-.4.3-.8.6-1.3.8-.5.2-1 .3-1.5.3h-.2c-.5 0-1-.1-1.5-.3-.5-.2-1-.5-1.4-.8-.4-.4-.8-.8-1-1.4-.3-.6-.4-1.2-.5-1.8v-.1c0-.7.1-1.3.4-1.9m12.1 0c.2-.5.6-1 1-1.3.4-.4.9-.7 1.4-.8.5-.2 1-.3 1.5-.3s1.1.1 1.6.2c.5.2 1 .4 1.4.8.5.4.8.8 1 1.4.3.6.4 1.3.4 1.9 0 .6-.1 1.3-.3 1.9-.2.5-.6 1-1 1.4-.4.3-.9.6-1.4.8-.5.2-1 .3-1.5.3-.5.1-1.1 0-1.6-.2s-1-.5-1.4-.8c-.5-.4-.8-.8-1.1-1.4-.2-.6-.3-1.2-.3-1.9v-.1c0-.7.1-1.3.3-1.9"/><path id="Pfad_26" class="st0" d="M176.4 34.7v3.5c.1-.1.2-.1.3-.2.1-.1.2-.3.3-.4.1-.2.2-.3.4-.4l.4-.4c.4-.4.8-.8 1.3-1.1.5-.4 1.1-.7 1.7-1 .6-.3 1.3-.5 2-.7.8-.2 1.6-.3 2.4-.3l2.4-.2V40h-1.8c-1.2.2-2.4.6-3.5 1.1-.9.5-1.8 1.1-2.5 1.8-.6.7-1.2 1.5-1.6 2.3-.4.8-.7 1.6-1 2.5-.2.6-.3 1.2-.4 1.8-.1.6-.1 1.1-.1 1.7-.1.6-.1 1.1-.1 1.5V70H170V34.7h6.4z"/><path id="Pfad_27" class="st0" d="M190.6 26.1h6.9v8.7h13.4v6.3h-13.4V59c0 .6 0 1.2.1 1.8.1.5.2 1 .4 1.5s.7.9 1.3 1.1c.9.3 1.8.4 2.8.3l8.2-.1V70h-9.1s-.1 0-.1.1h-.5c-1.5 0-3-.2-4.3-.7-1.2-.5-2.2-1.3-3-2.3-.8-1-1.4-2.1-1.8-3.3-.4-1.2-.7-2.4-.8-3.7-.1-.1-.1-.2-.1-.3V26.1z"/><path id="Pfad_28" class="st0" d="M215.2 25.1c.2-.5.5-.9 1-1.2.4-.3.8-.5 1.3-.7.5-.2.9-.3 1.4-.3.5 0 1 .1 1.5.2.5.2.9.4 1.3.7.4.3.8.7 1 1.2.2.5.3 1.1.3 1.7 0 .6-.1 1.2-.3 1.7-.2.5-.5.9-.9 1.2-.8.6-1.7 1-2.7 1-.5 0-1 0-1.5-.2s-1-.4-1.4-.7c-.4-.3-.8-.8-1-1.3-.2-.6-.3-1.1-.3-1.7v-.1c0-.5.1-1.1.3-1.5m.2 9.6h6.4V70h-6.4V34.7z"/><path id="Pfad_29" class="st0" d="M228.3 48.6c0-1.9.3-3.8 1-5.6.7-1.8 1.8-3.5 3.1-4.9 1.4-1.5 3.1-2.6 5-3.3 2.1-.8 4.3-1.2 6.5-1.1.4 0 .9 0 1.3.1.5 0 1 .1 1.5.2s1.1.2 1.7.4c.6.2 1.2.4 1.7.6 1 .4 2 1 2.9 1.7 1 .7 1.9 1.6 2.7 2.5.9 1 1.6 2.2 2 3.5.5 1.5.7 3.1.7 4.7V70h-7V49.2c0-2.2-.7-4.4-1.9-6.2-.6-1-1.5-1.7-2.5-2.2-1.2-.5-2.4-.8-3.7-.7-1.2 0-2.4.2-3.5.7-1 .4-1.9 1.1-2.6 2-.7.9-1.3 1.8-1.7 2.8-.4 1-.7 2.1-.8 3.2V70h-6.4V48.6z"/><path id="Pfad_30" class="st0" d="M114.6 8.4c-4.2-4.7-9.9-7-16.9-7-5.2-.2-10.2 1.4-14.3 4.6-4.2-3.2-9.2-4.8-14.4-4.7-5.8 0-10.7 1.6-14.6 4.8-3.9-3.2-8.8-4.8-14.6-4.8-7 0-12.7 2.3-16.9 7s-6.3 11-6.3 19v42.1h8.9V27.6c0-5.8 1.2-10.3 3.7-13.4s6-4.6 10.7-4.6c4.6 0 8.2 1.5 10.7 4.6 2.5 3.1 3.7 7.5 3.7 13.4v4.6h-25v8.9h25v28.4h8.9V27.4c.2-5.1-1-10.2-3.3-14.7 2.6-2.1 5.9-3.2 9.2-3.1 4.6 0 8.2 1.5 10.7 4.6s3.7 7.5 3.7 13.4v41.9h8.9V27.4c0-5.9-1.2-10.9-3.5-15 2.5-1.9 5.6-2.9 8.8-2.8 4.6 0 8.2 1.5 10.7 4.6 2.5 3.1 3.7 7.5 3.7 13.4v41.9h8.9V27.4c0-8-2.2-14.3-6.4-19"/></g></svg>