<svg version="1.1" id="Ebene_1" xmlns="http://www.w3.org/2000/svg" x="0" y="0" viewBox="0 0 31.9 41.3" xml:space="preserve"><style>.st0{fill:#fff}</style><g id="Gruppe_9"><path id="Pfad_36" class="st0" d="M8.5 16c.9.1 1.8-.2 2.6-.7.6-.6.9-1.5.8-2.3.1-.9-.2-1.7-.8-2.4-.8-.6-1.7-.9-2.6-.9H5.7v8.6h1.7V16h1.1zm-1.1-4.6h1c.5 0 .9.1 1.3.3.3.3.5.7.4 1.1 0 .4-.1.8-.3 1.1-.3.3-.8.4-1.2.4H7.4v-2.9z"/><path id="Pfad_37" class="st0" d="M18.7 17.2c.8-.9 1.2-2 1.1-3.2.1-1.2-.3-2.3-1.1-3.2-.9-.8-2.1-1.2-3.2-1.1h-2.8v8.6h2.7c1.2.2 2.4-.3 3.3-1.1M17.4 16c-.5.5-1.1.7-1.8.7h-1.1v-5.3h1c.7 0 1.5.2 2 .7.5.5.7 1.2.7 2-.1.7-.3 1.4-.8 1.9"/><path id="Pfad_38" class="st0" d="M26.2 11.4V9.7h-5.4v8.6h1.7V15H26v-1.7h-3.4v-1.9h3.6z"/><path id="Pfad_39" class="st0" d="M28.4.7h-25C2 .7.8 1.8.8 3.3v30.6c0 1.4 1.2 2.6 2.6 2.6h5.8l-.8-.8-.8-.8H3.4c-.6 0-1-.4-1-1V3.3c0-.6.4-1 1-1h25.1c.6 0 1 .4 1 1v30.6c0 .6-.4 1-1 1H25l-.8.8-.8.8h5.1c1.4 0 2.6-1.2 2.6-2.6V3.3c0-1.5-1.2-2.6-2.7-2.6"/><path id="Pfad_40" class="st0" d="M25.1 31.6h-5.4v-9h-7.5v8.8l-5.4-.1 9.3 9.3 9-9z"/></g></svg>