<svg xmlns="http://www.w3.org/2000/svg" width="56" height="58" fill="none"><path d="M7.319 29.888l3.075-1.461 2.164.896 1.14 3.208a.92.92 0 00.867.612h4.013a.921.921 0 00.867-.612l1.14-3.208 2.165-.896 3.074 1.461a.922.922 0 001.047-.18l2.837-2.837a.92.92 0 00.18-1.046l-1.461-3.075.896-2.164 3.208-1.14a.92.92 0 00.612-.868v-4.013a.921.921 0 00-.612-.867l-3.208-1.14-.896-2.165 1.461-3.075a.92.92 0 00-.18-1.046L26.87 3.435a.92.92 0 00-1.046-.18L22.75 4.716l-2.164-.896L19.445.612A.92.92 0 0018.578 0h-4.013a.92.92 0 00-.867.612l-1.14 3.208-2.165.896-3.074-1.461a.92.92 0 00-1.047.18L3.435 6.272a.92.92 0 00-.18 1.047l1.461 3.075-.896 2.164-3.208 1.14a.92.92 0 00-.612.867v4.013a.92.92 0 00.612.867l3.208 1.14.896 2.165-1.461 3.074a.92.92 0 00.18 1.047l2.837 2.837a.92.92 0 001.047.18zm-.745-7.465l-1.21-2.92a.92.92 0 00-.542-.515l-2.98-1.06v-2.713l2.98-1.06a.921.921 0 00.542-.515l1.21-2.92a.92.92 0 00-.02-.748L5.198 7.114l1.918-1.917 2.857 1.357a.92.92 0 00.748.02l2.92-1.21a.922.922 0 00.515-.542l1.06-2.98h2.713l1.06 2.98a.92.92 0 00.515.542l2.92 1.21a.92.92 0 00.748-.02l2.858-1.357 1.918 1.918-1.358 2.857a.92.92 0 00-.02.748l1.21 2.92a.92.92 0 00.542.515l2.98 1.06v2.713l-2.98 1.06a.92.92 0 00-.542.515l-1.21 2.92a.922.922 0 00.02.748l1.357 2.858-1.918 1.918-2.858-1.358a.917.917 0 00-.748-.02l-2.92 1.21a.921.921 0 00-.514.542l-1.06 2.98h-2.713l-1.06-2.98a.922.922 0 00-.515-.542l-2.92-1.21a.92.92 0 00-.748.02l-2.858 1.357-1.917-1.918 1.357-2.857a.92.92 0 00.02-.748z" fill="#0C9DF7"/><path d="M16.57 24.857a8.285 8.285 0 10-8.285-8.285 8.295 8.295 0 008.286 8.285zm0-14.73a6.445 6.445 0 11-6.444 6.444 6.451 6.451 0 016.445-6.444zM34.386 44.36l-1.21 2.92a.922.922 0 00.02.748l1.358 2.858-1.919 1.918-2.857-1.358a.919.919 0 00-.748-.019l-2.92 1.209a.921.921 0 00-.514.542l-1.06 2.98h-2.713l-1.06-2.98a.92.92 0 00-.515-.542l-2.92-1.21a.92.92 0 00-.748.02l-2.858 1.357-1.918-1.918 1.358-2.857a.919.919 0 00.019-.748l-1.21-2.92a.92.92 0 00-.541-.515l-2.98-1.06v-2.713l2.98-1.06a.92.92 0 00.542-.515l1.21-2.92a.92.92 0 00-.02-.748l-1.637-3.444-1.662.791 1.461 3.075-.896 2.164-3.207 1.14a.92.92 0 00-.613.868v4.012a.92.92 0 00.613.868l3.207 1.14.896 2.165-1.461 3.074a.92.92 0 00.18 1.046l2.837 2.837a.92.92 0 001.046.18l3.075-1.461 2.163.896 1.141 3.208a.92.92 0 00.868.612h4.013a.92.92 0 00.867-.612l1.14-3.208 2.165-.896 3.074 1.461a.92.92 0 001.046-.18l2.838-2.837a.92.92 0 00.18-1.046l-1.461-3.075 1.053-2.542-1.702-.705zm1.929-13.231l-2.837-2.837a.92.92 0 00-1.047-.18l-3.444 1.637.79 1.663 2.858-1.358 1.918 1.918-1.358 2.858a.922.922 0 00-.019.748l1.045 2.521 1.7-.704-.887-2.144 1.462-3.075a.921.921 0 00-.181-1.047z" fill="#0C9DF7"/><path d="M23.18 49.714a8.286 8.286 0 10-8.286-8.285 8.295 8.295 0 008.285 8.285zm0-14.73a6.445 6.445 0 11-6.445 6.444 6.452 6.452 0 016.444-6.444zM54.626 16.46l-3.207-1.14-.897-2.165 1.462-3.075a.921.921 0 00-.18-1.046l-2.838-2.837a.92.92 0 00-1.046-.18l-3.075 1.461-2.164-.896-1.14-3.208a.921.921 0 00-.868-.612H36.66a.921.921 0 00-.868.612l-1.14 3.208-2.543 1.053.705 1.7 2.92-1.209a.92.92 0 00.515-.542l1.06-2.98h2.713l1.06 2.98a.921.921 0 00.516.542l2.92 1.21a.92.92 0 00.748-.02l2.857-1.357 1.918 1.918-1.358 2.857a.92.92 0 00-.019.748l1.21 2.92a.921.921 0 00.541.515l2.98 1.06v2.712l-2.98 1.061a.92.92 0 00-.542.515l-1.21 2.92a.92.92 0 00.02.748l1.357 2.857-2.377 2.378 1.302 1.302 2.837-2.837a.92.92 0 00.18-1.046l-1.46-3.075.896-2.164 3.207-1.14a.92.92 0 00.612-.868v-4.013a.921.921 0 00-.612-.867z" fill="#0C9DF7"/><path d="M38.667 25.778a6.421 6.421 0 01-5.977-4.028l-1.707.69a8.286 8.286 0 103.54-10.283l.922 1.593a6.444 6.444 0 113.222 12.028zm10.443 9.206h-3.078v-3.682a2.762 2.762 0 00-5.524 0v7.904l-.618-.618a2.873 2.873 0 10-4.064 4.064l4.682 4.682v1.46h-.92a.92.92 0 00-.921.92V58h1.841v-7.365h11.048V58h1.841v-8.286a.92.92 0 00-.92-.92h-.921v-1.46l1.887-1.888a6.129 6.129 0 00-4.333-10.462zm3.031 9.16l-2.157 2.158a.92.92 0 00-.27.65v1.842H42.35v-1.842a.92.92 0 00-.27-.65l-4.952-4.952a1.032 1.032 0 111.46-1.46l2.19 2.19a.92.92 0 001.572-.651V31.302a.92.92 0 011.84 0v4.603a.92.92 0 00.922.92h3.998a4.287 4.287 0 013.031 7.32z" fill="#0C9DF7"/><path d="M47.873 52.476h1.841v1.842h-1.841v-1.842z" fill="#0C9DF7"/></svg>