<svg xmlns="http://www.w3.org/2000/svg" width="58" height="58" fill="none"><path d="M46.774 41.161v2.007a2.665 2.665 0 00-1.87 2.534c0 1.017.564 1.932 1.475 2.388l1.825.912a.8.8 0 01-.357 1.514h-.274a.8.8 0 01-.799-.799v-1.072h-1.87v1.072c0 1.193.79 2.193 1.87 2.534v2.007h1.871v-2.007a2.665 2.665 0 001.871-2.534 2.657 2.657 0 00-1.476-2.388l-1.824-.912a.8.8 0 01.357-1.514h.273a.8.8 0 01.8.8v1.071h1.87v-1.072c0-1.193-.79-2.193-1.87-2.534V41.16h-1.872z" fill="#0C9DF7"/><path d="M55.194 20.58A2.81 2.81 0 0058 17.775V2.806A2.81 2.81 0 0055.194 0H40.225a2.81 2.81 0 00-2.807 2.806v6.549H29c0-1.032-.84-1.871-1.871-1.871h-.055C26.606 3.28 23.035 0 18.71 0h-7.484C6.9 0 3.328 3.28 2.862 7.484h-.056c-1.031 0-1.87.839-1.87 1.87v1.872c0 1.032.839 1.87 1.87 1.87v4.744c0 4.265 2.683 8.137 6.678 9.635l.806.302v2.398C4.197 32.158 0 37.883 0 44.344c0 5.466 4.447 9.914 9.914 9.914h8.796v.935A2.81 2.81 0 0021.516 58h11.226a2.81 2.81 0 002.806-2.806v-6.549h1.92C37.94 53.882 42.35 58 47.71 58 53.383 58 58 53.383 58 47.71c0-5.359-4.118-9.769-9.355-10.243v-5.833A2.803 2.803 0 0050.516 29a2.803 2.803 0 00-1.87-2.634V20.58h6.547zM44.904 1.872h5.612v3.742h-5.613V1.87zm-5.614.935c0-.516.42-.935.936-.935h2.806v5.613h9.355V1.87h2.806c.516 0 .936.42.936.935v14.968c0 .517-.42.936-.935.936H40.225a.936.936 0 01-.936-.936V2.806zm-28.064-.935h7.484c3.292 0 6.017 2.445 6.473 5.613H4.753c.456-3.168 3.18-5.613 6.473-5.613zm-8.42 7.484H27.13v1.87l-24.323.002V9.355zm22.287 8.453a.993.993 0 01.165.549c0 .438-.243.832-.635 1.028l-1.236.617v3.385a2.81 2.81 0 01-2.806 2.806h-4.678v4.366l-1.87 2.494-1.872-2.493v-7.64l-2.868-2.152a2.193 2.193 0 01-.874-1.747c0-1.203.98-2.182 2.183-2.182h1.56v-3.742h11.225v2.154l1.706 2.557zM17.258 31.87l.292.038-.49 4.407-1.793-1.791 1.99-2.654zm-6.382.093l1.921 2.562-1.792 1.791-.472-4.244c.113-.041.229-.073.343-.11zm-.735-6.241a8.457 8.457 0 01-5.464-7.883v-4.743h5.613v1.883a4.06 4.06 0 00-3.742 4.041c0 1.269.607 2.481 1.622 3.244l2.12 1.59v1.924l-.15-.056zm-8.27 18.62c0-4.858 2.72-9.234 6.87-11.47l.835 7.52 4.456-4.457 4.457 4.457.912-8.21a12.969 12.969 0 019.227 7.107h-7.112a2.81 2.81 0 00-2.806 2.807v2.829A3.711 3.711 0 0016.29 46l-.774.774h-4.177a3.885 3.885 0 01-2.726-1.129 3.83 3.83 0 01-1.13-2.726v-2.693h-1.87v2.693c0 1.53.596 2.968 1.677 4.049a5.691 5.691 0 004.049 1.677h3.629v3.742H9.914c-4.435 0-8.043-3.608-8.043-8.044zm14.968 3.754l.774-.775a1.862 1.862 0 011.324-.548h1.644c1.032 0 1.87.84 1.87 1.871v1.871a1.872 1.872 0 01-1.87 1.871h-3.742v-4.29zm16.838 7.096c0 .517-.42.936-.935.936H21.516a.936.936 0 01-.935-.935v-.936a3.746 3.746 0 003.742-3.742v-1.87a3.746 3.746 0 00-3.742-3.743v-2.806c0-.517.42-.936.935-.936h11.226c.515 0 .935.42.935.936v13.096zM56.13 47.71c0 4.642-3.777 8.419-8.42 8.419-4.641 0-8.419-3.776-8.419-8.42 0-4.642 3.778-8.419 8.42-8.419 4.642 0 8.419 3.777 8.419 8.42zm-8.42-17.774a.936.936 0 010-1.872.936.936 0 010 1.872zm-.935-3.57A2.803 2.803 0 0044.904 29c0 1.218.784 2.247 1.87 2.634v5.833c-4.928.447-8.86 4.38-9.307 9.307h-1.919v-4.677a2.81 2.81 0 00-2.806-2.807h-2.066a14.847 14.847 0 00-11.8-9.092l-1.102-.146v-1.988h2.807a4.683 4.683 0 004.677-4.677V21.16l.202-.1a3.006 3.006 0 001.669-2.702c0-.566-.166-1.115-.48-1.587l-1.39-2.086v-1.587h1.87c1.032 0 1.871-.84 1.871-1.871h8.42v6.548a2.81 2.81 0 002.806 2.807h6.548v5.785z" fill="#0C9DF7"/><path d="M24.322 43.032h5.613v1.871h-5.613v-1.87z" fill="#0C9DF7"/></svg>