<svg xmlns="http://www.w3.org/2000/svg" width="60" height="58" fill="none"><path d="M40.134 9.676h-3.87V6.773a6.773 6.773 0 00-13.546 0v2.903h-3.87a.967.967 0 00-.968.967V31.93a2.911 2.911 0 002.903 2.903H33.36v-1.935H20.783a.967.967 0 01-.968-.968v-.967h13.546v-1.935H19.815V11.61h2.903v2.903h1.935V11.61h9.676v2.903h1.935V11.61h2.903v2.903h1.935v-3.87a.967.967 0 00-.968-.968zm-5.805 0h-9.676V6.773a4.838 4.838 0 119.676 0v2.903z" fill="#0C9DF7"/><path d="M53.681 16.449H36.265a.967.967 0 00-.968.968V31.93a2.911 2.911 0 002.903 2.903h13.546a2.912 2.912 0 002.903-2.903V17.417a.967.967 0 00-.968-.968zm-.968 15.481a.967.967 0 01-.967.968H38.2a.968.968 0 01-.968-.968v-.967h15.481v.967zm0-2.902H37.232V18.384h15.481v10.644z" fill="#0C9DF7"/><path d="M44.973 27.092a4.844 4.844 0 004.838-4.838V20.32h-1.935v1.935a2.903 2.903 0 01-5.806 0V20.32h-1.935v1.935a4.843 4.843 0 004.838 4.838zM58.84 41.17a3.976 3.976 0 00-5.008-1.994l-8.64 3.144a3.87 3.87 0 00-3.072-2.863L30.448 37.4a14.53 14.53 0 00-7.484.655l-1.504.553a16.37 16.37 0 00-3.967 2.108l-.214-.587a.967.967 0 00-1.24-.58L5.13 43.513a.967.967 0 00-.581 1.24L0 46.408l.662 1.818 4.547-1.654 3.947 10.844 1.818-.661-4.272-11.753 9.095-3.309 4.965 13.643-2.323.847.662 1.817 3.23-1.18a.965.965 0 00.58-1.24l-.33-.91 2.225-.811c1.4-.512 2.89-.722 4.376-.618l4.59.319a12.426 12.426 0 005.172-.729l17.688-6.437a3.87 3.87 0 002.207-5.225v.002zm-1.779 2.403a1.92 1.92 0 01-1.09 1.002l-17.688 6.438a10.54 10.54 0 01-4.376.616l-4.59-.318a12.538 12.538 0 00-5.17.729l-2.232.812-3.73-10.25a14.463 14.463 0 013.938-2.182l1.502-.547a12.593 12.593 0 016.487-.568l11.667 2.058a1.936 1.936 0 11-.671 3.812l-10.482-1.848-.337 1.906 10.482 1.848a3.853 3.853 0 004.36-2.68l9.359-3.407a2.061 2.061 0 012.58.967 1.945 1.945 0 01-.009 1.612z" fill="#0C9DF7"/></svg>