<svg xmlns="http://www.w3.org/2000/svg" width="54" height="58" fill="none"><path d="M12.657 9.076C5.677 9.076 0 14.754 0 21.733s5.678 12.656 12.657 12.656c6.978 0 12.656-5.677 12.656-12.656 0-6.98-5.677-12.657-12.656-12.657zm0 23.61c-6.04 0-10.954-4.913-10.954-10.953 0-6.04 4.913-10.954 10.954-10.954 6.04 0 10.954 4.914 10.954 10.954 0 6.04-4.914 10.954-10.954 10.954z" fill="#0C9DF7"/><path d="M16.448 19.86c.47 0 .851-.381.851-.851V18.1a3.58 3.58 0 00-3.575-3.575h-.057v-1.873a.851.851 0 00-1.703 0v1.893a4.035 4.035 0 00-3.632 4.01 4.034 4.034 0 004.03 4.03h.908a2.33 2.33 0 012.327 2.326 2.33 2.33 0 01-2.327 2.327h-1.362a1.875 1.875 0 01-1.873-1.873.851.851 0 10-1.703 0 3.58 3.58 0 003.576 3.576h.056v1.873a.851.851 0 001.703 0V28.92a4.035 4.035 0 003.632-4.01 4.034 4.034 0 00-4.03-4.03h-.907a2.33 2.33 0 01-2.327-2.326 2.33 2.33 0 012.327-2.328h1.362c1.033 0 1.873.84 1.873 1.873v.909c0 .47.381.85.851.85zm9.83 21.794a.85.85 0 00.851-.851v-5.449a.851.851 0 00-.851-.85H2.668a.851.851 0 00-.852.85v4.598H.851a.851.851 0 00-.851.851v5.449c0 .47.381.85.851.85h.965v3.747H.851A.851.851 0 000 51.7v5.449c0 .47.381.851.851.851h23.61a.851.851 0 00.852-.851V52.55h.965a.85.85 0 00.851-.85v-5.45a.851.851 0 00-.851-.85h-.965v-3.747h.965zM1.703 45.4v-3.746H23.61V45.4H1.703zM23.61 56.297H1.703v-3.745H23.61v3.745zm1.817-9.194v3.746H3.519v-3.746h21.908zM3.519 39.952v-3.746h21.908v3.745H3.519zM53.27 15.743L40.557.305a.86.86 0 00-1.315 0L26.53 15.743c-.449.545-.047 1.393.657 1.393h5.506v26.391c0 .47.38.852.851.852h12.713c.47 0 .852-.382.852-.852v-3.575a.851.851 0 10-1.703 0v2.724h-11.01V16.284a.851.851 0 00-.852-.851H28.99L39.9 2.186l10.91 13.247h-4.554a.851.851 0 00-.85.851v19.638a.851.851 0 001.702 0V17.136h5.505c.704 0 1.106-.848.657-1.393zm-7.014 31.473H33.543a.851.851 0 000 1.703h12.713a.851.851 0 000-1.703zm0 4.541H33.543a.851.851 0 000 1.703h12.713a.851.851 0 000-1.703zm0 4.54H33.543a.851.851 0 000 1.703h12.713a.851.851 0 000-1.703z" fill="#0C9DF7"/></svg>