<svg xmlns="http://www.w3.org/2000/svg" width="58" height="58" fill="none"><path d="M47.65.283L45.033 2.9h-3.466a.967.967 0 00-.967.967v3.466l-3.3 3.3h-3.467a.967.967 0 00-.966.967v3.466l-3.3 3.3H26.1a.966.966 0 00-.967.967V22.8l-4.267 4.268h-3.305a11.557 11.557 0 015.194-7.844l-1.043-1.628A13.535 13.535 0 0029 42.533h12.416A18.381 18.381 0 0129 47.367c-10.128 0-18.367-8.24-18.367-18.367H8.7c0 1.629.195 3.252.583 4.833h-7.35v-9.666h7.734a.966.966 0 00.893-.597l1.561-3.77a.967.967 0 00-.21-1.053l-5.468-5.468 6.836-6.836 5.468 5.469a.965.965 0 001.053.21l3.77-1.562a.967.967 0 00.597-.893V1.933h9.666v5.8h1.934V.967A.967.967 0 0034.8 0H23.2a.967.967 0 00-.967.967V9.02l-2.576 1.067-5.695-5.695a.967.967 0 00-1.367 0l-8.202 8.202a.967.967 0 000 1.367l5.695 5.695-1.067 2.576H.967A.967.967 0 000 23.2v11.6a.967.967 0 00.967.967H9.02l1.067 2.576-5.695 5.695a.967.967 0 000 1.367l8.202 8.202a.967.967 0 001.367 0l5.695-5.695 2.576 1.067v8.054A.967.967 0 0023.2 58h11.6a.967.967 0 00.967-.967V48.98l2.576-1.067 5.695 5.695a.967.967 0 001.367 0l8.202-8.202a.967.967 0 000-1.367l-1.504-1.505h4.93a.967.967 0 00.967-.966V8.7a.967.967 0 00-.967-.967H49.3a.967.967 0 00-.967.967v6.767h-6.766a.967.967 0 00-.967.966v4.834h-6.767a.967.967 0 00-.966.966v5.8H26.1a.967.967 0 00-.967.967v3.867h-7.07A11.548 11.548 0 0117.4 29h3.867a.967.967 0 00.683-.283l4.55-4.55h3.467a.967.967 0 00.966-.967v-3.466l3.3-3.3H37.7a.966.966 0 00.967-.967V12l3.3-3.301h3.466a.967.967 0 00.967-.967V4.267l2.334-2.334H58V0h-9.667a.967.967 0 00-.683.283zM13.279 51.557L6.443 44.72l5.201-5.2a20.456 20.456 0 006.836 6.835l-5.201 5.2zm10.888 4.51v-7.35c3.175.778 6.491.777 9.666-.002v7.352h-9.666zm27.39-11.346l-6.836 6.836-5.2-5.2a20.309 20.309 0 004.608-3.824h5.24l2.188 2.188zm-1.29-35.054h5.8V40.6h-5.8V9.667zM42.533 17.4h5.8v23.2h-5.8V17.4zM34.8 23.2h5.8v17.4h-5.8V23.2zm-7.733 6.767h5.8V40.6H29c-.648 0-1.294-.054-1.933-.162V29.967zM25.133 34.8v5.137a11.663 11.663 0 01-6.176-5.137h6.176zM29 22.233h-1.933V20.3H29v1.933zm7.733-7.733H34.8v-1.933h1.933V14.5zm7.734-7.733h-1.934V4.833h1.934v1.934z" fill="#0C9DF7"/></svg>