<svg xmlns="http://www.w3.org/2000/svg" width="58" height="58" fill="none"><path d="M14.477 23.251h21.234V43.52h1.93V22.286a.965.965 0 00-.965-.965H13.512a.965.965 0 00-.965.965v16.408h1.93V23.251z" fill="#0C9DF7"/><path d="M31.85 33.868h-1.93v-2.895a.965.965 0 00-.965-.965h-2.896v-2.896a.965.965 0 00-.965-.965h-3.86a.965.965 0 00-.966.965v6.756h-1.93v1.93H31.85v-1.93zm-3.86-1.93v1.93h-1.93v-1.93h1.93zm-5.791-3.86h1.93v5.79h-1.93v-5.79zm19.064 16.513a3.456 3.456 0 00-2.707.005l-6.24 2.65a3.38 3.38 0 00-3.36-3.726h-7.488a4.903 4.903 0 01-2.181-.515 22.665 22.665 0 00-10.084-2.38H6.756a.965.965 0 00-.965-.966H0v1.93h4.826v11.583H0v1.93h5.791a.965.965 0 00.965-.965v-.368l7.206 2.992a16.702 16.702 0 0012.283.136l14.91-5.686a3.509 3.509 0 001.97-1.878 3.571 3.571 0 00.058-2.77 3.514 3.514 0 00-1.92-1.972zm.097 3.962a1.594 1.594 0 01-.893.855l-14.91 5.685a14.772 14.772 0 01-10.861-.117l-7.94-3.297v-9.124h2.447c3.2.004 6.356.749 9.22 2.176a6.846 6.846 0 003.045.72h7.487a1.447 1.447 0 01.057 2.892c-.038.001-.077.003-.116.003H17.373v1.93h11.523l.06-.001v.001a5.965 5.965 0 002.285-.477l8.068-3.426a1.539 1.539 0 011.206-.002 1.597 1.597 0 01.871.898 1.657 1.657 0 01-.026 1.284zm15.292-26.656L50.19 11.396V8.13l2.702-3.603a.965.965 0 00.193-.58 3.947 3.947 0 00-5.713-3.53l-2.974 1.486L41.425.417a3.948 3.948 0 00-5.713 3.53c0 .21.068.413.193.58l2.703 3.603v3.266l-4.683 7.61 1.644 1.01 4.543-7.382h8.573l6.323 10.275a6.558 6.558 0 01-5.585 9.994h-9.85v1.93h9.85a8.488 8.488 0 007.229-12.936zM38.599 2.232a2.004 2.004 0 011.963-.089l3.405 1.703a.965.965 0 00.863 0l3.405-1.703a2.018 2.018 0 012.899 1.51l-2.392 3.19h-8.687l-2.392-3.19a2.002 2.002 0 01.936-1.421zm9.66 8.472h-7.721v-1.93h7.721v1.93z" fill="#0C9DF7"/><path d="M41.503 25.182v.14a2.76 2.76 0 001.93 2.629v1.091h1.93v-1.091a2.755 2.755 0 00.408-5.093l-1.882-.94a.824.824 0 01.369-1.562h.281a.825.825 0 01.825.824v.14h1.93v-.14a2.76 2.76 0 00-1.93-2.629v-1.09h-1.93v1.09a2.755 2.755 0 00-.408 5.093l1.882.941a.825.825 0 01-.369 1.562h-.281a.826.826 0 01-.825-.825v-.14h-1.93zm9.651-2.896h-1.93v1.93h1.93v-1.93zM19.303 38.694h-1.93v1.93h1.93v-1.93zm13.513 0H21.234v1.93h11.582v-1.93zM29.32 6.451l-1.184 3.553 1.831.61L31.8 5.12a.967.967 0 00-.611-1.22l-5.494-1.832-.61 1.832 2.993.997A20.44 20.44 0 0017.682 16.16l1.808.675a18.493 18.493 0 019.83-10.383zm10.06 33.807l.384 1.891a20.248 20.248 0 009.354-4.661l-1.277-1.448a18.317 18.317 0 01-8.461 4.218z" fill="#0C9DF7"/></svg>