<svg xmlns="http://www.w3.org/2000/svg" width="52" height="58" fill="none"><path d="M24.167 11.6h9.666a.967.967 0 00.967-.967A10.646 10.646 0 0024.167 0a.967.967 0 00-.967.967v9.666a.967.967 0 00.967.967zm.966-9.614a8.72 8.72 0 017.68 7.68h-7.68v-7.68zM3.866 27.067h11.6V29h-11.6v-1.933zm0 5.8H11.6V34.8H3.866v-1.933z" fill="#0C9DF7"/><path d="M51.233 26.1a12.554 12.554 0 00-20.474-9.754c.112-.609.17-1.227.174-1.846a.966.966 0 00-.966-.967h-8.7v-8.7a.967.967 0 00-.967-.966A10.644 10.644 0 0010.082 11.6H4.833A4.833 4.833 0 000 16.433v25.134A4.834 4.834 0 004.833 46.4h13.534v5.8h-2.9a2.909 2.909 0 00-2.9 2.9v1.933a.967.967 0 00.966.967h17.4a.967.967 0 00.967-.967V55.1a2.91 2.91 0 00-2.9-2.9h-2.9v-5.8h7.733v6.767a4.834 4.834 0 009.667 0v-11.6a.967.967 0 00-.967-.967h-.966v-2.281A12.591 12.591 0 0051.233 26.1zm-31.9-20.242V14.5a.966.966 0 00.967.967h8.642a8.7 8.7 0 11-9.609-9.609zM29 54.133a.966.966 0 01.967.967v.967H14.5V55.1a.966.966 0 01.967-.967H29zM20.3 52.2v-5.8h3.867v5.8H20.3zm14.5-11.6a.966.966 0 00-.967.967v2.9h-29a2.909 2.909 0 01-2.9-2.9V40.6H31.9v-1.933H1.933V16.433a2.908 2.908 0 012.9-2.9h4.882a10.61 10.61 0 00-.048.967 10.623 10.623 0 0016.8 8.652A12.41 12.41 0 0026.1 26.1a12.591 12.591 0 009.667 12.219V40.6H34.8zm6.767 12.567a2.9 2.9 0 01-5.8 0V42.533h5.8v10.634zM37.7 40.6v-1.982c.319.02.638.049.967.049.328 0 .647-.03.966-.049V40.6H37.7zm.967-3.867A10.633 10.633 0 1149.3 26.1a10.64 10.64 0 01-10.633 10.633z" fill="#0C9DF7"/><path d="M38.667 17.4a8.7 8.7 0 108.7 8.7 8.71 8.71 0 00-8.7-8.7zm0 15.467a6.767 6.767 0 116.767-6.767 6.775 6.775 0 01-6.767 6.767zM37.7 48.333h1.933v5.8H37.7v-5.8z" fill="#0C9DF7"/></svg>