<?xml version="1.0" standalone="no"?>
<!DOCTYPE svg PUBLIC "-//W3C//DTD SVG 20010904//EN"
 "http://www.w3.org/TR/2001/REC-SVG-20010904/DTD/svg10.dtd">
<svg version="1.0" xmlns="http://www.w3.org/2000/svg"
 width="100.000000pt" height="100.000000pt" viewBox="0 0 100.000000 100.000000"
 preserveAspectRatio="xMidYMid meet">
<metadata>
Created by potrace 1.16, written by Peter Selinger 2001-2019
</metadata>
<g transform="translate(0.000000,100.000000) scale(0.100000,-0.100000)"
fill="#DCC48E" stroke="none">
<path d="M348 981 c-214 -69 -348 -254 -348 -481 0 -287 213 -500 500 -500
287 0 500 213 500 500 0 227 -136 415 -349 480 -83 26 -223 26 -303 1z m-68
-327 l0 -85 26 20 c38 30 103 28 137 -3 31 -29 39 -77 35 -201 l-3 -90 -40 0
-40 0 -3 115 c-2 94 -6 117 -19 128 -25 18 -41 15 -68 -13 -23 -23 -25 -31
-25 -130 l0 -105 -40 0 -40 0 0 225 0 225 40 0 40 0 0 -86z m318 3 l3 -77 29
15 c48 25 97 19 131 -14 l29 -29 0 -131 0 -131 -40 0 -40 0 0 114 c0 91 -3
118 -16 130 -19 20 -44 20 -70 2 -16 -12 -20 -30 -24 -128 l-5 -113 -40 0 -40
0 -3 210 c-1 115 0 215 3 223 3 9 18 12 42 10 l38 -3 3 -78z"/>
</g>
</svg>
