<svg width="1771" height="2017.8" xmlns="http://www.w3.org/2000/svg">

 <g>
  <title>background</title>
  <rect fill="none" id="canvas_background" height="2019.8" width="1773" y="-1" x="-1"/>
 </g>
 <g>
  <title>Layer 1</title>
  <path id="svg_2" fill="#1572b6" d="m161.2,1813.099512l-161.2,-1807.7l1771,0l-161.4,1807.4l-725.2,201l-723.2,-200.7z"/>
  <path id="svg_3" fill="#33a9dc" d="m885.5,1860.199512l586,-162.5l137.8,-1544.5l-723.8,0l0,1707z"/>
  <path id="svg_4" fill="#fff" d="m885.5,808.099512l293.4,0l20.2,-227l-313.6,0l0,-221.6l556,0l-5.3,59.5l-54.5,611l-496.2,0l0,-221.9z"/>
  <path id="svg_5" fill="#ebebeb" d="m886.7,1383.899512l-1,0l-246.9,-66.7l-15.8,-176.8l-222.4,0l31.1,348.1l454.2,126.4l1.3,0l0,-231l-0.5,0z"/>
  <path id="svg_6" fill="#fff" d="m1160.1,1020.299512l-26.7,296.7l-247.3,66.7l0,231l454.5,-126l3.3,-37.5l38.6,-431l-222.4,0l0,0.1z"/>
  <path id="svg_7" fill="#ebebeb" d="m886.3,359.499512l0,221.7l-535.4,0l-4.6,-49.8l-10.1,-112.4l-5.3,-59.5l555.4,0zm-0.8,448.6l0,221.7l-244.1,0l-4.3,-49.8l-10.1,-112.4l-5.3,-59.5l263.7,0l0.1,0z"/>
 </g>
</svg>