<?xml version="1.0" encoding="UTF-8"?> <svg xmlns="http://www.w3.org/2000/svg" width="56" height="58" viewBox="0 0 56 58" fill="none"> <path d="M7.31905 29.8883L10.3936 28.4268L12.5578 29.3233L13.6985 32.5308C13.7621 32.7097 13.8796 32.8647 14.0348 32.9742C14.19 33.0838 14.3753 33.1427 14.5653 33.1429H18.5776C18.7677 33.1428 18.9531 33.084 19.1084 32.9744C19.2637 32.8648 19.3813 32.7098 19.445 32.5308L20.5856 29.3233L22.7498 28.4268L25.8244 29.8883C25.9961 29.9698 26.1888 29.9962 26.3762 29.9639C26.5635 29.9316 26.7362 29.8421 26.8707 29.7077L29.7077 26.871C29.8422 26.7366 29.9317 26.5639 29.964 26.3765C29.9964 26.1892 29.9699 25.9964 29.8883 25.8247L28.4268 22.7502L29.3233 20.586L32.5308 19.4453C32.7099 19.3816 32.8649 19.264 32.9745 19.1086C33.0841 18.9532 33.1429 18.7677 33.1429 18.5776V14.5653C33.1428 14.3752 33.084 14.1898 32.9744 14.0345C32.8648 13.8792 32.7098 13.7616 32.5308 13.6979L29.3233 12.5572L28.4268 10.393L29.8883 7.31847C29.97 7.14673 29.9965 6.9539 29.9642 6.76649C29.9318 6.57907 29.8423 6.40627 29.7077 6.27183L26.871 3.43512C26.7366 3.30067 26.5639 3.21114 26.3765 3.17881C26.1892 3.14648 25.9964 3.17294 25.8247 3.25456L22.7502 4.71607L20.586 3.8196L19.445 0.612107C19.3813 0.433023 19.2637 0.278044 19.1084 0.168448C18.9531 0.0588511 18.7677 9.25208e-06 18.5776 0L14.5653 0C14.3752 9.25208e-06 14.1898 0.0588511 14.0345 0.168448C13.8792 0.278044 13.7616 0.433023 13.6979 0.612107L12.5572 3.8196L10.393 4.71607L7.31905 3.25456C7.14724 3.17273 6.95429 3.14616 6.76675 3.17849C6.57922 3.21082 6.40631 3.30048 6.27183 3.43512L3.43512 6.27183C3.30048 6.40631 3.21082 6.57922 3.17849 6.76675C3.14616 6.95429 3.17273 7.14724 3.25456 7.31905L4.71607 10.3936L3.8196 12.5578L0.612107 13.6979C0.433023 13.7616 0.278044 13.8792 0.168448 14.0345C0.0588511 14.1898 9.25208e-06 14.3752 0 14.5653V18.5776C9.25208e-06 18.7677 0.0588511 18.9531 0.168448 19.1084C0.278044 19.2637 0.433023 19.3813 0.612107 19.445L3.8196 20.5856L4.71607 22.7498L3.25456 25.8244C3.17286 25.9961 3.14636 26.189 3.17869 26.3764C3.21102 26.5638 3.3006 26.7366 3.43512 26.871L6.27183 29.7077C6.40637 29.8423 6.57927 29.9319 6.76678 29.9642C6.95429 29.9965 7.14721 29.97 7.31905 29.8883V29.8883ZM6.57379 22.4232L5.36408 19.503C5.31478 19.384 5.24103 19.2766 5.14762 19.1879C5.05421 19.0993 4.94322 19.0312 4.82183 18.9881L1.84127 17.9279V15.215L4.82183 14.1548C4.9432 14.1116 5.05416 14.0435 5.14753 13.9548C5.2409 13.866 5.3146 13.7587 5.36385 13.6397L6.57379 10.7196C6.62317 10.6006 6.64699 10.4725 6.64372 10.3436C6.64045 10.2148 6.61016 10.088 6.55481 9.97163L5.19687 7.11432L7.11478 5.19652L9.97209 6.55446C10.0885 6.60987 10.2152 6.64019 10.3441 6.64346C10.4729 6.64673 10.6011 6.62288 10.7201 6.57345L13.6404 5.36373C13.7592 5.31442 13.8664 5.2407 13.9551 5.14736C14.0437 5.05401 14.1117 4.94311 14.1548 4.82183L15.215 1.84127H17.9279L18.9881 4.82183C19.0312 4.9432 19.0994 5.05416 19.1881 5.14753C19.2768 5.2409 19.3842 5.3146 19.5032 5.36385L22.4232 6.57379C22.5423 6.62323 22.6704 6.64708 22.7992 6.64381C22.9281 6.64054 23.0548 6.61021 23.1712 6.55481L26.0285 5.19687L27.9468 7.11513L26.5889 9.97243C26.5335 10.0888 26.5032 10.2156 26.4999 10.3444C26.4967 10.4733 26.5205 10.6014 26.5699 10.7204L27.7796 13.6407C27.8289 13.7595 27.9026 13.8666 27.9958 13.9551C28.0891 14.0437 28.1999 14.1117 28.321 14.1548L31.3016 15.2148V17.9276L28.321 18.9881C28.1997 19.0312 28.0887 19.0994 27.9953 19.1881C27.902 19.2768 27.8283 19.3842 27.779 19.5032L26.5691 22.4232C26.5197 22.5423 26.4959 22.6704 26.4991 22.7992C26.5024 22.9281 26.5327 23.0548 26.5881 23.1712L27.946 26.0285L26.0277 27.9468L23.1704 26.5889C23.054 26.5334 22.9273 26.5031 22.7984 26.4999C22.6696 26.4966 22.5415 26.5204 22.4224 26.5699L19.5022 27.7796C19.3834 27.8289 19.2763 27.9026 19.1877 27.9958C19.0992 28.0891 19.0312 28.1999 18.9881 28.321L17.9279 31.3016H15.215L14.1548 28.321C14.1116 28.1997 14.0435 28.0887 13.9548 27.9953C13.866 27.902 13.7587 27.8283 13.6397 27.779L10.7196 26.5691C10.6006 26.5196 10.4725 26.4958 10.3436 26.499C10.2148 26.5023 10.088 26.5326 9.97163 26.5881L7.11432 27.946L5.19652 26.0281L6.55446 23.1708C6.6098 23.0545 6.64012 22.9278 6.64345 22.799C6.64678 22.6703 6.62305 22.5422 6.57379 22.4232V22.4232Z" fill="#0C9DF7"></path> <path d="M16.5709 24.8572C18.2096 24.8572 19.8116 24.3713 21.1742 23.4608C22.5367 22.5504 23.5987 21.2563 24.2259 19.7423C24.853 18.2283 25.0171 16.5623 24.6974 14.955C24.3777 13.3477 23.5885 11.8714 22.4298 10.7126C21.271 9.55382 19.7946 8.76468 18.1873 8.44498C16.5801 8.12527 14.9141 8.28936 13.4001 8.91648C11.886 9.54361 10.592 10.6056 9.68155 11.9682C8.7711 13.3308 8.28516 14.9327 8.28516 16.5715C8.28762 18.7682 9.16137 20.8743 10.7147 22.4276C12.268 23.981 14.3741 24.8547 16.5709 24.8572V24.8572ZM16.5709 10.127C17.8455 10.127 19.0914 10.505 20.1512 11.2131C21.211 11.9212 22.037 12.9277 22.5248 14.1053C23.0125 15.2829 23.1401 16.5786 22.8915 17.8287C22.6428 19.0788 22.0291 20.2271 21.1278 21.1284C20.2265 22.0297 19.0782 22.6434 17.8281 22.8921C16.578 23.1408 15.2823 23.0131 14.1047 22.5254C12.9271 22.0376 11.9206 21.2116 11.2125 20.1518C10.5044 19.092 10.1264 17.8461 10.1264 16.5715C10.1283 14.8629 10.8079 13.2248 12.0161 12.0167C13.2242 10.8085 14.8623 10.129 16.5709 10.127V10.127Z" fill="#0C9DF7"></path> <path d="M34.3863 44.3601L33.1768 47.2803C33.1274 47.3994 33.1036 47.5275 33.1068 47.6564C33.1101 47.7852 33.1404 47.9119 33.1958 48.0283L34.5537 50.8856L32.6354 52.8039L29.7781 51.446C29.6617 51.3906 29.535 51.3603 29.4061 51.3571C29.2773 51.3538 29.1492 51.3776 29.0301 51.427L26.1109 52.6359C25.9919 52.6852 25.8845 52.7589 25.7958 52.8522C25.707 52.9456 25.6389 53.0566 25.5957 53.1779L24.5355 56.1587H21.8229L20.7628 53.1781C20.7197 53.0568 20.6516 52.9458 20.5628 52.8524C20.4741 52.7591 20.3667 52.6854 20.2477 52.6361L17.3275 51.4264C17.2084 51.377 17.0803 51.3531 16.9514 51.3564C16.8226 51.3597 16.6958 51.39 16.5795 51.4454L13.7221 52.8033L11.8039 50.8851L13.1618 48.0278C13.2172 47.9114 13.2475 47.7846 13.2507 47.6558C13.254 47.5269 13.2302 47.3988 13.1808 47.2798L11.9713 44.3595C11.922 44.2407 11.8484 44.1336 11.7551 44.045C11.6619 43.9564 11.5511 43.8884 11.43 43.8452L8.44944 42.7853V40.0721L11.43 39.0121C11.5514 38.969 11.6623 38.9008 11.7557 38.8121C11.8491 38.7234 11.9228 38.616 11.9721 38.497L13.1816 35.5768C13.231 35.4577 13.2548 35.3296 13.2515 35.2007C13.2483 35.0719 13.218 34.9451 13.1626 34.8287L11.5254 31.3846L9.86284 32.1762L11.3244 35.2507L10.428 37.4149L7.22051 38.5555C7.0414 38.6192 6.88641 38.7368 6.77681 38.8921C6.66721 39.0474 6.60838 39.2328 6.6084 39.4229V43.4353C6.60838 43.6254 6.66721 43.8108 6.77681 43.9662C6.88641 44.1215 7.0414 44.2391 7.22051 44.3028L10.428 45.4433L11.3244 47.6075L9.86284 50.6821C9.78124 50.8538 9.7548 51.0466 9.78715 51.2339C9.8195 51.4212 9.90905 51.594 10.0435 51.7284L12.8802 54.5649C13.0146 54.6993 13.1873 54.7888 13.3747 54.8211C13.562 54.8535 13.7547 54.827 13.9264 54.7454L17.001 53.2839L19.1645 54.1804L20.3053 57.3879C20.369 57.567 20.4866 57.7221 20.6421 57.8317C20.7975 57.9413 20.983 58.0001 21.1732 58H25.1855C25.3756 58 25.5611 57.9412 25.7164 57.8316C25.8717 57.722 25.9893 57.567 26.053 57.3879L27.1936 54.1804L29.3577 53.2839L32.4322 54.7454C32.6039 54.827 32.7966 54.8535 32.9839 54.8211C33.1713 54.7888 33.344 54.6993 33.4784 54.5649L36.3156 51.7281C36.45 51.5937 36.5396 51.421 36.5719 51.2337C36.6043 51.0463 36.5778 50.8536 36.4962 50.6818L35.0347 47.6073L36.0877 45.0651L34.3863 44.3601Z" fill="#0C9DF7"></path> <path d="M36.3146 31.129L33.4775 28.2923C33.3431 28.1578 33.1703 28.0683 32.983 28.036C32.7957 28.0037 32.603 28.0301 32.4313 28.1117L28.9873 29.7489L29.7778 31.412L32.6351 30.054L34.5533 31.9723L33.1954 34.8296C33.1401 34.946 33.1098 35.0727 33.1065 35.2016C33.1032 35.3304 33.127 35.4585 33.1764 35.5776L34.2209 38.0992L35.9219 37.3945L35.0341 35.251L36.4957 32.1764C36.5775 32.0045 36.604 31.8115 36.5716 31.6239C36.5392 31.4363 36.4494 31.2634 36.3146 31.129V31.129Z" fill="#0C9DF7"></path> <path d="M23.1793 49.7143C24.818 49.7143 26.42 49.2283 27.7826 48.3179C29.1451 47.4074 30.2071 46.1134 30.8343 44.5993C31.4614 43.0853 31.6255 41.4193 31.3058 39.8121C30.9861 38.2048 30.1969 36.7284 29.0382 35.5697C27.8794 34.4109 26.403 33.6217 24.7957 33.302C23.1885 32.9823 21.5225 33.1464 20.0085 33.7735C18.4944 34.4007 17.2004 35.4627 16.2899 36.8252C15.3795 38.1878 14.8936 39.7898 14.8936 41.4285C14.896 43.6253 15.7698 45.7314 17.3231 47.2847C18.8764 48.838 20.9825 49.7118 23.1793 49.7143V49.7143ZM23.1793 34.9841C24.4539 34.9841 25.6998 35.3621 26.7596 36.0702C27.8194 36.7783 28.6454 37.7848 29.1332 38.9624C29.6209 40.1399 29.7485 41.4357 29.4999 42.6858C29.2512 43.9359 28.6375 45.0842 27.7362 45.9855C26.8349 46.8867 25.6866 47.5005 24.4365 47.7492C23.1864 47.9978 21.8907 47.8702 20.7131 47.3824C19.5355 46.8947 18.529 46.0687 17.8209 45.0089C17.1128 43.9491 16.7348 42.7031 16.7348 41.4285C16.7367 39.72 17.4163 38.0819 18.6245 36.8737C19.8326 35.6656 21.4707 34.986 23.1793 34.9841V34.9841Z" fill="#0C9DF7"></path> <path d="M54.6261 16.4598L51.4186 15.3191L50.5221 13.155L51.9836 10.0804C52.0653 9.90863 52.0918 9.7158 52.0595 9.52839C52.0272 9.34097 51.9376 9.16817 51.8031 9.03373L48.9664 6.19702C48.832 6.06258 48.6592 5.97304 48.4719 5.94071C48.2845 5.90838 48.0918 5.93484 47.9201 6.01646L44.8455 7.47797L42.6813 6.5815L41.5408 3.37401C41.477 3.19485 41.3594 3.03982 41.204 2.93022C41.0486 2.82061 40.8631 2.76182 40.6729 2.7619H36.6606C36.4705 2.76189 36.2851 2.82072 36.1297 2.93032C35.9744 3.03991 35.8568 3.19491 35.7931 3.37401L34.6526 6.5815L32.1104 7.63471L32.815 9.3357L35.7352 8.12598C35.8542 8.07664 35.9615 8.00289 36.0502 7.90948C36.1389 7.81608 36.207 7.7051 36.2501 7.58373L37.31 4.60317H40.0229L41.0834 7.58373C41.1266 7.7051 41.1947 7.81606 41.2834 7.90943C41.3722 8.0028 41.4795 8.0765 41.5985 8.12575L44.5186 9.3357C44.6376 9.38507 44.7657 9.40889 44.8946 9.40562C45.0234 9.40235 45.1502 9.37206 45.2666 9.31671L48.1239 7.95877L50.0421 9.87703L48.6842 12.7343C48.6288 12.8507 48.5986 12.9775 48.5953 13.1063C48.592 13.2352 48.6158 13.3633 48.6652 13.4824L49.8749 16.4026C49.9243 16.5214 49.9979 16.6284 50.0912 16.717C50.1845 16.8055 50.2952 16.8735 50.4164 16.9167L53.3969 17.9765V20.6894L50.4164 21.75C50.295 21.7932 50.1841 21.8613 50.0907 21.9501C49.9973 22.0388 49.9236 22.1462 49.8743 22.2652L48.6644 25.1851C48.615 25.3042 48.5912 25.4323 48.5945 25.5611C48.5977 25.69 48.628 25.8167 48.6834 25.9331L50.0413 28.7904L47.6637 31.1681L48.9664 32.4696L51.8031 29.6329C51.9375 29.4985 52.0271 29.3258 52.0594 29.1384C52.0917 28.9511 52.0653 28.7583 51.9836 28.5866L50.5221 25.5121L51.4186 23.3479L54.6261 22.2073C54.8052 22.1436 54.9603 22.026 55.0699 21.8706C55.1795 21.7152 55.2383 21.5297 55.2382 21.3395V17.3272C55.2382 17.1371 55.1793 16.9517 55.0698 16.7964C54.9602 16.6411 54.8052 16.5235 54.6261 16.4598V16.4598Z" fill="#0C9DF7"></path> <path d="M38.6666 25.7779C37.3818 25.7815 36.1254 25.3996 35.06 24.6816C33.9946 23.9635 33.1691 22.9424 32.6903 21.7501L30.9834 22.4406C31.6164 24.0052 32.7121 25.3392 34.124 26.2641C35.5359 27.1889 37.1965 27.6606 38.8837 27.6159C40.5709 27.5712 42.2043 27.0123 43.5652 26.014C44.9261 25.0157 45.9497 23.6255 46.499 22.0296C47.0483 20.4337 47.0971 18.708 46.6388 17.0836C46.1806 15.4592 45.2372 14.0134 43.9349 12.9398C42.6326 11.8662 41.0334 11.2159 39.3514 11.0759C37.6694 10.9359 35.9848 11.313 34.5229 12.1566L35.4451 13.7504C36.3013 13.2568 37.2594 12.9667 38.2456 12.9026C39.2317 12.8384 40.2194 13.0019 41.1322 13.3804C42.0451 13.7589 42.8586 14.3423 43.51 15.0855C44.1614 15.8286 44.6332 16.7116 44.8889 17.6661C45.1446 18.6207 45.1773 19.6213 44.9845 20.5905C44.7917 21.5597 44.3787 22.4717 43.7772 23.2558C43.1757 24.0398 42.402 24.6751 41.5158 25.1125C40.6297 25.5498 39.6548 25.7775 38.6666 25.7779V25.7779Z" fill="#0C9DF7"></path> <path d="M49.1099 34.9842H46.0321V31.3016C46.0321 30.5691 45.7411 29.8666 45.2232 29.3487C44.7052 28.8307 44.0027 28.5397 43.2702 28.5397C42.5377 28.5397 41.8352 28.8307 41.3172 29.3487C40.7993 29.8666 40.5083 30.5691 40.5083 31.3016V39.2061L39.8901 38.5877C39.3512 38.0487 38.6202 37.746 37.8581 37.746C37.0959 37.746 36.365 38.0487 35.8261 38.5877C35.2871 39.1266 34.9844 39.8575 34.9844 40.6197C34.9844 41.3818 35.2871 42.1128 35.8261 42.6517L40.5083 47.3337V48.7937H39.5877C39.3435 48.7937 39.1093 48.8907 38.9367 49.0633C38.764 49.236 38.667 49.4702 38.667 49.7143V58.0001H40.5083V50.635H51.5559V58.0001H53.3972V49.7143C53.3972 49.4702 53.3002 49.236 53.1275 49.0633C52.9549 48.8907 52.7207 48.7937 52.4766 48.7937H51.5559V47.3337L53.4432 45.4464C54.3003 44.5893 54.8841 43.4973 55.1206 42.3085C55.3571 41.1197 55.2357 39.8874 54.7719 38.7676C54.3081 37.6477 53.5226 36.6905 52.5147 36.0171C51.5069 35.3437 50.322 34.9842 49.1099 34.9842V34.9842ZM52.1414 44.1445L49.9843 46.3017C49.8117 46.4743 49.7147 46.7083 49.7146 46.9524V48.7937H42.3496V46.9524C42.3496 46.8315 42.3258 46.7118 42.2795 46.6001C42.2332 46.4884 42.1654 46.3869 42.0799 46.3014L37.1282 41.3496C37.0309 41.254 36.9536 41.1402 36.9006 41.0146C36.8476 40.889 36.82 40.7541 36.8194 40.6178C36.8188 40.4815 36.8452 40.3464 36.8971 40.2203C36.949 40.0942 37.0253 39.9797 37.1217 39.8833C37.2181 39.7869 37.3326 39.7106 37.4587 39.6587C37.5848 39.6068 37.7199 39.5804 37.8562 39.581C37.9925 39.5816 38.1274 39.6092 38.253 39.6622C38.3786 39.7152 38.4924 39.7925 38.588 39.8898L40.7779 42.0796C40.9067 42.2084 41.0707 42.2961 41.2493 42.3316C41.4279 42.3671 41.613 42.3489 41.7812 42.2792C41.9495 42.2095 42.0933 42.0915 42.1944 41.9401C42.2956 41.7887 42.3496 41.6107 42.3496 41.4286V31.3016C42.3496 31.0575 42.4466 30.8233 42.6192 30.6507C42.7919 30.478 43.026 30.381 43.2702 30.381C43.5144 30.381 43.7485 30.478 43.9212 30.6507C44.0938 30.8233 44.1908 31.0575 44.1908 31.3016V35.9048C44.1908 36.149 44.2878 36.3831 44.4605 36.5558C44.6331 36.7285 44.8673 36.8254 45.1115 36.8254H49.1099C49.9579 36.8254 50.7868 37.0768 51.4919 37.548C52.197 38.0191 52.7465 38.6887 53.071 39.4721C53.3955 40.2556 53.4804 41.1176 53.3149 41.9493C53.1495 42.781 52.7411 43.5449 52.1414 44.1445V44.1445Z" fill="#0C9DF7"></path> <path d="M47.873 52.4762H49.7143V54.3175H47.873V52.4762Z" fill="#0C9DF7"></path> </svg> 