<?xml version="1.0" encoding="UTF-8"?> <svg xmlns="http://www.w3.org/2000/svg" width="58" height="58" viewBox="0 0 58 58" fill="none"> <path d="M46.7743 41.1613V43.1679C45.6938 43.5103 44.9033 44.5103 44.9033 45.7021C44.9033 46.719 45.4684 47.6339 46.3795 48.0904L48.2037 49.0025C48.4759 49.1382 48.6453 49.4123 48.6453 49.7172C48.6453 50.1569 48.287 50.5161 47.8464 50.5161H47.5732C47.1326 50.5161 46.7743 50.1569 46.7743 49.7172V48.6452H44.9033V49.7172C44.9033 50.91 45.6938 51.91 46.7743 52.2514V54.2581H48.6453V52.2514C49.7257 51.9091 50.5162 50.909 50.5162 49.7172C50.5162 48.7004 49.9512 47.7854 49.04 47.3289L47.2158 46.4168C46.9436 46.2812 46.7743 46.0071 46.7743 45.7021C46.7743 45.2624 47.1326 44.9032 47.5732 44.9032H47.8464C48.287 44.9032 48.6453 45.2624 48.6453 45.7021V46.7742H50.5162V45.7021C50.5162 44.5094 49.7257 43.5094 48.6453 43.1679V41.1613H46.7743Z" fill="#0C9DF7"></path> <path d="M55.1935 20.5806C56.7408 20.5806 58 19.3215 58 17.7742V2.80645C58 1.25916 56.7408 0 55.1935 0H40.2258C38.6785 0 37.4194 1.25916 37.4194 2.80645V9.35484H29C29 8.323 28.1609 7.48387 27.129 7.48387H27.0738C26.6061 3.28074 23.0354 0 18.7097 0H11.2258C6.90013 0 3.32845 3.28074 2.86165 7.48387H2.80645C1.77461 7.48387 0.935484 8.323 0.935484 9.35484V11.2258C0.935484 12.2576 1.77461 13.0968 2.80645 13.0968V17.8397C2.80645 22.1055 5.48942 25.9765 9.48394 27.4752L10.2903 27.7773V30.175C4.19658 32.1582 0 37.8834 0 44.3438C0 49.8098 4.44729 54.2581 9.91426 54.2581H18.7097V55.1935C18.7097 56.7408 19.9688 58 21.5161 58H32.7419C34.2892 58 35.5484 56.7408 35.5484 55.1935V48.6452H37.4671C37.9414 53.882 42.3512 58 47.7097 58C53.3834 58 58 53.3834 58 47.7097C58 42.3512 53.882 37.9414 48.6452 37.4671V31.6343C49.7313 31.247 50.5161 30.218 50.5161 29C50.5161 27.782 49.7313 26.753 48.6452 26.3657V20.5806H55.1935ZM44.9032 1.87097H50.5161V5.6129H44.9032V1.87097ZM39.2903 2.80645C39.2903 2.29006 39.7104 1.87097 40.2258 1.87097H43.0323V7.48387H52.3871V1.87097H55.1935C55.709 1.87097 56.129 2.29006 56.129 2.80645V17.7742C56.129 18.2906 55.709 18.7097 55.1935 18.7097H40.2258C39.7104 18.7097 39.2903 18.2906 39.2903 17.7742V2.80645ZM11.2258 1.87097H18.7097C22.0016 1.87097 24.7267 4.31632 25.1832 7.48387H4.75226C5.20877 4.31632 7.93384 1.87097 11.2258 1.87097V1.87097ZM2.80645 9.35484H27.129V11.2258L2.80645 11.2267V9.35484ZM25.0925 17.8079C25.2001 17.9706 25.2581 18.1605 25.2581 18.357C25.2581 18.7948 25.0148 19.1886 24.6229 19.3851L23.3871 20.0025V23.3871C23.3871 24.9344 22.1279 26.1935 20.5806 26.1935H15.9032V30.5595L14.0323 33.0535L12.1613 30.5595V22.9194L9.2931 20.7677C8.74584 20.358 8.41935 19.7041 8.41935 19.0212C8.41935 17.8182 9.39881 16.8387 10.6018 16.8387H12.1613V13.0968H23.3871V15.2512L25.0925 17.8079ZM17.2578 31.871L17.5497 31.9094L17.0595 36.3164L15.2671 34.525L17.2578 31.871ZM10.8759 31.9636L12.7974 34.5259L11.005 36.3174L10.5335 32.0731C10.6458 32.0319 10.7618 32.0001 10.8759 31.9636ZM10.1406 25.723C6.873 24.4985 4.67742 21.33 4.67742 17.8397V13.0968H10.2903V14.9799C8.20045 15.1399 6.54839 16.8911 6.54839 19.0212C6.54839 20.2897 7.15458 21.5021 8.16958 22.2645L10.2903 23.8548V25.7791L10.1406 25.723ZM1.87097 44.3429C1.87097 39.4849 4.59042 35.1087 8.74023 32.8738L9.57561 40.3933L14.0323 35.9357L18.4889 40.3933L19.401 32.1835C23.4488 32.9702 26.8456 35.6008 28.6277 39.2903H21.5161C19.9688 39.2903 18.7097 40.5495 18.7097 42.0968V44.9257C17.7976 44.9809 16.9435 45.3476 16.2905 45.9996L15.5159 46.7742H11.339C10.3249 46.7742 9.33145 46.3626 8.613 45.6451C7.88519 44.9173 7.48387 43.949 7.48387 42.9191V40.2258H5.6129V42.9191C5.6129 44.4495 6.20881 45.8874 7.29023 46.9678C8.37258 48.0493 9.81042 48.6452 11.339 48.6452H14.9677V52.3871H9.91426C5.47913 52.3871 1.87097 48.7789 1.87097 44.3429V44.3429ZM16.8387 48.097L17.6133 47.3224C17.9678 46.9688 18.4375 46.7742 18.937 46.7742H20.5806C21.6125 46.7742 22.4516 47.6133 22.4516 48.6452V50.5161C22.4516 51.548 21.6125 52.3871 20.5806 52.3871H16.8387V48.097ZM33.6774 55.1935C33.6774 55.7099 33.2574 56.129 32.7419 56.129H21.5161C21.0007 56.129 20.5806 55.7099 20.5806 55.1935V54.2581C22.6443 54.2581 24.3226 52.5798 24.3226 50.5161V48.6452C24.3226 46.5815 22.6443 44.9032 20.5806 44.9032V42.0968C20.5806 41.5804 21.0007 41.1613 21.5161 41.1613H32.7419C33.2574 41.1613 33.6774 41.5804 33.6774 42.0968V55.1935ZM56.129 47.7097C56.129 52.3525 52.3515 56.129 47.7097 56.129C43.0678 56.129 39.2903 52.3525 39.2903 47.7097C39.2903 43.0669 43.0678 39.2903 47.7097 39.2903C52.3515 39.2903 56.129 43.0669 56.129 47.7097ZM47.7097 29.9355C47.1942 29.9355 46.7742 29.5164 46.7742 29C46.7742 28.4836 47.1942 28.0645 47.7097 28.0645C48.2251 28.0645 48.6452 28.4836 48.6452 29C48.6452 29.5164 48.2251 29.9355 47.7097 29.9355ZM46.7742 26.3657C45.6881 26.753 44.9032 27.782 44.9032 29C44.9032 30.218 45.6881 31.247 46.7742 31.6343V37.4671C41.8461 37.9142 37.9133 41.8461 37.4671 46.7742H35.5484V42.0968C35.5484 40.5495 34.2892 39.2903 32.7419 39.2903H30.6755C28.6492 34.3697 24.1888 30.9075 18.8753 30.1984L17.7742 30.0515V28.0645H20.5806C23.1598 28.0645 25.2581 25.9662 25.2581 23.3871V21.1588L25.4601 21.0587C26.4892 20.5423 27.129 19.5086 27.129 18.357C27.129 17.791 26.9635 17.2419 26.6491 16.7704L25.2581 14.6843V13.0968H27.129C28.1609 13.0968 29 12.2576 29 11.2258H37.4194V17.7742C37.4194 19.3215 38.6785 20.5806 40.2258 20.5806H46.7742V26.3657Z" fill="#0C9DF7"></path> <path d="M24.3223 43.0322H29.9352V44.9032H24.3223V43.0322Z" fill="#0C9DF7"></path> </svg> 