<?xml version="1.0" encoding="UTF-8"?> <svg xmlns="http://www.w3.org/2000/svg" width="59" height="59" viewBox="0 0 59 59" fill="none"> <path d="M56.5633 40.0212H48.6558C48.6558 40.0212 48.6559 24.0833 48.6559 23.6136C48.6559 23.144 48.3557 24.1856 47.886 24.1856C47.4163 24.1856 46.9554 23.144 46.9554 23.6136L46.9553 40.0212C45.214 40.0212 34.0425 40.0212 32.181 40.0212V36.3368C32.181 35.8671 31.8004 35.4865 31.3308 35.4865H22.793C22.793 34.441 22.793 16.9524 22.793 15.2178H32.4495V18.7156C32.4495 19.4643 33.0585 20.0733 33.8071 20.0733H35.9411C36.6898 20.0733 37.2989 19.4643 37.2989 18.7156V15.2178H46.9554V23.6136C46.9554 24.0833 47.336 24.4639 47.8056 24.4639C48.2753 24.4639 48.6559 24.0833 48.6559 23.6136V14.9978C48.6559 14.1815 47.9918 13.5173 47.1754 13.5173C43.0019 13.5173 33.164 13.5173 29.28 13.5173V1.50298C29.28 0.686736 28.6159 0.022522 27.7995 0.022522H12.1833C11.3669 0.022522 10.7028 0.686623 10.7028 1.50298V6.87836C10.7028 7.34804 11.0835 7.72861 11.5531 7.72861C12.0226 7.72861 12.4033 7.34804 12.4033 6.87836V1.72302H17.5666V5.22083C17.5666 5.9695 18.1756 6.57851 18.9243 6.57851H21.0584C21.8071 6.57851 22.4161 5.9695 22.4161 5.22083V1.72302H27.5793V13.5173H21.9429C21.4733 13.5173 21.0926 13.8979 21.0926 14.3676V21.453H12.4034L12.4033 6.87836C12.4033 6.40868 12.0783 7.25619 11.6087 7.25619C11.1392 7.25619 10.7028 6.40868 10.7028 6.87836L10.7029 21.4531H5.69644C4.88009 21.4531 4.21599 22.1171 4.21599 22.9334V35.4865H1.48034C0.664101 35.4865 0 36.1506 0 36.967V57.1723C0 57.642 0.380685 58.0225 0.850249 58.0225C0.850249 58.0225 12.7832 58.0225 13.2528 58.0225C13.7223 58.0225 13.0598 58.0304 13.0598 57.5607C13.0598 57.091 13.7223 56.322 13.2528 56.322C12.7832 56.322 1.7005 56.322 1.7005 56.322V37.187H13.6658V40.6847C13.6658 41.4334 14.2749 42.0425 15.0234 42.0425H17.1575C17.9061 42.0425 18.5151 41.4334 18.5151 40.6847V37.187H30.4804V56.322H13.2528C12.7832 56.322 12.4025 56.7026 12.4025 57.1723C12.4025 57.642 12.7832 58.0225 13.2528 58.0225H57.1933C57.663 58.0225 58.0435 57.642 58.0435 57.1723V41.5016C58.0436 40.6854 57.3795 40.0212 56.5633 40.0212ZM20.7155 4.8779H19.2671V1.72313H20.7155V4.8779ZM35.5983 15.2178V18.3727H34.15V15.2178H35.5983ZM12.7803 23.1536H14.2287V26.3084H12.7803V23.1536ZM5.91648 23.1536H11.0798V26.6513C11.0798 27.4 11.6889 28.009 12.4374 28.009H14.5716C15.3202 28.009 15.9292 27.4 15.9292 26.6513V23.1536H21.0925V35.4865C17.8059 35.4865 8.66347 35.4865 5.91648 35.4865V23.1536ZM16.8146 40.3419H15.3663V37.187H16.8146V40.3419ZM44.9863 41.7217V44.8765H43.5378V41.7217H44.9863ZM56.3431 56.322H32.181V41.7217H41.8373V45.2194C41.8373 45.968 42.4465 46.5772 43.1951 46.5772H45.3291C46.0778 46.5772 46.6869 45.968 46.6869 45.2194V41.7217H56.3433L56.3431 56.322Z" fill="#0C9DF7"></path> </svg> 