<?xml version="1.0" encoding="UTF-8"?> <svg xmlns="http://www.w3.org/2000/svg" width="60" height="58" viewBox="0 0 60 58" fill="none"> <path d="M40.1344 9.67586H36.264V6.7731C36.264 4.97676 35.5504 3.254 34.2802 1.9838C33.01 0.713592 31.2873 0 29.4909 0C27.6946 0 25.9718 0.713592 24.7016 1.9838C23.4314 3.254 22.7178 4.97676 22.7178 6.7731V9.67586H18.8475C18.5908 9.67586 18.3447 9.7778 18.1633 9.95926C17.9818 10.1407 17.8799 10.3868 17.8799 10.6434V31.9303C17.8822 32.6995 18.1887 33.4365 18.7326 33.9804C19.2765 34.5242 20.0135 34.8308 20.7826 34.8331H33.3613V32.8979H20.7826C20.526 32.8979 20.2799 32.796 20.0985 32.6145C19.917 32.4331 19.8151 32.187 19.8151 31.9303V30.9627H33.3613V29.0276H19.8151V11.611H22.7178V14.5138H24.653V11.611H34.3288V14.5138H36.264V11.611H39.1668V14.5138H41.1019V10.6434C41.1019 10.3868 41 10.1407 40.8185 9.95926C40.6371 9.7778 40.391 9.67586 40.1344 9.67586ZM34.3288 9.67586H24.653V6.7731C24.653 5.49 25.1627 4.25946 26.07 3.35217C26.9773 2.44488 28.2078 1.93517 29.4909 1.93517C30.774 1.93517 32.0046 2.44488 32.9118 3.35217C33.8191 4.25946 34.3288 5.49 34.3288 6.7731V9.67586Z" fill="#0C9DF7"></path> <path d="M53.681 16.449H36.2645C36.0078 16.449 35.7617 16.5509 35.5803 16.7324C35.3988 16.9138 35.2969 17.1599 35.2969 17.4166V31.9303C35.2992 32.6995 35.6057 33.4365 36.1496 33.9804C36.6935 34.5242 37.4305 34.8308 38.1996 34.8331H51.7458C52.515 34.8308 53.252 34.5242 53.7959 33.9804C54.3397 33.4365 54.6463 32.6995 54.6486 31.9303V17.4166C54.6486 17.1599 54.5467 16.9138 54.3652 16.7324C54.1837 16.5509 53.9376 16.449 53.681 16.449ZM52.7134 31.9303C52.7134 32.187 52.6115 32.4331 52.43 32.6145C52.2486 32.796 52.0025 32.8979 51.7458 32.8979H38.1996C37.943 32.8979 37.6969 32.796 37.5154 32.6145C37.334 32.4331 37.232 32.187 37.232 31.9303V30.9628H52.7134V31.9303ZM52.7134 29.0276H37.232V18.3841H52.7134V29.0276Z" fill="#0C9DF7"></path> <path d="M44.9727 27.0924C46.2553 27.0908 47.485 26.5806 48.3919 25.6737C49.2989 24.7667 49.8091 23.5371 49.8106 22.2544V20.3193H47.8755V22.2544C47.8755 23.0243 47.5696 23.7626 47.0253 24.307C46.4809 24.8514 45.7426 25.1572 44.9727 25.1572C44.2028 25.1572 43.4645 24.8514 42.9201 24.307C42.3758 23.7626 42.0699 23.0243 42.0699 22.2544V20.3193H40.1348V22.2544C40.1363 23.5371 40.6465 24.7667 41.5535 25.6737C42.4604 26.5806 43.6901 27.0908 44.9727 27.0924Z" fill="#0C9DF7"></path> <path d="M58.8399 41.1708C58.4084 40.2699 57.6535 39.5644 56.7256 39.1947C55.7976 38.825 54.7644 38.8182 53.8316 39.1756L45.1911 42.3203C45.0089 41.5981 44.6223 40.9439 44.0775 40.4361C43.5328 39.9282 42.8531 39.5883 42.12 39.4572L30.448 37.3991C27.9389 36.9576 25.3579 37.1835 22.9637 38.0542L21.4601 38.6067C20.0471 39.1238 18.7122 39.8333 17.493 40.715L17.2791 40.1277C17.2359 40.0082 17.1695 39.8984 17.0838 39.8045C16.9981 39.7106 16.8948 39.6346 16.7797 39.5807C16.6646 39.5267 16.54 39.496 16.413 39.4903C16.286 39.4845 16.1592 39.5039 16.0397 39.5472L5.12821 43.5143C5.00868 43.5575 4.89885 43.6239 4.80498 43.7096C4.71111 43.7953 4.63505 43.8986 4.58114 44.0137C4.52723 44.1288 4.49652 44.2534 4.49077 44.3804C4.48503 44.5074 4.50436 44.6342 4.54765 44.7537L0 46.4083L0.661829 48.2264L5.20948 46.5718L9.15627 57.4165L10.9744 56.7547L6.7015 45.0024L15.7968 41.6933L20.7615 55.3362L18.4393 56.1829L19.1011 58L22.3309 56.8195C22.4506 56.7763 22.5605 56.7099 22.6544 56.6241C22.7484 56.5384 22.8245 56.4349 22.8784 56.3197C22.9323 56.2045 22.963 56.0798 22.9687 55.9527C22.9744 55.8256 22.9549 55.6987 22.9115 55.5791L22.5806 54.6696L24.806 53.8587C26.2051 53.3474 27.6964 53.137 29.1824 53.2414L33.7726 53.5597C35.5287 53.686 37.2915 53.4377 38.9444 52.8312L56.6318 46.3938C57.1321 46.2119 57.5895 45.9287 57.9754 45.562C58.3613 45.1953 58.6673 44.7529 58.8745 44.2625C59.0816 43.7721 59.1854 43.2443 59.1793 42.712C59.1731 42.1797 59.0573 41.6543 58.8389 41.1688L58.8399 41.1708ZM57.0614 43.5733C56.955 43.8041 56.8038 44.0115 56.6166 44.1834C56.4294 44.3553 56.21 44.4883 55.971 44.5747L38.2835 51.0131C36.8847 51.5255 35.3931 51.7356 33.9071 51.6294L29.3169 51.3111C27.5613 51.1884 25.7995 51.4366 24.1461 52.0397L21.9149 52.8515L18.1848 42.6028C19.3753 41.6737 20.7041 40.9371 22.1229 40.4199L23.6246 39.8732C25.6999 39.1183 27.9373 38.9225 30.1122 39.3053L41.7794 41.3633C42.0323 41.4045 42.2745 41.4956 42.4919 41.6311C42.7093 41.7667 42.8977 41.944 43.046 42.153C43.1944 42.3619 43.2997 42.5982 43.356 42.8481C43.4123 43.0981 43.4184 43.3567 43.3739 43.6091C43.3295 43.8614 43.2354 44.1024 43.097 44.3181C42.9587 44.5338 42.7789 44.7198 42.5681 44.8655C42.3573 45.0111 42.1197 45.1134 41.869 45.1665C41.6183 45.2196 41.3596 45.2223 41.1079 45.1746L30.626 43.3266L30.2893 45.2327L40.7712 47.0808C41.7 47.2452 42.6569 47.0631 43.4604 46.5692C44.264 46.0752 44.8584 45.3036 45.1311 44.4006L54.4896 40.9937C54.9633 40.808 55.489 40.8041 55.9654 40.9827C56.4418 41.1614 56.8353 41.5099 57.0701 41.9613C57.184 42.215 57.2422 42.4902 57.2407 42.7682C57.2392 43.0463 57.1781 43.3208 57.0614 43.5733V43.5733Z" fill="#0C9DF7"></path> </svg> 