<?xml version="1.0" encoding="UTF-8"?> <svg xmlns="http://www.w3.org/2000/svg" width="54" height="58" viewBox="0 0 54 58" fill="none"> <path d="M12.6566 9.07617C5.67777 9.07617 0 14.7539 0 21.7328C0 28.7116 5.67766 34.3893 12.6566 34.3893C19.6354 34.3893 25.3132 28.7116 25.3132 21.7328C25.3132 14.7539 19.6355 9.07617 12.6566 9.07617ZM12.6566 32.6867C6.61665 32.6867 1.70262 27.7728 1.70262 21.7328C1.70262 15.6927 6.61642 10.7788 12.6566 10.7788C18.6966 10.7788 23.6106 15.6927 23.6106 21.7328C23.6106 27.7728 18.6966 32.6867 12.6566 32.6867Z" fill="#0C9DF7"></path> <path d="M16.4481 19.8599C16.9182 19.8599 17.2994 19.4787 17.2994 19.0086V18.1005C17.2994 16.129 15.6953 14.5249 13.7238 14.5249H13.667V12.6519C13.667 12.1818 13.2858 11.8006 12.8157 11.8006C12.3456 11.8006 11.9644 12.1818 11.9644 12.6519V14.5446C9.92817 14.7449 8.33203 16.4665 8.33203 18.5545C8.33203 20.7766 10.1397 22.5842 12.3617 22.5842H13.2697C14.5529 22.5842 15.5968 23.6281 15.5968 24.9112C15.5968 26.1944 14.5529 27.2382 13.2697 27.2382H11.9076C10.8749 27.2382 10.0346 26.398 10.0346 25.3653C10.0346 24.8951 9.65346 24.5139 9.18334 24.5139C8.71322 24.5139 8.33203 24.8951 8.33203 25.3653C8.33203 27.3368 9.93609 28.9409 11.9076 28.9409H11.9644V30.8139C11.9644 31.284 12.3456 31.6652 12.8157 31.6652C13.2858 31.6652 13.667 31.284 13.667 30.8139V28.9212C15.7032 28.7209 17.2994 26.9992 17.2994 24.9112C17.2994 22.6892 15.4918 20.8816 13.2697 20.8816H12.3617C11.0785 20.8816 10.0346 19.8377 10.0346 18.5545C10.0346 17.2714 11.0785 16.2275 12.3617 16.2275H13.7238C14.7566 16.2275 15.5968 17.0677 15.5968 18.1005V19.0086C15.5968 19.4787 15.978 19.8599 16.4481 19.8599Z" fill="#0C9DF7"></path> <path d="M26.278 41.6543C26.7481 41.6543 27.1293 41.2731 27.1293 40.803V35.3544C27.1293 34.8842 26.7481 34.5031 26.278 34.5031H2.66744C2.19732 34.5031 1.81613 34.8842 1.81613 35.3544V39.9517H0.85131C0.381192 39.9517 0 40.3328 0 40.803V46.2516C0 46.7217 0.381192 47.1029 0.85131 47.1029H1.81613V50.8488H0.85131C0.381192 50.8488 0 51.23 0 51.7001V57.1487C0 57.6188 0.381192 58 0.85131 58H24.4619C24.932 58 25.3132 57.6188 25.3132 57.1487V52.5514H26.278C26.7481 52.5514 27.1293 52.1702 27.1293 51.7001V46.2515C27.1293 45.7813 26.7481 45.4002 26.278 45.4002H25.3132V41.6543H26.278V41.6543ZM1.70251 45.4002V41.6543H23.6104V45.4002H1.70251ZM23.6104 56.2974H1.70251V52.5515H23.6104V56.2974ZM25.4267 47.1029V50.8488H3.51875V47.1029H25.4267ZM3.51875 39.9515V36.2057H25.4267V39.9515H3.51875Z" fill="#0C9DF7"></path> <path d="M53.2703 15.743L40.5568 0.30535C40.2215 -0.101783 39.5777 -0.101783 39.2424 0.30535L26.5291 15.743C26.0804 16.2879 26.4818 17.1356 27.1863 17.1356H32.6917V43.5272C32.6917 43.9973 33.0729 44.3785 33.543 44.3785H46.2563C46.7265 44.3785 47.1076 43.9973 47.1076 43.5272V39.9516C47.1076 39.4814 46.7265 39.1003 46.2563 39.1003C45.7862 39.1003 45.405 39.4814 45.405 39.9516V42.6759H34.3944V16.2843C34.3944 15.8141 34.0132 15.4329 33.5431 15.4329H28.9904L39.8998 2.18582L50.8091 15.4329H46.2564C45.7863 15.4329 45.4051 15.8141 45.4051 16.2843V35.9219C45.4051 36.392 45.7863 36.7732 46.2564 36.7732C46.7266 36.7732 47.1078 36.392 47.1078 35.9219V17.1356H52.6131C53.3174 17.1356 53.7191 16.288 53.2703 15.743Z" fill="#0C9DF7"></path> <path d="M46.2562 47.2164H33.5427C33.0726 47.2164 32.6914 47.5976 32.6914 48.0677C32.6914 48.5378 33.0726 48.919 33.5427 48.919H46.2561C46.7262 48.919 47.1074 48.5378 47.1074 48.0677C47.1074 47.5976 46.7263 47.2164 46.2562 47.2164Z" fill="#0C9DF7"></path> <path d="M46.2562 51.7568H33.5427C33.0726 51.7568 32.6914 52.138 32.6914 52.6081C32.6914 53.0783 33.0726 53.4595 33.5427 53.4595H46.2561C46.7262 53.4595 47.1074 53.0783 47.1074 52.6081C47.1074 52.138 46.7263 51.7568 46.2562 51.7568Z" fill="#0C9DF7"></path> <path d="M46.2562 56.2974H33.5427C33.0726 56.2974 32.6914 56.6786 32.6914 57.1487C32.6914 57.6188 33.0726 58 33.5427 58H46.2561C46.7262 58 47.1074 57.6188 47.1074 57.1487C47.1075 56.6786 46.7263 56.2974 46.2562 56.2974Z" fill="#0C9DF7"></path> </svg> 