<?xml version="1.0" encoding="UTF-8"?> <svg xmlns="http://www.w3.org/2000/svg" width="58" height="58" viewBox="0 0 58 58" fill="none"> <path d="M17.3986 50.2673H25.1313C25.3877 50.2673 25.6335 50.1655 25.8148 49.9842C25.9961 49.803 26.0979 49.5571 26.0979 49.3007C26.0979 49.0444 25.9961 48.7985 25.8148 48.6173C25.6335 48.436 25.3877 48.3342 25.1313 48.3342H17.3986C15.6048 48.3321 13.885 47.6186 12.6165 46.3502C11.3481 45.0817 10.6346 43.3619 10.6325 41.5681V40.0353L12.8488 42.2516C12.9386 42.3413 13.0451 42.4125 13.1624 42.4611C13.2797 42.5097 13.4054 42.5347 13.5323 42.5347C13.6592 42.5347 13.7849 42.5097 13.9022 42.4611C14.0195 42.4125 14.126 42.3413 14.2158 42.2516C14.3055 42.1618 14.3767 42.0552 14.4253 41.938C14.4739 41.8207 14.4989 41.695 14.4989 41.5681C14.4989 41.4411 14.4739 41.3154 14.4253 41.1982C14.3767 41.0809 14.3055 40.9743 14.2158 40.8846L10.3495 37.0182C10.2597 36.9285 10.1531 36.8573 10.0359 36.8087C9.91859 36.7601 9.79289 36.7351 9.66596 36.7351C9.53902 36.7351 9.41332 36.7601 9.29605 36.8087C9.17877 36.8573 9.07222 36.9285 8.98246 37.0182L5.11612 40.8846C4.93485 41.0658 4.83301 41.3117 4.83301 41.5681C4.83301 41.8244 4.93485 42.0703 5.11612 42.2516C5.2974 42.4328 5.54326 42.5347 5.79962 42.5347C6.05598 42.5347 6.30184 42.4328 6.48311 42.2516L8.69937 40.0353V41.5681C8.70196 43.8745 9.61932 46.0856 11.2502 47.7165C12.8811 49.3474 15.0922 50.2647 17.3986 50.2673V50.2673Z" fill="#0C9DF7"></path> <path d="M40.5967 7.73761H32.864C32.6077 7.73761 32.3618 7.83945 32.1806 8.02072C31.9993 8.20199 31.8975 8.44784 31.8975 8.70419C31.8975 8.96055 31.9993 9.2064 32.1806 9.38767C32.3618 9.56894 32.6077 9.67078 32.864 9.67078H40.5967C42.3906 9.67279 44.1104 10.3863 45.3788 11.6547C46.6473 12.9232 47.3608 14.643 47.3628 16.4369V17.9696L45.1466 15.7534C44.9653 15.5721 44.7194 15.4703 44.4631 15.4703C44.2067 15.4703 43.9608 15.5721 43.7796 15.7534C43.5983 15.9346 43.4964 16.1805 43.4964 16.4369C43.4964 16.6932 43.5983 16.9391 43.7796 17.1204L47.6459 20.9867C47.7357 21.0765 47.8422 21.1477 47.9595 21.1962C48.0768 21.2448 48.2025 21.2698 48.3294 21.2698C48.4563 21.2698 48.582 21.2448 48.6993 21.1962C48.8166 21.1477 48.9231 21.0765 49.0129 20.9867L52.8792 17.1204C52.969 17.0306 53.0402 16.9241 53.0888 16.8068C53.1373 16.6895 53.1623 16.5638 53.1623 16.4369C53.1623 16.3099 53.1373 16.1842 53.0888 16.067C53.0402 15.9497 52.969 15.8431 52.8792 15.7534C52.7895 15.6636 52.6829 15.5924 52.5656 15.5438C52.4484 15.4953 52.3227 15.4703 52.1957 15.4703C52.0688 15.4703 51.9431 15.4953 51.8258 15.5438C51.7086 15.5924 51.602 15.6636 51.5122 15.7534L49.296 17.9696V16.4369C49.2934 14.1305 48.376 11.9193 46.7452 10.2884C45.1143 8.65756 42.9031 7.7402 40.5967 7.73761V7.73761Z" fill="#0C9DF7"></path> <path d="M26.634 26.9069C26.7664 26.8186 26.8749 26.6991 26.95 26.5588C27.0251 26.4185 27.0644 26.2618 27.0644 26.1027C27.0644 19.5893 23.0346 14.0656 17.5061 12.2423C18.6628 11.4029 19.524 10.2187 19.9662 8.85969C20.4084 7.50064 20.409 6.03646 19.9677 4.6771C19.5265 3.31773 18.6661 2.133 17.51 1.29278C16.3539 0.452556 14.9614 0 13.5322 0C12.103 0 10.7105 0.452556 9.55439 1.29278C8.39827 2.133 7.5379 3.31773 7.09665 4.6771C6.65539 6.03646 6.65592 7.50064 7.09815 8.85969C7.54037 10.2187 8.40159 11.4029 9.55831 12.2423C4.02981 14.0656 0 19.5893 0 26.1027C2.71923e-06 26.2618 0.0392853 26.4185 0.114362 26.5588C0.189438 26.6991 0.297986 26.8186 0.430372 26.9069C0.676609 27.0715 6.55368 30.9356 13.5322 30.9356C20.5107 30.9356 26.3878 27.0715 26.634 26.9069ZM8.69926 6.77102C8.69926 5.81516 8.98271 4.88076 9.51376 4.08599C10.0448 3.29122 10.7996 2.67178 11.6827 2.30598C12.5658 1.94019 13.5375 1.84448 14.475 2.03096C15.4125 2.21744 16.2737 2.67773 16.9496 3.35363C17.6255 4.02953 18.0858 4.89067 18.2722 5.82817C18.4587 6.76566 18.363 7.7374 17.9972 8.6205C17.6314 9.5036 17.012 10.2584 16.2172 10.7895C15.4224 11.3205 14.488 11.6039 13.5322 11.6039C12.2509 11.6025 11.0224 11.0929 10.1164 10.1868C9.21034 9.28079 8.7007 8.05235 8.69926 6.77102V6.77102ZM13.5322 13.5371C19.7635 13.5371 24.863 18.8875 25.1209 25.5711C23.6804 26.4263 18.8967 29.0025 13.5322 29.0025C8.18443 29.0025 3.38764 26.4251 1.94344 25.5699C2.202 18.8873 7.30122 13.5371 13.5322 13.5371Z" fill="#0C9DF7"></path> <path d="M48.4367 39.3066C49.5934 38.4673 50.4547 37.2831 50.8969 35.9241C51.3391 34.565 51.3396 33.1009 50.8984 31.7415C50.4571 30.3821 49.5968 29.1974 48.4406 28.3572C47.2845 27.5169 45.892 27.0644 44.4628 27.0644C43.0337 27.0644 41.6412 27.5169 40.4851 28.3572C39.3289 29.1974 38.4686 30.3821 38.0273 31.7415C37.5861 33.1009 37.5866 34.565 38.0288 35.9241C38.471 37.2831 39.3323 38.4673 40.489 39.3066C34.9605 41.13 30.9307 46.6537 30.9307 53.1671C30.9307 53.3262 30.97 53.4829 31.045 53.6232C31.1201 53.7634 31.2287 53.883 31.361 53.9713C31.6073 54.1359 37.4843 58 44.4628 58C51.4413 58 57.3184 54.1359 57.5647 53.9713C57.697 53.883 57.8056 53.7634 57.8807 53.6232C57.9557 53.4829 57.995 53.3262 57.995 53.1671C57.995 46.6537 53.9652 41.13 48.4367 39.3066ZM39.6299 33.8354C39.6299 32.8796 39.9134 31.9452 40.4444 31.1504C40.9755 30.3556 41.7303 29.7362 42.6134 29.3704C43.4965 29.0046 44.4682 28.9089 45.4057 29.0954C46.3432 29.2818 47.2043 29.7421 47.8802 30.418C48.5561 31.0939 49.0164 31.9551 49.2029 32.8926C49.3894 33.8301 49.2937 34.8018 48.9279 35.6849C48.5621 36.568 47.9426 37.3228 47.1479 37.8538C46.3531 38.3849 45.4187 38.6683 44.4628 38.6683C43.1815 38.6669 41.9531 38.1573 41.047 37.2512C40.141 36.3452 39.6314 35.1167 39.6299 33.8354V33.8354ZM44.4628 56.0669C39.1151 56.0669 34.3183 53.4895 32.8741 52.6343C33.1327 45.9517 38.2319 40.6015 44.4628 40.6015C50.6938 40.6015 55.7936 45.9519 56.0516 52.6355C54.611 53.4907 49.8274 56.0669 44.4628 56.0669Z" fill="#0C9DF7"></path> </svg> 