<?xml version="1.0" encoding="UTF-8"?> <svg xmlns="http://www.w3.org/2000/svg" width="58" height="58" viewBox="0 0 58 58" fill="none"> <path d="M3.74219 4.70862H22.4519V6.57959H3.74219V4.70862Z" fill="#0C9DF7"></path> <path d="M3.74219 9.29248H18.7099V11.1634H3.74219V9.29248Z" fill="#0C9DF7"></path> <path d="M3.74219 32.7731H20.5809V34.6441H3.74219V32.7731Z" fill="#0C9DF7"></path> <path d="M3.74219 37.357H18.7099V39.2279H3.74219V37.357Z" fill="#0C9DF7"></path> <path d="M31.8065 48.6452H14.0323V44.9032H26.1935V35.2621L33.2602 32.6119L56.3704 9.50265C57.4209 8.45023 58 7.05261 58 5.56613C58 2.49681 55.5032 0 52.4339 0C50.9474 0 49.5498 0.579065 48.4983 1.63055L25.389 24.7398L24.142 28.0645H14.0323V16.8387H26.1935V0H0V16.8387H12.1613V28.0645H0V44.9032H12.1613V50.5161H31.8065V58H58V41.1613H31.8065V48.6452ZM1.87097 1.87097H24.3226V14.9677H1.87097V1.87097ZM25.5135 29.9355V29.7372L26.5593 26.9466L31.0534 31.4407L25.1991 33.6363C24.7941 33.7887 24.3226 33.4641 24.3226 33.0291C24.3226 32.9515 24.3366 32.8757 24.3637 32.8027L25.4386 29.9355H25.5135ZM30.7905 28.5323L46.3065 13.0163L48.2579 14.9677L32.7419 30.4837L30.7905 28.5323ZM44.355 8.41935L45.8387 6.93568L51.0643 12.1613L49.5806 13.645L44.355 8.41935ZM44.9837 11.6935L29.4677 27.2095L27.5163 25.2581L43.0323 9.74213L44.9837 11.6935ZM49.8211 2.95332C50.5189 2.25545 51.4469 1.87097 52.4339 1.87097C54.4714 1.87097 56.129 3.52865 56.129 5.56613C56.129 6.55306 55.7445 7.48106 55.0467 8.17894L52.3871 10.8385L47.1615 5.6129L49.8211 2.95332ZM1.87097 29.9355H23.4404L22.6125 32.1432C22.5059 32.4276 22.4516 32.7251 22.4516 33.0291C22.4516 34.1929 23.2486 35.1658 24.3226 35.4539V43.0323H1.87097V29.9355ZM33.6774 43.0323H56.129V56.129H33.6774V43.0323Z" fill="#0C9DF7"></path> <path d="M35.5488 45.8699H54.2585V47.7408H35.5488V45.8699Z" fill="#0C9DF7"></path> <path d="M35.5488 50.4538H50.5166V52.3247H35.5488V50.4538Z" fill="#0C9DF7"></path> </svg> 