<?xml version="1.0" encoding="UTF-8"?> <svg xmlns="http://www.w3.org/2000/svg" width="58" height="58" viewBox="0 0 58 58" fill="none"> <path d="M47.6498 0.283085L45.0328 2.9H41.5667C41.3103 2.90001 41.0644 3.00186 40.8831 3.18314C40.7019 3.36443 40.6 3.61029 40.6 3.86667V7.33284L37.2995 10.6333H33.8333C33.577 10.6333 33.3311 10.7352 33.1498 10.9165C32.9685 11.0978 32.8667 11.3436 32.8667 11.6V15.0662L29.5662 18.3667H26.1C25.8436 18.3667 25.5978 18.4685 25.4165 18.6498C25.2352 18.8311 25.1333 19.077 25.1333 19.3333V22.7995L20.8663 27.0667H17.5612C17.8285 25.4682 18.429 23.9438 19.3237 22.5925C20.2184 21.2412 21.3873 20.0932 22.7545 19.223L21.7121 17.5948C19.2458 19.1712 17.357 21.5046 16.3289 24.2452C15.3009 26.9858 15.189 29.9858 16.01 32.7953C16.8311 35.6048 18.5408 38.0725 20.8828 39.8282C23.2249 41.5839 26.0729 42.5331 29 42.5333H41.416C38.0274 45.6405 33.5975 47.365 29 47.3667C18.8725 47.3667 10.6333 39.1275 10.6333 29H8.7C8.69948 30.6287 8.89521 32.2515 9.28296 33.8333H1.93333V24.1667H9.66667C9.85785 24.1667 10.0447 24.11 10.2037 24.0037C10.3626 23.8975 10.4865 23.7466 10.5597 23.5699L12.1211 19.8004C12.1943 19.6237 12.2134 19.4294 12.1762 19.2419C12.1389 19.0543 12.0468 18.8821 11.9116 18.7469L6.44322 13.2787L13.2787 6.44322L18.7469 11.9116C18.882 12.0469 19.0543 12.1389 19.2418 12.1762C19.4294 12.2135 19.6238 12.1943 19.8004 12.1211L23.5699 10.5597C23.7466 10.4865 23.8975 10.3626 24.0037 10.2037C24.11 10.0447 24.1667 9.85785 24.1667 9.66667V1.93333H33.8333V7.73333H35.7667V0.966667C35.7667 0.710295 35.6648 0.464426 35.4835 0.283144C35.3022 0.101861 35.0564 1.24972e-05 34.8 0H23.2C22.9436 1.24972e-05 22.6978 0.101861 22.5165 0.283144C22.3352 0.464426 22.2333 0.710295 22.2333 0.966667V9.02073L19.6572 10.0878L13.9623 4.3926C13.781 4.21134 13.5351 4.10951 13.2787 4.10951C13.0223 4.10951 12.7764 4.21134 12.5951 4.3926L4.3926 12.5951C4.21134 12.7764 4.10951 13.0223 4.10951 13.2787C4.10951 13.5351 4.21134 13.781 4.3926 13.9623L10.0878 19.6572L9.02073 22.2333H0.966667C0.710295 22.2333 0.464426 22.3352 0.283144 22.5165C0.101861 22.6978 1.24972e-05 22.9436 0 23.2V34.8C1.24972e-05 35.0564 0.101861 35.3022 0.283144 35.4835C0.464426 35.6648 0.710295 35.7667 0.966667 35.7667H9.02073L10.0878 38.3428L4.3926 44.0377C4.21134 44.219 4.10951 44.4649 4.10951 44.7213C4.10951 44.9777 4.21134 45.2236 4.3926 45.4049L12.5951 53.6074C12.7764 53.7887 13.0223 53.8905 13.2787 53.8905C13.5351 53.8905 13.781 53.7887 13.9623 53.6074L19.6572 47.9122L22.2333 48.9793V57.0333C22.2333 57.2897 22.3352 57.5356 22.5165 57.7169C22.6978 57.8981 22.9436 58 23.2 58H34.8C35.0564 58 35.3022 57.8981 35.4835 57.7169C35.6648 57.5356 35.7667 57.2897 35.7667 57.0333V48.9793L38.3428 47.9122L44.0377 53.6074C44.219 53.7887 44.4649 53.8905 44.7213 53.8905C44.9777 53.8905 45.2236 53.7887 45.4049 53.6074L53.6074 45.4049C53.7887 45.2236 53.8905 44.9777 53.8905 44.7213C53.8905 44.4649 53.7886 44.219 53.6073 44.0377L52.1029 42.5333H57.0333C57.2897 42.5333 57.5356 42.4315 57.7169 42.2502C57.8981 42.0689 58 41.823 58 41.5667V8.7C58 8.44363 57.8981 8.19776 57.7169 8.01648C57.5356 7.83519 57.2897 7.73335 57.0333 7.73333H49.3C49.0436 7.73335 48.7978 7.83519 48.6165 8.01648C48.4352 8.19776 48.3333 8.44363 48.3333 8.7V15.4667H41.5667C41.3103 15.4667 41.0644 15.5685 40.8831 15.7498C40.7019 15.9311 40.6 16.177 40.6 16.4333V21.2667H33.8333C33.577 21.2667 33.3311 21.3685 33.1498 21.5498C32.9685 21.7311 32.8667 21.977 32.8667 22.2333V28.0333H26.1C25.8436 28.0333 25.5978 28.1352 25.4165 28.3165C25.2352 28.4978 25.1333 28.7436 25.1333 29V32.8667H18.0635C17.6234 31.6251 17.399 30.3173 17.4 29H21.2667C21.523 29 21.7689 28.8982 21.9502 28.7169L26.5005 24.1667H29.9667C30.223 24.1667 30.4689 24.0648 30.6502 23.8835C30.8315 23.7022 30.9333 23.4564 30.9333 23.2V19.7338L34.2338 16.4333H37.7C37.9564 16.4333 38.2022 16.3315 38.3835 16.1502C38.5648 15.9689 38.6667 15.723 38.6667 15.4667V12.0005L41.9672 8.7H45.4333C45.6897 8.69999 45.9356 8.59814 46.1169 8.41686C46.2981 8.23557 46.4 7.98971 46.4 7.73333V4.26716L48.7337 1.93333H58V0H48.3333C48.077 7.10294e-06 47.8311 0.101831 47.6498 0.283085V0.283085ZM13.2787 51.5568L6.44322 44.7213L11.6444 39.5204C13.344 42.3121 15.6879 44.656 18.4796 46.3556L13.2787 51.5568ZM24.1667 56.0667V48.717C27.342 49.4949 30.6583 49.4943 33.8333 48.7152V56.0667H24.1667ZM51.5568 44.7213L44.7213 51.5568L39.5216 46.3569C41.2379 45.317 42.7906 44.0285 44.1291 42.5333H49.3687L51.5568 44.7213ZM50.2667 9.66667H56.0667V40.6H50.2667V9.66667ZM42.5333 17.4H48.3333V40.6H42.5333V17.4ZM34.8 23.2H40.6V40.6H34.8V23.2ZM27.0667 29.9667H32.8667V40.6H29C28.3522 40.6 27.7055 40.5458 27.0667 40.438V29.9667ZM25.1333 34.8V39.9365C22.5313 39.0097 20.3427 37.1895 18.9572 34.8H25.1333ZM29 22.2333H27.0667V20.3H29V22.2333ZM36.7333 14.5H34.8V12.5667H36.7333V14.5ZM44.4667 6.76667H42.5333V4.83333H44.4667V6.76667Z" fill="#0C9DF7"></path> </svg> 