<?xml version="1.0" encoding="UTF-8"?> <svg xmlns="http://www.w3.org/2000/svg" width="58" height="58" viewBox="0 0 58 58" fill="none"> <path d="M14.4772 23.2512H35.7111V43.5199H37.6415V22.2861C37.6415 22.0301 37.5398 21.7846 37.3588 21.6036C37.1778 21.4226 36.9323 21.3209 36.6763 21.3209H13.5121C13.2561 21.3209 13.0106 21.4226 12.8296 21.6036C12.6486 21.7846 12.5469 22.0301 12.5469 22.2861V38.6941H14.4772V23.2512Z" fill="#0C9DF7"></path> <path d="M31.8504 33.8682H29.92V30.9727C29.92 30.7167 29.8183 30.4712 29.6373 30.2902C29.4563 30.1092 29.2108 30.0075 28.9548 30.0075H26.0593V27.112C26.0593 26.856 25.9576 26.6105 25.7766 26.4295C25.5956 26.2485 25.3501 26.1468 25.0941 26.1468H21.2334C20.9774 26.1468 20.7319 26.2485 20.5509 26.4295C20.3699 26.6105 20.2682 26.856 20.2682 27.112V33.8682H18.3379V35.7986H31.8504V33.8682ZM27.9897 31.9378V33.8682H26.0593V31.9378H27.9897ZM22.1986 28.0771H24.1289V33.8682H22.1986V28.0771Z" fill="#0C9DF7"></path> <path d="M41.2629 44.5913C40.8345 44.4098 40.374 44.3166 39.9088 44.3174C39.4436 44.3182 38.9834 44.4129 38.5557 44.5959L32.3157 47.2454C32.3641 46.775 32.3132 46.2997 32.1664 45.8502C32.0195 45.4008 31.78 44.9871 31.4633 44.636C31.1466 44.2848 30.7597 44.0041 30.3277 43.8118C29.8957 43.6196 29.4281 43.5202 28.9553 43.5199H21.4684C20.7112 43.519 19.9645 43.3427 19.2869 43.0049C16.1544 41.4434 12.7028 40.6286 9.20272 40.6244H6.75623C6.75623 40.3684 6.65455 40.1229 6.47354 39.9419C6.29253 39.7609 6.04704 39.6592 5.79106 39.6592H0V41.5896H4.82588V53.1717H0V55.1021H5.79106C6.04704 55.1021 6.29253 55.0004 6.47354 54.8194C6.65455 54.6384 6.75623 54.3929 6.75623 54.1369V53.7689L13.9622 56.761C17.8906 58.3648 22.282 58.4133 26.2448 56.8967L41.1546 51.2114C41.5918 51.0454 41.9913 50.7936 42.3298 50.471C42.6683 50.1484 42.939 49.7615 43.1259 49.3328C43.3194 48.8981 43.4241 48.4291 43.4338 47.9534C43.4435 47.4776 43.3581 47.0047 43.1826 46.5624C43.0117 46.1216 42.7536 45.7198 42.4238 45.3811C42.0939 45.0424 41.699 44.7737 41.2629 44.5913V44.5913ZM41.36 48.5533C41.2756 48.7481 41.1531 48.924 40.9998 49.0708C40.8465 49.2176 40.6654 49.3324 40.4672 49.4082L25.557 55.0935C22.0531 56.435 18.17 56.393 14.696 54.9759L6.75623 51.6786V42.5548H9.20272C12.4032 42.5586 15.5593 43.3036 18.4235 44.7315C19.3694 45.2029 20.4116 45.449 21.4684 45.4503H28.9553C29.3338 45.4508 29.6969 45.5996 29.967 45.8647C30.2371 46.1299 30.3925 46.4903 30.4 46.8687C30.4074 47.2471 30.2663 47.6133 30.0069 47.8889C29.7475 48.1645 29.3905 48.3275 29.0124 48.3429C28.9735 48.344 28.9348 48.3458 28.8958 48.3458H17.3732V50.2762H28.8958C28.9157 50.2762 28.9354 50.2749 28.9553 50.2747V50.2762C29.0226 50.2762 29.0893 50.2736 29.1557 50.2698C29.8734 50.2398 30.5798 50.0804 31.2408 49.7993L39.3093 46.3729C39.4999 46.2914 39.7049 46.2493 39.9121 46.249C40.1193 46.2487 40.3244 46.2902 40.5152 46.3711C40.7134 46.4545 40.8927 46.577 41.0424 46.7314C41.1921 46.8858 41.309 47.0688 41.3863 47.2694C41.4676 47.4744 41.5072 47.6936 41.5027 47.914C41.4981 48.1345 41.4496 48.3519 41.36 48.5533V48.5533Z" fill="#0C9DF7"></path> <path d="M56.6519 21.8972L50.1896 11.396V8.13019L52.8921 4.52682C53.0174 4.35975 53.0851 4.15655 53.0851 3.94772C53.0851 3.2748 52.9131 2.61306 52.5854 2.02533C52.2577 1.43759 51.7852 0.943375 51.2128 0.589603C50.6404 0.235831 49.987 0.0342474 49.3148 0.00399276C48.6426 -0.0262618 47.9738 0.115817 47.3719 0.416739L44.3985 1.90347L41.4252 0.416739C40.8233 0.115817 40.1545 -0.0262618 39.4823 0.00399276C38.81 0.0342474 38.1567 0.235831 37.5843 0.589603C37.0119 0.943375 36.5394 1.43759 36.2117 2.02533C35.884 2.61306 35.712 3.2748 35.7119 3.94772C35.7119 4.15655 35.7797 4.35975 35.905 4.52682L38.6075 8.13019V11.396L33.9248 19.0054L35.5687 20.0169L40.1119 12.6343H48.6851L55.008 22.9088C55.6194 23.9025 55.9547 25.0412 55.9792 26.2076C56.0037 27.374 55.7166 28.5258 55.1475 29.5443C54.5784 30.5627 53.7479 31.4109 52.7417 32.0013C51.7354 32.5917 50.5899 32.903 49.4232 32.903H39.5727V34.8334H49.4232C50.9333 34.8334 52.4161 34.4305 53.7186 33.6663C55.021 32.9021 56.096 31.8042 56.8326 30.486C57.5693 29.1677 57.9409 27.6768 57.9091 26.167C57.8773 24.6573 57.4434 23.1833 56.6519 21.8972ZM38.5992 2.23175C38.8912 2.04982 39.2252 1.94612 39.5689 1.93066C39.9127 1.91519 40.2546 1.98847 40.5618 2.14344L43.9669 3.84589C44.1009 3.91291 44.2487 3.9478 44.3985 3.9478C44.5484 3.9478 44.6962 3.91291 44.8302 3.84589L48.2351 2.14332C48.5204 2.00075 48.8354 1.92783 49.1544 1.93054C49.4733 1.93325 49.7871 2.01152 50.0699 2.15893C50.3527 2.30633 50.5966 2.51867 50.7815 2.77855C50.9664 3.03842 51.0871 3.33841 51.1337 3.65394L48.7418 6.84324H40.0552L37.6633 3.65394C37.7052 3.36267 37.8108 3.08422 37.9726 2.83839C38.1343 2.59256 38.3482 2.38539 38.5992 2.23163V2.23175ZM48.2592 10.704H40.5378V8.7736H48.2592V10.704Z" fill="#0C9DF7"></path> <path d="M41.5029 25.1816V25.3224C41.5037 25.9088 41.6912 26.4797 42.0383 26.9523C42.3854 27.425 42.874 27.7748 43.4333 27.951V29.0423H45.3636V27.951C45.8875 27.7867 46.3503 27.4696 46.6927 27.0404C47.0351 26.6113 47.2414 26.0896 47.2852 25.5423C47.329 24.995 47.2083 24.4471 46.9386 23.969C46.6688 23.4908 46.2623 23.1041 45.7713 22.8585L43.8892 21.9175C43.7231 21.8345 43.5899 21.6978 43.5112 21.5296C43.4324 21.3614 43.4128 21.1715 43.4554 20.9908C43.4981 20.81 43.6005 20.649 43.7461 20.5337C43.8917 20.4185 44.072 20.3557 44.2577 20.3557H44.5393C44.7578 20.3559 44.9674 20.4429 45.1219 20.5974C45.2765 20.752 45.3634 20.9615 45.3636 21.1801V21.3209H47.294V21.1801C47.2932 20.5937 47.1057 20.0228 46.7586 19.5501C46.4115 19.0775 45.9229 18.7277 45.3636 18.5514V17.4602H43.4333V18.5514C42.9094 18.7157 42.4466 19.0328 42.1042 19.462C41.7619 19.8912 41.5555 20.4129 41.5117 20.9602C41.4679 21.5074 41.5886 22.0553 41.8584 22.5335C42.1281 23.0117 42.5346 23.3984 43.0256 23.6439L44.9077 24.585C45.0738 24.668 45.207 24.8047 45.2858 24.9729C45.3645 25.1411 45.3841 25.3309 45.3415 25.5117C45.2988 25.6924 45.1964 25.8535 45.0508 25.9687C44.9052 26.084 44.725 26.1467 44.5393 26.1468H44.2577C44.0391 26.1465 43.8295 26.0596 43.675 25.9051C43.5204 25.7505 43.4335 25.541 43.4333 25.3224V25.1816H41.5029Z" fill="#0C9DF7"></path> <path d="M51.154 22.2861H49.2236V24.2164H51.154V22.2861Z" fill="#0C9DF7"></path> <path d="M19.3034 38.694H17.373V40.6244H19.3034V38.694Z" fill="#0C9DF7"></path> <path d="M32.8165 38.694H21.2344V40.6244H32.8165V38.694Z" fill="#0C9DF7"></path> <path d="M29.3201 6.45131L28.1358 10.0041L29.9673 10.6144L31.7986 5.12046C31.8386 5.0002 31.8546 4.87324 31.8456 4.7468C31.8366 4.62037 31.8028 4.49695 31.7461 4.38358C31.6894 4.27021 31.6109 4.16913 31.5152 4.08609C31.4194 4.00305 31.3082 3.9397 31.188 3.89963L25.6941 2.06833L25.0838 3.89975L28.077 4.89738C23.2824 7.16076 19.555 11.1987 17.6816 16.1587L19.4899 16.8343C20.3572 14.5378 21.6731 12.4369 23.3608 10.6542C25.0486 8.87157 27.0744 7.44282 29.3201 6.45131V6.45131Z" fill="#0C9DF7"></path> <path d="M39.3799 40.2577L39.764 42.1494C43.2364 41.4409 46.4619 39.8334 49.1184 37.4876L47.841 36.0399C45.4383 38.162 42.5208 39.6164 39.3799 40.2577V40.2577Z" fill="#0C9DF7"></path> </svg> 