<?xml version="1.0" encoding="UTF-8"?> <svg xmlns="http://www.w3.org/2000/svg" width="52" height="58" viewBox="0 0 52 58" fill="none"> <path d="M24.1669 11.6H33.8335C34.0899 11.6 34.3358 11.4982 34.5171 11.3169C34.6984 11.1356 34.8002 10.8897 34.8002 10.6333C34.7969 7.81422 33.6755 5.11152 31.6821 3.1181C29.6887 1.12469 26.986 0.00332579 24.1669 0C23.9105 0 23.6646 0.101845 23.4833 0.28313C23.302 0.464415 23.2002 0.710291 23.2002 0.966667V10.6333C23.2002 10.8897 23.302 11.1356 23.4833 11.3169C23.6646 11.4982 23.9105 11.6 24.1669 11.6ZM25.1335 1.9865C27.0937 2.20903 28.9205 3.08971 30.3155 4.48469C31.7105 5.87966 32.5912 7.70647 32.8137 9.66667H25.1335V1.9865Z" fill="#0C9DF7"></path> <path d="M3.86621 27.0667H15.4662V29H3.86621V27.0667Z" fill="#0C9DF7"></path> <path d="M3.86621 32.8667H11.5995V34.8H3.86621V32.8667Z" fill="#0C9DF7"></path> <path d="M51.2333 26.1C51.2358 23.7257 50.5649 21.3993 49.2985 19.3909C48.0321 17.3825 46.2221 15.7744 44.0785 14.7533C41.935 13.7321 39.5459 13.3398 37.1883 13.6217C34.8308 13.9037 32.6016 14.8485 30.7593 16.3463C30.8713 15.7372 30.9295 15.1194 30.9333 14.5C30.9333 14.2436 30.8315 13.9978 30.6502 13.8165C30.4689 13.6352 30.223 13.5333 29.9667 13.5333H21.2667V4.83334C21.2667 4.57696 21.1648 4.33108 20.9835 4.1498C20.8023 3.96851 20.5564 3.86667 20.3 3.86667C17.9881 3.87115 15.7405 4.62824 13.897 6.02347C12.0536 7.4187 10.7145 9.3762 10.0823 11.6H4.83333C3.55145 11.6 2.32208 12.1092 1.41565 13.0157C0.509225 13.9221 0 15.1515 0 16.4333V41.5667C0 42.8485 0.509225 44.0779 1.41565 44.9844C2.32208 45.8908 3.55145 46.4 4.83333 46.4H18.3667V52.2H15.4667C14.6982 52.2023 13.962 52.5086 13.4186 53.0519C12.8752 53.5953 12.569 54.3316 12.5667 55.1V57.0333C12.5667 57.2897 12.6685 57.5356 12.8498 57.7169C13.0311 57.8982 13.277 58 13.5333 58H30.9333C31.1897 58 31.4356 57.8982 31.6169 57.7169C31.7982 57.5356 31.9 57.2897 31.9 57.0333V55.1C31.8977 54.3316 31.5914 53.5953 31.0481 53.0519C30.5047 52.5086 29.7684 52.2023 29 52.2H26.1V46.4H33.8333V53.1667C33.8333 54.4486 34.3426 55.6779 35.249 56.5844C36.1554 57.4908 37.3848 58 38.6667 58C39.9485 58 41.1779 57.4908 42.0844 56.5844C42.9908 55.6779 43.5 54.4486 43.5 53.1667V41.5667C43.5 41.3103 43.3982 41.0644 43.2169 40.8831C43.0356 40.7018 42.7897 40.6 42.5333 40.6H41.5667V38.3187C44.3154 37.6623 46.7635 36.1004 48.5169 33.8841C50.2703 31.6678 51.2271 28.926 51.2333 26.1V26.1ZM19.3333 5.858V14.5C19.3333 14.7564 19.4352 15.0023 19.6165 15.1835C19.7977 15.3648 20.0436 15.4667 20.3 15.4667H28.942C28.7608 17.0953 28.1233 18.6396 27.103 19.9219C26.0826 21.2041 24.7209 22.1721 23.1745 22.7144C21.6282 23.2567 19.9601 23.3513 18.3624 22.9872C16.7647 22.6231 15.3022 21.8152 14.1435 20.6565C12.9848 19.4978 12.1769 18.0353 11.8128 16.4376C11.4487 14.8399 11.5433 13.1718 12.0856 11.6255C12.6279 10.0791 13.5959 8.7174 14.8781 7.69704C16.1604 6.67668 17.7047 6.0392 19.3333 5.858V5.858ZM29 54.1333C29.2564 54.1333 29.5023 54.2352 29.6835 54.4165C29.8648 54.5978 29.9667 54.8436 29.9667 55.1V56.0667H14.5V55.1C14.5 54.8436 14.6018 54.5978 14.7831 54.4165C14.9644 54.2352 15.2103 54.1333 15.4667 54.1333H29ZM20.3 52.2V46.4H24.1667V52.2H20.3ZM34.8 40.6C34.5436 40.6 34.2977 40.7018 34.1165 40.8831C33.9352 41.0644 33.8333 41.3103 33.8333 41.5667V44.4667H4.83333C4.06491 44.4644 3.32862 44.1581 2.78526 43.6147C2.2419 43.0714 1.93563 42.3351 1.93333 41.5667V40.6H31.9V38.6667H1.93333V16.4333C1.93563 15.6649 2.2419 14.9286 2.78526 14.3853C3.32862 13.8419 4.06491 13.5356 4.83333 13.5333H9.715C9.686 13.8523 9.66667 14.1713 9.66667 14.5C9.66479 16.453 10.2014 18.3688 11.2174 20.0367C12.2335 21.7046 13.6897 23.0601 15.4261 23.9543C17.1624 24.8484 19.1116 25.2466 21.0595 25.105C23.0074 24.9634 24.8786 24.2875 26.4673 23.1517C26.2269 24.1161 26.1036 25.106 26.1 26.1C26.1063 28.926 27.0631 31.6678 28.8165 33.8841C30.5699 36.1004 33.0179 37.6623 35.7667 38.3187V40.6H34.8ZM41.5667 53.1667C41.5667 53.9358 41.2611 54.6734 40.7173 55.2173C40.1734 55.7611 39.4358 56.0667 38.6667 56.0667C37.8975 56.0667 37.1599 55.7611 36.6161 55.2173C36.0722 54.6734 35.7667 53.9358 35.7667 53.1667V42.5333H41.5667V53.1667ZM37.7 40.6V38.6183C38.019 38.6377 38.338 38.6667 38.6667 38.6667C38.9953 38.6667 39.3143 38.6377 39.6333 38.6183V40.6H37.7ZM38.6667 36.7333C36.5636 36.7333 34.5077 36.1097 32.7591 34.9413C31.0105 33.7729 29.6476 32.1122 28.8427 30.1692C28.0379 28.2262 27.8274 26.0882 28.2376 24.0255C28.6479 21.9629 29.6607 20.0682 31.1478 18.5811C32.6349 17.094 34.5295 16.0813 36.5922 15.671C38.6549 15.2607 40.7929 15.4713 42.7359 16.2761C44.6789 17.0809 46.3396 18.4438 47.508 20.1924C48.6764 21.9411 49.3 23.9969 49.3 26.1C49.2982 28.9196 48.1773 31.6232 46.1836 33.6169C44.1898 35.6107 41.4863 36.7315 38.6667 36.7333V36.7333Z" fill="#0C9DF7"></path> <path d="M38.6668 17.4C36.9461 17.4 35.264 17.9102 33.8333 18.8662C32.4026 19.8222 31.2875 21.1809 30.6291 22.7706C29.9706 24.3604 29.7983 26.1096 30.134 27.7973C30.4697 29.4849 31.2983 31.0351 32.515 32.2518C33.7317 33.4685 35.2819 34.2971 36.9695 34.6328C38.6571 34.9685 40.4064 34.7962 41.9961 34.1377C43.5859 33.4793 44.9446 32.3642 45.9006 30.9335C46.8566 29.5027 47.3668 27.8207 47.3668 26.1C47.364 23.7935 46.4465 21.5822 44.8155 19.9513C43.1846 18.3203 40.9733 17.4028 38.6668 17.4V17.4ZM38.6668 32.8667C37.3285 32.8667 36.0202 32.4698 34.9074 31.7263C33.7947 30.9827 32.9274 29.9259 32.4152 28.6895C31.9031 27.453 31.7691 26.0925 32.0302 24.7799C32.2912 23.4673 32.9357 22.2616 33.882 21.3152C34.8284 20.3689 36.0341 19.7244 37.3467 19.4633C38.6593 19.2023 40.0198 19.3363 41.2563 19.8484C42.4927 20.3606 43.5495 21.2279 44.2931 22.3406C45.0366 23.4534 45.4335 24.7617 45.4335 26.1C45.4314 27.894 44.7179 29.6139 43.4493 30.8825C42.1807 32.151 40.4608 32.8646 38.6668 32.8667V32.8667Z" fill="#0C9DF7"></path> <path d="M37.7002 48.3333H39.6335V54.1333H37.7002V48.3333Z" fill="#0C9DF7"></path> </svg> 