<svg width="16" height="16" fill="none" xmlns="http://www.w3.org/2000/svg"><path fill-rule="evenodd" clip-rule="evenodd" d="M14.717 4.45c.097-.32 0-.556-.467-.556h-1.54c-.391 0-.572.203-.67.428 0 0-.783 1.875-1.892 3.093-.36.353-.523.465-.718.465-.098 0-.246-.112-.246-.433V4.45c0-.385-.108-.556-.434-.556H6.33c-.245 0-.392.178-.392.348 0 .364.555.448.612 1.474v2.228c0 .488-.09.577-.286.577-.522 0-1.792-1.884-2.546-4.039-.146-.42-.294-.588-.687-.588H1.489c-.44 0-.528.203-.528.428 0 .4.522 2.387 2.431 5.016 1.273 1.795 3.065 2.768 4.698 2.768.979 0 1.1-.216 1.1-.588V10.16c0-.432.092-.519.403-.519.228 0 .62.113 1.534.978 1.044 1.026 1.216 1.486 1.803 1.486h1.54c.44 0 .66-.216.534-.643-.14-.424-.638-1.041-1.3-1.772-.358-.417-.897-.866-1.06-1.09-.229-.288-.164-.417 0-.673 0 0 1.877-2.596 2.072-3.478z" fill="#fff"/></svg>