<?xml version="1.0" encoding="utf-8"?>
<!-- Generator: Adobe Illustrator 25.0.0, SVG Export Plug-In . SVG Version: 6.00 Build 0)  -->
<svg version="1.1" id="Ebene_1" xmlns="http://www.w3.org/2000/svg" xmlns:xlink="http://www.w3.org/1999/xlink" x="0px" y="0px"
	 viewBox="0 0 129 138.1" style="enable-background:new 0 0 129 138.1;" xml:space="preserve">
<style type="text/css">
	.st0{fill:#CA7C34;}
	.st1{opacity:0.764;fill:#FFFFFF;enable-background:new    ;}
	.st2{clip-path:url(#SVGID_2_);}
	.st3{fill:#1C1C1C;}
	.st4{clip-path:url(#SVGID_4_);}
	.st5{fill:#00998E;}
	.st6{fill:#1D1E1B;}
	.st7{fill:#FFFFFF;}
	.st8{fill:#009A8F;}
</style>
<g id="Gruppe_121" transform="translate(-1324.504 -468.706)">
	<path id="Pfad_136" class="st0" d="M1371,554.4c3.6,0,7.2-0.7,10.5-2.2c1.2-0.6,1.7-2,1.1-3.2c-0.5-1.1-1.8-1.6-3-1.2
		c-10.9,4.8-23.6-0.2-28.4-11.1c-4.8-10.9,0.2-23.6,11.1-28.4c1.5-0.7,3.1-1.2,4.8-1.5c1.3-0.2,2.2-1.5,1.9-2.8
		c0-0.2-0.1-0.3-0.1-0.5c-4.5-11,0.9-23.6,11.9-28.1c11-4.5,23.6,0.9,28.1,11.9c1.5,3.7,1.9,7.6,1.3,11.5c-0.2,1,0.4,2,1.3,2.5
		c10.7,5.2,15.2,18.1,10,28.8c-3.6,7.4-11.1,12.1-19.4,12.1h-1.4c-1.3-0.1-2.5,0.8-2.6,2.1s0.8,2.5,2.1,2.6c0,0,0,0,0,0
		c0.1,0,0.1,0,0.2,0h1.7c14.5,0,26.3-11.8,26.3-26.4c0-9.4-5.1-18.1-13.2-22.8c0.1-0.8,0.1-1.6,0.1-2.3c-0.1-14.5-12-26.2-26.5-26.1
		s-26.2,12-26.1,26.5c0,2.2,0.3,4.4,0.9,6.6c-14,4-22.1,18.5-18.1,32.5C1348.7,546.6,1359.1,554.5,1371,554.4L1371,554.4z"/>
	<path id="Pfad_137" class="st0" d="M1406.8,517.8c0.3-1.3-0.4-2.6-1.7-2.9s-2.6,0.4-2.9,1.7c0,0.1,0,0.2-0.1,0.3
		c-1.4,7.1-6.7,12-10.1,14.5c-1.4-9.2-4.6-18-9.4-26c-0.6-1.2-2.1-1.6-3.2-1c-1.2,0.6-1.6,2.1-1,3.2c0,0,0.1,0.1,0.1,0.1l0.1,0.1
		c19.4,32.1,3.6,71.7,3.4,72.1c-0.5,1.2,0.1,2.6,1.3,3.1c0.3,0.1,0.6,0.2,0.9,0.2c1,0,1.8-0.6,2.2-1.5c5.4-14.4,7.5-29.8,6.3-45.1
		C1396.2,534.4,1404.7,528.2,1406.8,517.8z"/>
	<path id="Pfad_138" class="st0" d="M1431.1,556.4v-3h-2.6v3h-3.3v2.6h3.3v6.2h2.6V559h3.3v-2.6H1431.1z"/>
	<rect id="Rechteck_32" x="1407.7" y="580.5" class="st0" width="44.1" height="2.6"/>
	<path id="Pfad_139" class="st0" d="M1447.5,578.3h-2.6v-21.5c0-8.3-6.7-15.1-15.1-15.1s-15.1,6.7-15.1,15.1c0,0,0,0,0,0.1v21.5
		h-2.6v-21.5c0-9.8,7.9-17.8,17.7-17.8c9.8,0,17.8,7.9,17.8,17.7c0,0,0,0,0,0.1L1447.5,578.3z"/>
	<path class="st0" d="M1387.6,605.9c-7.4,0-14.8-1.4-22-4.1c-15.3-5.9-27.5-17.4-34.1-32.3c-9.3-20.7-6.4-44.8,7.6-62.7l2.4,1.8
		c-13.2,17.1-16,39.9-7.2,59.6c6.4,14.3,17.9,25.2,32.5,30.8c14.6,5.6,30.5,5.1,44.7-1.2l1.2,2.7
		C1404.6,604.1,1396.1,605.9,1387.6,605.9z"/>
</g>
</svg>
