<?xml version="1.0" encoding="utf-8"?>
<!-- Generator: Adobe Illustrator 25.0.0, SVG Export Plug-In . SVG Version: 6.00 Build 0)  -->
<svg version="1.1" id="Ebene_1" xmlns="http://www.w3.org/2000/svg" xmlns:xlink="http://www.w3.org/1999/xlink" x="0px" y="0px"
	 viewBox="0 0 346.1 83.1" style="enable-background:new 0 0 346.1 83.1;" xml:space="preserve">
<style type="text/css">
	.st0{fill:#010202;}
	.st1{opacity:0.764;fill:#FFFFFF;enable-background:new    ;}
	.st2{clip-path:url(#SVGID_2_);}
	.st3{fill:#1C1C1C;}
	.st4{clip-path:url(#SVGID_4_);}
	.st5{fill:#00998E;}
	.st6{fill:#1D1E1B;}
	.st7{fill:#FFFFFF;}
	.st8{fill:#009A8F;}
</style>
<g>
	<g id="Gruppe_109" transform="translate(90.412 36.587)">
		<path id="Pfad_85" class="st6" d="M13.8,12c0.5,0.7,0.8,1.5,0.8,2.4c0.1,1.1-0.5,2.2-1.4,2.9c-1.2,0.8-2.7,1.1-4.1,1H2.3V3.6h6.4
			c1.3-0.1,2.7,0.3,3.8,1c0.9,0.6,1.4,1.7,1.4,2.8c0,0.7-0.2,1.5-0.6,2.1c-0.4,0.6-1,1-1.7,1.3C12.4,10.9,13.2,11.4,13.8,12z
			 M3.8,4.9v5.4h4.7c1,0.1,1.9-0.2,2.8-0.7c1.1-0.9,1.3-2.5,0.4-3.6c-0.1-0.2-0.3-0.3-0.4-0.4c-0.8-0.5-1.8-0.7-2.8-0.7L3.8,4.9
			L3.8,4.9z M12,16.4c0.7-0.5,1.1-1.3,1-2.1c0-1.8-1.3-2.8-4-2.8H3.8v5.5H9C10.1,17.2,11.1,16.9,12,16.4L12,16.4z"/>
		<path id="Pfad_86" class="st6" d="M27.7,7.3v11.1h-1.4v-2c-0.4,0.7-0.9,1.2-1.6,1.6c-0.7,0.4-1.5,0.6-2.4,0.6
			c-2.4,0.2-4.5-1.5-4.7-3.9c0-0.3,0-0.6,0-0.9V7.3h1.5v6.3c-0.1,1,0.2,1.9,0.9,2.7c0.7,0.6,1.6,1,2.5,0.9c1,0.1,2-0.3,2.8-1.1
			c0.7-0.8,1.1-1.9,1-3V7.3H27.7z"/>
		<path id="Pfad_87" class="st6" d="M40.4,8.4c0.9,1,1.3,2.2,1.2,3.5v6.4h-1.5v-6.3c0.1-1-0.2-1.9-0.9-2.6c-0.7-0.6-1.6-1-2.5-0.9
			c-1.1-0.1-2.1,0.3-2.8,1.1c-0.7,0.8-1.1,1.9-1,2.9v5.8h-1.5V7.3h1.4v2c0.4-0.7,1-1.2,1.7-1.6c0.8-0.4,1.6-0.6,2.5-0.6
			C38.3,7.2,39.5,7.6,40.4,8.4z"/>
		<path id="Pfad_88" class="st6" d="M55.6,2.7v15.6h-1.4v-2.2c-0.4,0.7-1,1.3-1.8,1.7c-0.8,0.4-1.6,0.6-2.5,0.6c-1,0-2-0.2-2.8-0.7
			c-0.8-0.5-1.5-1.2-2-2c-1-1.8-1-4,0-5.9c0.5-0.8,1.1-1.5,2-2c0.9-0.5,1.8-0.7,2.8-0.7c0.8,0,1.7,0.2,2.4,0.6
			c0.7,0.4,1.3,0.9,1.8,1.6V2.8L55.6,2.7L55.6,2.7z M52.1,16.6c0.6-0.4,1.1-0.9,1.5-1.5c0.7-1.4,0.7-3.1,0-4.5
			c-0.3-0.6-0.8-1.2-1.5-1.5c-1.3-0.7-2.9-0.7-4.2,0c-0.6,0.4-1.1,0.9-1.5,1.5c-0.7,1.4-0.7,3.1,0,4.5c0.3,0.6,0.8,1.2,1.5,1.5
			c0.6,0.4,1.4,0.6,2.1,0.5C50.7,17.2,51.4,17,52.1,16.6L52.1,16.6z"/>
		<path id="Pfad_89" class="st6" d="M69.2,13.3h-9.3c0,1.1,0.5,2.1,1.3,2.8c0.8,0.7,1.9,1.1,3,1.1c0.7,0,1.3-0.1,1.9-0.4
			c0.6-0.2,1.1-0.6,1.5-1.1l0.8,1c-0.5,0.6-1.1,1.1-1.8,1.3c-0.8,0.3-1.6,0.5-2.4,0.5c-1.1,0-2.1-0.2-3-0.7c-0.9-0.5-1.6-1.2-2.1-2
			c-0.5-0.9-0.8-1.9-0.7-2.9c0-1,0.2-2,0.7-2.9c0.4-0.8,1.1-1.5,1.9-2c1.7-1,3.8-1,5.5,0c0.8,0.5,1.5,1.2,1.9,2
			c0.5,0.9,0.7,1.9,0.7,2.9L69.2,13.3z M61.2,9.5c-0.7,0.7-1.2,1.7-1.2,2.7h7.9c-0.1-1-0.5-2-1.2-2.7C65,8.2,62.7,8.2,61.2,9.5
			L61.2,9.5z"/>
		<path id="Pfad_90" class="st6" d="M72.7,18.1c-0.7-0.2-1.4-0.5-1.9-1l0.7-1.2c0.5,0.4,1.1,0.7,1.8,0.9c0.7,0.2,1.4,0.3,2.2,0.3
			c0.8,0.1,1.6-0.1,2.2-0.5c0.5-0.3,0.7-0.8,0.7-1.3c0-0.4-0.1-0.7-0.4-1c-0.3-0.2-0.6-0.4-1-0.5c-0.5-0.1-1.1-0.3-1.6-0.3
			c-0.7-0.1-1.5-0.3-2.2-0.5c-0.5-0.2-1-0.5-1.4-0.9c-0.4-0.5-0.6-1.1-0.6-1.8c0-0.9,0.4-1.8,1.2-2.3c0.9-0.6,2.1-1,3.2-0.9
			c0.7,0,1.4,0.1,2.2,0.3c0.6,0.2,1.2,0.4,1.8,0.7l-0.7,1.2c-1-0.6-2.1-1-3.3-0.9C74.8,8.5,74,8.6,73.4,9c-0.5,0.3-0.7,0.8-0.7,1.3
			c0,0.4,0.1,0.8,0.4,1c0.3,0.3,0.6,0.5,1,0.6c0.6,0.2,1.1,0.3,1.7,0.4c0.7,0.1,1.4,0.3,2.1,0.5c0.5,0.2,1,0.5,1.4,0.9
			c0.4,0.5,0.6,1.1,0.6,1.7c0,0.9-0.4,1.8-1.2,2.3c-1,0.6-2.2,0.9-3.4,0.9C74.4,18.5,73.5,18.4,72.7,18.1z"/>
		<path id="Pfad_91" class="st6" d="M92.2,7.3l-4.9,11.1h-1.5L80.8,7.3h1.6l4.2,9.4l4.2-9.4H92.2z"/>
		<path id="Pfad_92" class="st6" d="M103.6,13.3h-9.3c0,1.1,0.5,2.1,1.3,2.8c0.8,0.7,1.9,1.1,3,1.1c0.7,0,1.3-0.1,1.9-0.4
			c0.6-0.2,1.1-0.6,1.5-1.1l0.8,1c-0.5,0.6-1.1,1.1-1.8,1.3c-0.8,0.3-1.6,0.5-2.4,0.5c-1.1,0-2.1-0.2-3-0.7c-0.9-0.5-1.6-1.2-2.1-2
			c-0.5-0.9-0.8-1.9-0.7-2.9c0-1,0.2-2,0.7-2.9c0.4-0.8,1.1-1.5,1.9-2c1.7-1,3.8-1,5.5,0c0.8,0.5,1.5,1.2,1.9,2
			c0.5,0.9,0.7,1.9,0.7,2.9L103.6,13.3z M95.6,9.5c-0.7,0.7-1.2,1.7-1.2,2.7h7.9c-0.1-1-0.5-2-1.2-2.7C99.5,8.2,97.1,8.2,95.6,9.5
			L95.6,9.5z"/>
		<path id="Pfad_93" class="st6" d="M109.4,7.8c0.8-0.4,1.7-0.6,2.6-0.6v1.5l-0.4,0c-1-0.1-2,0.3-2.7,1.1c-0.7,0.8-1.1,1.9-1,3v5.7
			h-1.5V7.3h1.4v2.2C108.2,8.8,108.7,8.2,109.4,7.8z"/>
		<path id="Pfad_94" class="st6" d="M123,7.9c0.8,0.5,1.5,1.2,2,2c1,1.8,1,4,0,5.9c-0.5,0.8-1.1,1.5-2,2c-0.9,0.5-1.8,0.7-2.8,0.7
			c-0.9,0-1.7-0.2-2.5-0.6c-0.7-0.4-1.4-1-1.8-1.7v2.2h-1.4V2.7h1.5v6.7c0.4-0.7,1.1-1.3,1.8-1.6c0.8-0.4,1.6-0.6,2.4-0.6
			C121.1,7.2,122.1,7.4,123,7.9z M122.2,16.6c0.6-0.4,1.1-0.9,1.5-1.5c0.7-1.4,0.7-3.1,0-4.5c-0.3-0.6-0.9-1.2-1.5-1.5
			c-1.3-0.7-2.9-0.7-4.2,0c-0.6,0.4-1.1,0.9-1.5,1.5c-0.7,1.4-0.7,3.1,0,4.5c0.3,0.6,0.8,1.2,1.5,1.5
			C119.3,17.3,120.8,17.3,122.2,16.6L122.2,16.6z"/>
		<path id="Pfad_95" class="st6" d="M135.8,8.3c0.8,0.9,1.2,2,1.2,3.2v6.9h-1.4v-1.7c-0.4,0.6-0.9,1.1-1.5,1.3
			c-0.7,0.3-1.5,0.5-2.3,0.5c-1.1,0.1-2.1-0.3-2.9-0.9c-0.7-0.6-1.1-1.4-1.1-2.3c0-0.9,0.3-1.7,1-2.3c1-0.7,2.1-1,3.3-0.9h3.5v-0.7
			c0.1-0.8-0.2-1.6-0.8-2.2c-0.7-0.5-1.5-0.8-2.3-0.7c-0.7,0-1.4,0.1-2,0.3c-0.6,0.2-1.2,0.5-1.7,1l-0.7-1.1c0.6-0.5,1.3-0.9,2-1.1
			c0.8-0.3,1.6-0.4,2.5-0.4C133.6,7.1,134.8,7.5,135.8,8.3z M134.1,16.7c0.6-0.4,1.1-1,1.3-1.7v-1.8H132c-1.9,0-2.8,0.7-2.8,2
			c0,0.6,0.3,1.2,0.7,1.5c0.6,0.4,1.3,0.6,2.1,0.6C132.7,17.3,133.4,17.1,134.1,16.7L134.1,16.7z"/>
		<path id="Pfad_96" class="st6" d="M149.6,8.4c0.9,1,1.3,2.2,1.2,3.5v6.4h-1.5v-6.3c0.1-1-0.2-1.9-0.9-2.6c-0.7-0.6-1.6-1-2.5-0.9
			c-1.1-0.1-2.1,0.3-2.8,1.1c-0.7,0.8-1.1,1.9-1,2.9v5.8h-1.5V7.3h1.4v2c0.4-0.7,1-1.2,1.7-1.6c0.8-0.4,1.6-0.6,2.5-0.6
			C147.5,7.2,148.7,7.6,149.6,8.4z"/>
		<path id="Pfad_97" class="st6" d="M164.8,2.7v15.6h-1.4v-2.2c-0.4,0.7-1,1.3-1.8,1.7c-0.8,0.4-1.6,0.6-2.5,0.6c-1,0-2-0.2-2.8-0.7
			c-0.8-0.5-1.5-1.2-2-2c-1-1.8-1-4,0-5.9c0.5-0.8,1.1-1.5,2-2c0.9-0.5,1.8-0.7,2.8-0.7c0.8,0,1.7,0.2,2.4,0.6
			c0.7,0.4,1.3,0.9,1.8,1.6V2.8L164.8,2.7L164.8,2.7z M161.3,16.6c0.6-0.4,1.1-0.9,1.5-1.5c0.7-1.4,0.7-3.1,0-4.5
			c-0.3-0.6-0.8-1.2-1.5-1.5c-1.3-0.7-2.9-0.7-4.2,0c-0.6,0.4-1.1,0.9-1.5,1.5c-0.7,1.4-0.7,3.1,0,4.5c0.3,0.6,0.8,1.2,1.5,1.5
			c0.6,0.4,1.4,0.6,2.1,0.5C159.9,17.2,160.7,17,161.3,16.6z"/>
	</g>
	<g id="Gruppe_110" transform="translate(90.412 61.879)">
		<path id="Pfad_98" class="st6" d="M2.3,3.6h6c1.4,0,2.9,0.3,4.1,0.9c1.2,0.6,2.1,1.5,2.8,2.6c1.3,2.4,1.3,5.3,0,7.7
			c-0.7,1.1-1.6,2-2.8,2.6c-1.3,0.6-2.7,1-4.1,0.9h-6V3.6z M8.2,17c1.2,0,2.3-0.2,3.4-0.8c0.9-0.5,1.7-1.2,2.3-2.1
			c0.5-1,0.8-2,0.8-3.1c0-1.1-0.3-2.2-0.8-3.1c-0.5-0.9-1.3-1.6-2.3-2.1c-1-0.5-2.2-0.8-3.4-0.8H3.8V17L8.2,17L8.2,17z"/>
		<path id="Pfad_99" class="st6" d="M29.1,13.3h-9.3c0,1.1,0.5,2.1,1.3,2.8c0.8,0.7,1.9,1.1,3,1.1c0.7,0,1.3-0.1,1.9-0.4
			c0.6-0.2,1.1-0.6,1.5-1.1l0.8,1c-0.5,0.6-1.1,1.1-1.8,1.3c-0.8,0.3-1.6,0.5-2.4,0.5c-1.1,0-2.1-0.2-3-0.7c-0.9-0.5-1.6-1.2-2.1-2
			c-0.5-0.9-0.8-1.9-0.7-2.9c0-1,0.2-2,0.7-2.9c0.4-0.8,1.1-1.5,1.9-2c1.7-1,3.8-1,5.5,0c0.8,0.5,1.5,1.2,1.9,2
			c0.5,0.9,0.7,1.9,0.7,2.9L29.1,13.3z M21,9.5c-0.7,0.7-1.2,1.7-1.2,2.7h7.9c-0.1-1-0.5-2-1.2-2.7c-0.7-0.7-1.7-1.1-2.7-1
			C22.7,8.5,21.8,8.8,21,9.5L21,9.5z"/>
		<path id="Pfad_100" class="st6" d="M41.8,7.3v11.1h-1.4v-2c-0.4,0.7-0.9,1.2-1.6,1.6c-0.7,0.4-1.5,0.6-2.4,0.6
			c-2.4,0.2-4.5-1.5-4.7-3.9c0-0.3,0-0.6,0-0.9V7.3h1.5v6.3c-0.1,1,0.2,1.9,0.9,2.7c0.7,0.6,1.6,1,2.5,0.9c1,0.1,2-0.3,2.8-1.1
			c0.7-0.8,1.1-1.9,1-3V7.3H41.8z"/>
		<path id="Pfad_101" class="st6" d="M51.6,17.7c-0.3,0.3-0.7,0.5-1,0.6c-0.4,0.1-0.9,0.2-1.3,0.2c-0.9,0.1-1.7-0.2-2.4-0.8
			C46.3,17,46,16.1,46,15.3V8.6h-2V7.3h2V4.9h1.5v2.4h3.4v1.3h-3.4v6.6c0,0.5,0.1,1.1,0.5,1.5c0.4,0.4,0.9,0.6,1.4,0.5
			c0.3,0,0.6,0,0.9-0.2c0.3-0.1,0.5-0.2,0.7-0.4L51.6,17.7z"/>
		<path id="Pfad_102" class="st6" d="M55.1,18.1c-0.7-0.2-1.4-0.5-1.9-1l0.7-1.2c0.5,0.4,1.1,0.7,1.8,0.9c0.7,0.2,1.4,0.3,2.2,0.3
			c0.8,0.1,1.6-0.1,2.2-0.5c0.5-0.3,0.7-0.8,0.7-1.3c0-0.4-0.1-0.7-0.4-1c-0.3-0.2-0.6-0.4-1-0.5c-0.5-0.1-1.1-0.3-1.6-0.3
			c-0.7-0.1-1.5-0.3-2.2-0.5c-0.5-0.2-1-0.5-1.4-0.9c-0.4-0.5-0.6-1.1-0.6-1.8c0-0.9,0.4-1.8,1.2-2.3c0.9-0.6,2.1-1,3.2-0.9
			c0.7,0,1.4,0.1,2.2,0.3c0.6,0.2,1.2,0.4,1.8,0.7l-0.7,1.2c-1-0.6-2.1-1-3.3-0.9c-0.8-0.1-1.5,0.1-2.2,0.5C55.3,9.3,55,9.8,55,10.3
			c0,0.4,0.1,0.8,0.4,1c0.3,0.3,0.6,0.5,1,0.6c0.6,0.2,1.1,0.3,1.7,0.4c0.7,0.1,1.4,0.3,2.1,0.5c0.5,0.2,1,0.5,1.4,0.9
			c0.4,0.5,0.6,1.1,0.6,1.7c0,0.9-0.4,1.8-1.2,2.3c-1,0.6-2.2,0.9-3.4,0.9C56.8,18.5,55.9,18.4,55.1,18.1z"/>
		<path id="Pfad_103" class="st6" d="M66.7,17.8c-0.9-0.5-1.6-1.2-2-2c-0.5-0.9-0.8-1.9-0.7-2.9c0-1,0.2-2,0.7-2.9
			c0.5-0.8,1.2-1.5,2-2c0.9-0.5,1.9-0.7,2.9-0.7c0.9,0,1.8,0.2,2.6,0.6c0.7,0.4,1.4,0.9,1.8,1.6l-1.1,0.8c-0.3-0.5-0.8-1-1.4-1.2
			c-0.6-0.3-1.2-0.4-1.8-0.4c-0.8,0-1.5,0.2-2.2,0.5c-0.6,0.4-1.2,0.9-1.5,1.5c-0.7,1.4-0.7,3.1,0,4.5c0.3,0.6,0.9,1.2,1.5,1.5
			c0.7,0.4,1.4,0.6,2.2,0.5c0.6,0,1.3-0.1,1.8-0.4c0.6-0.3,1.1-0.7,1.4-1.2l1.1,0.8c-0.4,0.7-1,1.3-1.8,1.6
			c-0.8,0.4-1.7,0.6-2.6,0.6C68.6,18.5,67.6,18.3,66.7,17.8z"/>
		<path id="Pfad_104" class="st6" d="M85.5,8.4c0.9,1,1.3,2.2,1.2,3.5v6.4h-1.5v-6.3c0.1-1-0.2-1.9-0.9-2.6c-0.7-0.6-1.6-1-2.5-0.9
			c-1.1-0.1-2.1,0.3-2.8,1.1c-0.7,0.8-1.1,1.9-1,2.9v5.8h-1.5V2.7h1.5v6.5c0.4-0.6,1-1.2,1.7-1.5c0.8-0.4,1.6-0.5,2.5-0.5
			C83.4,7.2,84.6,7.6,85.5,8.4z"/>
		<path id="Pfad_105" class="st6" d="M100.3,13.3H91c0,1.1,0.5,2.1,1.3,2.8c0.8,0.7,1.9,1.1,3,1.1c0.7,0,1.3-0.1,1.9-0.4
			c0.6-0.2,1.1-0.6,1.5-1.1l0.8,1c-0.5,0.6-1.1,1.1-1.8,1.3c-0.8,0.3-1.6,0.5-2.4,0.5c-1.1,0-2.1-0.2-3-0.7c-0.9-0.5-1.6-1.2-2.1-2
			c-0.5-0.9-0.8-1.9-0.7-2.9c0-1,0.2-2,0.7-2.9c0.4-0.8,1.1-1.5,1.9-2c1.7-1,3.8-1,5.5,0c0.8,0.5,1.5,1.2,1.9,2
			c0.5,0.9,0.7,1.9,0.7,2.9L100.3,13.3z M92.2,9.5c-0.7,0.7-1.2,1.7-1.2,2.7h7.9c-0.1-1-0.5-2-1.2-2.7C96.1,8.2,93.8,8.2,92.2,9.5
			L92.2,9.5z"/>
		<path id="Pfad_106" class="st6" d="M106.1,7.8c0.8-0.4,1.7-0.6,2.6-0.6v1.5l-0.4,0c-1-0.1-2,0.3-2.7,1.1c-0.7,0.8-1.1,1.9-1,3v5.7
			h-1.5V7.3h1.4v2.2C104.8,8.8,105.4,8.2,106.1,7.8z"/>
		<path id="Pfad_107" class="st6" d="M128.9,12c0.5,0.7,0.8,1.5,0.8,2.4c0.1,1.1-0.5,2.2-1.4,2.9c-1.2,0.8-2.7,1.1-4.1,1h-6.8V3.6
			h6.4c1.3-0.1,2.7,0.3,3.8,1c0.9,0.6,1.4,1.7,1.4,2.8c0,0.7-0.2,1.5-0.6,2.1c-0.4,0.6-1,1-1.7,1.3C127.5,10.9,128.3,11.4,128.9,12z
			 M118.9,4.9v5.4h4.7c1,0.1,1.9-0.2,2.8-0.7c1.1-0.9,1.3-2.5,0.4-3.6c-0.1-0.2-0.3-0.3-0.4-0.4c-0.8-0.5-1.8-0.7-2.8-0.7L118.9,4.9
			L118.9,4.9z M127.1,16.4c0.7-0.5,1.1-1.3,1-2.1c0-1.8-1.3-2.8-4-2.8h-5.2v5.5h5.2C125.2,17.2,126.2,16.9,127.1,16.4L127.1,16.4z"
			/>
		<path id="Pfad_108" class="st6" d="M142.6,13.3h-9.3c0,1.1,0.5,2.1,1.3,2.8c0.8,0.7,1.9,1.1,3,1.1c0.7,0,1.3-0.1,1.9-0.4
			c0.6-0.2,1.1-0.6,1.5-1.1l0.8,1c-0.5,0.6-1.1,1.1-1.8,1.3c-0.8,0.3-1.6,0.5-2.4,0.5c-1.1,0-2.1-0.2-3-0.7c-0.9-0.5-1.6-1.2-2.1-2
			c-0.5-0.9-0.8-1.9-0.7-2.9c0-1,0.2-2,0.7-2.9c0.4-0.8,1.1-1.5,1.9-2c1.7-1,3.8-1,5.5,0c0.8,0.5,1.5,1.2,1.9,2
			c0.5,0.9,0.7,1.9,0.7,2.9L142.6,13.3z M134.6,9.5c-0.7,0.7-1.2,1.7-1.2,2.7h7.9c-0.1-1-0.5-2-1.2-2.7
			C138.4,8.2,136.1,8.2,134.6,9.5L134.6,9.5z"/>
		<path id="Pfad_109" class="st6" d="M146.1,18.1c-0.7-0.2-1.4-0.5-1.9-1l0.7-1.2c0.5,0.4,1.1,0.7,1.8,0.9c0.7,0.2,1.4,0.3,2.2,0.3
			c0.8,0.1,1.6-0.1,2.2-0.5c0.5-0.3,0.7-0.8,0.7-1.3c0-0.4-0.1-0.7-0.4-1c-0.3-0.2-0.6-0.4-1-0.5c-0.5-0.1-1.1-0.3-1.6-0.3
			c-0.7-0.1-1.5-0.3-2.2-0.5c-0.5-0.2-1-0.5-1.4-0.9c-0.4-0.5-0.6-1.1-0.6-1.8c0-0.9,0.4-1.8,1.2-2.3c0.9-0.6,2.1-1,3.2-0.9
			c0.7,0,1.4,0.1,2.2,0.3c0.6,0.2,1.2,0.4,1.8,0.7l-0.7,1.2c-1-0.6-2.1-1-3.3-0.9c-0.8-0.1-1.5,0.1-2.2,0.5
			c-0.5,0.3-0.7,0.8-0.7,1.3c0,0.4,0.1,0.8,0.4,1c0.3,0.3,0.6,0.5,1,0.6c0.6,0.2,1.1,0.3,1.7,0.4c0.7,0.1,1.4,0.3,2.1,0.5
			c0.5,0.2,1,0.5,1.4,0.9c0.4,0.5,0.6,1.1,0.6,1.7c0,0.9-0.4,1.8-1.2,2.3c-1,0.6-2.2,0.9-3.4,0.9C147.8,18.5,146.9,18.4,146.1,18.1z
			"/>
		<path id="Pfad_110" class="st6" d="M162.1,17.7c-0.3,0.3-0.7,0.5-1,0.6c-0.4,0.1-0.9,0.2-1.3,0.2c-0.9,0.1-1.7-0.2-2.4-0.8
			c-0.6-0.6-0.9-1.5-0.8-2.4V8.6h-2V7.3h2V4.9h1.5v2.4h3.4v1.3H158v6.6c0,0.5,0.1,1.1,0.5,1.5c0.4,0.4,0.9,0.6,1.4,0.5
			c0.3,0,0.6,0,0.9-0.2c0.3-0.1,0.5-0.2,0.7-0.4L162.1,17.7z"/>
		<path id="Pfad_111" class="st6" d="M171.8,8.3c0.8,0.9,1.2,2,1.2,3.2v6.9h-1.4v-1.7c-0.4,0.6-0.9,1.1-1.5,1.3
			c-0.7,0.3-1.5,0.5-2.3,0.5c-1.1,0.1-2.1-0.3-2.9-0.9c-0.7-0.6-1.1-1.4-1.1-2.3c0-0.9,0.3-1.7,1-2.3c1-0.7,2.1-1,3.3-0.9h3.5v-0.7
			c0.1-0.8-0.2-1.6-0.8-2.2c-0.7-0.5-1.5-0.8-2.3-0.7c-0.7,0-1.4,0.1-2,0.3c-0.6,0.2-1.2,0.5-1.7,1l-0.7-1.1c0.6-0.5,1.3-0.9,2-1.1
			c0.8-0.3,1.6-0.4,2.5-0.4C169.7,7.1,170.9,7.5,171.8,8.3z M170.1,16.7c0.6-0.4,1.1-1,1.3-1.7v-1.8H168c-1.9,0-2.8,0.7-2.8,2
			c0,0.6,0.3,1.2,0.7,1.5c0.6,0.4,1.3,0.6,2.1,0.6C168.7,17.3,169.5,17.1,170.1,16.7L170.1,16.7z"/>
		<path id="Pfad_112" class="st6" d="M182.4,17.7c-0.3,0.3-0.7,0.5-1,0.6c-0.4,0.1-0.9,0.2-1.3,0.2c-0.9,0.1-1.7-0.2-2.4-0.8
			c-0.6-0.6-0.9-1.5-0.8-2.4V8.6h-2V7.3h2V4.9h1.5v2.4h3.4v1.3h-3.4v6.6c0,0.5,0.1,1.1,0.5,1.5c0.4,0.4,0.9,0.6,1.4,0.5
			c0.3,0,0.6,0,0.9-0.2c0.3-0.1,0.5-0.2,0.7-0.4L182.4,17.7z"/>
		<path id="Pfad_113" class="st6" d="M191,17.7c-0.3,0.3-0.7,0.5-1,0.6c-0.4,0.1-0.9,0.2-1.3,0.2c-0.9,0.1-1.7-0.2-2.4-0.8
			c-0.6-0.6-0.9-1.5-0.8-2.4V8.6h-2V7.3h2V4.9h1.5v2.4h3.4v1.3h-3.4v6.6c0,0.5,0.1,1.1,0.5,1.5c0.4,0.4,0.9,0.6,1.4,0.5
			c0.3,0,0.6,0,0.9-0.2c0.3-0.1,0.5-0.2,0.7-0.4L191,17.7z"/>
		<path id="Pfad_114" class="st6" d="M202.8,13.3h-9.3c0,1.1,0.5,2.1,1.3,2.8c0.8,0.7,1.9,1.1,3,1.1c0.7,0,1.3-0.1,1.9-0.4
			c0.6-0.2,1.1-0.6,1.5-1.1l0.8,1c-0.5,0.6-1.1,1.1-1.8,1.3c-0.8,0.3-1.6,0.5-2.4,0.5c-1.1,0-2.1-0.2-3-0.7c-0.9-0.5-1.6-1.2-2.1-2
			c-0.5-0.9-0.8-1.9-0.7-2.9c0-1,0.2-2,0.7-2.9c0.4-0.8,1.1-1.5,1.9-2c1.7-1,3.8-1,5.5,0c0.8,0.5,1.5,1.2,1.9,2
			c0.5,0.9,0.7,1.9,0.7,2.9L202.8,13.3z M194.8,9.5c-0.7,0.7-1.2,1.7-1.2,2.7h7.9c-0.1-1-0.5-2-1.2-2.7
			C198.6,8.2,196.3,8.2,194.8,9.5L194.8,9.5z"/>
		<path id="Pfad_115" class="st6" d="M208.6,7.8c0.8-0.4,1.7-0.6,2.6-0.6v1.5l-0.4,0c-1-0.1-2,0.3-2.7,1.1c-0.7,0.8-1.1,1.9-1,3v5.7
			h-1.5V7.3h1.4v2.2C207.4,8.8,207.9,8.2,208.6,7.8z"/>
		<path id="Pfad_116" class="st6" d="M229.2,13.3H220c0,1.1,0.5,2.1,1.3,2.8c0.8,0.7,1.9,1.1,3,1.1c0.7,0,1.3-0.1,1.9-0.4
			c0.6-0.2,1.1-0.6,1.5-1.1l0.8,1c-0.5,0.6-1.1,1.1-1.8,1.3c-0.8,0.3-1.6,0.5-2.4,0.5c-1.1,0-2.1-0.2-3-0.7c-0.9-0.5-1.6-1.2-2.1-2
			c-0.5-0.9-0.8-1.9-0.7-2.9c0-1,0.2-2,0.7-2.9c0.4-0.8,1.1-1.5,1.9-2c1.7-1,3.8-1,5.5,0c0.8,0.5,1.5,1.2,1.9,2
			c0.5,0.9,0.7,1.9,0.7,2.9L229.2,13.3z M221.2,9.5c-0.7,0.7-1.2,1.7-1.2,2.7h7.9c-0.1-1-0.5-2-1.2-2.7C225,8.2,222.7,8.2,221.2,9.5
			z"/>
		<path id="Pfad_117" class="st6" d="M231.5,18.2c-0.2-0.2-0.3-0.5-0.3-0.8c0-0.3,0.1-0.6,0.3-0.8c0.2-0.2,0.5-0.3,0.8-0.3
			c0.3,0,0.6,0.1,0.8,0.3c0.2,0.2,0.3,0.5,0.3,0.8c0,0.3-0.1,0.6-0.3,0.8C232.7,18.6,232,18.6,231.5,18.2
			C231.5,18.2,231.5,18.2,231.5,18.2L231.5,18.2z"/>
		<path id="Pfad_118" class="st6" d="M251.6,3.6L245,18.4h-1.5l-6.5-14.8h1.7l5.7,12.8L250,3.6L251.6,3.6z"/>
		<path id="Pfad_119" class="st6" d="M251.5,18.2c-0.2-0.2-0.3-0.5-0.3-0.8c0-0.3,0.1-0.6,0.3-0.8c0.2-0.2,0.5-0.3,0.8-0.3
			c0.3,0,0.6,0.1,0.8,0.3c0.2,0.2,0.3,0.5,0.3,0.8c0,0.3-0.1,0.6-0.3,0.8C252.7,18.6,252,18.6,251.5,18.2
			C251.5,18.2,251.5,18.2,251.5,18.2L251.5,18.2z"/>
	</g>
	<rect id="Rechteck_30" x="2.3" y="2.7" class="st7" width="67.6" height="77.4"/>
	<g id="Gruppe_111" transform="translate(4.793 5.528)">
		<path id="Pfad_120" class="st6" d="M3.9,10.7h5.8c2.9,0,4.6,1,4.6,3c0,2.4-2.1,3.2-4.6,3.1H3.9V10.7z M2.3,18h7.4
			c5.7,0,6.3-2.9,6.3-4.3c0-2-1.5-3.5-3.7-3.7v0c1.7-0.3,3-1.7,3-3.4c0-2.8-2.7-3.7-5.6-3.7H2.3V18z M3.9,4h5.8c2.6,0,4,1,4,2.9
			c0,1.4-1.3,2.6-4,2.6H3.9V4z"/>
		<path id="Pfad_121" class="st6" d="M26.2,4h3.6c5,0,7.2,1.8,7.2,6.4s-2.2,6.4-7.2,6.4h-3.6V4z M24.6,18h6.1
			c5.3-0.1,8.1-2.6,8.1-7.6s-2.8-7.5-8.1-7.6h-6.1V18z"/>
		<path id="Pfad_122" class="st6" d="M49,10.7h5.8c2.9,0,4.6,1,4.6,3c0,2.4-2.1,3.2-4.6,3.1H49V10.7z M47.3,18h7.4
			c5.7,0,6.3-2.9,6.3-4.3c0-2-1.4-3.5-3.7-3.7v0c1.7-0.3,3-1.7,3.1-3.4c0-2.8-2.7-3.7-5.6-3.7h-7.4V18z M49,4h5.8c2.6,0,4,1,4,2.9
			c0,1.4-1.3,2.6-4,2.6H49V4z"/>
	</g>
	<path id="Pfad_123" class="st6" d="M3.7,4.1h64.8v74.6H3.7V4.1z M2.3,80.2h67.6V2.7H2.3V80.2z"/>
	<g id="Gruppe_112" transform="translate(4.779 22.467)">
		<path id="Pfad_124" class="st8" d="M58.8,26.8c-14.4,0.5-24.7,15.7-27.5,23.5c-2.9-7.8-13.2-23-27.5-23.5V4.3
			C22.5,5,30.6,35.2,30.6,40H32C32,35.2,40.1,5,58.8,4.3L58.8,26.8z M59.6,2.7c-17,0-25.8,21.7-28.3,32.2l0,0
			C28.8,24.4,20,2.7,3,2.7H2.3v25.6H3c16.5,0,27.6,21.1,27.6,25.5H32c0-4.4,11.1-25.5,27.6-25.5h0.7V2.7H59.6z"/>
	</g>
</g>
</svg>
