<?xml version="1.0" encoding="utf-8"?>
<!-- Generator: Adobe Illustrator 25.0.0, SVG Export Plug-In . SVG Version: 6.00 Build 0)  -->
<svg version="1.1" id="Ebene_1" xmlns="http://www.w3.org/2000/svg" xmlns:xlink="http://www.w3.org/1999/xlink" x="0px" y="0px"
	 viewBox="0 0 127.9 136.7" style="enable-background:new 0 0 127.9 136.7;" xml:space="preserve">
<style type="text/css">
	.st0{fill:#CA7C34;}
	.st1{opacity:0.764;fill:#FFFFFF;enable-background:new    ;}
	.st2{clip-path:url(#SVGID_2_);}
	.st3{fill:#1C1C1C;}
	.st4{clip-path:url(#SVGID_4_);}
	.st5{fill:#00998E;}
	.st6{fill:#1D1E1B;}
	.st7{fill:#FFFFFF;}
	.st8{fill:#009A8F;}
</style>
<g>
	<path class="st0" d="M78.2,66.1c0.2,0.2,0.5,0.3,0.8,0.3c0.3,0,0.6-0.1,0.9-0.3l36.8-28.8c0.3-0.2,0.5-0.6,0.6-1l3.2-18.8
		c0.1-0.5-0.1-1-0.5-1.3L101.9,1.6c-0.4-0.3-0.9-0.4-1.4-0.2L82.9,8.6c-0.4,0.1-0.6,0.4-0.8,0.8L62,51.6c-0.3,0.6-0.2,1.3,0.3,1.7
		L78.2,66.1z M65,51.7L84.3,11l16.3-6.7l17,13.6l-3,17.4L79.2,63.1L65,51.7z"/>
	<path class="st0" d="M86.6,38.4l1.3,1l8.5-10.7c0.3-0.4,0.9-0.5,1.3-0.2l3.7,2.9l1.1-1.3l-3.7-2.9c-0.4-0.3-0.4-0.9-0.1-1.3l3.2-4
		l-1.3-1l-3.2,4c-0.3,0.4-0.9,0.5-1.3,0.2l-3.7-2.9l-1.1,1.3l3.7,2.9c0.4,0.3,0.4,0.9,0.1,1.3L86.6,38.4z"/>
	<path class="st0" d="M125.9,18.6c-0.2-0.3-0.5-0.5-0.8-0.6c-0.1,0-0.1,0-0.2,0c-0.8,0-1.5,0.5-1.6,1.3l-3.1,18.2L89.7,61.3
		c-0.6,0.5-0.8,1.3-0.4,2c0.1,0.1,0.2,0.2,0.2,0.3c0.2,0.2,0.5,0.3,0.8,0.3c0.3,0,0.6-0.1,0.9-0.3l31-24.2c0.3-0.2,0.5-0.6,0.6-1
		l3.2-18.8C126.1,19.2,126.1,18.9,125.9,18.6z"/>
	<path class="st0" d="M118.4,75L118.4,75c-0.2-4.5-0.8-8.9-2-13.2c-0.9,1.1-2.1,1.9-3.4,2.4c1,4.2,1.5,8.5,1.6,12.7l-14.5,6.3
		c-3.5,1.5-5.1,5.5-3.8,9c0.4,1.2,0.2,2.4-0.7,3.3l-7.1,7.6c-2.4,2.4-3.7,5.7-3.8,9.1l0.1,3.3c0.2,3,1.3,5.9,3,8.3
		c-4.5,2.6-9.4,4.7-14.8,6c-11.3,2.7-22.5,1.8-32.6-2.1c-1.9-4.2-4.3-12.7-1.2-14.9l5.9-2.6c4.2-1.9,7.1-5.9,7.5-10.5l0-0.3
		c0.1-1,0.8-1.8,1.8-2c1-0.3,2,0.1,2.6,1l2.4,3.8c0.9,1.3,2.4,2.1,4,1.9c1.6-0.1,2.9-1.1,3.6-2.6c1.9-4.3,4.7-10.9,5.1-16.9
		c0.1-1.6-0.2-3.3-1-4.7l-2.8-6.5c-1.1-2-2.7-3.6-4.6-4.7c-2.9-1.6-5.5-3.6-7.8-6c-1.4-1.5-3.9-2.8-7.6-3.7
		c-1.4-0.3-2.4-1.5-2.5-2.9c-1-10.1-3.7-15.2-8-15.2c-0.4,0-0.7,0-1.1,0c-2.3,0.1-4.5,0.9-6.3,2.3c-3.3,2.6-5.3,7.2-5.8,13.6
		c-0.2,2.3-0.5,5-0.9,7.6l-2,13.5l-3-3.3c-0.1-0.2-0.2-0.3-0.3-0.5c-2.5-3.1-7-3.6-10.1-1.1L5.8,75c0.9-23.7,17.3-44.9,41.5-50.8
		c3.6-0.9,7.3-1.4,11-1.5c0.3,0,0.6,0,1,0c-0.3-1.3-0.3-2.6-0.1-3.9c-0.3,0-0.6,0-1,0C25.9,20,0.8,47,1.9,79.1c0,0,0,0,0,0
		C1.9,80,2,80.8,2,81.7c0,0.4,0.1,0.9,0.1,1.3c0,0.3,0.1,0.6,0.1,1c3.5,29.9,29.4,52.6,60,51.5c12.2-0.4,23.3-4.6,32.4-11.3
		c0.1-0.1,0.3-0.2,0.4-0.3c0.7-0.5,1.4-1.1,2.1-1.6c0.3-0.3,0.7-0.5,1-0.8c0.5-0.4,0.9-0.8,1.4-1.3c0.4-0.3,0.7-0.7,1.1-1
		c0.4-0.4,0.8-0.8,1.2-1.2c0.7-0.7,1.3-1.3,1.9-2c0.3-0.4,0.7-0.8,1-1.2c0.4-0.4,0.7-0.9,1.1-1.3c0.3-0.4,0.6-0.8,0.9-1.2
		c0.3-0.4,0.7-0.9,1-1.3c0.3-0.5,0.6-0.9,0.9-1.4c0.3-0.4,0.5-0.8,0.8-1.2c0.5-0.8,1.1-1.7,1.5-2.6c0.1-0.2,0.2-0.4,0.3-0.6
		c0.4-0.8,0.8-1.6,1.2-2.4c0.1-0.3,0.3-0.6,0.4-0.9c0.3-0.7,0.7-1.5,1-2.2c0.1-0.3,0.2-0.6,0.3-0.8c0.3-0.8,0.7-1.7,1-2.6
		c0.1-0.2,0.1-0.3,0.2-0.5c0.7-2.1,1.3-4.3,1.8-6.6c0-0.2,0.1-0.4,0.1-0.6c0.2-0.9,0.3-1.8,0.5-2.7c0-0.3,0.1-0.6,0.1-0.9
		c0.1-0.9,0.2-1.7,0.3-2.6c0-0.3,0.1-0.6,0.1-0.8c0.1-1.1,0.1-2.2,0.2-3.3c0,0,0-0.1,0-0.1c0,0,0,0,0,0
		C118.5,77.1,118.5,76.1,118.4,75z M10.5,76.2c0.1-0.1,0.2-0.1,0.3-0.2c1.5-1,3.6-0.6,4.6,1c0.1,0.1,0.1,0.2,0.2,0.3l3.3,3.7
		c0.5,0.7,1.4,1.2,2.3,1.4c1.9,0.3,3.7-1,4.1-2.9l2.1-14.3c0.5-2.8,0.8-5.6,1-8c0.4-5.1,1.9-8.9,4.3-10.8c1.3-1.1,3-1.6,4.6-1.5
		c0.1,0,0.2,0,0.4,0c1.4,0,3.4,3.6,4.2,11.7c0.3,3,2.5,5.6,5.4,6.3c4,1,5.3,2.1,5.7,2.5c2.6,2.7,5.5,5,8.8,6.8
		c1.3,0.7,2.3,1.8,3.1,3.1l2.8,6.5c0.5,0.8,0.7,1.7,0.6,2.7c-0.4,5.4-3.1,11.6-4.8,15.7c0,0.1-0.2,0.2-0.3,0.2h0l0,0
		c-0.1,0-0.2,0-0.3-0.1l-2.4-3.8c-1.5-2.3-4.2-3.3-6.8-2.7c-2.6,0.6-4.5,2.7-4.7,5.4l0,0.4c-0.3,3.2-2.2,6-5.2,7.3l-6.1,2.7
		c-0.1,0-0.2,0.1-0.3,0.2c-4.9,3.2-3.4,11-1.7,16c-0.1,0-0.2-0.1-0.3-0.1c-16.1-8.3-26.9-24-29.1-41.9c0,0,0,0,0,0
		c-0.1-1.1-0.2-2.1-0.3-3.2c0-0.1,0-0.3,0-0.4L10.5,76.2z M91.1,121.9L91.1,121.9c-1.4-1.8-2.2-4-2.4-6.3l-0.1-3.3
		c0-2.4,1-4.7,2.7-6.4l7.1-7.6c1.9-2,2.4-4.8,1.5-7.4c-0.6-1.6,0.2-3.4,1.7-4.1l12.8-5.6c-0.1,2-0.4,4-0.8,6c0,0.1,0,0.1,0,0.2
		c-0.2,0.9-0.4,1.8-0.6,2.7c0,0.1,0,0.2-0.1,0.3c-0.2,0.9-0.5,1.8-0.7,2.7c0,0.1,0,0.1-0.1,0.2c-0.6,1.8-1.2,3.7-2,5.4
		c-0.1,0.3-0.3,0.7-0.5,1c-0.2,0.5-0.5,1-0.7,1.5c-0.2,0.4-0.4,0.8-0.6,1.2c-0.2,0.4-0.4,0.9-0.7,1.3c-0.2,0.4-0.5,0.8-0.7,1.2
		c-0.2,0.4-0.5,0.8-0.7,1.2c-0.2,0.4-0.5,0.8-0.8,1.2c-0.3,0.4-0.6,0.8-0.9,1.2c-0.2,0.3-0.5,0.7-0.7,1c-0.4,0.5-0.8,1.1-1.3,1.6
		c-0.2,0.2-0.3,0.4-0.5,0.6c-0.6,0.8-1.3,1.5-1.9,2.2c0,0,0,0,0,0c-0.7,0.7-1.3,1.4-2,2.1c-0.1,0.1-0.1,0.1-0.2,0.2
		c-0.7,0.6-1.3,1.3-2,1.9c0,0-0.1,0.1-0.1,0.1C94.4,119.5,92.8,120.7,91.1,121.9z"/>
</g>
</svg>
