<?xml version="1.0" encoding="utf-8"?>
<!-- Generator: Adobe Illustrator 25.0.0, SVG Export Plug-In . SVG Version: 6.00 Build 0)  -->
<svg version="1.1" id="Ebene_1" xmlns="http://www.w3.org/2000/svg" xmlns:xlink="http://www.w3.org/1999/xlink" x="0px" y="0px"
	 viewBox="0 0 121.5 137" style="enable-background:new 0 0 121.5 137;" xml:space="preserve">
<style type="text/css">
	.st0{fill:#CA7C34;}
	.st1{opacity:0.764;fill:#FFFFFF;enable-background:new    ;}
	.st2{clip-path:url(#SVGID_2_);}
	.st3{fill:#1C1C1C;}
	.st4{clip-path:url(#SVGID_4_);}
	.st5{fill:#00998E;}
	.st6{fill:#1D1E1B;}
	.st7{fill:#FFFFFF;}
	.st8{fill:#009A8F;}
</style>
<g id="Gruppe_120_1_" transform="translate(-1228.146 -462.188)">
	<path class="st0" d="M1288.9,598.2c-32.9,0-59.6-26.7-59.6-59.6h3c0,31.2,25.4,56.6,56.6,56.6s56.6-25.4,56.6-56.6h3
		C1348.5,571.5,1321.8,598.2,1288.9,598.2z"/>
	<g id="Gruppe_118_1_" transform="translate(1252.812 478.966)">
		<path id="Pfad_134_1_" class="st0" d="M13.1,1c-1,0.1-2,0.5-2.7,1.3C6.2,7.9,1.1,18.4,1.1,36.1C1,48.3,3.8,60.3,9.2,71.3
			c2.5,4.9,5.5,9.4,9.1,13.5c0.8,0.7,1.8,1.2,2.9,1.3h30c1.1-0.1,2.1-0.5,2.9-1.3c3.6-4.1,6.7-8.7,9.1-13.5
			c5.5-10.9,8.2-23,8.1-35.2c0-17.7-5.1-28.2-9.3-33.9v0C61.4,1.5,60.4,1,59.4,1H13.1z M51.9,82.5H20.6L20.1,82
			C19.4,81.3,4.7,66.2,4.7,36.1c0-21.1,7.5-30.5,7.9-30.9l0.6-0.7h46.3L60,5.2c0.3,0.4,7.9,9.8,7.9,30.9c0,30.1-14.8,45.2-15.4,45.9
			L51.9,82.5z"/>
	</g>
	<g id="Gruppe_119_1_" transform="translate(1264.317 462.187)">
		<path id="Pfad_135_1_" class="st0" d="M47,12.1H2.5c-1.4,0-1.8-0.8-0.8-1.8l3.7-3.7c1.2-1.1,2.8-1.8,4.5-1.8h7.4V4.1
			c0-1.7,1.4-3.1,3.1-3.1c0,0,0,0,0,0H29c1.7,0,3.1,1.4,3.1,3.1c0,0,0,0,0,0v0.6h7.4c1.7,0.1,3.2,0.7,4.5,1.8l3.7,3.7
			C48.8,11.3,48.5,12.1,47,12.1z"/>
	</g>
</g>
</svg>
