<?xml version="1.0" encoding="utf-8"?>
<!-- Generator: Adobe Illustrator 25.0.0, SVG Export Plug-In . SVG Version: 6.00 Build 0)  -->
<svg version="1.1" id="Ebene_1" xmlns="http://www.w3.org/2000/svg" xmlns:xlink="http://www.w3.org/1999/xlink" x="0px" y="0px"
	 viewBox="0 0 274.1 103.4" style="enable-background:new 0 0 274.1 103.4;" xml:space="preserve">
<style type="text/css">
	.st0{fill:#FFFFFF;}
	.st1{opacity:0.764;fill:#FFFFFF;enable-background:new    ;}
	.st2{clip-path:url(#SVGID_2_);}
	.st3{fill:#1C1C1C;}
	.st4{clip-path:url(#SVGID_4_);}
	.st5{fill:#00998E;}
	.st6{fill:#1D1E1B;}
	.st7{fill:#FFFFFF;}
	.st8{fill:#009A8F;}
</style>
<g>
	<g id="Gruppe_1">
		<path id="Pfad_1" class="st0" d="M12.4,85.8c0,0.4-0.1,0.8-0.2,1.2c-0.1,0.3-0.3,0.7-0.6,0.9c-0.2,0.3-0.5,0.5-0.8,0.7
			c-0.3,0.2-0.7,0.3-1,0.5v0.1c0.5,0.1,0.9,0.2,1.3,0.4c0.4,0.2,0.7,0.5,1,0.8c0.3,0.3,0.5,0.7,0.7,1.1c0.2,0.5,0.2,1,0.2,1.5
			c0.1,1.2-0.4,2.3-1.3,3c-1.2,0.8-2.6,1.1-4.1,1H1.4v-0.9h0.3c0.2,0,0.5,0,0.7-0.1c0.2,0,0.4-0.1,0.5-0.2c0.2-0.1,0.3-0.3,0.4-0.5
			c0.1-0.3,0.1-0.5,0.1-0.8V84.3c0-0.3,0-0.5-0.1-0.7c-0.1-0.2-0.2-0.3-0.4-0.4C2.7,83,2.5,83,2.3,82.9c-0.2,0-0.4,0-0.7,0H1.4V82H7
			c1.4-0.1,2.8,0.2,4.1,0.9C12,83.6,12.5,84.6,12.4,85.8 M5.5,88.6H7c0.5,0,1,0,1.5-0.2c0.4-0.1,0.7-0.3,1-0.5
			c0.3-0.2,0.4-0.6,0.5-0.9c0.1-0.4,0.2-0.9,0.2-1.3c0-0.4,0-0.9-0.2-1.3c-0.1-0.3-0.3-0.6-0.6-0.8c-0.3-0.2-0.6-0.4-1-0.5
			c-0.5-0.1-1-0.1-1.5-0.1H5.5L5.5,88.6z M5.5,96h2c0.5,0,1,0,1.5-0.2c0.4-0.1,0.7-0.3,1-0.5c0.3-0.3,0.5-0.6,0.6-1
			c0.1-0.5,0.2-0.9,0.2-1.4c0-0.5,0-1-0.2-1.4c-0.2-0.8-0.8-1.4-1.5-1.6c-0.5-0.1-1-0.2-1.5-0.2H5.5L5.5,96z"/>
		<path id="Pfad_2" class="st0" d="M20.4,97.2c-0.7,0-1.4-0.1-2.1-0.4c-0.6-0.2-1.1-0.6-1.5-1.1c-0.4-0.5-0.8-1.2-1-1.8
			c-0.2-0.8-0.3-1.6-0.3-2.4c-0.1-1.6,0.3-3.1,1.2-4.4c0.9-1,2.1-1.6,3.5-1.5c0.6,0,1.2,0.1,1.8,0.3c0.5,0.2,1,0.5,1.4,0.9
			c0.4,0.5,0.7,1,0.9,1.6c0.2,0.7,0.3,1.4,0.3,2.2v1h-7c0,0.7,0.1,1.3,0.2,2c0.1,0.5,0.3,1,0.6,1.4c0.2,0.3,0.6,0.6,1,0.8
			c0.4,0.2,0.9,0.3,1.3,0.3c0.3,0,0.7,0,1-0.1c0.3-0.1,0.6-0.2,0.8-0.3c0.2-0.1,0.5-0.3,0.7-0.5c0.2-0.2,0.3-0.3,0.5-0.6
			c0.1,0.1,0.2,0.1,0.3,0.3c0.1,0.1,0.1,0.3,0.1,0.5c0,0.2-0.1,0.5-0.2,0.7c-0.2,0.3-0.4,0.5-0.7,0.7c-0.4,0.2-0.7,0.4-1.2,0.5
			C21.5,97.2,21,97.2,20.4,97.2 M20.1,86.7c-0.7,0-1.4,0.3-1.8,1c-0.5,0.8-0.7,1.8-0.7,2.8h4.8c0-0.5,0-1-0.1-1.5
			c-0.1-0.4-0.2-0.8-0.4-1.2c-0.2-0.3-0.4-0.6-0.7-0.8C20.9,86.7,20.5,86.7,20.1,86.7"/>
		<path id="Pfad_3" class="st0" d="M30,97.2c-0.5,0-1,0-1.4-0.1c-0.4-0.1-0.8-0.2-1.1-0.4c-0.3-0.2-0.5-0.4-0.7-0.7
			c-0.2-0.3-0.3-0.6-0.2-1c0-0.2,0-0.5,0.1-0.7c0.1-0.2,0.2-0.3,0.3-0.4c0.1-0.1,0.3-0.2,0.4-0.2c0.1,0,0.3-0.1,0.4-0.1
			c0,0.3,0,0.7,0.1,1c0.1,0.3,0.2,0.6,0.4,0.8c0.2,0.2,0.4,0.4,0.7,0.6c0.3,0.2,0.7,0.2,1.1,0.2c0.3,0,0.7,0,1-0.1
			c0.3-0.1,0.5-0.2,0.7-0.4c0.2-0.2,0.3-0.4,0.4-0.6c0.1-0.2,0.2-0.5,0.2-0.8c0-0.2,0-0.5-0.1-0.7c-0.1-0.2-0.2-0.4-0.4-0.5
			c-0.2-0.2-0.5-0.4-0.8-0.5c-0.3-0.2-0.8-0.4-1.3-0.6c-0.5-0.2-1-0.5-1.4-0.7c-0.4-0.2-0.7-0.4-1-0.7c-0.3-0.3-0.5-0.6-0.6-0.9
			c-0.1-0.4-0.2-0.8-0.2-1.2c0-0.4,0.1-0.9,0.3-1.3c0.2-0.4,0.5-0.7,0.8-0.9c0.4-0.3,0.8-0.5,1.3-0.6c0.5-0.1,1.1-0.2,1.6-0.2
			c0.4,0,0.9,0,1.3,0.2c0.3,0.1,0.7,0.2,1,0.4c0.2,0.2,0.4,0.4,0.6,0.6c0.1,0.2,0.2,0.5,0.2,0.7c0,0.4-0.1,0.7-0.4,0.9
			c-0.3,0.2-0.7,0.4-1.1,0.3c0-0.6-0.1-1.2-0.4-1.6c-0.3-0.4-0.8-0.6-1.4-0.6c-0.3,0-0.6,0-0.9,0.1c-0.2,0.1-0.4,0.2-0.6,0.3
			c-0.2,0.1-0.3,0.3-0.4,0.5c-0.1,0.2-0.1,0.4-0.1,0.7c0,0.2,0,0.5,0.1,0.7c0.1,0.2,0.3,0.4,0.5,0.5c0.3,0.2,0.5,0.4,0.8,0.5
			c0.3,0.2,0.7,0.3,1.2,0.5c0.5,0.2,1,0.4,1.4,0.7c0.4,0.2,0.7,0.4,1,0.7c0.3,0.3,0.4,0.6,0.6,0.9c0.1,0.4,0.2,0.8,0.2,1.2
			c0,0.5-0.1,1-0.3,1.4c-0.2,0.4-0.5,0.8-0.8,1c-0.4,0.3-0.8,0.5-1.3,0.6C31.2,97.2,30.6,97.2,30,97.2"/>
		<path id="Pfad_4" class="st0" d="M40.7,96.1c0.2,0,0.5,0,0.7,0c0.2,0,0.4-0.1,0.6-0.1v0.9c-0.1,0-0.2,0.1-0.3,0.1
			c-0.2,0-0.3,0.1-0.5,0.1c-0.2,0-0.3,0.1-0.5,0.1c-0.2,0-0.4,0-0.5,0c-0.5,0-0.9,0-1.4-0.2c-0.4-0.1-0.7-0.3-0.9-0.6
			c-0.3-0.3-0.5-0.6-0.5-1c-0.1-0.5-0.2-1-0.2-1.5v-7h-1.6v-0.8c0.3,0,0.6-0.1,0.8-0.2c0.3-0.1,0.6-0.3,0.8-0.5
			c0.2-0.3,0.4-0.6,0.6-0.9c0.2-0.4,0.3-0.9,0.4-1.4h1v2.6h2.7v1.2h-2.8V94c0,0.6,0.1,1.1,0.4,1.6C39.8,96,40.3,96.1,40.7,96.1"/>
		<path id="Pfad_5" class="st0" d="M48.2,86.6c-0.3,0-0.7,0-1,0.2c-0.2,0.1-0.4,0.3-0.6,0.5c-0.1,0.2-0.2,0.5-0.3,0.7
			c0,0.3-0.1,0.6-0.1,0.9c-0.5,0-0.9-0.1-1.3-0.3c-0.3-0.2-0.5-0.6-0.5-1c0-0.3,0.1-0.7,0.3-0.9c0.2-0.3,0.5-0.5,0.8-0.6
			c0.4-0.2,0.8-0.3,1.2-0.4c0.5-0.1,1-0.1,1.5-0.1c0.6,0,1.1,0.1,1.7,0.2c0.4,0.1,0.9,0.3,1.2,0.6c0.3,0.3,0.6,0.7,0.7,1.1
			c0.2,0.5,0.3,1.1,0.2,1.7v5.5c0,0.2,0,0.5,0.1,0.7c0,0.2,0.1,0.3,0.2,0.5c0.1,0.1,0.2,0.2,0.4,0.2c0.2,0.1,0.4,0.1,0.6,0.1h0.1V97
			h-2.8l-0.3-1.8h-0.2c-0.2,0.3-0.4,0.6-0.6,0.8c-0.2,0.2-0.4,0.5-0.7,0.6c-0.3,0.2-0.5,0.3-0.8,0.4c-0.4,0.1-0.7,0.2-1.1,0.2
			c-0.4,0-0.9-0.1-1.3-0.2c-0.4-0.1-0.7-0.3-1-0.6c-0.3-0.3-0.5-0.7-0.7-1c-0.2-0.5-0.3-1-0.2-1.5c-0.1-1,0.4-1.9,1.2-2.5
			c1.1-0.6,2.3-0.9,3.6-0.9l1.7-0.1v-1.3c0-0.3,0-0.7-0.1-1c0-0.3-0.1-0.6-0.3-0.8c-0.1-0.2-0.3-0.4-0.6-0.5
			C48.9,86.6,48.5,86.6,48.2,86.6 M45.6,94c0,0.5,0.1,1,0.4,1.5c0.3,0.3,0.8,0.5,1.3,0.5c0.4,0,0.8-0.1,1.2-0.2
			c0.3-0.1,0.6-0.3,0.9-0.6c0.3-0.3,0.4-0.6,0.6-0.9c0.1-0.4,0.2-0.8,0.2-1.2v-1.7l-1.3,0.1c-0.5,0-1,0.1-1.5,0.2
			c-0.4,0.1-0.7,0.3-1,0.5c-0.2,0.2-0.4,0.5-0.5,0.8C45.7,93.2,45.6,93.6,45.6,94"/>
		<path id="Pfad_6" class="st0" d="M60,96.1c0.2,0,0.5,0,0.7,0c0.2,0,0.4-0.1,0.6-0.1v0.9C61.2,97,61.1,97,61,97
			c-0.2,0-0.3,0.1-0.5,0.1c-0.2,0-0.3,0.1-0.5,0.1c-0.2,0-0.4,0-0.5,0c-0.5,0-0.9,0-1.4-0.2c-0.4-0.1-0.7-0.3-0.9-0.6
			c-0.3-0.3-0.5-0.6-0.5-1c-0.1-0.5-0.2-1-0.2-1.5v-7h-1.6v-0.8c0.3,0,0.6-0.1,0.8-0.2c0.3-0.1,0.6-0.3,0.8-0.5
			c0.2-0.3,0.4-0.6,0.6-0.9c0.2-0.4,0.3-0.9,0.4-1.4h1v2.6h2.8v1.2h-2.8V94c0,0.6,0.1,1.1,0.4,1.6C59.1,96,59.5,96.1,60,96.1"/>
		<path id="Pfad_7" class="st0" d="M67.4,96.1c0.2,0,0.5,0,0.7,0c0.2,0,0.4-0.1,0.6-0.1v0.9c-0.1,0-0.2,0.1-0.3,0.1
			c-0.2,0-0.3,0.1-0.5,0.1c-0.2,0-0.3,0.1-0.5,0.1c-0.2,0-0.4,0-0.5,0c-0.5,0-0.9,0-1.4-0.2c-0.4-0.1-0.7-0.3-0.9-0.6
			c-0.3-0.3-0.5-0.6-0.6-1c-0.1-0.5-0.2-1-0.2-1.5v-7h-1.6v-0.8c0.3,0,0.6-0.1,0.8-0.2c0.3-0.1,0.6-0.3,0.8-0.5
			c0.2-0.3,0.4-0.6,0.6-0.9c0.2-0.4,0.3-0.9,0.4-1.4h1v2.6h2.8v1.2h-2.8V94c0,0.6,0.1,1.1,0.4,1.6C66.5,96,66.9,96.1,67.4,96.1"/>
		<path id="Pfad_8" class="st0" d="M80.3,94.7c0,0.3,0,0.5,0.1,0.7c0.1,0.2,0.2,0.3,0.4,0.4c0.2,0.1,0.4,0.2,0.6,0.2
			c0.2,0,0.4,0,0.7,0h0.1V97h-3.3l-0.3-1.7h-0.1c-0.2,0.4-0.4,0.7-0.7,1c-0.2,0.2-0.5,0.4-0.8,0.6c-0.3,0.1-0.6,0.2-0.9,0.3
			c-0.3,0.1-0.7,0.1-1,0.1c-0.5,0-1-0.1-1.5-0.2c-0.4-0.1-0.8-0.4-1.1-0.7c-0.3-0.4-0.5-0.8-0.7-1.3c-0.2-0.6-0.2-1.2-0.2-1.9v-5
			c0-0.3,0-0.5-0.1-0.7c-0.1-0.2-0.2-0.3-0.4-0.4c-0.2-0.1-0.4-0.2-0.5-0.2c-0.2,0-0.4-0.1-0.7-0.1h-0.1v-0.9h3.8V93
			c0,0.4,0,0.8,0.1,1.2c0.1,0.3,0.2,0.6,0.4,0.9c0.2,0.2,0.4,0.4,0.7,0.6c0.3,0.1,0.7,0.2,1.1,0.2c0.4,0,0.8-0.1,1.2-0.2
			c0.3-0.2,0.6-0.4,0.8-0.7c0.2-0.3,0.4-0.7,0.5-1.1c0.1-0.5,0.1-0.9,0.1-1.4v-4.3c0-0.3,0-0.5-0.1-0.8c-0.1-0.2-0.2-0.3-0.4-0.5
			c-0.2-0.1-0.3-0.2-0.5-0.2c-0.2,0-0.4-0.1-0.7-0.1h-0.1v-0.9h3.8V94.7z"/>
		<path id="Pfad_9" class="st0" d="M88.8,96.1V97h-5.7v-0.9h0.2c0.2,0,0.5,0,0.7-0.1c0.2,0,0.4-0.1,0.5-0.2c0.2-0.1,0.3-0.3,0.4-0.5
			c0.1-0.3,0.1-0.5,0.1-0.8v-6.6c0-0.3,0-0.5-0.1-0.7c-0.1-0.2-0.2-0.3-0.4-0.4c-0.2-0.1-0.4-0.2-0.6-0.2c-0.2,0-0.4-0.1-0.7-0.1
			h-0.1v-0.9h3.4l0.3,1.7H87c0.2-0.4,0.4-0.7,0.7-1c0.2-0.2,0.5-0.4,0.8-0.6c0.3-0.1,0.6-0.2,0.9-0.3c0.3-0.1,0.6-0.1,1-0.1
			c0.5,0,1,0.1,1.5,0.2c0.4,0.2,0.8,0.4,1.1,0.7c0.3,0.4,0.6,0.8,0.7,1.3c0.2,0.6,0.3,1.2,0.2,1.9v5c0,0.3,0,0.5,0.1,0.8
			c0.1,0.2,0.2,0.3,0.3,0.5c0.2,0.1,0.3,0.2,0.5,0.2c0.2,0,0.4,0.1,0.6,0.1h0.1V97h-3.7v-7.3c0-0.4,0-0.8-0.1-1.2
			c-0.1-0.3-0.2-0.6-0.4-0.9c-0.2-0.2-0.4-0.4-0.7-0.6c-0.3-0.1-0.7-0.2-1.1-0.2c-0.4,0-0.8,0.1-1.2,0.3c-0.3,0.2-0.6,0.4-0.8,0.8
			c-0.2,0.3-0.4,0.7-0.4,1.1c-0.1,0.4-0.1,0.9-0.1,1.3v4.4c0,0.3,0,0.5,0.1,0.7c0.1,0.2,0.2,0.3,0.4,0.4c0.2,0.1,0.4,0.2,0.6,0.2
			C88.3,96.1,88.5,96.1,88.8,96.1L88.8,96.1z"/>
		<path id="Pfad_10" class="st0" d="M107.2,86.2c0,0.1,0,0.3-0.1,0.4c0,0.1-0.1,0.2-0.2,0.3c-0.1,0.1-0.2,0.2-0.3,0.2
			c-0.2,0.1-0.3,0.1-0.5,0.1c0-0.1,0-0.2,0-0.2c0-0.1-0.1-0.2-0.1-0.2c-0.1-0.1-0.1-0.1-0.2-0.2c-0.1,0-0.2-0.1-0.3-0.1
			c-0.2,0-0.3,0-0.5,0.1c-0.1,0-0.3,0.1-0.4,0.2c0.3,0.3,0.5,0.7,0.6,1c0.2,0.5,0.2,1,0.2,1.5c0,0.5-0.1,1-0.2,1.4
			c-0.1,0.4-0.4,0.8-0.7,1.1c-0.3,0.3-0.7,0.6-1.2,0.8c-0.5,0.2-1.1,0.3-1.7,0.3c-0.1,0-0.2,0-0.3,0l-0.3,0c-0.1,0-0.2,0-0.3,0
			s-0.2,0-0.2,0c-0.1,0.1-0.3,0.1-0.4,0.2c-0.1,0.1-0.2,0.2-0.3,0.3c-0.1,0.1-0.2,0.2-0.2,0.3c-0.1,0.1-0.1,0.3-0.1,0.4
			c0,0.1,0,0.3,0.1,0.4c0.1,0.1,0.2,0.2,0.3,0.2c0.1,0.1,0.3,0.1,0.4,0.1c0.2,0,0.3,0,0.5,0h2.4c0.5,0,1.1,0.1,1.6,0.2
			c0.4,0.1,0.8,0.4,1.1,0.7c0.3,0.3,0.5,0.6,0.6,1c0.1,0.4,0.2,0.8,0.2,1.3c0,0.6-0.1,1.1-0.3,1.6c-0.2,0.5-0.6,0.9-1,1.2
			c-0.5,0.4-1.1,0.6-1.7,0.8c-0.8,0.2-1.6,0.3-2.5,0.3c-1.2,0.1-2.3-0.2-3.3-0.8c-0.7-0.5-1.1-1.4-1.1-2.3c0-0.4,0.1-0.7,0.2-1.1
			c0.1-0.3,0.3-0.6,0.6-0.8c0.2-0.2,0.5-0.4,0.8-0.5c0.3-0.1,0.7-0.2,1-0.3c-0.2-0.1-0.3-0.1-0.4-0.2c-0.1-0.1-0.3-0.2-0.4-0.4
			c-0.1-0.2-0.2-0.3-0.3-0.5c-0.1-0.2-0.1-0.4-0.1-0.6c0-0.4,0.1-0.8,0.3-1.1c0.3-0.4,0.6-0.7,1-0.9c-0.3-0.1-0.6-0.3-0.8-0.5
			c-0.2-0.2-0.4-0.5-0.6-0.7c-0.2-0.3-0.3-0.6-0.4-0.9c-0.1-0.3-0.1-0.7-0.1-1c0-0.6,0.1-1.1,0.2-1.6c0.3-0.9,1-1.7,2-2
			c0.6-0.2,1.1-0.3,1.7-0.3c0.3,0,0.5,0,0.8,0.1c0.2,0,0.5,0.1,0.7,0.2c0.2,0.1,0.4,0.1,0.6,0.2c0.1,0.1,0.3,0.2,0.4,0.3
			c0.1-0.1,0.2-0.2,0.4-0.4c0.1-0.1,0.3-0.3,0.5-0.4c0.2-0.1,0.4-0.2,0.6-0.3c0.2-0.1,0.4-0.1,0.7-0.1c0.2,0,0.4,0,0.6,0.1
			c0.1,0.1,0.3,0.1,0.4,0.2c0.1,0.1,0.2,0.2,0.2,0.3C107.2,85.9,107.2,86,107.2,86.2 M98.3,98.9c0,0.3,0,0.6,0.1,0.9
			c0.1,0.3,0.2,0.5,0.4,0.7c0.2,0.2,0.5,0.4,0.8,0.5c0.4,0.1,0.9,0.2,1.3,0.2c0.6,0,1.3-0.1,1.9-0.2c0.4-0.1,0.8-0.3,1.2-0.5
			c0.3-0.2,0.5-0.5,0.6-0.8c0.1-0.3,0.2-0.7,0.2-1c0-0.3,0-0.5-0.1-0.8c-0.1-0.2-0.2-0.4-0.4-0.5c-0.2-0.1-0.4-0.2-0.7-0.3
			c-0.3-0.1-0.6-0.1-0.9-0.1h-2.1c-0.3,0-0.6,0-0.9,0.1c-0.3,0-0.5,0.1-0.7,0.3c-0.2,0.2-0.4,0.4-0.5,0.6
			C98.4,98.2,98.3,98.5,98.3,98.9 M99.6,89.4c-0.1,0.7,0.1,1.4,0.4,2c0.4,0.4,0.9,0.7,1.5,0.6c0.3,0,0.6,0,0.9-0.2
			c0.2-0.1,0.4-0.3,0.6-0.5c0.2-0.2,0.3-0.5,0.3-0.8c0.1-0.4,0.1-0.8,0.1-1.2c0.1-0.7-0.1-1.5-0.4-2.1c-0.7-0.8-1.9-0.9-2.7-0.2
			c-0.1,0.1-0.2,0.2-0.3,0.3C99.7,87.9,99.5,88.6,99.6,89.4"/>
		<path id="Pfad_11" class="st0" d="M113.5,97.2c-0.7,0-1.4-0.1-2.1-0.4c-0.6-0.2-1.1-0.6-1.5-1.1c-0.4-0.5-0.8-1.2-1-1.8
			c-0.2-0.8-0.3-1.6-0.3-2.4c-0.1-1.6,0.3-3.1,1.2-4.4c0.9-1,2.1-1.6,3.5-1.5c0.6,0,1.2,0.1,1.8,0.3c0.5,0.2,1,0.5,1.4,0.9
			c0.4,0.5,0.7,1,0.9,1.6c0.2,0.7,0.3,1.4,0.3,2.2v1h-7c0,0.7,0.1,1.3,0.2,2c0.1,0.5,0.3,1,0.6,1.4c0.2,0.3,0.6,0.6,1,0.8
			c0.4,0.2,0.9,0.3,1.3,0.3c0.3,0,0.7,0,1-0.1c0.3-0.1,0.6-0.2,0.8-0.3c0.2-0.1,0.5-0.3,0.7-0.5c0.2-0.2,0.3-0.3,0.5-0.6
			c0.1,0.1,0.2,0.1,0.3,0.3c0.1,0.1,0.1,0.3,0.1,0.5c0,0.2-0.1,0.5-0.2,0.7c-0.2,0.3-0.4,0.5-0.7,0.7c-0.4,0.2-0.7,0.4-1.2,0.5
			C114.6,97.2,114.1,97.2,113.5,97.2 M113.3,86.7c-0.7,0-1.4,0.3-1.8,1c-0.5,0.8-0.7,1.8-0.7,2.8h4.8c0-0.5,0-1-0.1-1.5
			c-0.1-0.4-0.2-0.8-0.4-1.2c-0.2-0.3-0.4-0.6-0.7-0.8C114,86.7,113.6,86.7,113.3,86.7"/>
		<path id="Pfad_12" class="st0" d="M125,96.1V97h-5.7v-0.9h0.2c0.2,0,0.5,0,0.7-0.1c0.2,0,0.4-0.1,0.5-0.2c0.2-0.1,0.3-0.3,0.4-0.5
			c0.1-0.3,0.1-0.5,0.1-0.8v-6.6c0-0.3,0-0.5-0.1-0.7c-0.1-0.2-0.2-0.3-0.4-0.4c-0.2-0.1-0.4-0.2-0.6-0.2c-0.2,0-0.4-0.1-0.7-0.1
			h-0.1v-0.9h3.4l0.3,1.7h0.1c0.2-0.3,0.4-0.7,0.7-1c0.2-0.2,0.5-0.4,0.8-0.6c0.3-0.1,0.6-0.2,0.9-0.3c0.3-0.1,0.6-0.1,1-0.1
			c0.5,0,1,0.1,1.5,0.2c0.4,0.2,0.8,0.4,1.1,0.7c0.3,0.4,0.6,0.8,0.7,1.3c0.2,0.6,0.3,1.2,0.2,1.9v5c0,0.3,0,0.5,0.1,0.8
			c0.1,0.2,0.2,0.3,0.3,0.5c0.2,0.1,0.3,0.2,0.5,0.2c0.2,0,0.4,0.1,0.6,0.1h0.1V97h-3.7v-7.3c0-0.4,0-0.8-0.1-1.2
			c-0.1-0.3-0.2-0.6-0.4-0.9c-0.2-0.2-0.4-0.4-0.7-0.6c-0.3-0.1-0.7-0.2-1.1-0.2c-0.4,0-0.8,0.1-1.2,0.3c-0.3,0.2-0.6,0.4-0.8,0.8
			c-0.2,0.3-0.4,0.7-0.4,1.1c-0.1,0.4-0.1,0.9-0.1,1.3v4.4c0,0.3,0,0.5,0.1,0.7c0.1,0.2,0.2,0.3,0.4,0.4c0.2,0.1,0.4,0.2,0.6,0.2
			C124.5,96.1,124.7,96.1,125,96.1L125,96.1z"/>
		<path id="Pfad_13" class="st0" d="M149.8,97l-1.7-1.9c-0.3,0.3-0.5,0.6-0.8,0.8c-0.3,0.3-0.7,0.5-1,0.7c-0.4,0.2-0.8,0.3-1.2,0.4
			c-0.5,0.1-1,0.2-1.5,0.2c-0.7,0-1.5-0.1-2.2-0.3c-0.6-0.2-1.1-0.5-1.6-0.9c-0.4-0.4-0.7-0.9-0.9-1.4c-0.2-0.6-0.3-1.2-0.3-1.8
			c0-0.5,0.1-1.1,0.2-1.6c0.2-0.4,0.4-0.8,0.7-1.2c0.3-0.3,0.7-0.6,1.1-0.9c0.4-0.3,0.9-0.5,1.4-0.7c-0.3-0.3-0.5-0.6-0.7-0.9
			c-0.2-0.3-0.4-0.6-0.5-0.9c-0.1-0.3-0.2-0.6-0.3-0.9c-0.1-0.3-0.1-0.6-0.1-1c0-0.4,0.1-0.9,0.2-1.3c0.2-0.4,0.4-0.7,0.7-1
			c0.4-0.3,0.8-0.5,1.2-0.6c0.6-0.2,1.2-0.2,1.8-0.2c0.6,0,1.2,0.1,1.7,0.2c0.4,0.1,0.8,0.4,1.2,0.6c0.3,0.3,0.5,0.6,0.6,1
			c0.1,0.4,0.2,0.8,0.2,1.2c0,0.4-0.1,0.8-0.2,1.2c-0.1,0.4-0.4,0.7-0.6,1c-0.3,0.3-0.7,0.6-1.1,0.8c-0.5,0.3-1.1,0.6-1.6,0.8
			l3.8,4.1c0.1-0.3,0.2-0.6,0.2-1c0.1-0.3,0.1-0.6,0.1-1c0-0.3,0.1-0.6,0.1-0.9c0-0.3,0-0.6,0-0.8v-0.8h3.8V89h-0.2
			c-0.2,0-0.5,0-0.7,0c-0.2,0-0.4,0.1-0.6,0.2c-0.2,0.1-0.4,0.3-0.5,0.4c-0.2,0.2-0.3,0.5-0.4,0.8c-0.1,0.5-0.3,0.9-0.4,1.5
			c-0.2,0.5-0.4,1.1-0.6,1.6l2,2.1c0.1,0.1,0.2,0.2,0.3,0.3c0.1,0.1,0.2,0.1,0.4,0.2c0.2,0,0.3,0.1,0.5,0.1c0.2,0,0.4,0,0.7,0h0.2
			V97L149.8,97z M143.7,96.1c0.4,0,0.8,0,1.1-0.1c0.3-0.1,0.7-0.2,1-0.4c0.3-0.1,0.6-0.3,0.8-0.5c0.2-0.2,0.5-0.4,0.7-0.7l-4.7-5
			c-0.3,0.2-0.6,0.4-0.9,0.6c-0.3,0.2-0.5,0.5-0.7,0.7c-0.2,0.3-0.3,0.6-0.4,1c-0.1,0.4-0.1,0.8-0.1,1.2c0,0.5,0.1,0.9,0.2,1.4
			c0.1,0.4,0.4,0.7,0.6,1c0.3,0.3,0.6,0.5,1,0.6C142.9,96,143.3,96.1,143.7,96.1 M146.1,84.8c0-0.3,0-0.5-0.1-0.8
			c-0.1-0.5-0.5-0.9-0.9-1c-0.3-0.1-0.6-0.2-0.9-0.2c-0.5,0-1.1,0.2-1.4,0.5c-0.3,0.4-0.5,0.9-0.5,1.4c0,0.3,0,0.5,0.1,0.8
			c0.1,0.2,0.1,0.5,0.3,0.7c0.1,0.3,0.3,0.5,0.5,0.7c0.2,0.2,0.4,0.5,0.7,0.8c0.4-0.2,0.7-0.3,1.1-0.6c0.3-0.2,0.5-0.4,0.8-0.7
			c0.2-0.2,0.3-0.5,0.4-0.8C146.1,85.5,146.1,85.1,146.1,84.8"/>
		<path id="Pfad_14" class="st0" d="M166.4,94.6c0,0.3,0,0.5,0.1,0.8c0.1,0.2,0.2,0.3,0.4,0.5c0.2,0.1,0.4,0.2,0.5,0.2
			c0.2,0,0.4,0.1,0.7,0.1h0.5V97H162v-0.9h0.5c0.2,0,0.4,0,0.7,0c0.2,0,0.4-0.1,0.6-0.2c0.2-0.1,0.3-0.3,0.4-0.4
			c0.1-0.2,0.1-0.5,0.1-0.7V83.1h-2c-0.3,0-0.5,0-0.8,0.1c-0.2,0.1-0.4,0.2-0.5,0.4c-0.1,0.2-0.2,0.3-0.3,0.6
			c-0.1,0.2-0.1,0.4-0.1,0.7l-0.1,0.9h-1.1l0.1-3.7h11.9l0.1,3.7h-1.1l-0.1-0.9c0-0.2-0.1-0.4-0.1-0.7c-0.1-0.2-0.2-0.4-0.3-0.6
			c-0.1-0.2-0.3-0.3-0.5-0.4c-0.3-0.1-0.5-0.1-0.8-0.1h-2L166.4,94.6z"/>
		<path id="Pfad_15" class="st0" d="M178.5,97h-6.1v-0.9h0.1c0.2,0,0.5,0,0.7-0.1c0.2,0,0.4-0.1,0.5-0.2c0.2-0.1,0.3-0.3,0.4-0.5
			c0.1-0.3,0.1-0.5,0.1-0.8v-6.6c0-0.3,0-0.5-0.1-0.7c-0.1-0.2-0.2-0.3-0.4-0.4c-0.2-0.1-0.4-0.2-0.6-0.2c-0.2,0-0.4-0.1-0.7-0.1
			h-0.1v-0.9h3.2l0.4,2.1h0.1c0.1-0.3,0.3-0.6,0.4-0.9c0.1-0.3,0.3-0.5,0.5-0.7c0.2-0.2,0.5-0.4,0.8-0.5c0.4-0.1,0.8-0.2,1.2-0.2
			c0.6,0,1.2,0.1,1.7,0.4c0.4,0.3,0.6,0.7,0.6,1.1c0,0.2,0,0.4-0.1,0.6c-0.1,0.2-0.2,0.3-0.3,0.5c-0.2,0.1-0.4,0.2-0.6,0.3
			c-0.3,0.1-0.6,0.1-0.9,0.1c0-0.4-0.1-0.9-0.2-1.3c-0.2-0.3-0.5-0.4-0.9-0.4c-0.3,0-0.5,0.1-0.7,0.2c-0.2,0.2-0.4,0.4-0.5,0.6
			c-0.2,0.3-0.3,0.5-0.4,0.8c-0.1,0.3-0.2,0.6-0.3,1c-0.1,0.3-0.1,0.7-0.1,1c0,0.3,0,0.6,0,0.9v3.3c0,0.3,0,0.5,0.1,0.7
			c0.1,0.2,0.2,0.3,0.4,0.4c0.2,0.1,0.4,0.2,0.6,0.2c0.2,0,0.4,0,0.7,0h0.6L178.5,97z"/>
		<path id="Pfad_16" class="st0" d="M187.3,86.6c-0.3,0-0.7,0-1,0.2c-0.2,0.1-0.4,0.3-0.6,0.5c-0.1,0.2-0.2,0.5-0.3,0.7
			c0,0.3-0.1,0.6-0.1,0.9c-0.5,0-0.9-0.1-1.3-0.3c-0.3-0.2-0.5-0.6-0.5-1c0-0.3,0.1-0.7,0.3-0.9c0.2-0.3,0.5-0.5,0.8-0.6
			c0.4-0.2,0.8-0.3,1.2-0.4c0.5-0.1,1-0.1,1.5-0.1c0.6,0,1.1,0.1,1.7,0.2c0.4,0.1,0.9,0.3,1.2,0.6c0.3,0.3,0.6,0.7,0.7,1.1
			c0.2,0.5,0.3,1.1,0.2,1.7v5.5c0,0.2,0,0.5,0.1,0.7c0,0.2,0.1,0.3,0.2,0.5c0.1,0.1,0.2,0.2,0.4,0.2c0.2,0.1,0.4,0.1,0.6,0.1h0.1V97
			h-2.8l-0.3-1.8h-0.2c-0.2,0.3-0.4,0.6-0.6,0.8c-0.2,0.2-0.4,0.5-0.7,0.6c-0.3,0.2-0.5,0.3-0.8,0.4c-0.4,0.1-0.7,0.2-1.1,0.2
			c-0.4,0-0.9-0.1-1.3-0.2c-0.4-0.1-0.7-0.3-1-0.6c-0.3-0.3-0.5-0.7-0.7-1c-0.2-0.5-0.3-1-0.2-1.5c-0.1-1,0.4-1.9,1.2-2.5
			c1.1-0.6,2.3-0.9,3.6-0.9l1.7-0.1v-1.3c0-0.3,0-0.7-0.1-1c0-0.3-0.1-0.6-0.3-0.8c-0.1-0.2-0.3-0.4-0.6-0.5
			C188,86.6,187.7,86.6,187.3,86.6 M184.8,94c0,0.5,0.1,1,0.4,1.5c0.3,0.3,0.8,0.5,1.3,0.5c0.4,0,0.8-0.1,1.2-0.2
			c0.3-0.1,0.6-0.3,0.9-0.6c0.3-0.3,0.4-0.6,0.6-0.9c0.1-0.4,0.2-0.8,0.2-1.2v-1.7l-1.3,0.1c-0.5,0-1,0.1-1.5,0.2
			c-0.4,0.1-0.7,0.3-1,0.5c-0.2,0.2-0.4,0.5-0.5,0.8C184.8,93.2,184.8,93.6,184.8,94"/>
		<path id="Pfad_17" class="st0" d="M204.6,94.7c0,0.3,0,0.5,0.1,0.7c0.1,0.2,0.2,0.3,0.4,0.4c0.2,0.1,0.4,0.2,0.6,0.2
			c0.2,0,0.4,0,0.7,0h0.1V97h-3.3l-0.3-1.7h-0.1c-0.2,0.4-0.4,0.7-0.7,1c-0.2,0.2-0.5,0.4-0.8,0.6c-0.3,0.1-0.6,0.2-0.9,0.3
			c-0.3,0.1-0.7,0.1-1,0.1c-0.5,0-1-0.1-1.5-0.2c-0.4-0.1-0.8-0.4-1.1-0.7c-0.3-0.4-0.5-0.8-0.7-1.3c-0.2-0.6-0.2-1.2-0.2-1.9v-5
			c0-0.3,0-0.5-0.1-0.7c-0.1-0.2-0.2-0.3-0.4-0.4c-0.2-0.1-0.4-0.2-0.5-0.2c-0.2,0-0.4-0.1-0.7-0.1H194v-0.9h3.8V93
			c0,0.4,0,0.8,0.1,1.2c0.1,0.3,0.2,0.6,0.4,0.9c0.2,0.2,0.4,0.4,0.7,0.6c0.3,0.1,0.7,0.2,1.1,0.2c0.4,0,0.8-0.1,1.2-0.2
			c0.3-0.2,0.6-0.4,0.8-0.7c0.2-0.3,0.4-0.7,0.5-1.1c0.1-0.5,0.2-0.9,0.2-1.4v-4.3c0-0.3,0-0.5-0.1-0.8c-0.1-0.2-0.2-0.3-0.4-0.5
			c-0.2-0.1-0.4-0.2-0.5-0.2c-0.2,0-0.4-0.1-0.7-0.1h-0.1v-0.9h3.8L204.6,94.7z"/>
		<path id="Pfad_18" class="st0" d="M212.9,97.2c-0.7,0-1.4-0.1-2.1-0.4c-0.6-0.2-1.1-0.6-1.5-1.1c-0.4-0.5-0.8-1.2-1-1.8
			c-0.2-0.8-0.3-1.6-0.3-2.4c-0.1-1.6,0.3-3.1,1.2-4.4c0.9-1,2.1-1.6,3.5-1.5c0.6,0,1.2,0.1,1.8,0.3c0.5,0.2,1,0.5,1.4,0.9
			c0.4,0.5,0.7,1,0.9,1.6c0.2,0.7,0.3,1.4,0.3,2.2v1h-7c0,0.7,0.1,1.3,0.2,2c0.1,0.5,0.3,1,0.6,1.4c0.2,0.3,0.6,0.6,1,0.8
			c0.4,0.2,0.9,0.3,1.3,0.3c0.3,0,0.7,0,1-0.1c0.3-0.1,0.6-0.2,0.8-0.3c0.2-0.1,0.5-0.3,0.7-0.5c0.2-0.2,0.3-0.3,0.5-0.6
			c0.1,0.1,0.2,0.1,0.3,0.3c0.1,0.1,0.1,0.3,0.1,0.5c0,0.2-0.1,0.5-0.2,0.7c-0.2,0.3-0.4,0.5-0.7,0.7c-0.4,0.2-0.7,0.4-1.2,0.5
			C214,97.2,213.5,97.2,212.9,97.2 M212.7,86.7c-0.7,0-1.4,0.3-1.8,1c-0.5,0.8-0.7,1.8-0.7,2.8h4.8c0-0.5,0-1-0.1-1.5
			c-0.1-0.4-0.2-0.8-0.4-1.2c-0.2-0.3-0.4-0.6-0.7-0.8C213.4,86.7,213.1,86.7,212.7,86.7"/>
		<path id="Pfad_19" class="st0" d="M224.9,97h-6.1v-0.9h0.1c0.2,0,0.5,0,0.7-0.1c0.2,0,0.4-0.1,0.5-0.2c0.2-0.1,0.3-0.3,0.4-0.5
			c0.1-0.3,0.1-0.5,0.1-0.8v-6.6c0-0.3,0-0.5-0.1-0.7c-0.1-0.2-0.2-0.3-0.4-0.4c-0.2-0.1-0.4-0.2-0.6-0.2c-0.2,0-0.4-0.1-0.7-0.1
			h-0.1v-0.9h3.2l0.4,2.1h0.1c0.1-0.3,0.3-0.6,0.4-0.9c0.1-0.3,0.3-0.5,0.5-0.7c0.2-0.2,0.5-0.4,0.8-0.5c0.4-0.1,0.8-0.2,1.2-0.2
			c0.6,0,1.2,0.1,1.7,0.4c0.4,0.3,0.6,0.7,0.6,1.1c0,0.2,0,0.4-0.1,0.6c-0.1,0.2-0.2,0.3-0.3,0.5c-0.2,0.1-0.4,0.2-0.6,0.3
			c-0.3,0.1-0.6,0.1-0.9,0.1c0-0.4-0.1-0.9-0.2-1.3c-0.2-0.3-0.5-0.4-0.9-0.4c-0.3,0-0.5,0.1-0.7,0.2c-0.2,0.2-0.4,0.4-0.5,0.6
			c-0.2,0.3-0.3,0.5-0.4,0.8c-0.1,0.3-0.2,0.6-0.3,1c-0.1,0.3-0.1,0.7-0.1,1c0,0.3,0,0.6,0,0.9v3.3c0,0.3,0,0.5,0.1,0.7
			c0.1,0.2,0.2,0.3,0.4,0.4c0.2,0.1,0.4,0.2,0.5,0.2c0.2,0,0.4,0,0.7,0h0.6L224.9,97z"/>
		<path id="Pfad_20" class="st0" d="M234.1,96.1V97h-5.7v-0.9h0.2c0.2,0,0.5,0,0.7-0.1c0.2,0,0.4-0.1,0.5-0.2
			c0.2-0.1,0.3-0.3,0.4-0.5c0.1-0.3,0.2-0.5,0.1-0.8V83.3c0-0.3,0-0.5-0.1-0.7c-0.1-0.2-0.2-0.3-0.4-0.4c-0.2-0.1-0.4-0.2-0.5-0.2
			c-0.2,0-0.4,0-0.7,0h-0.2V81h3.9v4.6c0,0.2,0,0.4,0,0.6s0,0.4,0,0.6c0,0.2,0,0.4,0,0.6h0.1c0.5-1.2,1.8-2,3.1-1.9
			c0.5,0,1.1,0.1,1.6,0.2c0.4,0.1,0.8,0.4,1.2,0.7c0.3,0.4,0.6,0.8,0.7,1.3c0.2,0.6,0.3,1.2,0.2,1.9v5c0,0.3,0,0.5,0.1,0.8
			c0.1,0.2,0.2,0.3,0.3,0.5c0.2,0.1,0.3,0.2,0.5,0.2c0.2,0,0.4,0.1,0.6,0.1h0.1V97h-3.7v-7.3c0-0.4,0-0.8-0.1-1.2
			c-0.1-0.3-0.2-0.6-0.4-0.9c-0.2-0.2-0.4-0.4-0.7-0.6c-0.3-0.1-0.7-0.2-1.1-0.2c-0.4,0-0.8,0.1-1.1,0.2c-0.3,0.2-0.6,0.4-0.8,0.7
			c-0.2,0.3-0.4,0.7-0.5,1.1c-0.1,0.5-0.2,0.9-0.2,1.4v4.4c0,0.3,0,0.5,0.1,0.7c0.1,0.2,0.2,0.3,0.4,0.4c0.2,0.1,0.4,0.2,0.5,0.2
			C233.6,96.1,233.8,96.1,234.1,96.1L234.1,96.1z"/>
		<path id="Pfad_21" class="st0" d="M242.2,96.1c0.2,0,0.4,0,0.7,0c0.2,0,0.4-0.1,0.6-0.2c0.2-0.1,0.3-0.3,0.4-0.4
			c0.1-0.2,0.1-0.5,0.1-0.7v-6.7c0-0.3,0-0.5-0.1-0.7c-0.1-0.2-0.2-0.3-0.4-0.4c-0.2-0.1-0.4-0.2-0.6-0.2c-0.2,0-0.4-0.1-0.7-0.1
			h-0.1v-0.9h3.8v8.9c0,0.3,0,0.5,0.1,0.8c0.1,0.2,0.2,0.3,0.4,0.5c0.2,0.1,0.4,0.2,0.6,0.2c0.2,0,0.4,0.1,0.7,0.1h0.3V97h-6v-0.9
			L242.2,96.1z M243.6,82.3c0-0.2,0-0.4,0.1-0.6c0.1-0.2,0.1-0.3,0.3-0.4c0.1-0.1,0.2-0.2,0.4-0.2c0.2,0,0.3-0.1,0.5-0.1
			c0.2,0,0.3,0,0.5,0.1c0.1,0,0.3,0.1,0.4,0.2c0.1,0.1,0.2,0.3,0.3,0.4c0.1,0.4,0.1,0.8,0,1.2c-0.1,0.2-0.1,0.3-0.3,0.4
			c-0.1,0.1-0.2,0.2-0.4,0.2c-0.1,0-0.3,0.1-0.5,0.1c-0.2,0-0.3,0-0.5-0.1c-0.1,0-0.3-0.1-0.4-0.2c-0.1-0.1-0.2-0.2-0.3-0.4
			C243.7,82.7,243.6,82.5,243.6,82.3"/>
		<path id="Pfad_22" class="st0" d="M248.7,96.1c0.2,0,0.4,0,0.7-0.1c0.2,0,0.4-0.1,0.5-0.2c0.2-0.1,0.3-0.3,0.4-0.5
			c0.1-0.3,0.2-0.5,0.1-0.8V83.3c0-0.3,0-0.5-0.1-0.7c-0.1-0.2-0.2-0.3-0.4-0.4c-0.2-0.1-0.4-0.2-0.5-0.2c-0.2,0-0.4,0-0.7,0h-0.3
			V81h4v13.6c0,0.3,0,0.5,0.1,0.8c0.1,0.2,0.2,0.3,0.4,0.5c0.2,0.1,0.4,0.2,0.5,0.2c0.2,0,0.4,0.1,0.7,0.1h0.3V97h-6v-0.9
			L248.7,96.1z"/>
		<path id="Pfad_23" class="st0" d="M261.8,96.1V97h-6.5v-0.9h0.3c0.2,0,0.5,0,0.7-0.1c0.2,0,0.4-0.1,0.5-0.2
			c0.2-0.1,0.3-0.3,0.4-0.5c0.1-0.3,0.2-0.5,0.1-0.8v-7.9h-1.9v-1h1.9v-1c0-0.6,0.1-1.1,0.3-1.7c0.2-0.5,0.4-0.9,0.7-1.2
			c0.3-0.3,0.7-0.6,1.2-0.7c0.5-0.2,1-0.3,1.6-0.3c0.5,0,0.9,0,1.4,0.1c0.3,0.1,0.6,0.2,0.9,0.3c0.2,0.1,0.4,0.3,0.5,0.5
			c0.1,0.2,0.2,0.4,0.2,0.6c0,0.2,0,0.4-0.1,0.5c-0.1,0.2-0.2,0.3-0.4,0.4c-0.2,0.1-0.4,0.2-0.5,0.2c-0.2,0.1-0.5,0.1-0.7,0.1
			c0-0.2,0-0.4-0.1-0.6c0-0.2-0.1-0.4-0.2-0.5c-0.1-0.2-0.3-0.3-0.4-0.4c-0.2-0.1-0.4-0.2-0.7-0.1c-0.3,0-0.5,0.1-0.8,0.2
			c-0.2,0.1-0.4,0.3-0.5,0.5c-0.1,0.3-0.2,0.6-0.3,0.8c-0.1,0.4-0.1,0.8-0.1,1.2v1.2h3v1h-3v7.9c0,0.3,0,0.5,0.1,0.8
			c0.1,0.2,0.2,0.3,0.4,0.5c0.2,0.1,0.4,0.2,0.6,0.2c0.2,0,0.4,0.1,0.7,0.1L261.8,96.1z"/>
		<path id="Pfad_24" class="st0" d="M268.5,97.2c-0.7,0-1.4-0.1-2-0.4c-0.6-0.2-1.1-0.6-1.5-1.1c-0.4-0.5-0.8-1.2-1-1.8
			c-0.2-0.8-0.3-1.6-0.3-2.4c-0.1-1.6,0.3-3.1,1.2-4.4c0.9-1,2.1-1.6,3.5-1.5c0.6,0,1.2,0.1,1.8,0.3c0.5,0.2,1,0.5,1.4,0.9
			c0.4,0.5,0.7,1,0.9,1.6c0.2,0.7,0.3,1.4,0.3,2.2v1h-7c0,0.7,0.1,1.3,0.2,2c0.1,0.5,0.3,1,0.6,1.4c0.2,0.3,0.6,0.6,1,0.8
			c0.4,0.2,0.9,0.3,1.3,0.3c0.3,0,0.7,0,1-0.1c0.3-0.1,0.6-0.2,0.8-0.3c0.2-0.1,0.5-0.3,0.7-0.5c0.2-0.2,0.3-0.3,0.5-0.6
			c0.1,0.1,0.2,0.1,0.3,0.3c0.1,0.1,0.1,0.3,0.1,0.5c0,0.2-0.1,0.5-0.2,0.7c-0.2,0.3-0.4,0.5-0.7,0.7c-0.4,0.2-0.7,0.4-1.2,0.5
			C269.6,97.2,269.1,97.2,268.5,97.2 M268.3,86.7c-0.7,0-1.4,0.3-1.8,1c-0.5,0.8-0.7,1.8-0.7,2.8h4.8c0-0.5,0-1-0.1-1.5
			c-0.1-0.4-0.2-0.8-0.4-1.2c-0.2-0.3-0.4-0.6-0.7-0.8C269,86.7,268.7,86.7,268.3,86.7"/>
		<path id="Pfad_25" class="st0" d="M156.6,49.7c0-1.1-0.2-2.2-0.6-3.2c-0.4-1.1-1.1-2.1-1.9-3c-0.9-1.1-2.2-1.8-3.5-2.2
			c-1.8-0.5-3.7-0.8-5.5-0.7c-0.4,0-0.7,0-1.1,0.1c-0.4,0-0.8,0.1-1.2,0.2c-0.2,0-0.4,0.1-0.7,0.1s-0.5,0.1-0.7,0.1
			c-0.2,0.1-0.5,0.2-0.7,0.3s-0.5,0.2-0.7,0.3c-0.8,0.4-1.6,0.9-2.2,1.5c-0.8,0.7-1.5,1.4-2.1,2.2c-0.7,0.9-1.2,1.8-1.5,2.9
			c-0.4,1.3-0.7,2.5-0.7,3.9c0,1.8,0.3,3.5,0.8,5.1c0.5,1.4,1.4,2.7,2.5,3.7c1.1,0.9,2.3,1.6,3.5,2.2c1.2,0.5,2.6,0.9,3.9,1h0.4
			c0,0.1,0.1,0.1,0.2,0.1h0.9c0.5,0,1.1,0,1.6-0.1c0.5-0.1,1-0.2,1.4-0.4c0.5-0.2,0.9-0.4,1.3-0.6c0.5-0.3,0.9-0.6,1.3-0.9
			c0.3-0.2,0.5-0.3,0.7-0.6c0.2-0.2,0.5-0.4,0.7-0.6c0.2-0.2,0.5-0.5,0.7-0.7s0.5-0.5,0.8-0.8v8c0,0.1-0.1,0.2-0.1,0.2v0.1
			c-0.6,0.4-1.2,0.8-1.8,1.1c-0.6,0.3-1.3,0.6-2,0.8c-0.8,0.2-1.7,0.4-2.5,0.5c-1.1,0.1-2.3,0.2-3.4,0.2h-1c-2.1,0-4.3-0.4-6.2-1.2
			c-2-0.9-3.8-2.1-5.3-3.7c-1.6-1.7-2.8-3.7-3.6-5.9c-0.8-2.4-1.3-5-1.2-7.5c0-2.3,0.4-4.6,1.2-6.8c0.8-2.1,2-4.1,3.5-5.8
			c1.6-1.8,3.6-3.1,5.8-4c2.6-0.9,5.3-1.4,8-1.3c2.6,0,5.2,0.4,7.7,1.2c2.1,0.7,4.1,1.9,5.6,3.5c1.5,1.4,2.6,3.1,3.5,5
			c0.8,1.7,1.1,3.5,1.1,5.4V70h-7V49.7z M136.8,23.7c0.2-0.5,0.6-1,1-1.3c0.4-0.4,0.9-0.7,1.4-0.8c0.5-0.2,1-0.3,1.5-0.3
			c0.5,0,1.1,0.1,1.6,0.2c0.5,0.2,1,0.4,1.4,0.8c0.5,0.4,0.8,0.8,1,1.4c0.5,1.2,0.5,2.6,0,3.8c-0.2,0.5-0.5,1-0.9,1.4
			c-0.4,0.3-0.8,0.6-1.3,0.8c-0.5,0.2-1,0.3-1.5,0.3h-0.2c-0.5,0-1-0.1-1.5-0.3c-0.5-0.2-1-0.5-1.4-0.8c-0.4-0.4-0.8-0.8-1-1.4
			c-0.3-0.6-0.4-1.2-0.5-1.8v-0.1C136.4,24.9,136.5,24.3,136.8,23.7 M148.9,23.7c0.2-0.5,0.6-1,1-1.3c0.4-0.4,0.9-0.7,1.4-0.8
			c0.5-0.2,1-0.3,1.5-0.3c0.5,0,1.1,0.1,1.6,0.2c0.5,0.2,1,0.4,1.4,0.8c0.5,0.4,0.8,0.8,1,1.4c0.3,0.6,0.4,1.3,0.4,1.9
			c0,0.6-0.1,1.3-0.3,1.9c-0.2,0.5-0.6,1-1,1.4c-0.4,0.3-0.9,0.6-1.4,0.8c-0.5,0.2-1,0.3-1.5,0.3c-0.5,0.1-1.1,0-1.6-0.2
			c-0.5-0.2-1-0.5-1.4-0.8c-0.5-0.4-0.8-0.8-1.1-1.4c-0.2-0.6-0.3-1.2-0.3-1.9v-0.1C148.6,24.9,148.7,24.3,148.9,23.7"/>
		<path id="Pfad_26" class="st0" d="M176.4,34.7v3.5c0.1-0.1,0.2-0.1,0.3-0.2c0.1-0.1,0.2-0.3,0.3-0.4c0.1-0.2,0.2-0.3,0.4-0.4
			l0.4-0.4c0.4-0.4,0.8-0.8,1.3-1.1c0.5-0.4,1.1-0.7,1.7-1c0.6-0.3,1.3-0.5,2-0.7c0.8-0.2,1.6-0.3,2.4-0.3l2.4-0.2V40h-1.8
			c-1.2,0.2-2.4,0.6-3.5,1.1c-0.9,0.5-1.8,1.1-2.5,1.8c-0.6,0.7-1.2,1.5-1.6,2.3c-0.4,0.8-0.7,1.6-1,2.5c-0.2,0.6-0.3,1.2-0.4,1.8
			c-0.1,0.6-0.1,1.1-0.1,1.7c-0.1,0.6-0.1,1.1-0.1,1.5V70H170V34.7L176.4,34.7z"/>
		<path id="Pfad_27" class="st0" d="M190.6,26.1h6.9v8.7h13.4v6.3h-13.4V59c0,0.6,0,1.2,0.1,1.8c0.1,0.5,0.2,1,0.4,1.5
			c0.2,0.5,0.7,0.9,1.3,1.1c0.9,0.3,1.8,0.4,2.8,0.3l8.2-0.1V70h-9.1c0,0-0.1,0-0.1,0.1h-0.5c-1.5,0-3-0.2-4.3-0.7
			c-1.2-0.5-2.2-1.3-3-2.3c-0.8-1-1.4-2.1-1.8-3.3c-0.4-1.2-0.7-2.4-0.8-3.7c-0.1-0.1-0.1-0.2-0.1-0.3L190.6,26.1L190.6,26.1z"/>
		<path id="Pfad_28" class="st0" d="M215.2,25.1c0.2-0.5,0.5-0.9,1-1.2c0.4-0.3,0.8-0.5,1.3-0.7c0.5-0.2,0.9-0.3,1.4-0.3
			c0.5,0,1,0.1,1.5,0.2c0.5,0.2,0.9,0.4,1.3,0.7c0.4,0.3,0.8,0.7,1,1.2c0.2,0.5,0.3,1.1,0.3,1.7c0,0.6-0.1,1.2-0.3,1.7
			c-0.2,0.5-0.5,0.9-0.9,1.2c-0.8,0.6-1.7,1-2.7,1c-0.5,0-1,0-1.5-0.2c-0.5-0.2-1-0.4-1.4-0.7c-0.4-0.3-0.8-0.8-1-1.3
			c-0.2-0.6-0.3-1.1-0.3-1.7v-0.1C214.9,26.1,215,25.5,215.2,25.1 M215.4,34.7h6.4V70h-6.4V34.7z"/>
		<path id="Pfad_29" class="st0" d="M228.3,48.6c0-1.9,0.3-3.8,1-5.6c0.7-1.8,1.8-3.5,3.1-4.9c1.4-1.5,3.1-2.6,5-3.3
			c2.1-0.8,4.3-1.2,6.5-1.1c0.4,0,0.9,0,1.3,0.1c0.5,0,1,0.1,1.5,0.2c0.5,0.1,1.1,0.2,1.7,0.4c0.6,0.2,1.2,0.4,1.7,0.6
			c1,0.4,2,1,2.9,1.7c1,0.7,1.9,1.6,2.7,2.5c0.9,1,1.6,2.2,2,3.5c0.5,1.5,0.7,3.1,0.7,4.7V70h-7V49.2c0-2.2-0.7-4.4-1.9-6.2
			c-0.6-1-1.5-1.7-2.5-2.2c-1.2-0.5-2.4-0.8-3.7-0.7c-1.2,0-2.4,0.2-3.5,0.7c-1,0.4-1.9,1.1-2.6,2c-0.7,0.9-1.3,1.8-1.7,2.8
			c-0.4,1-0.7,2.1-0.8,3.2V70h-6.4L228.3,48.6z"/>
		<path id="Pfad_30" class="st0" d="M114.6,8.4c-4.2-4.7-9.9-7-16.9-7c-5.2-0.2-10.2,1.4-14.3,4.6C79.2,2.8,74.2,1.2,69,1.3
			c-5.8,0-10.7,1.6-14.6,4.8c-3.9-3.2-8.8-4.8-14.6-4.8c-7,0-12.7,2.3-16.9,7s-6.3,11-6.3,19v42.1h8.9V27.6c0-5.8,1.2-10.3,3.7-13.4
			s6-4.6,10.7-4.6c4.6,0,8.2,1.5,10.7,4.6c2.5,3.1,3.7,7.5,3.7,13.4v4.6h-25v8.9h25v28.4h8.9V27.4c0.2-5.1-1-10.2-3.3-14.7
			c2.6-2.1,5.9-3.2,9.2-3.1c4.6,0,8.2,1.5,10.7,4.6s3.7,7.5,3.7,13.4v41.9h8.9V27.4c0-5.9-1.2-10.9-3.5-15c2.5-1.9,5.6-2.9,8.8-2.8
			c4.6,0,8.2,1.5,10.7,4.6c2.5,3.1,3.7,7.5,3.7,13.4v41.9h8.9V27.4C121,19.4,118.8,13.1,114.6,8.4"/>
	</g>
</g>
</svg>
