<?xml version="1.0" encoding="utf-8"?>
<!-- Generator: Adobe Illustrator 25.0.0, SVG Export Plug-In . SVG Version: 6.00 Build 0)  -->
<svg version="1.1" id="Ebene_1" xmlns="http://www.w3.org/2000/svg" xmlns:xlink="http://www.w3.org/1999/xlink" x="0px" y="0px"
	 viewBox="0 0 24.2 21" style="enable-background:new 0 0 24.2 21;" xml:space="preserve">
<style type="text/css">
	.st0{fill:#CA7C34;}
	.st1{opacity:0.764;fill:#FFFFFF;enable-background:new    ;}
	.st2{clip-path:url(#SVGID_2_);}
	.st3{fill:#1C1C1C;}
	.st4{clip-path:url(#SVGID_4_);}
	.st5{fill:#00998E;}
	.st6{fill:#1D1E1B;}
	.st7{fill:#FFFFFF;}
	.st8{fill:#009A8F;}
</style>
<g id="Gruppe_146" transform="translate(-13.5 -18.025)">
	<path id="Pfad_144" class="st0" d="M37.1,25.4v-0.2c0,0,0-0.1,0-0.1s0-0.1,0-0.1s0-0.1,0-0.1s0,0,0-0.1c0,0,0-0.1-0.1-0.1l-0.1-0.1
		l-0.1-0.1l-0.1-0.1l0,0l-10.6-6.1c-0.3-0.2-0.7-0.2-0.9,0l-10.6,6.1l0,0c0,0,0,0-0.1,0l-0.1,0.1l-0.1,0.1l-0.1,0.1c0,0,0,0-0.1,0.1
		c0,0,0,0,0,0.1s0,0.1,0,0.1s0,0.1,0,0.1c0,0,0,0.1,0,0.1v12.3c0,0.5,0.4,0.9,0.9,0.9c0,0,0,0,0,0h21.2c0.5,0,0.9-0.4,0.9-0.9
		c0,0,0,0,0,0L37.1,25.4L37.1,25.4z M36.2,37.7H15V25.4h0l10.5-6.1l10.5,6.1l0,0l0,0L36.2,37.7z"/>
	<path id="Pfad_145" class="st0" d="M22.6,32.3l-5.5,3.2c-0.2,0.1-0.3,0.4-0.2,0.6c0,0,0,0,0,0c0.1,0.2,0.2,0.2,0.4,0.3
		c0.1,0,0.2,0,0.2-0.1l5.5-3.2c0.2-0.1,0.3-0.4,0.2-0.6c0,0,0,0,0,0C23.2,32.3,22.9,32.2,22.6,32.3C22.7,32.3,22.7,32.3,22.6,32.3z"
		/>
	<path id="Pfad_146" class="st0" d="M34,35.5l-5.5-3.2c-0.2-0.1-0.5-0.1-0.6,0.2S27.8,33,28,33.1l5.5,3.2c0.1,0,0.1,0.1,0.2,0.1
		c0.2,0,0.3-0.1,0.4-0.3C34.3,35.9,34.3,35.7,34,35.5C34.1,35.5,34,35.5,34,35.5z"/>
	<path id="Pfad_147" class="st0" d="M33.6,26.4l-8,4.6l-8-4.6c-0.2-0.1-0.5-0.1-0.6,0.2c-0.1,0.2-0.1,0.5,0.2,0.6l8.2,4.7
		c0.1,0,0.2,0.1,0.3,0.1c0.1,0,0.2,0,0.3-0.1l8.2-4.7c0.2-0.1,0.3-0.4,0.2-0.6c0,0,0,0,0,0C34.1,26.3,33.8,26.3,33.6,26.4z"/>
	<path id="Pfad_148" class="st0" d="M16.8,25h17.6l-8.8-5.1L16.8,25z"/>
</g>
</svg>
