<?xml version="1.0" encoding="utf-8"?>
<!-- Generator: Adobe Illustrator 25.0.0, SVG Export Plug-In . SVG Version: 6.00 Build 0)  -->
<svg version="1.1" id="Ebene_1" xmlns="http://www.w3.org/2000/svg" xmlns:xlink="http://www.w3.org/1999/xlink" x="0px" y="0px"
	 viewBox="0 0 20.5 32" style="enable-background:new 0 0 20.5 32;" xml:space="preserve">
<style type="text/css">
	.st0{fill:#FFFFFF;}
	.st1{opacity:0.764;fill:#FFFFFF;enable-background:new    ;}
	.st2{clip-path:url(#SVGID_2_);}
	.st3{fill:#1C1C1C;}
	.st4{clip-path:url(#SVGID_4_);}
	.st5{fill:#00998E;}
	.st6{fill:#1D1E1B;}
	.st7{fill:#FFFFFF;}
	.st8{fill:#009A8F;}
</style>
<g id="Gruppe_29" transform="translate(0 0)">
	<g>
		<g id="Gruppe_11" transform="translate(0 0)">
			<path id="Pfad_41" class="st0" d="M15.6,21.8l-1.3,2c2,0.5,3.6,1.4,3.6,2.5c0,1.9-4.5,3.1-7.6,3.1s-7.6-1.2-7.6-3.1
				c0-1.1,1.6-2,3.6-2.5l-1.3-2c-2.8,0.9-4.6,2.6-4.6,4.6c0,3.1,4.3,5.4,9.9,5.4s9.9-2.3,9.9-5.4C20.2,24.4,18.4,22.7,15.6,21.8"/>
			<path id="Pfad_42" class="st0" d="M9.2,25c0.4,0.6,1.2,0.8,1.8,0.4c0.1-0.1,0.3-0.2,0.4-0.4l6.9-10.7c0.9-1.5,1.3-3.1,1.2-4.8
				c-0.1-5.1-4.3-9.2-9.4-9.1S0.9,4.6,1,9.7c0,1.6,0.4,3.2,1.2,4.6L9.2,25z M10.2,5.2c2.5,0,4.5,2,4.5,4.5s-2,4.5-4.5,4.5
				s-4.5-2-4.5-4.5C5.7,7.2,7.7,5.2,10.2,5.2"/>
		</g>
	</g>
</g>
</svg>
