<?xml version="1.0" encoding="utf-8"?>
<!-- Generator: Adobe Illustrator 25.0.0, SVG Export Plug-In . SVG Version: 6.00 Build 0)  -->
<svg version="1.1" id="Ebene_1" xmlns="http://www.w3.org/2000/svg" xmlns:xlink="http://www.w3.org/1999/xlink" x="0px" y="0px"
	 viewBox="0 0 31.9 41.3" style="enable-background:new 0 0 31.9 41.3;" xml:space="preserve">
<style type="text/css">
	.st0{fill:#FFFFFF;}
	.st1{opacity:0.764;fill:#FFFFFF;enable-background:new    ;}
	.st2{clip-path:url(#SVGID_2_);}
	.st3{fill:#1C1C1C;}
	.st4{clip-path:url(#SVGID_4_);}
	.st5{fill:#00998E;}
	.st6{fill:#1D1E1B;}
	.st7{fill:#FFFFFF;}
	.st8{fill:#009A8F;}
</style>
<g>
	<g id="Gruppe_9" transform="translate(0 0)">
		<path id="Pfad_36" class="st0" d="M8.5,16c0.9,0.1,1.8-0.2,2.6-0.7c0.6-0.6,0.9-1.5,0.8-2.3c0.1-0.9-0.2-1.7-0.8-2.4
			C10.3,10,9.4,9.7,8.5,9.7H5.7v8.6h1.7V16H8.5z M7.4,11.4h1c0.5,0,0.9,0.1,1.3,0.3c0.3,0.3,0.5,0.7,0.4,1.1c0,0.4-0.1,0.8-0.3,1.1
			c-0.3,0.3-0.8,0.4-1.2,0.4H7.4L7.4,11.4z"/>
		<path id="Pfad_37" class="st0" d="M18.7,17.2c0.8-0.9,1.2-2,1.1-3.2c0.1-1.2-0.3-2.3-1.1-3.2c-0.9-0.8-2.1-1.2-3.2-1.1h-2.8v8.6
			h2.7C16.6,18.5,17.8,18,18.7,17.2 M17.4,16c-0.5,0.5-1.1,0.7-1.8,0.7h-1.1v-5.3h1c0.7,0,1.5,0.2,2,0.7c0.5,0.5,0.7,1.2,0.7,2
			C18.1,14.8,17.9,15.5,17.4,16"/>
		<path id="Pfad_38" class="st0" d="M26.2,11.4V9.7h-5.4v8.6h1.7V15H26v-1.7h-3.4v-1.9H26.2z"/>
		<path id="Pfad_39" class="st0" d="M28.4,0.7H3.4C2,0.7,0.8,1.8,0.8,3.3c0,0,0,0,0,0v30.6c0,1.4,1.2,2.6,2.6,2.6c0,0,0,0,0,0h5.8
			l-0.8-0.8l-0.8-0.8H3.4c-0.6,0-1-0.4-1-1c0,0,0,0,0,0V3.3c0-0.6,0.4-1,1-1c0,0,0,0,0,0h25.1c0.6,0,1,0.4,1,1c0,0,0,0,0,0v30.6
			c0,0.6-0.4,1-1,1c0,0,0,0,0,0H25l-0.8,0.8l-0.8,0.8h5.1c1.4,0,2.6-1.2,2.6-2.6c0,0,0,0,0,0V3.3C31.1,1.8,29.9,0.7,28.4,0.7"/>
		<path id="Pfad_40" class="st0" d="M25.1,31.6l-5.4,0v-9h-7.5v8.8l-5.4-0.1l9.3,9.3L25.1,31.6z"/>
	</g>
</g>
</svg>
