<?xml version="1.0" encoding="utf-8"?>
<!-- Generator: Adobe Illustrator 25.0.0, SVG Export Plug-In . SVG Version: 6.00 Build 0)  -->
<svg version="1.1" id="Ebene_1" xmlns="http://www.w3.org/2000/svg" xmlns:xlink="http://www.w3.org/1999/xlink" x="0px" y="0px"
	 viewBox="0 0 144.8 148" style="enable-background:new 0 0 144.8 148;" xml:space="preserve">
<style type="text/css">
	.st0{fill:#D49261;}
	.st1{opacity:0.764;fill:#FFFFFF;enable-background:new    ;}
	.st2{clip-path:url(#SVGID_2_);}
	.st3{fill:#1C1C1C;}
	.st4{clip-path:url(#SVGID_4_);}
	.st5{fill:#00998E;}
	.st6{fill:#1D1E1B;}
	.st7{fill:#FFFFFF;}
	.st8{fill:#009A8F;}
</style>
<g id="Gruppe_107_1_" transform="translate(6.267 -309.541)">
	<g id="Gruppe_106_1_" transform="translate(-6.267 309.541)">
		<path id="Pfad_62_1_" class="st0" d="M86.5,139.1c-0.2-0.8-0.3-1.6-0.3-2.4c0-0.7,0.2-1.4,0.5-2.1c0.3-0.6,0.8-1.2,1.3-1.6
			c0.6-0.5,1.4-0.8,2.1-1.1c0.8-0.2,1.6-0.3,2.4-0.3c0.7,0.1,1.4,0.3,2,0.7c0.6,0.4,1.1,0.9,1.5,1.5c0.4,0.7,0.8,1.5,1,2.3
			c0.2,0.8,0.4,1.6,0.3,2.4c0,0.7-0.2,1.4-0.5,2.1c-0.3,0.6-0.8,1.2-1.3,1.6c-0.7,0.5-1.4,0.9-2.2,1.1c-0.8,0.2-1.6,0.3-2.4,0.2
			c-0.7-0.1-1.4-0.3-2-0.7c-0.6-0.4-1.1-0.9-1.5-1.5C87.1,140.7,86.7,139.9,86.5,139.1z M94.4,136.9c-0.2-0.7-0.4-1.3-0.7-2
			c-0.2-0.5-0.5-0.9-0.9-1.3c-0.3-0.3-0.7-0.6-1.1-0.7c-0.9-0.2-1.8,0.1-2.5,0.7c-0.3,0.3-0.5,0.7-0.6,1.2c-0.1,0.5-0.1,1.1,0,1.6
			c0.2,1.4,0.6,2.7,1.1,4c0.2,0.5,0.5,0.9,0.9,1.4c0.3,0.3,0.7,0.6,1.1,0.7c0.4,0.1,0.9,0.1,1.3,0c0.9-0.2,1.6-0.9,1.7-1.8
			c0.1-0.5,0.1-1.1,0-1.6C94.8,138.2,94.6,137.5,94.4,136.9L94.4,136.9z M93.4,145.5c0,0.2,0.1,0.3,0.1,0.5c0,0.1-0.1,0.3-0.1,0.4
			c-0.1,0.1-0.1,0.2-0.2,0.3c-0.1,0.1-0.2,0.1-0.3,0.2c-0.1,0-0.2,0-0.4,0c-0.1,0-0.2,0-0.3-0.1c-0.1-0.1-0.2-0.1-0.3-0.2
			c-0.1-0.1-0.2-0.3-0.2-0.4c0-0.2-0.1-0.3,0-0.5c0-0.1,0.1-0.3,0.1-0.4c0.1-0.1,0.1-0.2,0.2-0.3c0.1-0.1,0.2-0.1,0.3-0.2
			c0.1,0,0.2-0.1,0.4,0c0.1,0,0.2,0,0.3,0.1c0.1,0.1,0.2,0.1,0.3,0.2C93.3,145.2,93.4,145.4,93.4,145.5L93.4,145.5z M96.6,144.6
			c0,0.2,0.1,0.3,0.1,0.5c0,0.1,0,0.2-0.1,0.4c-0.1,0.1-0.1,0.2-0.2,0.2c-0.2,0.1-0.5,0.2-0.7,0.2c-0.1,0-0.2,0-0.3-0.1
			c-0.1-0.1-0.2-0.1-0.3-0.2c-0.1-0.1-0.2-0.3-0.2-0.4c0-0.2-0.1-0.3,0-0.5c0-0.1,0.1-0.3,0.1-0.4c0.1-0.1,0.1-0.2,0.2-0.3
			c0.1-0.1,0.2-0.1,0.3-0.2c0.1,0,0.2-0.1,0.4,0c0.1,0,0.2,0,0.3,0.1c0.1,0.1,0.2,0.1,0.3,0.2C96.5,144.3,96.6,144.4,96.6,144.6
			L96.6,144.6z"/>
		<path id="Pfad_63_1_" class="st0" d="M73.8,143.1c-0.2,0.2-0.3,0.4-0.4,0.5c-0.1,0.1-0.2,0.3-0.3,0.4c-0.1,0.1-0.1,0.2-0.1,0.4
			c0,0.1,0,0.2,0,0.3c0,0.2,0.1,0.3,0.2,0.4c0.2,0.1,0.5,0.1,0.7,0.1l0,0.8l-4.4,0.1l0-0.8c0.2,0,0.4,0,0.6-0.1
			c0.2-0.1,0.4-0.2,0.6-0.3c0.2-0.1,0.4-0.3,0.6-0.5c0.2-0.2,0.4-0.4,0.6-0.6l2.1-2.4l-3.1-4.7c-0.1-0.2-0.3-0.4-0.5-0.6
			c-0.1-0.1-0.3-0.3-0.4-0.4c-0.1-0.1-0.3-0.2-0.5-0.2c-0.2,0-0.3-0.1-0.5,0h-0.1l0-0.9l0.9,0c0.4,0,0.8,0,1.1,0
			c0.3,0,0.6,0,0.8,0.1c0.2,0,0.4,0.1,0.6,0.2c0.2,0.1,0.3,0.2,0.5,0.3c0.1,0.1,0.2,0.2,0.4,0.4c0.1,0.1,0.2,0.3,0.3,0.5l2.3,3.7
			l0.7-0.6l-0.1-2.7c0-0.2,0-0.4-0.1-0.6c0-0.1-0.1-0.2-0.2-0.3c-0.1-0.1-0.2-0.1-0.3-0.1c-0.1,0-0.2,0-0.3,0l-0.7,0l0-0.9l5.6-0.1
			l0,0.9l-0.7,0c-0.1,0-0.2,0-0.3,0c-0.1,0-0.2,0.1-0.3,0.1c-0.1,0.1-0.1,0.2-0.2,0.3c0,0.2-0.1,0.3-0.1,0.5l0.2,7.9
			c0,0.2,0,0.3,0.1,0.5c0,0.1,0.1,0.2,0.2,0.3c0.1,0.1,0.2,0.1,0.3,0.1c0.1,0,0.2,0,0.3,0l0.7,0l0,0.9l-5.6,0.1l0-0.9l0.7,0
			c0.1,0,0.2,0,0.3,0c0.1,0,0.2-0.1,0.3-0.2c0.1-0.1,0.1-0.2,0.2-0.3c0-0.2,0.1-0.4,0.1-0.6l-0.1-3.8L73.8,143.1z"/>
		<path id="Pfad_64_1_" class="st0" d="M52.9,137.2c0.2-0.8,0.5-1.6,0.9-2.3c0.4-0.6,0.9-1.2,1.5-1.6c0.6-0.4,1.2-0.7,1.9-0.8
			c0.8-0.1,1.6-0.1,2.4,0.1c0.8,0.2,1.6,0.5,2.3,1c0.6,0.4,1.1,0.9,1.4,1.6c0.3,0.6,0.5,1.3,0.6,2.1c0.1,1.7-0.3,3.3-1.1,4.8
			c-0.4,0.6-0.8,1.2-1.4,1.6c-0.6,0.4-1.2,0.7-1.9,0.8c-0.8,0.1-1.7,0.1-2.5-0.1c-0.8-0.2-1.5-0.5-2.2-0.9c-0.6-0.4-1.1-0.9-1.4-1.6
			c-0.3-0.6-0.6-1.3-0.6-2.1C52.7,138.9,52.7,138,52.9,137.2z M61,139.1c0.2-0.7,0.3-1.4,0.3-2.1c0-0.5,0-1.1-0.1-1.6
			c-0.1-0.4-0.3-0.8-0.6-1.1c-0.7-0.6-1.6-0.8-2.5-0.6c-0.4,0.2-0.8,0.4-1,0.8c-0.3,0.4-0.6,0.9-0.8,1.4c-0.3,0.6-0.5,1.3-0.6,2
			c-0.2,0.7-0.3,1.4-0.3,2.1c0,0.5,0,1.1,0.1,1.6c0.2,0.9,0.9,1.6,1.8,1.7c0.9,0.2,1.8-0.1,2.4-0.8c0.3-0.4,0.6-0.9,0.8-1.4
			C60.6,140.4,60.8,139.7,61,139.1L61,139.1z"/>
		<path id="Pfad_65_1_" class="st0" d="M49.8,129.8l-0.4,0.8l-0.6-0.3c-0.1-0.1-0.2-0.1-0.3-0.1c-0.1,0-0.2,0-0.3,0
			c-0.1,0-0.2,0.1-0.3,0.2c-0.1,0.1-0.2,0.3-0.3,0.5l-3.6,6.9c-0.1,0.2-0.2,0.3-0.2,0.5c0,0.1,0,0.2,0,0.4c0,0.1,0.1,0.2,0.2,0.3
			c0.1,0.1,0.2,0.1,0.3,0.2l0.6,0.3l-0.4,0.8l-5-2.6l0.4-0.8l0.6,0.3c0.1,0,0.2,0.1,0.3,0.1c0.1,0,0.2,0,0.3,0
			c0.1,0,0.2-0.1,0.3-0.2c0.1-0.1,0.2-0.3,0.3-0.4l4-7.8l-2.7-1.4c-0.3-0.2-0.6-0.2-1-0.1c-0.4,0.2-0.7,0.4-0.9,0.7l-0.8,1l-0.8-0.4
			l1.8-3.2L49.8,129.8z"/>
		<path id="Pfad_66_1_" class="st0" d="M25.1,119.8c0.5-0.6,1.2-1.2,1.9-1.6c0.6-0.4,1.3-0.6,2-0.7c0.7-0.1,1.4,0,2.1,0.2
			c0.8,0.3,1.4,0.7,2,1.2c0.6,0.5,1.1,1.2,1.5,1.9c0.3,0.6,0.5,1.3,0.5,2c0,0.7-0.2,1.4-0.5,2.1c-0.4,0.8-0.8,1.4-1.4,2.1
			c-0.5,0.6-1.2,1.2-1.9,1.6c-0.6,0.4-1.3,0.6-2,0.7c-0.7,0.1-1.4,0-2.1-0.2c-0.8-0.3-1.5-0.7-2.1-1.3c-0.6-0.5-1.1-1.2-1.5-1.9
			c-0.3-0.6-0.5-1.3-0.5-2c0-0.7,0.2-1.4,0.5-2.1C24.1,121.1,24.6,120.4,25.1,119.8z M31.3,125.3c0.5-0.5,0.9-1.1,1.3-1.7
			c0.3-0.5,0.5-1,0.7-1.5c0.1-0.4,0.1-0.9,0-1.3c-0.3-0.9-1-1.5-1.9-1.7c-0.4-0.1-0.9,0-1.3,0.2c-0.5,0.2-1,0.5-1.4,0.8
			c-0.5,0.4-1,0.9-1.5,1.5c-0.5,0.5-0.9,1.1-1.3,1.6c-0.3,0.4-0.5,0.9-0.7,1.5c-0.3,0.9,0,1.8,0.7,2.4c0.3,0.3,0.7,0.5,1.2,0.6
			c0.4,0.1,0.9,0,1.3-0.1c0.5-0.2,1-0.5,1.4-0.8C30.3,126.3,30.8,125.8,31.3,125.3L31.3,125.3z"/>
		<path id="Pfad_67_1_" class="st0" d="M22.5,106.5c0.5,0.7,0.9,1.6,1.1,2.4c0.4,1.5,0,3-1,4.2c-0.5,0.6-1.1,1.2-1.8,1.6
			c-0.7,0.5-1.4,0.8-2.2,1c-0.7,0.2-1.5,0.2-2.2,0.1c-0.7-0.1-1.4-0.5-2.1-0.9c-0.7-0.5-1.3-1.2-1.8-2c-0.3-0.5-0.6-1-0.9-1.6
			c-0.2-0.4-0.3-0.8-0.4-1.3c-0.1-0.3,0-0.7,0.1-1c0.1-0.3,0.3-0.5,0.5-0.6c0.2-0.1,0.3-0.2,0.5-0.2c0.2,0,0.4,0,0.6,0.1
			c0.2,0.1,0.4,0.2,0.6,0.4c0.2,0.2,0.4,0.4,0.6,0.7c-0.3,0.2-0.5,0.4-0.7,0.6c-0.2,0.2-0.3,0.4-0.4,0.7c-0.1,0.3-0.1,0.5,0,0.8
			c0.1,0.3,0.2,0.6,0.4,0.8c0.3,0.4,0.7,0.8,1.1,1.1c0.4,0.2,0.9,0.3,1.3,0.3c0.6,0,1.1-0.1,1.6-0.4c0.6-0.3,1.3-0.6,1.8-1
			c0.6-0.4,1.1-0.8,1.6-1.3c0.4-0.4,0.7-0.8,0.9-1.3c0.2-0.4,0.3-0.9,0.2-1.4c-0.1-0.6-0.3-1.1-0.6-1.5c-0.1-0.2-0.2-0.3-0.4-0.5
			c-0.1-0.2-0.3-0.3-0.4-0.4l-2,1.3c-0.3,0.2-0.5,0.4-0.6,0.7c0,0.3,0.1,0.6,0.3,0.9l0.1,0.2l-0.7,0.5l-2.8-4.3l0.7-0.5l0.1,0.2
			c0.1,0.1,0.2,0.2,0.3,0.3c0.1,0.1,0.2,0.1,0.3,0.1c0.1,0,0.3,0,0.4-0.1c0.2-0.1,0.4-0.2,0.5-0.3l2.2-1.5c0.6,0.4,1.1,0.8,1.6,1.2
			C21.7,105.4,22.1,105.9,22.5,106.5z"/>
		<path id="Pfad_68_1_" class="st0" d="M17.8,98.2L17,98.6l-0.2-0.6c0-0.1-0.1-0.2-0.2-0.3c-0.1-0.1-0.1-0.2-0.2-0.2
			c-0.1,0-0.2-0.1-0.4,0c-0.2,0-0.4,0.1-0.5,0.1l-7.2,2.8c-0.2,0.1-0.3,0.2-0.5,0.3c-0.1,0.1-0.2,0.2-0.2,0.3c0,0.1-0.1,0.2,0,0.3
			c0,0.1,0,0.2,0.1,0.3l0.2,0.6L7,102.4l-2-5.2l0.8-0.3L6,97.5c0,0.1,0.1,0.2,0.2,0.3C6.2,97.9,6.3,98,6.4,98c0.1,0,0.2,0.1,0.4,0
			c0.2,0,0.4-0.1,0.5-0.1l7.2-2.8c0.2-0.1,0.3-0.1,0.5-0.3c0.1-0.1,0.2-0.2,0.2-0.3c0-0.1,0.1-0.2,0-0.3c0-0.1,0-0.2-0.1-0.3
			L15,93.3l0.8-0.3L17.8,98.2z"/>
		<path id="Pfad_69_1_" class="st0" d="M13.9,85c0.1,0.6,0.2,1.2,0.1,1.8c0,0.4-0.1,0.9-0.3,1.2c-0.2,0.6-0.8,1-1.4,1.1
			c-0.2,0.1-0.5,0-0.7,0c-0.2-0.1-0.4-0.2-0.5-0.3c-0.2-0.2-0.3-0.3-0.4-0.5c-0.1-0.2-0.2-0.4-0.2-0.7c0.4-0.1,0.8-0.2,1.2-0.4
			c0.3-0.1,0.6-0.4,0.8-0.6c0.2-0.2,0.3-0.5,0.4-0.8c0.1-0.3,0.1-0.6,0-0.9c0-0.3-0.1-0.6-0.3-0.8c-0.1-0.2-0.3-0.4-0.5-0.6
			c-0.2-0.1-0.4-0.2-0.6-0.3c-0.2,0-0.5-0.1-0.7,0c-0.3,0-0.5,0.1-0.7,0.3c-0.2,0.2-0.4,0.4-0.5,0.6c-0.2,0.3-0.3,0.6-0.4,0.9
			c-0.1,0.4-0.2,0.8-0.3,1.3c-0.1,0.5-0.3,1-0.4,1.5c-0.1,0.4-0.4,0.7-0.6,1.1c-0.2,0.3-0.5,0.5-0.8,0.7c-0.3,0.2-0.7,0.3-1,0.4
			c-0.5,0.1-0.9,0.1-1.4-0.1c-0.4-0.1-0.8-0.3-1.2-0.6c-0.4-0.3-0.7-0.7-0.9-1.1c-0.2-0.5-0.4-1-0.5-1.5C2,86.1,2,85.6,2,85.1
			C2,84.7,2,84.3,2.2,84c0.1-0.3,0.3-0.5,0.5-0.7c0.2-0.2,0.4-0.3,0.7-0.3c0.2,0,0.4,0,0.5,0c0.2,0.1,0.4,0.2,0.5,0.3
			c0.2,0.2,0.3,0.4,0.4,0.6C4.9,84.1,5,84.3,5,84.6c-0.2,0-0.5,0.1-0.7,0.2c-0.2,0.1-0.5,0.2-0.7,0.4c-0.2,0.2-0.3,0.4-0.5,0.6
			c-0.1,0.3-0.1,0.5-0.1,0.8c0,0.2,0.1,0.4,0.2,0.6c0.1,0.2,0.2,0.3,0.4,0.5C3.9,87.9,4,88,4.2,88c0.2,0,0.4,0.1,0.7,0
			c0.2,0,0.4-0.1,0.6-0.2c0.2-0.1,0.4-0.3,0.5-0.5c0.2-0.3,0.3-0.6,0.4-0.9c0.2-0.5,0.3-0.9,0.4-1.4c0.1-0.5,0.2-1,0.4-1.5
			c0.1-0.4,0.3-0.8,0.6-1.1c0.2-0.3,0.5-0.5,0.8-0.7c0.3-0.2,0.7-0.3,1-0.4c0.5-0.1,1-0.1,1.5,0c0.5,0.1,0.9,0.4,1.3,0.7
			c0.4,0.3,0.7,0.8,1,1.2C13.6,83.8,13.8,84.4,13.9,85z"/>
		<path id="Pfad_70_1_" class="st0" d="M11.7,69.5c0-0.4,0-0.7-0.1-1.1c-0.1-0.3-0.2-0.6-0.3-0.8c-0.1-0.2-0.3-0.5-0.5-0.7
			c-0.2-0.2-0.3-0.3-0.5-0.5c0.1-0.1,0.2-0.2,0.3-0.2c0.1,0,0.3-0.1,0.4-0.1c0.2,0,0.5,0.1,0.7,0.2c0.3,0.2,0.5,0.4,0.7,0.6
			c0.2,0.4,0.4,0.7,0.5,1.2c0.1,0.6,0.2,1.2,0.1,1.8c0,0.8-0.2,1.7-0.5,2.4c-0.3,0.7-0.7,1.2-1.3,1.7c-0.6,0.5-1.2,0.8-1.9,1
			c-0.8,0.2-1.6,0.3-2.5,0.2c-0.8,0-1.6-0.2-2.4-0.5c-0.7-0.2-1.3-0.6-1.8-1.1c-0.5-0.5-0.9-1.1-1.1-1.8C1.1,71.1,1,70.3,1,69.5
			c0-0.5,0.1-1.1,0.2-1.6c0.1-0.4,0.2-0.8,0.5-1.1c0.2-0.3,0.4-0.5,0.6-0.7c0.2-0.1,0.5-0.2,0.8-0.2c0.2,0,0.4,0.1,0.6,0.2
			c0.2,0.1,0.3,0.2,0.4,0.4c0.1,0.2,0.2,0.4,0.3,0.7c0.1,0.3,0.1,0.6,0.1,0.9c-0.3,0-0.5,0-0.8,0c-0.3,0-0.5,0.1-0.7,0.3
			c-0.2,0.1-0.4,0.3-0.6,0.5c-0.2,0.3-0.2,0.5-0.2,0.8c0,0.5,0.1,0.9,0.3,1.3c0.2,0.4,0.5,0.7,0.9,0.9c0.5,0.3,1,0.4,1.5,0.5
			c0.7,0.1,1.4,0.2,2.1,0.2c0.7,0,1.4,0,2.1-0.1c0.5-0.1,1-0.2,1.5-0.5c0.4-0.2,0.7-0.6,0.9-1C11.5,70.6,11.7,70,11.7,69.5z"/>
		<path id="Pfad_71_1_" class="st0" d="M15.5,55.3l-0.8-0.3l0.2-0.7c0-0.1,0.1-0.2,0.1-0.3c0-0.1,0-0.2-0.1-0.3
			c-0.1-0.1-0.1-0.2-0.3-0.3c-0.2-0.1-0.3-0.2-0.5-0.2l-3.5-1.1l-1.2,4.1l3.5,1.1c0.2,0.1,0.4,0.1,0.5,0.1c0.1,0,0.2,0,0.4-0.1
			c0.1,0,0.2-0.1,0.2-0.2c0.1-0.1,0.1-0.2,0.1-0.3l0.2-0.7l0.8,0.3l-1.6,5.4l-0.8-0.3l0.2-0.7c0-0.1,0.1-0.2,0.1-0.3
			c0-0.1,0-0.2-0.1-0.3c-0.1-0.1-0.1-0.2-0.3-0.3c-0.2-0.1-0.3-0.2-0.5-0.2l-7.5-2.3c-0.2-0.1-0.3-0.1-0.5-0.1c-0.1,0-0.2,0-0.3,0.1
			c-0.1,0.1-0.2,0.1-0.2,0.2c-0.1,0.1-0.1,0.2-0.1,0.3l-0.2,0.7l-0.8-0.3l1.6-5.4l0.8,0.3L4.7,54c0,0.1-0.1,0.2-0.1,0.3
			c0,0.1,0,0.2,0.1,0.3c0.1,0.1,0.1,0.2,0.3,0.3c0.2,0.1,0.3,0.2,0.5,0.2l3,0.9L9.7,52l-3-0.9C6.5,51,6.4,51,6.2,51
			c-0.1,0-0.2,0-0.4,0.1c-0.1,0.1-0.2,0.1-0.2,0.2c-0.1,0.1-0.1,0.2-0.1,0.3l-0.2,0.7L4.4,52l1.6-5.4l0.8,0.3l-0.2,0.7
			c0,0.1-0.1,0.2-0.1,0.3c0,0.1,0,0.2,0.1,0.3c0.1,0.1,0.1,0.2,0.3,0.3c0.2,0.1,0.3,0.2,0.5,0.2l7.5,2.3c0.2,0.1,0.3,0.1,0.5,0.1
			c0.1,0,0.2,0,0.3-0.1c0.1-0.1,0.2-0.1,0.2-0.2c0.1-0.1,0.1-0.2,0.1-0.3l0.2-0.7l0.8,0.3L15.5,55.3z"/>
		<path id="Pfad_72_1_" class="st0" d="M18.9,35.5c-0.3-0.2-0.6-0.5-0.9-0.9c-0.2-0.3-0.3-0.6-0.3-0.9c0-0.3,0-0.6,0.1-0.8
			c0.1-0.3,0.3-0.6,0.5-0.8c0.2-0.2,0.4-0.5,0.6-0.6c0.2-0.2,0.5-0.3,0.8-0.3c0.3,0,0.6,0,0.9,0.1c0.4,0.1,0.8,0.3,1.1,0.6
			c0.3,0.2,0.6,0.5,0.9,0.9c0.2,0.3,0.3,0.6,0.3,0.9c0,0.3,0,0.6-0.1,0.9c-0.1,0.3-0.3,0.6-0.4,0.8c-0.2,0.3-0.4,0.5-0.7,0.7
			c-0.2,0.2-0.5,0.3-0.8,0.3c-0.3,0-0.6,0-0.9-0.1C19.6,36,19.2,35.8,18.9,35.5z"/>
		<path id="Pfad_73_1_" class="st0" d="M38.2,13.8c0.2,0.3,0.3,0.6,0.4,0.9c0.1,0.3,0.1,0.5,0,0.8c0,0.3-0.1,0.5-0.3,0.8
			c-0.1,0.3-0.3,0.5-0.5,0.8l0,0.1c0.3-0.1,0.7-0.2,1.1-0.2c0.3,0,0.7,0,1,0.1c0.3,0.1,0.6,0.2,0.9,0.4c0.3,0.2,0.6,0.5,0.8,0.8
			c0.6,0.8,0.7,1.8,0.4,2.6c-0.5,1.1-1.4,2-2.4,2.6l-4.3,2.9l-0.5-0.7l0.6-0.4c0.1-0.1,0.2-0.1,0.3-0.2c0.1-0.1,0.1-0.2,0.1-0.3
			c0-0.1,0-0.2,0-0.4c-0.1-0.2-0.1-0.3-0.3-0.5l-4.3-6.4c-0.1-0.2-0.2-0.3-0.4-0.4c-0.1-0.1-0.2-0.1-0.3-0.2c-0.1,0-0.2,0-0.3,0
			c-0.1,0-0.2,0.1-0.3,0.1l-0.6,0.4l-0.5-0.7l3.9-2.6c1-0.7,2.1-1.2,3.3-1.4C36.9,12.5,37.7,13,38.2,13.8z M35,18.5l0.5-0.3
			c0.3-0.2,0.5-0.4,0.7-0.6c0.2-0.2,0.3-0.4,0.3-0.6c0-0.2,0-0.5-0.1-0.7c-0.1-0.3-0.3-0.6-0.5-0.8c-0.2-0.3-0.4-0.5-0.6-0.7
			c-0.2-0.2-0.4-0.3-0.6-0.3c-0.2,0-0.5,0-0.7,0.1c-0.3,0.1-0.6,0.3-0.8,0.4l-0.5,0.3L35,18.5z M38.1,23.1l0.9-0.6
			c0.3-0.2,0.5-0.4,0.7-0.6c0.2-0.2,0.3-0.4,0.3-0.7c0-0.3,0-0.5-0.1-0.8c-0.1-0.3-0.3-0.6-0.5-0.9c-0.2-0.3-0.4-0.6-0.7-0.8
			c-0.2-0.2-0.4-0.3-0.7-0.4c-0.2-0.1-0.5-0.1-0.7,0c-0.3,0.1-0.6,0.2-0.9,0.4l-0.9,0.6L38.1,23.1z"/>
		<path id="Pfad_74_1_" class="st0" d="M50.9,16.2l3-1.2c0.3-0.1,0.5-0.3,0.5-0.6c0-0.1,0.1-0.3,0-0.4c0-0.2,0-0.3-0.1-0.5l-0.2-0.8
			l1.1-0.4l0.9,2.8l-8.9,3.4l-0.3-0.8l0.6-0.2c0.1,0,0.2-0.1,0.3-0.1c0.1-0.1,0.2-0.1,0.2-0.2c0.1-0.1,0.1-0.2,0.1-0.3
			c0-0.2-0.1-0.3-0.1-0.5L45.4,9c-0.1-0.2-0.1-0.3-0.3-0.5C45,8.4,45,8.3,44.8,8.3c-0.1,0-0.2-0.1-0.3,0c-0.1,0-0.2,0-0.3,0.1
			l-0.6,0.2l-0.3-0.8l8.4-3.2l1.1,2.8l-1.1,0.4L51.4,7c-0.1-0.3-0.3-0.6-0.6-0.7c-0.2-0.1-0.5-0.2-0.8,0l-2.6,1l1.4,3.8l3.6-1.4
			l0.3,0.9l-3.6,1.4L50.9,16.2z"/>
		<path id="Pfad_75_1_" class="st0" d="M64.5,13.8c-0.6,0.1-1.2,0.1-1.8,0.1c-0.4,0-0.8-0.2-1.2-0.4c-0.3-0.1-0.5-0.4-0.7-0.6
			c-0.2-0.2-0.3-0.5-0.3-0.8c0-0.2,0-0.5,0.1-0.7c0.1-0.2,0.2-0.4,0.3-0.5c0.2-0.1,0.3-0.3,0.5-0.3c0.2-0.1,0.4-0.1,0.7-0.2
			c0.1,0.4,0.2,0.8,0.3,1.2c0.1,0.3,0.3,0.6,0.6,0.8c0.2,0.2,0.5,0.3,0.8,0.4c0.3,0.1,0.6,0.1,0.9,0.1c0.3,0,0.6-0.1,0.8-0.3
			c0.2-0.1,0.4-0.3,0.6-0.5c0.1-0.2,0.3-0.4,0.3-0.6c0.1-0.2,0.1-0.5,0-0.7c0-0.3-0.1-0.5-0.3-0.7c-0.2-0.2-0.4-0.4-0.6-0.5
			c-0.3-0.2-0.6-0.3-0.9-0.4c-0.4-0.1-0.8-0.2-1.3-0.4c-0.5-0.1-1-0.3-1.5-0.5c-0.4-0.2-0.7-0.4-1-0.7c-0.3-0.2-0.5-0.5-0.6-0.8
			c-0.2-0.3-0.3-0.7-0.3-1.1c-0.1-0.5,0-0.9,0.1-1.4c0.1-0.4,0.4-0.8,0.7-1.1c0.3-0.3,0.7-0.6,1.2-0.8c0.5-0.2,1-0.4,1.5-0.5
			c0.5-0.1,1-0.1,1.5-0.1c0.4,0,0.8,0.1,1.1,0.2c0.3,0.1,0.5,0.3,0.7,0.5C66.9,2.8,67,3,67,3.3c0,0.2,0,0.4,0,0.5
			c-0.1,0.2-0.2,0.3-0.3,0.5c-0.2,0.2-0.4,0.3-0.6,0.4c-0.3,0.1-0.6,0.2-0.9,0.2c0-0.2-0.1-0.5-0.2-0.7c-0.1-0.2-0.2-0.5-0.4-0.7
			C64.5,3.3,64.2,3.1,64,3c-0.3-0.1-0.5-0.2-0.8-0.1c-0.2,0-0.4,0.1-0.6,0.2c-0.2,0.1-0.3,0.2-0.5,0.4C62,3.6,61.9,3.8,61.9,4
			c-0.1,0.2-0.1,0.4,0,0.7c0,0.2,0.1,0.4,0.2,0.6c0.1,0.2,0.3,0.4,0.5,0.5c0.3,0.2,0.6,0.3,0.9,0.5c0.5,0.2,0.9,0.3,1.4,0.4
			c0.5,0.1,1,0.3,1.5,0.5c0.4,0.2,0.7,0.4,1.1,0.6C67.6,8,67.9,8.3,68,8.6c0.2,0.3,0.3,0.7,0.3,1c0.1,0.5,0,1-0.1,1.5
			c-0.1,0.5-0.4,0.9-0.7,1.2c-0.4,0.4-0.8,0.7-1.3,0.9C65.7,13.5,65.1,13.7,64.5,13.8z"/>
		<path id="Pfad_76_1_" class="st0" d="M79.5,11.3c0,0.2,0,0.4,0,0.6c0,0.1,0.1,0.2,0.2,0.3c0.1,0.1,0.2,0.1,0.3,0.2
			c0.1,0,0.2,0.1,0.3,0.1l0.7,0.1l-0.1,0.9l-5.6-0.4l0.1-0.9l0.7,0.1c0.1,0,0.2,0,0.3,0c0.1,0,0.2-0.1,0.3-0.1
			c0.1-0.1,0.2-0.2,0.2-0.3c0.1-0.2,0.1-0.4,0.1-0.5l0.7-8.6l-1.3-0.1c-0.2,0-0.4,0-0.6,0c-0.2,0-0.3,0.1-0.4,0.2
			C75.1,2.7,75,2.8,75,2.9c-0.1,0.2-0.1,0.3-0.1,0.5l-0.2,1l-1.1-0.1l0.3-3.1L84,2l-0.2,3.1L82.7,5l0-1c0-0.2,0-0.3-0.1-0.5
			c0-0.1-0.1-0.3-0.2-0.4C82.3,3,82.2,2.9,82,2.9c-0.2-0.1-0.4-0.1-0.6-0.1l-1.3-0.1L79.5,11.3z"/>
		<path id="Pfad_77_1_" class="st0" d="M90.3,11.3l-0.9,1.2c-0.1,0.1-0.2,0.2-0.3,0.4c-0.1,0.1-0.2,0.3-0.2,0.4c0,0.1,0,0.2,0,0.3
			c0,0.1,0.1,0.2,0.1,0.2c0.1,0.1,0.1,0.1,0.2,0.2c0.1,0.1,0.2,0.1,0.2,0.1l0.6,0.2l-0.3,0.8l-4-1.3l0.3-0.8l0.2,0.1
			c0.1,0,0.3,0.1,0.4,0.1c0.1,0,0.3,0,0.4-0.1c0.1-0.1,0.3-0.2,0.4-0.3c0.2-0.1,0.3-0.3,0.4-0.5l6.2-8.1L96.2,5l0.4,10.1
			c0,0.2,0,0.4,0.1,0.6c0,0.2,0.1,0.3,0.2,0.4c0.1,0.1,0.2,0.2,0.3,0.3c0.1,0.1,0.2,0.1,0.3,0.2l0.3,0.1l-0.3,0.8l-5.1-1.6l0.3-0.8
			l0.6,0.2c0.1,0,0.2,0,0.2,0c0.1,0,0.2,0,0.2,0c0.1,0,0.2-0.1,0.2-0.1c0.1-0.1,0.1-0.2,0.1-0.3c0-0.1,0.1-0.2,0.1-0.4
			c0-0.1,0-0.2,0-0.3L94,12.5L90.3,11.3z M94,8.7c0-0.2,0-0.4,0-0.6c0-0.2,0-0.4,0-0.6s0-0.4,0-0.7c0-0.2,0-0.4,0-0.6
			c-0.1,0.1-0.2,0.3-0.3,0.5c-0.1,0.2-0.2,0.3-0.4,0.5L93,7.6c-0.1,0.2-0.3,0.3-0.4,0.5l-1.7,2.3l3.1,1L94,8.7z"/>
		<path id="Pfad_78_1_" class="st0" d="M106.3,20.3c-0.1,0.2-0.2,0.3-0.2,0.5c0,0.1,0,0.2,0,0.4c0,0.1,0.1,0.2,0.2,0.3
			c0.1,0.1,0.2,0.1,0.3,0.2l0.6,0.3l-0.4,0.7l-4.8-2.8l0.4-0.7l0.6,0.3c0.1,0.1,0.2,0.1,0.3,0.1c0.1,0,0.2,0,0.3,0
			c0.1,0,0.2-0.1,0.3-0.2c0.1-0.1,0.2-0.3,0.3-0.4l4.4-7.5l-1.1-0.7c-0.2-0.1-0.4-0.2-0.6-0.2c-0.2,0-0.3,0-0.5,0
			c-0.1,0-0.3,0.1-0.4,0.2c-0.1,0.1-0.2,0.2-0.3,0.4L105,12l-0.9-0.6l1.7-2.7l8.7,5.1l-1.5,2.8l-0.9-0.5l0.4-0.9
			c0.1-0.2,0.1-0.3,0.2-0.5c0-0.1,0-0.3,0-0.4c0-0.1-0.1-0.3-0.2-0.4c-0.1-0.1-0.3-0.3-0.5-0.4l-1.1-0.7L106.3,20.3z"/>
		<path id="Pfad_79_1_" class="st0" d="M117.6,29.2c-0.1,0.1-0.2,0.3-0.3,0.4c-0.1,0.1-0.1,0.2-0.1,0.4c0,0.1,0,0.2,0.1,0.3
			c0.1,0.1,0.1,0.2,0.2,0.2l0.5,0.5l-0.6,0.6l-4-3.9l0.6-0.6l0.5,0.5c0.1,0.1,0.2,0.1,0.3,0.2c0.1,0.1,0.2,0.1,0.3,0.1
			c0.1,0,0.2,0,0.3-0.1c0.2-0.1,0.3-0.2,0.4-0.4l6-6.3l-0.9-0.9c-0.1-0.1-0.3-0.3-0.5-0.4c-0.1-0.1-0.3-0.1-0.4-0.1
			c-0.1,0-0.3,0-0.4,0.1c-0.1,0.1-0.3,0.2-0.4,0.3l-0.8,0.6l-0.8-0.8l2.2-2.2l7.3,7l-2.1,2.3l-0.8-0.8l0.6-0.8
			c0.1-0.1,0.2-0.3,0.3-0.4c0.1-0.1,0.1-0.3,0.1-0.4c0-0.2-0.1-0.3-0.1-0.4c-0.1-0.2-0.2-0.3-0.4-0.5l-0.9-0.9L117.6,29.2z"/>
		<path id="Pfad_80_1_" class="st0" d="M124.7,39.3l1.8,2.7c0.1,0.1,0.2,0.2,0.3,0.3c0.1,0.1,0.2,0.1,0.4,0.1c0.1,0,0.3,0,0.4,0
			c0.2,0,0.3-0.1,0.5-0.2l0.7-0.3l0.6,0.9l-2.6,1.5l-5.2-8l0.7-0.5l0.4,0.6c0.1,0.1,0.1,0.2,0.2,0.3c0.1,0.1,0.2,0.1,0.3,0.1
			c0.1,0,0.2,0,0.3,0c0.2-0.1,0.3-0.1,0.5-0.2l6.6-4.3c0.2-0.1,0.3-0.2,0.4-0.4c0.1-0.1,0.1-0.2,0.2-0.3c0-0.1,0-0.2,0-0.3
			c0-0.1-0.1-0.2-0.2-0.3l-0.4-0.6l0.7-0.5l4.9,7.5l-2.5,1.7l-0.6-0.9l0.6-0.5c0.3-0.2,0.5-0.5,0.6-0.8c0.1-0.3,0-0.6-0.1-0.8
			l-1.5-2.3l-3.4,2.2l2.1,3.2l-0.8,0.5l-2.1-3.2L124.7,39.3z"/>
		<path id="Pfad_81_1_" class="st0" d="M131.9,56.9l6.4-8.9l-6.6,2.3c-0.2,0.1-0.3,0.1-0.5,0.2c-0.1,0.1-0.2,0.2-0.2,0.3
			c0,0.1-0.1,0.2-0.1,0.3c0,0.1,0,0.2,0.1,0.3l0.2,0.6l-0.8,0.3l-1.4-4l0.8-0.3l0.2,0.6c0,0.1,0.1,0.2,0.1,0.3
			c0.1,0.1,0.1,0.2,0.2,0.2c0.1,0.1,0.2,0.1,0.4,0.1c0.2,0,0.4-0.1,0.5-0.1l7.4-2.5c0.2-0.1,0.3-0.1,0.5-0.2
			c0.1-0.1,0.2-0.2,0.2-0.3c0-0.1,0.1-0.2,0-0.3c0-0.1,0-0.2-0.1-0.3l-0.2-0.6l0.8-0.3L141,48l-5.8,8.1l5.9-2
			c0.2-0.1,0.3-0.1,0.5-0.2c0.1-0.1,0.2-0.2,0.2-0.3c0-0.1,0.1-0.2,0-0.3c0-0.1,0-0.2-0.1-0.3l-0.2-0.6l0.8-0.3l1.4,4l-0.8,0.3
			l-0.2-0.6c0-0.1-0.1-0.2-0.1-0.3c-0.1-0.1-0.1-0.2-0.2-0.2c-0.1-0.1-0.2-0.1-0.4-0.1c-0.2,0-0.4,0.1-0.5,0.1l-9.1,3.1L131.9,56.9z
			"/>
	</g>
	<path id="Pfad_82_1_" class="st0" d="M95,412.1c-2.2-5.2-5-10.2-8.4-14.7c7.7-9.7,6.2-23.7-3.4-31.5c-7.7-6.2-16.8-5.6-27.4-5
		c-3.7,0.2-7.5,0.5-11.5,0.4c-1.2,0-2.2,0.9-2.2,2.1c0,0.2,0,0.3,0.1,0.5c0.9,3.8,1.4,7.6,2,11.3c1.6,10.5,2.9,19.5,10.6,25.7
		c4,3.2,8.9,4.9,14,4.9c5.4,0,10.6-1.9,14.7-5.4c3,4.1,5.5,8.6,7.5,13.3c0.5,1.1,1.8,1.6,2.9,1.1C95,414.4,95.5,413.2,95,412.1
		L95,412.1z M57.6,397.6c-6.4-5.2-7.5-12.6-9.1-23c-0.4-2.9-0.9-5.9-1.5-9c3.1,0,6.1-0.2,9.1-0.4c10.5-0.7,18-1.1,24.4,4
		c7.4,6,8.9,16.8,3.4,24.6c-5.7-6.8-12.7-12.6-20.5-16.8c-1-0.6-2.4-0.2-2.9,0.9s-0.2,2.4,0.9,2.9c7.6,4.1,14.2,9.6,19.7,16.3
		C74.3,402.9,64.5,403.1,57.6,397.6z"/>
</g>
</svg>
