<?xml version="1.0" encoding="utf-8"?>
<!-- Generator: Adobe Illustrator 25.0.0, SVG Export Plug-In . SVG Version: 6.00 Build 0)  -->
<svg version="1.1" id="Ebene_1" xmlns="http://www.w3.org/2000/svg" xmlns:xlink="http://www.w3.org/1999/xlink" x="0px" y="0px"
	 viewBox="0 0 44.3 44.2" style="enable-background:new 0 0 44.3 44.2;" xml:space="preserve">
<style type="text/css">
	.st0{fill:#FFFFFF;}
	.st1{opacity:0.764;fill:#FFFFFF;enable-background:new    ;}
	.st2{clip-path:url(#SVGID_2_);}
	.st3{fill:#1C1C1C;}
	.st4{clip-path:url(#SVGID_4_);}
	.st5{fill:#00998E;}
	.st6{fill:#1D1E1B;}
	.st7{fill:#FFFFFF;}
	.st8{fill:#009A8F;}
</style>
<path class="st0" d="M22.2,0.6c-11.8,0-21.5,9.7-21.5,21.5c0,6.2,2.7,12.1,7.3,16.2c0.4,0.4,1.1,0.3,1.5-0.1
	c0.4-0.4,0.3-1.1-0.1-1.5c-4.2-3.7-6.6-9-6.6-14.6c0-10.7,8.7-19.4,19.4-19.4c10.7,0,19.4,8.7,19.4,19.4c0,10.7-8.7,19.4-19.4,19.4
	c-2.6,0-4.2-0.5-4.8-1.3c-0.6-1.1,0.3-3,1.2-4.5l0.4,0.2c0.5,0.2,1,0.3,1.6,0.3h0c1.6,0,3-0.9,3.6-2.4l0.8-1.8c0.9-2,0-4.3-2-5.2
	l-2.7-1.2c-0.2-0.1-0.5-0.6-0.5-1.7c0.1-1.5,0.4-3,1.1-4.3c1.1-2.6,2.6-4.1,3.6-4.5c0.2-0.1,0.4-0.1,0.5,0l2.7,1.2
	c2,0.8,4.3,0,5.2-2l0.8-1.8c0.4-1,0.4-2,0.1-3c-0.4-1-1.1-1.8-2.1-2.2l-2.7-1.2c-0.6-0.2-1.1-0.4-1.8-0.4c0,0,0,0,0,0
	c-3.9,0-8.7,4.7-11.7,11.5c-1.7,3.8-2.6,7.8-2.4,11c0.1,3.3,1.3,5.6,3.3,6.4l0.4,0.2c-1.1,1.9-2.2,4.4-1,6.4
	c0.9,1.6,3.1,2.3,6.5,2.3c11.8,0,21.5-9.7,21.5-21.5C43.7,10.3,34,0.6,22.2,0.6z M27.1,7.9C27.1,7.9,27.1,7.9,27.1,7.9
	c0.4,0,0.7,0.1,1,0.2l2.7,1.2c0.5,0.2,0.8,0.6,1,1c0.2,0.5,0.2,1,0,1.4l-0.8,1.8c-0.4,0.9-1.5,1.4-2.5,1l-2.7-1.2
	c-0.3-0.1-0.6-0.2-0.9-0.2c0,0,0,0,0,0c-2.3,0-4.5,2.9-5.8,5.8c-0.8,1.6-1.2,3.3-1.3,5.1c0,1.8,0.6,3.1,1.7,3.6l2.7,1.2
	c0.9,0.4,1.4,1.5,1,2.5L22.3,33c-0.4,0.9-1.5,1.4-2.5,1l-2.7-1.2c-1.3-0.6-2-2.4-2.1-4.9c-0.1-2.8,0.7-6.3,2.3-9.8
	C19.9,12.3,24.1,7.9,27.1,7.9L27.1,7.9z"/>
</svg>
