<svg xmlns="http://www.w3.org/2000/svg" width="44" height="44" fill="none"><rect width="44" height="44" rx="6" fill="#0C9DF7"/><path d="M14.474 26.506c-.969-1.112-1.453-2.598-1.453-4.458 0-1.859.484-3.342 1.453-4.449.968-1.112 2.155-1.668 3.56-1.668 1.406 0 2.593.556 3.562 1.668.968 1.107 1.452 2.59 1.452 4.45 0 1.859-.484 3.345-1.452 4.457-.969 1.107-2.156 1.66-3.561 1.66-1.406 0-2.593-.553-3.561-1.66zm5.777-1.212c.62-.791.93-1.873.93-3.246 0-1.372-.31-2.451-.93-3.237-.614-.786-1.353-1.179-2.216-1.179-.864 0-1.605.393-2.225 1.179-.614.786-.921 1.865-.921 3.237 0 1.373.307 2.455.921 3.246.62.786 1.361 1.179 2.225 1.179.863 0 1.602-.393 2.216-1.18zm7.047-9.197h1.445V28h-1.868v-9.006H24.75v-1.279c.714-.077 1.256-.246 1.627-.506.376-.266.683-.636.921-1.112z" fill="#fff"/></svg>