<svg xmlns="http://www.w3.org/2000/svg" width="44" height="44" fill="none"><rect width="44" height="44" rx="6" fill="#0C9DF7"/><path d="M12.474 26.506c-.969-1.112-1.453-2.598-1.453-4.458 0-1.859.484-3.342 1.453-4.449.968-1.112 2.155-1.668 3.56-1.668 1.406 0 2.593.556 3.562 1.668.968 1.107 1.452 2.59 1.452 4.45 0 1.859-.484 3.345-1.452 4.457-.969 1.107-2.156 1.66-3.561 1.66-1.406 0-2.593-.553-3.561-1.66zm5.777-1.212c.62-.791.93-1.873.93-3.246 0-1.372-.31-2.451-.93-3.237-.614-.786-1.353-1.179-2.216-1.179-.864 0-1.605.393-2.225 1.179-.614.786-.921 1.865-.921 3.237 0 1.373.307 2.455.921 3.246.62.786 1.361 1.179 2.225 1.179.863 0 1.602-.393 2.216-1.18zm9.43-5.196c1.19 0 2.166.376 2.93 1.129.764.752 1.145 1.707 1.145 2.863 0 1.201-.39 2.18-1.17 2.939-.78.758-1.807 1.137-3.08 1.137a6.082 6.082 0 01-1.544-.19 5.56 5.56 0 01-1.212-.466 7.065 7.065 0 01-.821-.548 3.32 3.32 0 01-.498-.456l-.175-.208 1.196-1.187c.022.034.06.083.116.15a4.595 4.595 0 00.988.747 4.282 4.282 0 001.95.465c.681 0 1.248-.227 1.702-.681.454-.454.68-1.021.68-1.702 0-.68-.226-1.248-.68-1.701-.454-.454-1.021-.681-1.702-.681a3.18 3.18 0 00-1.344.274c-.393.183-.664.365-.814.548l-.216.282h-1.361l.34-6.715h6.882v1.701h-5.18l-.174 2.806c.453-.338 1.134-.506 2.042-.506z" fill="#fff"/></svg>