<svg xmlns="http://www.w3.org/2000/svg" width="184" height="56" fill="none"><path d="M71.22 22.16h8.663v2.196H68.81V9h10.86v2.195h-8.45v4.059h6.694v2.195H71.22v4.712zm11.523 2.196V9h6.468c1.42 0 2.598.453 3.534 1.36.935.907 1.402 2.027 1.402 3.363a4.83 4.83 0 01-.32 1.766c-.215.543-.472.971-.772 1.285-.3.315-.6.59-.9.825-.3.236-.556.396-.77.482l-.311.14 3.512 6.135h-2.634l-3.288-5.922h-3.512v5.922h-2.41zm8.256-8.834c.486-.486.728-1.086.728-1.8 0-.72-.242-1.32-.728-1.799-.478-.485-1.075-.728-1.788-.728h-4.06v5.044h4.06c.713 0 1.31-.24 1.788-.717zM97.66 9h6.136c1.464 0 2.688.482 3.673 1.446.992.956 1.489 2.124 1.489 3.501 0 1.371-.497 2.535-1.489 3.491-.985.957-2.209 1.435-3.673 1.435h-3.726v5.483h-2.41V9zm6.136 2.195h-3.726v5.483h3.726c.757 0 1.403-.26 1.938-.782.536-.528.803-1.178.803-1.949 0-.778-.267-1.431-.803-1.96a2.658 2.658 0 00-1.938-.792zm7.55 12.958a1.368 1.368 0 01-.428-.996c0-.386.143-.721.428-1.007a1.382 1.382 0 012.003 0c.285.286.428.621.428 1.007 0 .378-.143.71-.428.996a1.398 1.398 0 01-1.007.417c-.378 0-.71-.139-.996-.417zm0-8.117a1.368 1.368 0 01-.428-.996c0-.386.143-.721.428-1.007a1.382 1.382 0 012.003 0c.285.286.428.621.428 1.007 0 .378-.143.71-.428.995a1.38 1.38 0 01-1.007.429 1.37 1.37 0 01-.996-.428zm7.486 8.32L125.193 9h2.41l6.361 15.356h-2.517l-1.649-4.058h-6.8l-1.649 4.058h-2.517zm7.572-12.615l-2.528 6.361h5.044l-2.516-6.36zm17.765 4.723L150.091 9h2.088v15.356h-2.409v-11.18l-5.601 7.014-5.59-7.014v11.18h-2.409V9h2.077l5.922 7.464zM156.12 9h5.377c2.134 0 3.965.757 5.493 2.27 1.528 1.514 2.292 3.316 2.292 5.408 0 2.092-.764 3.895-2.292 5.408-1.528 1.513-3.359 2.27-5.493 2.27h-5.377V9zm5.377 2.195h-2.967v10.966h2.967c1.491 0 2.758-.528 3.801-1.585 1.042-1.064 1.563-2.363 1.563-3.898 0-1.535-.521-2.83-1.563-3.887-1.043-1.064-2.31-1.596-3.801-1.596zm-85.886 31.2c0-.47-.15-.864-.45-1.178-.3-.32-.69-.57-1.167-.75-.472-.185-.996-.35-1.575-.492a17.984 17.984 0 01-1.734-.546 8.606 8.606 0 01-1.585-.771c-.471-.3-.857-.725-1.157-1.274-.3-.557-.45-1.225-.45-2.003 0-1.185.454-2.174 1.36-2.966.907-.8 2.135-1.2 3.684-1.2.572 0 1.117.072 1.639.215.528.135.963.3 1.306.492.35.186.653.375.91.568.265.185.458.346.579.482l.171.214-1.531 1.542a3.374 3.374 0 01-.129-.14c-.05-.07-.171-.178-.364-.32a3.573 3.573 0 00-.61-.397 3.614 3.614 0 00-.857-.321 4.329 4.329 0 00-1.114-.14c-.792 0-1.431.197-1.916.59-.479.392-.718.853-.718 1.381 0 .471.15.868.45 1.189.3.321.685.575 1.156.76.479.179 1.007.343 1.585.493.578.142 1.157.321 1.735.535.579.207 1.103.46 1.574.76.478.3.868.729 1.167 1.285.3.557.45 1.221.45 1.992 0 1.357-.485 2.463-1.456 3.32-.971.857-2.313 1.285-4.026 1.285-.7 0-1.368-.082-2.003-.246-.628-.172-1.146-.371-1.553-.6a9.141 9.141 0 01-1.06-.707 4.917 4.917 0 01-.653-.589l-.214-.267 1.53-1.532c.03.043.076.107.14.193.072.078.225.221.46.428.243.2.504.379.782.536.279.15.647.289 1.103.417a5.78 5.78 0 001.468.182c.949 0 1.699-.232 2.248-.696.55-.464.825-1.038.825-1.724zm8.438-7.324c-1.099 1.099-1.648 2.445-1.648 4.037s.55 2.941 1.648 4.048c1.107 1.106 2.456 1.66 4.048 1.66 1.6 0 2.949-.554 4.048-1.66 1.107-1.107 1.66-2.456 1.66-4.048s-.553-2.938-1.66-4.037c-1.099-1.107-2.448-1.66-4.048-1.66-1.592 0-2.941.553-4.048 1.66zm-1.724 9.637c-1.556-1.527-2.334-3.394-2.334-5.6 0-2.206.778-4.073 2.334-5.6 1.557-1.529 3.48-2.293 5.772-2.293 2.299 0 4.227.764 5.783 2.292 1.556 1.528 2.335 3.395 2.335 5.6 0 2.207-.779 4.074-2.335 5.601C92.324 46.236 90.396 47 88.097 47c-2.291 0-4.215-.764-5.772-2.292zm26.837 2.078h-9.863V31.43h2.41v13.16h7.453v2.196zm4.937-3.191c.807.813 1.756 1.22 2.848 1.22 1.1 0 2.049-.41 2.849-1.231.806-.821 1.21-1.8 1.21-2.934v-9.22h2.42v9.22c0 1.756-.632 3.255-1.896 4.497-1.256 1.236-2.784 1.853-4.583 1.853-1.792 0-3.319-.621-4.583-1.863-1.256-1.242-1.885-2.738-1.885-4.487v-9.22h2.42v9.22c0 1.142.4 2.124 1.2 2.945zm11.287-12.165h11.619v2.195H132.4v13.16h-2.409v-13.16h-4.605V31.43zm13.825 15.356V31.43h2.41v15.356h-2.41zm9.532-11.715c-1.1 1.099-1.65 2.445-1.65 4.037s.55 2.941 1.65 4.048c1.106 1.106 2.455 1.66 4.047 1.66 1.599 0 2.949-.554 4.048-1.66 1.107-1.107 1.66-2.456 1.66-4.048s-.553-2.938-1.66-4.037c-1.099-1.107-2.449-1.66-4.048-1.66-1.592 0-2.941.553-4.047 1.66zm-1.725 9.637c-1.556-1.527-2.334-3.394-2.334-5.6 0-2.206.778-4.073 2.334-5.6 1.557-1.529 3.481-2.293 5.772-2.293 2.299 0 4.227.764 5.783 2.292 1.556 1.528 2.334 3.395 2.334 5.6 0 2.207-.778 4.074-2.334 5.601-1.556 1.528-3.484 2.292-5.783 2.292-2.291 0-4.215-.764-5.772-2.292zm27.607-13.278h2.41v15.356h-2.078l-8.556-11.073v11.073h-2.409V31.43h2.077l8.556 11.083V31.43z" fill="#E0E0E0"/><path d="M21.96 0H4.393A4.392 4.392 0 000 4.392v17.569a4.392 4.392 0 004.392 4.392h17.569a4.392 4.392 0 004.392-4.392V4.392A4.392 4.392 0 0021.96 0z" fill="#0621A5"/><path d="M18.67 16.435l-2.193-1.096a.604.604 0 01-.336-.543v-.776a5.254 5.254 0 00.843-1.55.911.911 0 00.535-.83v-.919a.916.916 0 00-.23-.603v-1.22c.013-.127.064-.879-.48-1.499-.472-.538-1.237-.81-2.275-.81-1.038 0-1.803.272-2.275.81-.543.62-.493 1.372-.48 1.498v1.221a.916.916 0 00-.23.603v.918c0 .28.128.54.344.714.21.833.65 1.46.804 1.662v.76a.606.606 0 01-.316.532l-2.048 1.117a2.07 2.07 0 00-1.08 1.818v.974h10.562v-.928c0-.79-.439-1.5-1.145-1.853z" fill="#fff"/><path d="M10.168 16.122l2.048-1.117a.263.263 0 00.137-.23v-.647a5.185 5.185 0 01-.766-1.586 1.253 1.253 0 01-.382-.903v-.918c0-.258.08-.51.23-.721V8.913a2.392 2.392 0 01.021-.55 3.19 3.19 0 00-1.055-.168c-2.385 0-2.524 2.033-2.525 2.067v1.05a.8.8 0 00-.23.536v.793a.82.82 0 00.301.635c.19.714.655 1.253.837 1.443v.63a.5.5 0 01-.269.44l-1.528.957a1.82 1.82 0 00-.948 1.598v.872h2.87v-.973c0-.885.482-1.697 1.259-2.121z" fill="#fff"/><path d="M21.96 29.647H4.393A4.392 4.392 0 000 34.039v17.569A4.392 4.392 0 004.392 56h17.569a4.392 4.392 0 004.392-4.392V34.039a4.392 4.392 0 00-4.392-4.392z" fill="#0C9DF7"/><path d="M16.015 36.235v11.888h-1.48v-8.879h-2.959v8.879h-1.48v-5.92h-2.96v6.66h11.84V36.235h-2.96z" fill="#fff"/><path d="M51.607 0H34.04a4.392 4.392 0 00-4.393 4.392v17.569a4.392 4.392 0 004.393 4.392h17.568A4.392 4.392 0 0056 21.96V4.392A4.392 4.392 0 0051.607 0z" fill="#0C9DF7"/><path d="M49.576 18.5l-.57-11.912h-2.773l-.602 11.913h-.904l.18-5.418h-1.462v-2.348l-3.793 2.348v-2.348l-3.974 2.348V18.5h-.541v1.264h15.17V18.5h-.73zm-11.008-1.805h-1.264v-1.264h1.264v1.264zm2.167 0h-1.264v-1.264h1.264v1.264zm2.167 0h-1.264v-1.264h1.264v1.264z" fill="#fff"/><path d="M51.607 29.647H34.04a4.392 4.392 0 00-4.393 4.392v17.569A4.392 4.392 0 0034.04 56h17.568A4.392 4.392 0 0056 51.608V34.039a4.392 4.392 0 00-4.392-4.392z" fill="#0621A5"/><path d="M39.815 43.558c.399 0 .785-.026 1.15-.074V39.48a8.855 8.855 0 00-1.15-.073c-2.28 0-4.13.838-4.13 1.872v.407c0 1.034 1.85 1.872 4.13 1.872zm0 2.092a8.84 8.84 0 001.15-.075v-1.173a8.871 8.871 0 01-1.15.074c-1.991 0-3.652-.639-4.043-1.49a.914.914 0 00-.087.384v.407c0 1.034 1.85 1.872 4.13 1.872zm1.15.934v-.091a8.854 8.854 0 01-1.15.074c-1.991 0-3.652-.64-4.043-1.49a.914.914 0 00-.087.384v.406c0 1.035 1.85 1.873 4.13 1.873.456 0 .894-.034 1.304-.096a1.477 1.477 0 01-.154-.654v-.406zm4.805-10.349c-2.28 0-4.13.839-4.13 1.873v.406c0 1.034 1.85 1.873 4.13 1.873s4.128-.839 4.128-1.873v-.406c0-1.034-1.848-1.873-4.128-1.873z" fill="#fff"/><path d="M45.77 41.304c-1.99 0-3.652-.639-4.043-1.49a.914.914 0 00-.086.385v.406c0 1.034 1.848 1.872 4.129 1.872 2.28 0 4.128-.838 4.128-1.872v-.406c0-.132-.03-.26-.086-.384-.39.85-2.052 1.49-4.042 1.49z" fill="#fff"/><path d="M45.77 43.395c-1.99 0-3.652-.639-4.043-1.49a.913.913 0 00-.086.384v.407c0 1.034 1.848 1.872 4.129 1.872 2.28 0 4.128-.838 4.128-1.872v-.407c0-.131-.03-.26-.086-.383-.39.85-2.052 1.489-4.042 1.489z" fill="#fff"/><path d="M45.77 45.599c-1.99 0-3.652-.64-4.043-1.49a.913.913 0 00-.086.384v.406c0 1.034 1.848 1.873 4.129 1.873 2.28 0 4.128-.839 4.128-1.873v-.406c0-.132-.03-.26-.086-.384-.39.85-2.052 1.49-4.042 1.49z" fill="#fff"/><path d="M45.77 47.69c-1.99 0-3.652-.64-4.043-1.49a.914.914 0 00-.086.384v.406c0 1.034 1.848 1.873 4.129 1.873 2.28 0 4.128-.839 4.128-1.873v-.406c0-.132-.03-.26-.086-.384-.39.85-2.052 1.49-4.042 1.49z" fill="#fff"/></svg>