<svg width="14" height="14" fill="none" xmlns="http://www.w3.org/2000/svg"><g clip-path="url(#clip0)"><path d="M13.922 5.73C11.67 10.5 10.938 10.5 10.5 10.5H6.192c-1.508 0-2.665-.887-2.945-2.261-.009-.042-.862-4.229-1.08-5.399-.107-.573-.38-.955-1.36-.955a.807.807 0 110-1.616c1.627 0 2.674.808 2.948 2.275.216 1.157 1.066 5.33 1.075 5.372.172.843.927.97 1.362.97h4.095c.44-.474 1.443-2.295 2.175-3.846a.809.809 0 011.46.69zm-8.268 5.309a1.346 1.346 0 100 2.692 1.346 1.346 0 000-2.692zm4.846 0a1.346 1.346 0 100 2.692 1.346 1.346 0 000-2.692zM7.895 6.647c.054.043.12.064.187.064a.297.297 0 00.186-.064c.054-.043 1.523-1.476 2.324-2.668a.3.3 0 00-.249-.468H9.145s-.117-2.31-.194-2.417c-.11-.159-.569-.266-.87-.266-.302 0-.768.107-.88.266-.076.106-.176 2.417-.176 2.417H5.81a.3.3 0 00-.25.468c.801 1.193 2.281 2.625 2.334 2.668z" fill="#0278AE"/></g><defs><clipPath id="clip0"><path fill="#fff" d="M0 0h14v14H0z"/></clipPath></defs></svg>