<svg width="80" height="29" fill="none" xmlns="http://www.w3.org/2000/svg"><path fill-rule="evenodd" clip-rule="evenodd" d="M15.79 28.392s-.344.81 1.104.462c1.447-.35 3.192-2.299 3.192-2.299 2.242-2.38 7.042-7.356 7.666-10.692 1.343-7.191-18.286-2.879-18.418-1.744-.04.348.547.225 2.49.061 1.942-.164 4.088-.123 5.342.062 1.255.184 3.218.697 3.927 1.539.708.841 1.234 1.662.81 3.304-1.31 5.055-5.496 7.37-6.112 9.307z" fill="#FFCF8B"/><path fill-rule="evenodd" clip-rule="evenodd" d="M26.883 3.318s-.01.39-1.842.185c-1.832-.206-6.962-.77-11.07-.01-4.11.759-7.064 2.154-7.47 6.135-.404 3.982 2.556 9.999 2.556 9.999s2.261 4.46 2.95 5.506c.688 1.047 1.153 1.826 1.275 2.565.121.739-.385 1.416-1.883.677-1.497-.738-2.894-2.647-3.48-3.53-.588-.882-3.461-5.89-4.737-8.598C1.907 13.537-1.088 6.889.41 3.605 1.907.322 6.744.095 7.858.055c1.113-.041 5.221-.308 11.94.862 6.72 1.17 6.902 1.888 7.085 2.401z" fill="#D39742"/><path d="M34.444 13.766c.33-.031.62-.047.871-.047.783 0 1.391.183 1.825.549.437.365.656.89.656 1.576 0 .629-.219 1.13-.656 1.506-.434.372-1.042.558-1.825.558h-2.053v-6.806h4.052v1.046h-2.87v1.618zm0 3.133c.248.019.463.028.647.028.525 0 .901-.1 1.128-.298.229-.198.343-.483.343-.855 0-.325-.104-.587-.311-.786-.208-.198-.582-.297-1.124-.297-.214 0-.441.012-.683.037v2.171zm9.527-5.797a21.376 21.376 0 01-1.43 3.83c-.572 1.166-1.122 1.964-1.65 2.395-.526.43-1.222.646-2.087.646v-1.111c.037.006.109.01.216.01.39 0 .713-.072.967-.215.254-.142.48-.358.678-.646l-2.406-4.909h1.325l1.765 3.96c.544-1.121 1.007-2.441 1.389-3.96h1.233zm7.134 6.806h-1.156l-.692-3.664-1.352 3.757h-.422l-1.362-3.757-.724 3.664H44.25l1.352-6.806h.628l1.458 4.588 1.417-4.588h.628l1.37 6.806zm2.109-5.741v1.599h2.223v1.027h-2.223v2.04h3.039v1.075h-4.232v-6.806h4.287v1.065h-3.094zm5.41 3.235v2.506H57.43v-6.806a130.04 130.04 0 011.398-.051c1.046 0 1.816.164 2.311.493.498.328.747.844.747 1.548 0 1.562-.907 2.343-2.723 2.343a5.84 5.84 0 01-.54-.033zm0-3.254v2.18c.204.019.363.028.476.028.544 0 .941-.09 1.192-.27.25-.182.376-.483.376-.901 0-.704-.56-1.056-1.683-1.056a2.45 2.45 0 00-.362.019zm8.279 5.76l-.5-1.38h-2.301l-.459 1.38H62.31l2.687-6.904h.518l2.7 6.904h-1.311zm-1.655-4.816l-.807 2.51h1.614l-.807-2.51zm7.564 4.816v-3.064H70.14v3.064h-1.192v-6.806h1.192v2.664h2.672v-2.664h1.174v6.806h-1.174zm6.74-5.741h-2.976v5.74h-1.2v-6.805h4.176v1.065z" fill="#fff"/></svg>