<svg width="20" height="20" fill="none" xmlns="http://www.w3.org/2000/svg"><path d="M17.076 2.924c-3.9-3.899-10.252-3.899-14.152 0-3.899 3.9-3.899 10.252 0 14.152 3.91 3.899 10.242 3.899 14.152 0 3.899-3.9 3.899-10.252 0-14.152zm-.729 13.423c-3.501 3.497-9.193 3.497-12.69 0-3.496-3.501-3.496-9.193 0-12.69a8.987 8.987 0 0112.69 0c3.497 3.497 3.497 9.189 0 12.69z" fill="#fff"/><path d="M12.37 10l2.711-2.712a.514.514 0 000-.728l-1.637-1.637a.514.514 0 00-.728 0L9.999 7.63 7.288 4.918a.514.514 0 00-.728 0L4.922 6.555a.514.514 0 000 .728L7.63 10l-2.713 2.71a.514.514 0 000 .729l1.637 1.637a.514.514 0 00.729 0l2.716-2.707 2.712 2.712a.514.514 0 00.728 0l1.637-1.637a.514.514 0 000-.729L12.37 10zm.707 3.982l-2.711-2.712a.514.514 0 00-.728 0l-2.712 2.712-.909-.91 2.712-2.71a.514.514 0 000-.729L6.012 6.922l.91-.91 2.71 2.712a.514.514 0 00.729 0l2.711-2.711.91.909-2.707 2.711a.514.514 0 000 .728l2.711 2.712-.909.909z" fill="#fff"/></svg>