<svg width="14" height="14" fill="none" xmlns="http://www.w3.org/2000/svg"><g clip-path="url(#clip0)" fill="#979797"><path d="M9.668 4.827l-1.095-.04-.238 6.488 1.096.04.237-6.488zm-2.12-.02H6.45v6.488h1.097V4.807zm-1.883 6.468l-.238-6.488-1.095.04.237 6.488 1.096-.04z"/><path d="M.475 2.102v1.096h1.143L2.524 13.5c.025.283.262.5.546.5h7.84a.548.548 0 00.547-.5l.907-10.302h1.16V2.102H.476zm9.934 10.802H3.572L2.72 3.197h8.544l-.854 9.705z"/><path d="M8.791 0H5.209a.915.915 0 00-.914.914V2.65h1.097V1.097h3.216V2.65h1.097V.914A.915.915 0 008.79 0z"/></g><defs><clipPath id="clip0"><path fill="#fff" d="M0 0h14v14H0z"/></clipPath></defs></svg>