<svg width="20" height="20" fill="none" xmlns="http://www.w3.org/2000/svg"><g clip-path="url(#clip0)" fill="#0278AE"><path d="M16.408 3.841a2.36 2.36 0 00-1.6-1.702 2.352 2.352 0 00-2.284.489l-.998.881 4.782 1.74a2.36 2.36 0 00.1-1.408zM10.9 2.036A2.374 2.374 0 009.463.186a2.36 2.36 0 00-2.32.275 2.373 2.373 0 00-.828 1.151l4.782 1.741-.197-1.317zM8.414 9.862V20h1.172v-9.711l-1.172-.427zm-6.448-.375a.586.586 0 00-.586.587v8.167c0 .97.789 1.759 1.759 1.759h4.103V9.487H1.966zm8.794 1.229V20h4.103a1.76 1.76 0 001.758-1.759V12.85l-5.862-2.133zm-.344-6.364L8.812 8.76l1.102.4 1.604-4.406-1.102-.4zm7.161 2.607l-4.958-1.805-1.604 4.407 6.06 2.205a.585.585 0 00.75-.35l.803-2.203a1.757 1.757 0 00-1.051-2.254zM4.357 2.147a1.757 1.757 0 00-2.255 1.051l-.801 2.204a.585.585 0 00.35.75l6.06 2.206 1.603-4.406-4.957-1.805z"/></g><defs><clipPath id="clip0"><path fill="#fff" d="M0 0h20v20H0z"/></clipPath></defs></svg>