<svg width="100" height="100" fill="none" xmlns="http://www.w3.org/2000/svg"><g clip-path="url(#clip0)" fill="#0278AE"><path d="M96.375 3.172h-1.707V1.465a1.465 1.465 0 00-2.93 0v1.707H90.03a1.465 1.465 0 000 2.93h1.708V7.81a1.465 1.465 0 002.93 0V6.102h1.707a1.465 1.465 0 100-2.93zM11.769 88.024H10.06v-1.707a1.465 1.465 0 10-2.93 0v1.707H5.424a1.465 1.465 0 000 2.93H7.13v1.708a1.465 1.465 0 002.93 0v-1.708h1.708a1.465 1.465 0 000-2.93zM84.532 16.44a1.49 1.49 0 10-.477-2.942 1.49 1.49 0 00.477 2.943zM33.895 43.938a1.465 1.465 0 002.93 0 5.286 5.286 0 00-5.28-5.28 5.286 5.286 0 00-5.28 5.28 1.465 1.465 0 002.93 0 2.353 2.353 0 012.35-2.35 2.353 2.353 0 012.35 2.35zm28.052 0a2.353 2.353 0 012.35-2.35 2.353 2.353 0 012.35 2.35 1.465 1.465 0 102.93 0 5.286 5.286 0 00-5.28-5.28 5.286 5.286 0 00-5.28 5.28 1.465 1.465 0 102.93 0zM39.126 60.08c4.634 4.692 13.196 5.012 18.152-.015a12.929 12.929 0 003.948-9.346c0-.809-.656-1.465-1.465-1.465H36.624c-.809 0-1.465.656-1.465 1.465a12.951 12.951 0 003.967 9.36zm8.618.733c-1.668-.09-3.525-.552-5.242-1.748a10.72 10.72 0 015.69-1.634c2.028 0 3.997.572 5.693 1.635-1.669 1.107-3.693 1.862-6.14 1.746zm10.448-8.629a9.972 9.972 0 01-2.1 4.838 13.64 13.64 0 00-15.797-.002 10 10 0 01-2.101-4.836h19.998z"/><path d="M48.117 8.087c-6.55 0-12.877 1.35-18.805 4.011A45.796 45.796 0 0014.258 22.97a1.465 1.465 0 002.158 1.981 42.88 42.88 0 0114.096-10.18c5.548-2.49 11.472-3.754 17.605-3.754 11.493 0 22.298 4.476 30.424 12.603 8.127 8.126 12.603 18.931 12.603 30.424 0 11.493-4.476 22.298-12.603 30.425C70.415 92.595 59.61 97.07 48.117 97.07c-11.493 0-22.298-4.475-30.425-12.602C9.566 76.341 5.09 65.536 5.09 54.043c0-8.544 2.498-16.8 7.225-23.874a1.465 1.465 0 00-2.436-1.627C4.83 36.099 2.16 44.917 2.16 54.043c0 12.276 4.78 23.817 13.46 32.497S35.841 100 48.117 100c12.275 0 23.816-4.78 32.496-13.46 8.68-8.68 13.46-20.221 13.46-32.497 0-12.275-4.78-23.816-13.46-32.496-8.68-8.68-20.22-13.46-32.496-13.46z"/><path d="M75.984 75.999a1.465 1.465 0 002.045-.327c4.578-6.32 6.998-13.8 6.998-21.629 0-20.352-16.558-36.91-36.91-36.91-20.353 0-36.91 16.558-36.91 36.91 0 20.353 16.557 36.91 36.91 36.91a36.796 36.796 0 0025.05-9.801A1.465 1.465 0 1071.178 79a33.876 33.876 0 01-23.061 9.024c-18.737 0-33.981-15.243-33.981-33.98 0-18.738 15.244-33.981 33.98-33.981 18.738 0 33.981 15.243 33.981 33.98 0 7.208-2.227 14.093-6.44 19.91A1.465 1.465 0 0075.984 76z"/><path d="M71.494 57.968c3.98 0 7.099-2.076 7.099-4.726s-3.118-4.726-7.1-4.726c-3.98 0-7.097 2.076-7.097 4.726s3.117 4.726 7.098 4.726zm-3.25-5.764c.833-.482 2.017-.758 3.25-.758s2.418.277 3.25.758c.567.328.92.726.92 1.038 0 .313-.353.71-.92 1.039-.832.481-2.017.758-3.25.758s-2.417-.277-3.25-.758c-.567-.329-.919-.727-.919-1.039 0-.312.352-.71.92-1.038zM24.74 48.516c-3.98 0-7.098 2.076-7.098 4.726s3.118 4.726 7.098 4.726 7.099-2.076 7.099-4.726-3.118-4.726-7.099-4.726zm3.25 5.765c-.832.481-2.017.758-3.25.758s-2.417-.277-3.25-.758c-.567-.329-.919-.727-.919-1.039 0-.312.352-.71.92-1.038.832-.482 2.016-.758 3.249-.758s2.417.277 3.25.758c.567.328.919.726.919 1.038 0 .313-.352.71-.92 1.039z"/></g><defs><clipPath id="clip0"><path fill="#fff" d="M0 0h100v100H0z"/></clipPath></defs></svg>