<svg width="20" height="20" fill="none" xmlns="http://www.w3.org/2000/svg"><path d="M5.313 8.203a1.76 1.76 0 00-1.758 1.758v4.766c0 .969.788 1.757 1.757 1.757a1.76 1.76 0 001.758-1.757V9.96a1.76 1.76 0 00-1.758-1.758zM2.383 9.96c0-.168.022-.331.05-.493a1.754 1.754 0 00-1.222 1.666v2.422c0 .78.516 1.437 1.222 1.665a2.908 2.908 0 01-.05-.494V9.962zm12.305-1.757a1.76 1.76 0 00-1.758 1.758v4.766c0 .969.788 1.757 1.758 1.757.176 0 .342-.034.503-.082a1.754 1.754 0 01-1.675 1.254H11.65A1.755 1.755 0 0010 16.484a1.76 1.76 0 00-1.758 1.758c0 .97.789 1.758 1.758 1.758.763 0 1.407-.491 1.65-1.172h1.866a2.933 2.933 0 002.93-2.93V9.961a1.76 1.76 0 00-1.759-1.758zm2.879 1.264c.027.162.05.325.05.494v4.765c0 .17-.023.333-.05.494a1.754 1.754 0 001.222-1.665v-2.422c0-.781-.516-1.437-1.222-1.666z" fill="#0278AE"/><path d="M10 0C5.153 0 1.21 3.942 1.21 8.79v.014c.35-.264.754-.458 1.2-.544.274-3.953 3.569-7.088 7.59-7.088s7.317 3.135 7.59 7.088c.446.086.85.28 1.2.544v-.015C18.79 3.943 14.846 0 10 0z" fill="#0278AE"/></svg>