<svg width="20" height="20" fill="none" xmlns="http://www.w3.org/2000/svg"><g clip-path="url(#clip0)" fill="#0278AE"><path d="M19.883 7.266l-1.049-1.399-.583 4.083c-.053.373-.23.727-.497.994l-7.182 7.181a3.298 3.298 0 01-2.348.972c-.265 0-.525-.032-.777-.091.382.597 1.05.994 1.811.994h8.594A2.15 2.15 0 0020 17.852V7.617a.586.586 0 00-.117-.351zm-7.792 2.469a.586.586 0 100-1.172.586.586 0 000 1.171zm-6.629 0a.586.586 0 100-1.172.586.586 0 000 1.171z"/><path d="M9.744 17.297l7.181-7.182a.586.586 0 00.166-.331l.829-5.8a.586.586 0 00-.166-.498l-1.243-1.243L14.854 3.9l.414.415a.586.586 0 11-.829.828l-1.657-1.657a.586.586 0 01.829-.829l.414.415 1.657-1.658L14.44.172a.587.587 0 00-.498-.166l-5.8.828A.586.586 0 007.81 1L.63 8.182a2.15 2.15 0 000 3.038l6.076 6.077c.42.419.97.628 1.52.628s1.1-.21 1.519-.628zm2.348-9.906c.969 0 1.757.788 1.757 1.758a1.76 1.76 0 01-1.757 1.757 1.76 1.76 0 01-1.758-1.758c0-.969.788-1.757 1.758-1.757zm-6.63 3.515a1.76 1.76 0 01-1.757-1.758 1.759 1.759 0 013.515.001 1.76 1.76 0 01-1.758 1.757zm1.934 2.972a.585.585 0 01-.556-.772L9.602 4.82a.586.586 0 011.112.37l-2.762 8.287a.586.586 0 01-.556.4z"/><path d="M17.754 1a.586.586 0 00-.829-.828l-1.243 1.243.829.828L17.754 1z"/></g><defs><clipPath id="clip0"><path fill="#fff" d="M0 0h20v20H0z"/></clipPath></defs></svg>