<svg width="58" height="58" viewBox="0 0 58 58" fill="none" xmlns="http://www.w3.org/2000/svg">
<g clip-path="url(#clip0)">
<path d="M32.8441 30.904C33.6074 28.2397 32.8702 25.3276 30.8922 23.3496C28.9142 21.3716 26.0021 20.6339 23.3378 21.3977L19.2398 17.2997C19.0495 17.1094 18.7814 17.0191 18.5146 17.0563C18.2477 17.093 18.0141 17.2528 17.8827 17.4878L10.8871 29.9858L3.59205 37.2813C2.95617 37.9172 2.60571 38.7624 2.60571 39.662C2.60571 40.5611 2.95617 41.4068 3.59205 42.0426L12.1996 50.6502C12.8558 51.3064 13.7178 51.6347 14.5803 51.6347C15.2095 51.6347 15.8383 51.4591 16.3874 51.1095L18.3119 52.4348C18.7022 52.7038 19.2376 52.6056 19.5066 52.2149C19.7757 51.8241 19.6775 51.2887 19.2863 51.0197L17.6906 49.9205L21.2833 46.3283L25.7866 49.4302C25.788 49.4311 25.7889 49.432 25.7897 49.4329C25.7906 49.4333 25.7915 49.4333 25.7924 49.4342L30.1798 52.4565C30.3825 52.5959 30.4289 52.7932 30.4387 52.8985C30.448 53.0034 30.4382 53.2061 30.2643 53.38L27.5394 56.1049C27.3332 56.3107 27.0102 56.3403 26.7708 56.1753L21.2634 52.3817C20.8722 52.1122 20.3372 52.2109 20.0682 52.6016C19.7991 52.9923 19.8978 53.5273 20.2885 53.7964L25.7959 57.5904C26.1951 57.8652 26.6548 58.0001 27.1119 58.0001C27.7106 58.0001 28.3054 57.7691 28.7541 57.32L31.4794 54.5946C31.9684 54.1061 32.2127 53.4309 32.1498 52.7419C32.0865 52.0533 31.7241 51.4338 31.1546 51.0413L27.4296 48.4757C28.5394 46.3424 28.4748 43.7445 27.2703 41.6683L36.7545 36.36C36.989 36.2286 37.1488 35.9945 37.1859 35.7281C37.2227 35.4613 37.1328 35.1931 36.9426 35.0029L32.8441 30.904ZM29.6771 24.5647C30.9719 25.8594 31.5812 27.6697 31.3856 29.4455L24.7963 22.8566C26.5721 22.6606 28.3824 23.2699 29.6771 24.5647ZM13.4143 49.4351L4.80672 40.8275C4.49564 40.5164 4.32395 40.1023 4.32395 39.662C4.32395 39.2217 4.49564 38.8075 4.80716 38.496L11.5788 31.7244L22.5179 42.663L15.7458 49.4351C15.1033 50.0776 14.0572 50.0776 13.4143 49.4351ZM26.0008 47.4907L22.5188 45.0924L24.2565 43.3546L25.7716 42.5068C26.6615 44.0202 26.7455 45.9061 26.0008 47.4907ZM23.8808 41.5957L12.6461 30.3615L18.8274 19.3175L34.9243 35.4144L23.8808 41.5957Z" fill="#0278AE"/>
<path d="M12.3102 36.1002C11.9748 35.7643 11.431 35.7643 11.0951 36.1002L7.20725 39.9876C6.87183 40.3234 6.87183 40.8673 7.20725 41.2027C7.3754 41.3704 7.59533 41.4545 7.81481 41.4545C8.03474 41.4545 8.25466 41.3704 8.42237 41.2027L12.3102 37.3148C12.6456 36.9794 12.6456 36.4356 12.3102 36.1002Z" fill="#0278AE"/>
<path d="M14.5586 38.3481C14.2228 38.0127 13.6789 38.0127 13.3435 38.3481L9.45567 42.236C9.12025 42.5714 9.12025 43.1157 9.45567 43.4511C9.62338 43.6188 9.8433 43.7024 10.0632 43.7024C10.2831 43.7024 10.5031 43.6188 10.6708 43.4511L14.5586 39.5632C14.8941 39.2278 14.8941 38.6835 14.5586 38.3481Z" fill="#0278AE"/>
<path d="M16.8063 40.5964C16.4709 40.261 15.9271 40.261 15.5916 40.5964L11.7038 44.4843C11.3679 44.8197 11.3679 45.3635 11.7038 45.6989C11.8715 45.8666 12.0914 45.9507 12.3114 45.9507C12.5313 45.9507 12.7512 45.8671 12.9189 45.6989L16.8068 41.8111C17.1422 41.4757 17.1422 40.9318 16.8063 40.5964Z" fill="#0278AE"/>
<path d="M22.5908 18.1795C22.6187 18.1795 22.6466 18.1782 22.6753 18.1755C23.1475 18.1295 23.4931 17.7091 23.4466 17.237C23.444 17.206 23.1466 14.1009 23.3338 10.8476C23.5586 6.93191 24.4135 4.40698 25.6791 3.92022C26.9442 3.43347 27.2951 3.86801 28.1372 5.78848C28.7788 7.2514 29.5766 9.07142 31.6998 9.07142C33.784 9.07142 35.0602 7.13281 36.2943 5.25791L36.458 5.00923C36.7196 4.61318 36.6103 4.08041 36.2147 3.81889C35.8186 3.55781 35.2858 3.66667 35.0239 4.06227L34.8588 4.31317C33.83 5.87654 32.8578 7.35362 31.6998 7.35362C30.7984 7.35362 30.3829 6.63145 29.7112 5.09861C29.0284 3.54144 27.9965 1.18775 25.0622 2.31658C23.0258 3.09982 21.8992 5.85795 21.6182 10.749C21.4235 14.1341 21.7239 17.2719 21.7368 17.4038C21.7797 17.8476 22.1536 18.1795 22.5908 18.1795Z" fill="#0278AE"/>
<path d="M51.049 20.5025C53.0704 19.1719 55.3617 17.6638 55.3617 15.0734C55.3617 13.6401 54.6364 12.6149 53.2062 12.0268C52.1177 11.579 50.7278 11.4307 49.3843 11.2873C47.6909 11.1064 45.9404 10.9196 45.1912 10.1705C44.442 9.42132 44.2549 7.67033 44.0743 5.97732C43.931 4.63344 43.7827 3.24398 43.3349 2.15499C42.7464 0.725261 41.7215 0 40.2878 0C38.9391 0 37.7222 0.639416 36.5682 1.95498C36.2553 2.31163 36.2907 2.85458 36.6474 3.16743C37.004 3.48028 37.547 3.44488 37.8598 3.08822C38.6908 2.14083 39.44 1.71824 40.2878 1.71824C41.7335 1.71824 42.0432 3.14044 42.3658 6.15963C42.5782 8.14956 42.7977 10.2072 43.9761 11.3856C45.154 12.564 47.2121 12.7834 49.2016 12.9958C52.2208 13.318 53.6434 13.6282 53.6434 15.0734C53.6434 16.7376 51.9243 17.8691 50.1039 19.067C48.229 20.3011 46.2899 21.5777 46.2899 23.6619C46.2899 25.7846 48.1099 26.5829 49.5729 27.2241C51.4933 28.0661 51.9279 28.4175 51.4411 29.6826C51.0667 30.6557 49.4693 31.4022 46.9426 31.7845C46.4736 31.8553 46.151 32.2934 46.2218 32.7624C46.2864 33.1881 46.6523 33.4934 47.0701 33.4934C47.113 33.4934 47.1563 33.4899 47.1997 33.4837C50.5012 32.9841 52.4133 31.9425 53.0452 30.2995C54.1735 27.3652 51.8203 26.3333 50.2627 25.6505C48.7303 24.9784 48.0082 24.5633 48.0082 23.6619C48.0082 22.5039 49.4852 21.5317 51.049 20.5025Z" fill="#0278AE"/>
<path d="M44.6048 32.0226C41.3241 32.2195 38.1562 31.9177 38.1244 31.9146C37.6526 31.8686 37.2323 32.2142 37.1862 32.6864C37.1402 33.1585 37.4854 33.5789 37.9575 33.6249C38.0584 33.6347 39.878 33.8086 42.2228 33.8086C43.0074 33.8086 43.8508 33.7891 44.7084 33.7378C45.1819 33.709 45.5425 33.3019 45.5142 32.8284C45.4859 32.3549 45.0792 31.9943 44.6048 32.0226Z" fill="#0278AE"/>
<path d="M36.2987 16.7111V14.2472C36.2987 13.4348 36.0429 12.8201 35.5385 12.421C35.0942 12.0692 34.4694 11.8909 33.6817 11.8909C32.8879 11.8909 32.2608 12.0692 31.8188 12.421C31.3187 12.8188 31.0652 13.433 31.0652 14.2472V16.7111C31.0652 17.5253 31.3187 18.1395 31.8188 18.5373C32.2608 18.8891 32.8879 19.0674 33.6817 19.0674C34.4694 19.0674 35.0942 18.8891 35.5385 18.5377C36.0429 18.1382 36.2987 17.5235 36.2987 16.7111ZM33.6817 17.5293C33.1273 17.5293 32.8458 17.254 32.8458 16.7111V14.2472C32.8458 13.7043 33.1273 13.429 33.6817 13.429C34.2402 13.429 34.5349 13.7118 34.5349 14.2472V16.7111C34.5353 17.2465 34.2402 17.5293 33.6817 17.5293Z" fill="#0278AE"/>
<path d="M40.6392 11.1794C40.3002 11.1794 40.0298 11.3405 39.8975 11.6211L33.8078 24.1307C33.7516 24.2426 33.7197 24.3652 33.7197 24.4665C33.7197 24.9174 34.1158 25.4002 34.7056 25.4002C35.0517 25.4002 35.3778 25.2188 35.499 24.9586L41.606 12.4494C41.6649 12.3322 41.6773 12.2021 41.6773 12.1131C41.6773 11.5547 41.1405 11.1794 40.6392 11.1794Z" fill="#0278AE"/>
<path d="M39.0284 19.8339V22.2977C39.0284 23.112 39.2824 23.7266 39.7825 24.1244C40.2245 24.4762 40.8516 24.6545 41.6454 24.6545C42.4331 24.6545 43.0579 24.4762 43.5022 24.1244C44.0066 23.7248 44.2624 23.1106 44.2624 22.2977V19.8343C44.2624 19.0214 44.0066 18.4072 43.5022 18.0077C43.0579 17.6559 42.4331 17.4775 41.6454 17.4775C40.8516 17.4775 40.2245 17.6559 39.7825 18.0077C39.2824 18.4055 39.0284 19.0197 39.0284 19.8339ZM42.4986 22.2977C42.4986 22.8332 42.2039 23.1164 41.6454 23.1164C41.091 23.1164 40.8095 22.8407 40.8095 22.2977V19.8339C40.8095 19.2909 41.091 19.0157 41.6454 19.0157C42.2039 19.0157 42.4986 19.2984 42.4986 19.8339V22.2977Z" fill="#0278AE"/>
</g>
<defs>
<clipPath id="clip0">
<rect width="58" height="58" fill="white"/>
</clipPath>
</defs>
</svg>
