<svg width="58" height="58" viewBox="0 0 58 58" fill="none" xmlns="http://www.w3.org/2000/svg">
<g clip-path="url(#clip0)">
<path d="M50.3729 19.3191C49.9153 18.6378 49.4832 17.9943 49.3211 17.3874C49.1479 16.7397 49.1996 15.9412 49.2545 15.0959C49.3365 13.8337 49.4211 12.5285 48.7761 11.4137C48.121 10.2815 46.9383 9.70073 45.7945 9.13897C45.0431 8.76989 44.3334 8.42133 43.8723 7.96027C43.4113 7.49922 43.0627 6.78951 42.6937 6.038C42.132 4.89432 41.5512 3.71155 40.419 3.05655C39.3042 2.41153 37.9991 2.49615 36.7368 2.57805C35.8913 2.633 35.0928 2.68465 34.4451 2.51156C33.8381 2.34934 33.1947 1.91717 32.5134 1.45974C31.4948 0.775523 30.34 0 29 0C27.6601 0 26.5053 0.775523 25.4865 1.45963C24.8052 1.91717 24.1616 2.34934 23.5547 2.51156C22.907 2.68465 22.1085 2.633 21.263 2.57805C20.0008 2.49615 18.6957 2.41153 17.5809 3.05655C16.4488 3.71166 15.868 4.89432 15.3062 6.038C14.9371 6.7894 14.5886 7.49922 14.1276 7.96027C13.6666 8.42133 12.9569 8.76989 12.2054 9.13885C11.0616 9.7005 9.87891 10.2814 9.22391 11.4135C8.57889 12.5285 8.66351 13.8336 8.74541 15.0957C8.80024 15.9411 8.85201 16.7396 8.67892 17.3874C8.5167 17.9944 8.08453 18.6379 7.62699 19.3192C6.94288 20.3381 6.16736 21.4927 6.16736 22.8327C6.16736 24.1727 6.94288 25.3274 7.62699 26.3463C8.08453 27.0275 8.5167 27.6711 8.67892 28.2781C8.85201 28.9259 8.80024 29.7244 8.74541 30.5697C8.66362 31.8319 8.57889 33.137 9.22391 34.2518C9.87902 35.384 11.0617 35.9648 12.2054 36.5265C12.9568 36.8956 13.6666 37.2442 14.1276 37.7052C14.5887 38.1663 14.9373 38.876 15.3062 39.6275C15.8679 40.7713 16.4488 41.9539 17.5809 42.6089C18.6958 43.254 20.0009 43.1692 21.2631 43.0874C21.509 43.0715 21.7502 43.0565 21.9857 43.0465V56.2231C21.9857 56.8466 22.3034 57.4129 22.8353 57.738C23.1208 57.9124 23.4398 58.0002 23.76 58.0002C24.0365 58.0002 24.3139 57.9347 24.5709 57.8029L28.9633 55.5513C28.9862 55.5394 29.0137 55.5395 29.0364 55.5513L33.4288 57.8029C33.9835 58.0872 34.6324 58.0631 35.1645 57.7379C35.6964 57.4128 36.014 56.8465 36.014 56.223V51.0158C36.014 50.5476 35.6345 50.1681 35.1663 50.1681C34.6981 50.1681 34.3187 50.5476 34.3187 51.0158V56.223C34.3187 56.2363 34.3187 56.2678 34.2804 56.2913C34.242 56.3148 34.214 56.3003 34.202 56.2942L29.8095 54.0425C29.3026 53.7828 28.6971 53.7828 28.1898 54.0425L23.7972 56.2942C23.7853 56.3003 23.7573 56.3145 23.719 56.2913C23.6808 56.2678 23.6808 56.2363 23.6808 56.223V43.1939C24.2506 43.3784 24.8517 43.7796 25.4861 44.2056C26.505 44.8897 27.6596 45.6653 28.9996 45.6653C30.3397 45.6653 31.4944 44.8897 32.5132 44.2056C33.1476 43.7796 33.7487 43.3784 34.3185 43.1939V47.0944C34.3185 47.5626 34.698 47.9421 35.1662 47.9421C35.6344 47.9421 36.0139 47.5626 36.0139 47.0944V43.0463C36.2494 43.0563 36.4906 43.0712 36.7366 43.0872C37.9988 43.1691 39.3039 43.2536 40.4187 42.6087C41.5509 41.9537 42.1317 40.7711 42.6933 39.6274C43.0624 38.8759 43.411 38.1662 43.8721 37.7051C44.3332 37.244 45.0429 36.8955 45.7943 36.5264C46.9381 35.9648 48.1207 35.384 48.7758 34.2517C49.4209 33.1368 49.3361 31.8317 49.2542 30.5694C49.1994 29.7241 49.1476 28.9256 49.3207 28.2778C49.4829 27.6709 49.9152 27.0274 50.3727 26.3462C51.0569 25.3273 51.8324 24.1725 51.8324 22.8326C51.8326 21.4926 51.0571 20.3378 50.3729 19.3191ZM48.9655 25.4011C48.4507 26.1676 47.9184 26.9603 47.6831 27.8401C47.4381 28.7572 47.5014 29.7343 47.5628 30.6793C47.6314 31.7355 47.696 32.7332 47.3087 33.4028C46.9115 34.0892 46.006 34.5339 45.0473 35.0047C44.2048 35.4184 43.3337 35.8463 42.6737 36.5062C42.0136 37.1662 41.5858 38.0375 41.1719 38.8801C40.7012 39.8388 40.2565 40.7442 39.5701 41.1414C38.9005 41.5286 37.9029 41.4639 36.8468 41.3955C35.9018 41.3342 34.9246 41.2707 34.0075 41.5159C33.1277 41.751 32.335 42.2834 31.5684 42.7982C30.6711 43.4008 29.8237 43.97 29 43.97C28.1764 43.97 27.329 43.4009 26.4317 42.7982C25.6651 42.2834 24.8724 41.751 23.9925 41.5159C23.489 41.3813 22.9674 41.3397 22.4429 41.3397C22.0121 41.3397 21.5794 41.3677 21.1532 41.3955C20.097 41.4639 19.0993 41.5287 18.4297 41.1414C17.7433 40.7442 17.2986 39.8386 16.8278 38.8801C16.4141 38.0375 15.9862 37.1663 15.3263 36.5064C14.6663 35.8464 13.7952 35.4185 12.9526 35.0048C11.9939 34.534 11.0884 34.0893 10.6912 33.4029C10.3039 32.7334 10.3686 31.7357 10.4372 30.6795C10.4984 29.7345 10.5618 28.7574 10.3166 27.8403C10.0815 26.9605 9.54914 26.1677 9.03428 25.4012C8.43174 24.5039 7.8625 23.6564 7.8625 22.8329C7.8625 22.0093 8.43162 21.1618 9.03428 20.2645C9.54914 19.4979 10.0815 18.7051 10.3166 17.8254C10.5618 16.9082 10.4983 15.9312 10.4372 14.9862C10.3686 13.93 10.3039 12.9323 10.6912 12.2627C11.0884 11.5763 11.994 11.1316 12.9526 10.6608C13.7952 10.2471 14.6663 9.81922 15.3263 9.15924C15.9862 8.49926 16.4141 7.62813 16.8278 6.78566C17.2986 5.82696 17.7433 4.92139 18.4297 4.52423C19.0991 4.13692 20.0968 4.2016 21.1531 4.27014C22.0981 4.33142 23.0753 4.39497 23.9923 4.14972C24.8721 3.91455 25.6649 3.38224 26.4314 2.86738C27.329 2.26449 28.1764 1.69537 29 1.69537C29.8237 1.69537 30.671 2.26449 31.5684 2.86715C32.335 3.38201 33.1276 3.91432 34.0075 4.14949C34.9245 4.39463 35.9016 4.3312 36.8466 4.26991C37.9027 4.20138 38.9004 4.13658 39.5701 4.524C40.2565 4.92116 40.7014 5.82673 41.1721 6.78543C41.5859 7.62791 42.0136 8.49915 42.6736 9.15902C43.3337 9.81899 44.2048 10.2469 45.0473 10.6606C46.006 11.1314 46.9116 11.5761 47.3087 12.2625C47.696 12.932 47.6314 13.9296 47.5628 14.986C47.5014 15.9309 47.4381 16.908 47.6832 17.8251C47.9183 18.7049 48.4507 19.4976 48.9656 20.2642C49.5681 21.1615 50.1374 22.009 50.1374 22.8326C50.1373 23.6562 49.5681 24.5038 48.9655 25.4011Z" fill="#0278AE"/>
<path d="M29 6.65845C26.1714 6.65845 23.3873 7.39965 20.9487 8.80184C20.5428 9.0352 20.403 9.55335 20.6363 9.95923C20.8698 10.3651 21.3878 10.5049 21.7937 10.2716C23.9755 9.01685 26.4675 8.35381 29 8.35381C36.9837 8.35381 43.4788 14.849 43.4788 22.8326C43.4788 30.8162 36.9837 37.3114 29 37.3114C21.0163 37.3114 14.5212 30.8162 14.5212 22.8326C14.5212 18.9652 16.0273 15.3292 18.7573 12.5991L18.8692 12.4891C19.2028 12.1606 19.207 11.624 18.8784 11.2904C18.5498 10.9568 18.0132 10.9527 17.6797 11.2811L17.5634 11.3958C14.5084 14.4507 12.826 18.5124 12.826 22.8326C12.826 31.7511 20.0817 39.0068 29.0002 39.0068C37.9186 39.0068 45.1744 31.7511 45.1744 22.8326C45.1742 13.9141 37.9184 6.65845 29 6.65845Z" fill="#0278AE"/>
<path d="M18.4505 26.9622C18.9187 26.9622 19.2982 26.5827 19.2982 26.1146V19.5508C19.2982 19.0826 18.9187 18.7031 18.4505 18.7031H17.0476C16.5794 18.7031 16.2 19.0826 16.2 19.5508C16.2 20.019 16.5794 20.3985 17.0476 20.3985H17.6028V26.1146C17.6029 26.5827 17.9824 26.9622 18.4505 26.9622Z" fill="#0278AE"/>
<path d="M39.1954 18.2472C38.7638 18.066 38.267 18.269 38.0857 18.7007L34.8929 26.3085C34.7118 26.7402 34.9149 27.2369 35.3466 27.4182C35.4538 27.4632 35.5649 27.4845 35.6743 27.4845C36.0054 27.4845 36.3201 27.2891 36.4563 26.9646L39.6491 19.3569C39.8303 18.9252 39.6272 18.4284 39.1954 18.2472Z" fill="#0278AE"/>
<path d="M34.7148 20.9963C35.3361 20.9963 35.8397 20.4927 35.8397 19.8715C35.8397 19.2502 35.3361 18.7466 34.7148 18.7466C34.0936 18.7466 33.59 19.2502 33.59 19.8715C33.59 20.4927 34.0936 20.9963 34.7148 20.9963Z" fill="#0278AE"/>
<path d="M39.9993 26.9091C40.6124 26.8097 41.0289 26.232 40.9295 25.6188C40.8301 25.0056 40.2525 24.5891 39.6393 24.6885C39.0261 24.7879 38.6096 25.3656 38.709 25.9788C38.8084 26.592 39.3861 27.0085 39.9993 26.9091Z" fill="#0278AE"/>
<path d="M23.0329 27.0961C24.5469 27.0961 25.7787 25.8643 25.7787 24.3503V21.3148C25.7787 19.8008 24.5469 18.5691 23.0329 18.5691C21.5189 18.5691 20.2872 19.8008 20.2872 21.3148V24.3503C20.2872 25.8644 21.5189 27.0961 23.0329 27.0961ZM21.9826 21.3149C21.9826 20.7357 22.4537 20.2646 23.0329 20.2646C23.6122 20.2646 24.0833 20.7357 24.0833 21.3149V24.3504C24.0833 24.9296 23.6122 25.4009 23.0329 25.4009C22.4537 25.4009 21.9826 24.9296 21.9826 24.3504V21.3149Z" fill="#0278AE"/>
<path d="M32.3155 24.3504V21.3149C32.3155 19.8009 31.0837 18.5692 29.5697 18.5692C28.0557 18.5692 26.824 19.8009 26.824 21.3149V24.3504C26.824 25.8644 28.0557 27.0962 29.5697 27.0962C31.0837 27.0961 32.3155 25.8644 32.3155 24.3504ZM28.5193 24.3504V21.3149C28.5193 20.7357 28.9905 20.2646 29.5697 20.2646C30.1489 20.2646 30.6201 20.7357 30.6201 21.3149V24.3504C30.6201 24.9296 30.149 25.4009 29.5697 25.4009C28.9906 25.4008 28.5193 24.9295 28.5193 24.3504Z" fill="#0278AE"/>
</g>
<defs>
<clipPath id="clip0">
<rect width="58" height="58" fill="white"/>
</clipPath>
</defs>
</svg>
