<svg width="58" height="58" viewBox="0 0 58 58" fill="none" xmlns="http://www.w3.org/2000/svg">
<g clip-path="url(#clip0)">
<path d="M9.52787 33.2224C9.19731 32.8957 8.66536 32.8958 8.33469 33.2224L5.61956 35.9038C5.28595 36.2332 5.28255 36.7708 5.61209 37.1045C5.94152 37.4378 6.47913 37.4415 6.81275 37.1118L8.08224 35.8581V41.2994C8.08224 41.7684 8.46238 42.1484 8.93128 42.1484C9.40018 42.1484 9.78032 41.7684 9.78032 41.2994V35.8581L11.0498 37.1118C11.3824 37.4406 11.9201 37.4389 12.2505 37.1045C12.58 36.7708 12.5766 36.2332 12.243 35.9038L9.52787 33.2224Z" fill="#0278AE"/>
<path d="M17.6312 42.1488C18.1001 42.1488 18.4803 41.7687 18.4803 41.2997V35.8584L19.7498 37.1121C20.0834 37.4417 20.621 37.4382 20.9504 37.1048C21.28 36.7711 21.2766 36.2335 20.9429 35.9041L18.2278 33.2226C17.8972 32.896 17.3653 32.896 17.0346 33.2226L14.3195 35.9041C13.9859 36.2335 13.9825 36.7711 14.312 37.1048C14.6406 37.4374 15.1781 37.4427 15.5127 37.1121L16.7822 35.8584V41.2997C16.7822 41.7687 17.1623 42.1488 17.6312 42.1488Z" fill="#0278AE"/>
<path d="M8.08221 45.2084C8.08221 45.6774 8.46236 46.0575 8.93126 46.0575H17.6312C18.1001 46.0575 18.4803 45.6774 18.4803 45.2084C18.4803 44.7394 18.1001 44.3594 17.6312 44.3594H8.93126C8.46236 44.3594 8.08221 44.7394 8.08221 45.2084Z" fill="#0278AE"/>
<path d="M32.0348 34.2502L33.0061 35.1957C33.3421 35.523 33.8798 35.5155 34.2067 35.1795C34.5339 34.8434 34.5265 34.3059 34.1905 33.979L33.2192 33.0334C31.8537 31.7047 29.6618 31.734 28.3326 33.0995C27.8107 33.7047 27.3585 33.8993 27.3659 34.4491C27.369 34.6742 27.4613 34.889 27.6227 35.0459L31.4213 38.7435L27.6227 42.4409C27.2867 42.7679 27.2793 43.3054 27.6064 43.6413L28.3325 44.3874C29.6633 45.7547 31.8504 45.7856 33.2191 44.4533L37.1175 40.6587C37.8706 39.926 38.1236 38.8109 37.7621 37.8179C37.4644 37.0002 36.8877 36.6514 36.4211 36.15C36.0849 35.8229 35.5474 35.8306 35.2204 36.1663C34.8934 36.5024 34.9008 37.0399 35.2367 37.367C35.7909 37.9338 36.0528 38.0862 36.1665 38.3987C36.3018 38.7704 36.2125 39.17 35.9332 39.4418L32.0346 43.2366C31.3391 43.9134 30.2268 43.8991 29.5494 43.2031L29.4154 43.0654L33.2307 39.3517C33.3949 39.192 33.4876 38.9725 33.4876 38.7433C33.4876 38.5142 33.395 38.2947 33.2307 38.135L29.4155 34.4213L29.5494 34.2837C30.2255 33.5895 31.3406 33.5745 32.0348 34.2502Z" fill="#0278AE"/>
<path d="M43.6987 16.7698H43.457V9.56775C43.457 8.30154 42.4269 7.27148 41.1608 7.27148H2.29626C1.03017 7.27137 0 8.30154 0 9.56775V17.6188C0 18.0878 0.380145 18.4679 0.849042 18.4679C1.31794 18.4679 1.69808 18.0878 1.69808 17.6188V9.56775C1.69808 9.23787 1.9665 8.96957 2.29626 8.96957H17.445V14.1273C17.445 15.0709 18.2126 15.8384 19.1562 15.8384H24.3008C25.2444 15.8384 26.0121 15.0709 26.0121 14.1273V8.96946H41.1608C41.4907 8.96946 41.759 9.23775 41.759 9.56763V16.7697H38.7335C38.2645 16.7697 37.8845 17.1497 37.8845 17.6187C37.8845 18.0877 38.2645 18.4677 38.7335 18.4677H43.6986C50.6088 18.4677 56.2624 24.0232 56.3016 30.8518C56.3414 37.7535 50.7485 43.3818 43.845 43.3818H43.4569V36.8725H43.845C47.0688 36.8725 49.7364 34.2508 49.7917 31.0281C49.8495 27.6496 47.0281 24.9772 43.7545 24.9772H31.0596C30.2809 24.9772 29.6474 25.6107 29.6474 26.3893V27.6356L23.5248 21.726L29.6474 15.8166V17.0558C29.6474 17.8345 30.2809 18.468 31.0596 18.468H35.339C35.808 18.468 36.188 18.0879 36.188 17.6189C36.188 17.1499 35.808 16.7699 35.339 16.7699H31.3456V14.4897C31.3456 14.0336 31.0744 13.6237 30.6545 13.4453C30.2344 13.2669 29.7512 13.3565 29.4229 13.6733L22.0803 20.7604C21.8197 21.012 21.6703 21.364 21.6703 21.7261C21.6703 22.0882 21.8197 22.4402 22.0803 22.6918L29.4229 29.7789C29.7512 30.0957 30.2348 30.1852 30.6544 30.0069C31.0744 29.8286 31.3456 29.4187 31.3456 28.9624V26.6754H41.759V48.3001C41.759 48.7029 41.4313 49.0304 41.0287 49.0304H2.42849C2.0257 49.0304 1.69808 48.7028 1.69808 48.3001V21.0135C1.69808 20.5445 1.31794 20.1645 0.849042 20.1645C0.380145 20.1645 0 20.5445 0 21.0135V48.3C0 49.639 1.08938 50.7284 2.42849 50.7284H41.0287C42.3677 50.7284 43.457 49.639 43.457 48.3V45.0799H43.8451C51.6898 45.0799 58.0448 38.6879 57.9998 30.842C57.9552 23.0826 51.5398 16.7698 43.6987 16.7698ZM24.314 14.1272C24.314 14.1343 24.3081 14.1402 24.3008 14.1402H19.1562C19.149 14.1402 19.1431 14.1343 19.1431 14.1272V8.96946H24.3139V14.1272H24.314ZM43.7547 26.6753C46.1165 26.6753 48.135 28.6054 48.0939 30.9989C48.0544 33.3013 46.1484 35.1744 43.8451 35.1744H43.457V26.6753H43.7547Z" fill="#0278AE"/>
</g>
<defs>
<clipPath id="clip0">
<rect width="58" height="58" fill="white"/>
</clipPath>
</defs>
</svg>
