<svg width="58" height="58" viewBox="0 0 58 58" fill="none" xmlns="http://www.w3.org/2000/svg">
<g clip-path="url(#clip0)">
<path d="M37.4873 4.57331C37.2917 4.43614 37.0474 4.38746 36.8147 4.43968C36.5815 4.49189 36.3815 4.63969 36.2629 4.84678C36.2571 4.85696 36.25 4.86625 36.2438 4.87554C35.9713 5.26495 35.4327 5.35964 35.0433 5.0875C34.6588 4.81846 34.1291 4.91139 33.8601 5.29592L32.6219 7.06461C32.3529 7.44915 32.4463 7.97883 32.8304 8.24787C32.979 8.35186 33.149 8.40186 33.3171 8.40186C33.5848 8.40186 33.8486 8.27531 34.0136 8.03945L34.8477 6.84779C35.631 7.06594 36.4819 6.89779 37.1235 6.39245L38.3767 7.26994C38.7613 7.53898 39.2905 7.44561 39.56 7.06152C39.829 6.67698 39.7356 6.1473 39.3511 5.87826L37.4873 4.57331Z" fill="#0278AE"/>
<path d="M46.883 15.2752L46.0489 16.4664C45.7798 16.8509 45.8732 17.3806 46.2573 17.6497C46.406 17.7537 46.5759 17.8032 46.744 17.8032C47.0118 17.8032 47.2755 17.6771 47.4405 17.4408L48.6791 15.6726C48.9482 15.288 48.8548 14.7583 48.4707 14.4893C48.0813 14.2167 47.9862 13.6782 48.2592 13.2883C48.2658 13.279 48.272 13.2698 48.2795 13.2613C48.4335 13.0786 48.5039 12.8401 48.4729 12.6033C48.4424 12.3666 48.3136 12.1533 48.118 12.0166L46.2542 10.7116C45.8697 10.4426 45.34 10.536 45.0709 10.9205C44.8014 11.3046 44.8953 11.8347 45.2793 12.1038L46.5325 12.9808C46.2768 13.757 46.4099 14.6136 46.883 15.2752Z" fill="#0278AE"/>
<path d="M42.3743 34.3627C42.7779 34.3627 43.1527 34.5242 43.4297 34.818C43.7518 35.1587 44.2895 35.1742 44.6307 34.8521C44.9723 34.5299 44.9873 33.9923 44.6652 33.6511C44.0727 33.0237 43.2376 32.6635 42.3743 32.6635C40.637 32.6635 39.2241 34.0768 39.2241 35.8141C39.2241 37.5509 40.637 38.9643 42.3743 38.9643C43.216 38.9643 44.0072 38.6368 44.6019 38.0417C44.9338 37.7098 44.9338 37.1717 44.6019 36.8403C44.2705 36.5084 43.7324 36.5084 43.4005 36.8403C43.1266 37.1142 42.762 37.2651 42.3743 37.2651C41.5743 37.2651 40.9233 36.6141 40.9233 35.8141C40.9233 35.0136 41.5743 34.3627 42.3743 34.3627Z" fill="#0278AE"/>
<path d="M49.9389 29.8293V23.0245C49.9389 20.7141 48.0591 18.8344 45.7488 18.8344H41.2401C41.5039 16.5564 40.76 14.5527 39.1909 13.454C37.8616 12.5234 36.1394 12.3565 34.341 12.984C32.6414 13.5774 31.0603 14.8244 29.8903 16.4953C29.3721 17.2347 28.9597 18.0188 28.6606 18.8344H23.1293L35.0185 1.85502L51.5164 13.4066L49.003 16.9967C48.7339 17.3812 48.8273 17.9109 49.2114 18.1799C49.5959 18.449 50.1256 18.3556 50.3947 17.9711L53.1347 14.058C53.5475 13.4699 53.4046 12.6552 52.8156 12.2419L35.6699 0.236781C35.3849 0.0367687 35.0389 -0.0402272 34.6959 0.0199534C34.353 0.0805767 34.0543 0.270411 33.8538 0.555827L29.9213 6.17254V2.78561C29.9213 2.06654 29.3363 1.48155 28.6172 1.48155H8.239C7.51993 1.48155 6.93494 2.06654 6.93494 2.78561V7.43678C6.93494 7.90628 7.31549 8.28639 7.78455 8.28639C8.25404 8.28639 8.63416 7.90628 8.63416 7.43678V3.18121H11.0958V18.8339H8.83461C8.76779 18.8339 8.70097 18.8357 8.63416 18.8388V10.8352C8.63416 10.3662 8.25404 9.98561 7.78455 9.98561C7.31549 9.98561 6.93494 10.3662 6.93494 10.8352V19.2902C5.57689 19.984 4.64453 21.3974 4.64453 23.0245V48.6035C4.64453 50.9138 6.52429 52.7935 8.83461 52.7935H15.1784C15.6479 52.7935 16.028 52.4134 16.028 51.9439C16.028 51.4749 15.6479 51.0943 15.1784 51.0943H8.83461C7.46107 51.0943 6.34375 49.977 6.34375 48.6035V23.0245C6.34375 21.9359 7.04556 21.0084 8.01996 20.6703C8.04164 20.6641 8.06332 20.6571 8.08412 20.6491C8.3213 20.5739 8.57353 20.5332 8.83505 20.5332H45.7488C47.1223 20.5332 48.2401 21.6509 48.2401 23.0245V29.7116H42.1574C38.7926 29.7116 36.0549 32.4489 36.0549 35.8142C36.0549 39.179 38.7926 41.9163 42.1574 41.9163H48.2401V48.6035C48.2401 49.977 47.1223 51.0943 45.7488 51.0943H39.2568C38.7873 51.0943 38.4072 51.4749 38.4072 51.9439C38.4072 52.4134 38.7873 52.7935 39.2568 52.7935H45.7488C48.0591 52.7935 49.9393 50.9138 49.9393 48.6035V41.7986C51.8616 41.3424 53.2957 39.6113 53.2957 37.5519V34.0765C53.2953 32.0166 51.8611 30.2855 49.9389 29.8293ZM31.282 17.4706C33.2197 14.7032 36.3305 13.5261 38.2165 14.8461C39.3028 15.6067 39.7812 17.0993 39.5267 18.8339H30.497C30.7125 18.3649 30.9745 17.9087 31.282 17.4706ZM28.2221 8.59924L21.0553 18.8344H16.8687V3.18077H28.2221V8.59924ZM12.795 3.18077H15.1695V18.8339H12.795V3.18077ZM51.5961 37.5514C51.5961 39.0215 50.4004 40.2171 48.9304 40.2171H42.1574C39.7294 40.2171 37.7541 38.2418 37.7541 35.8137C37.7541 33.3862 39.7294 31.4108 42.1574 31.4108H48.9304C50.4004 31.4108 51.5961 32.6065 51.5961 34.0765V37.5514Z" fill="#0278AE"/>
<path d="M27.2915 37.4708C21.6319 37.4708 17.0272 42.0755 17.0272 47.7356C17.0272 53.3952 21.6319 58 27.2915 58C32.9516 58 37.5563 53.3952 37.5563 47.7356C37.5563 42.0755 32.9516 37.4708 27.2915 37.4708ZM27.2915 56.3007C22.5686 56.3007 18.7264 52.4585 18.7264 47.7356C18.7264 43.0123 22.5686 39.17 27.2915 39.17C32.0148 39.17 35.8571 43.0123 35.8571 47.7356C35.8571 52.4585 32.0148 56.3007 27.2915 56.3007Z" fill="#0278AE"/>
<path d="M28.0163 46.886H26.5671C26.1401 46.886 25.7927 46.5386 25.7927 46.1116C25.7927 45.6846 26.1401 45.3372 26.5671 45.3372H29.3403C29.8093 45.3372 30.1899 44.9566 30.1899 44.4876C30.1899 44.0185 29.8093 43.638 29.3403 43.638H28.2973V42.9198C28.2973 42.4507 27.9167 42.0702 27.4477 42.0702C26.9786 42.0702 26.5981 42.4507 26.5981 42.9198V43.638H26.5671C25.2033 43.638 24.0935 44.7478 24.0935 46.1116C24.0935 47.4754 25.2033 48.5852 26.5671 48.5852H28.0163C28.4433 48.5852 28.7903 48.9321 28.7903 49.3591C28.7903 49.7861 28.4433 50.1335 28.0163 50.1335H25.2431C24.7736 50.1335 24.3935 50.5141 24.3935 50.9831C24.3935 51.4522 24.7736 51.8327 25.2431 51.8327H26.5981V52.5509C26.5981 53.02 26.9786 53.4005 27.4477 53.4005C27.9172 53.4005 28.2973 53.02 28.2973 52.5509V51.8168C29.5292 51.6765 30.4899 50.6282 30.4899 49.3591C30.4895 47.9953 29.3801 46.886 28.0163 46.886Z" fill="#0278AE"/>
</g>
<defs>
<clipPath id="clip0">
<rect width="58" height="58" fill="white"/>
</clipPath>
</defs>
</svg>
