<?xml version="1.0" encoding="UTF-8"?> <svg xmlns="http://www.w3.org/2000/svg" width="44" height="44" viewBox="0 0 44 44" fill="none"> <rect width="44" height="44" rx="6" fill="#0C9DF7"></rect> <path d="M14.4736 26.5059C13.5052 25.3936 13.021 23.9077 13.021 22.0483C13.021 20.189 13.5052 18.7059 14.4736 17.5991C15.4421 16.4868 16.6291 15.9307 18.0347 15.9307C19.4403 15.9307 20.6273 16.4868 21.5957 17.5991C22.5641 18.7059 23.0483 20.189 23.0483 22.0483C23.0483 23.9077 22.5641 25.3936 21.5957 26.5059C20.6273 27.6126 19.4403 28.166 18.0347 28.166C16.6291 28.166 15.4421 27.6126 14.4736 26.5059ZM20.251 25.2939C20.8708 24.5026 21.1807 23.4207 21.1807 22.0483C21.1807 20.6759 20.8708 19.5968 20.251 18.811C19.6367 18.0252 18.8979 17.6323 18.0347 17.6323C17.1714 17.6323 16.4299 18.0252 15.8101 18.811C15.1958 19.5968 14.8887 20.6759 14.8887 22.0483C14.8887 23.4207 15.1958 24.5026 15.8101 25.2939C16.4299 26.0798 17.1714 26.4727 18.0347 26.4727C18.8979 26.4727 19.6367 26.0798 20.251 25.2939ZM27.2983 16.0967H28.7427V28H26.875V18.9937H24.75V17.7153C25.4639 17.6379 26.0062 17.4691 26.377 17.209C26.7533 16.9434 27.0604 16.5726 27.2983 16.0967Z" fill="white"></path> </svg> 