<?xml version="1.0" encoding="UTF-8"?> <svg xmlns="http://www.w3.org/2000/svg" width="44" height="44" viewBox="0 0 44 44" fill="none"> <rect width="44" height="44" rx="6" fill="#0C9DF7"></rect> <path d="M13.4736 26.5059C12.5052 25.3936 12.021 23.9077 12.021 22.0483C12.021 20.189 12.5052 18.7059 13.4736 17.5991C14.4421 16.4868 15.6291 15.9307 17.0347 15.9307C18.4403 15.9307 19.6273 16.4868 20.5957 17.5991C21.5641 18.7059 22.0483 20.189 22.0483 22.0483C22.0483 23.9077 21.5641 25.3936 20.5957 26.5059C19.6273 27.6126 18.4403 28.166 17.0347 28.166C15.6291 28.166 14.4421 27.6126 13.4736 26.5059ZM19.251 25.2939C19.8708 24.5026 20.1807 23.4207 20.1807 22.0483C20.1807 20.6759 19.8708 19.5968 19.251 18.811C18.6367 18.0252 17.8979 17.6323 17.0347 17.6323C16.1714 17.6323 15.4299 18.0252 14.8101 18.811C14.1958 19.5968 13.8887 20.6759 13.8887 22.0483C13.8887 23.4207 14.1958 24.5026 14.8101 25.2939C15.4299 26.0798 16.1714 26.4727 17.0347 26.4727C17.8979 26.4727 18.6367 26.0798 19.251 25.2939ZM31.6523 28H23.75C23.75 27.264 23.8607 26.5972 24.082 25.9995C24.3034 25.3963 24.5911 24.8955 24.9453 24.4971C25.305 24.0986 25.6979 23.7334 26.124 23.4014C26.5557 23.0693 26.9845 22.7677 27.4106 22.4966C27.8368 22.2199 28.2269 21.9487 28.5811 21.6831C28.9408 21.4175 29.2313 21.1076 29.4526 20.7534C29.674 20.3937 29.7847 20.0036 29.7847 19.583C29.7847 18.9798 29.5965 18.5039 29.2202 18.1553C28.8494 17.8066 28.3293 17.6323 27.6597 17.6323C27.3332 17.6323 27.026 17.6932 26.7383 17.8149C26.4561 17.9312 26.2347 18.0723 26.0742 18.2383C25.9193 18.3988 25.7809 18.562 25.6592 18.728C25.543 18.894 25.4627 19.0379 25.4185 19.1597L25.3604 19.334L23.833 18.6533C23.8551 18.5758 23.8856 18.4762 23.9243 18.3545C23.9686 18.2327 24.0848 18.0169 24.2729 17.707C24.4666 17.3971 24.6908 17.1232 24.9453 16.8853C25.1999 16.6473 25.5679 16.4287 26.0493 16.2295C26.5308 16.0303 27.0675 15.9307 27.6597 15.9307C28.8273 15.9307 29.7847 16.2821 30.5317 16.9849C31.2788 17.6877 31.6523 18.5537 31.6523 19.583C31.6523 20.1253 31.5417 20.6289 31.3203 21.0938C31.099 21.5586 30.8167 21.9487 30.4736 22.2642C30.1361 22.5741 29.7459 22.895 29.3032 23.2271C28.866 23.5535 28.4399 23.8524 28.0249 24.1235C27.6099 24.3947 27.2004 24.7212 26.7964 25.103C26.3979 25.4793 26.0908 25.8778 25.875 26.2983H31.6523V28Z" fill="white"></path> </svg> 