<?xml version="1.0" encoding="UTF-8"?> <svg xmlns="http://www.w3.org/2000/svg" width="44" height="44" viewBox="0 0 44 44" fill="none"> <rect width="44" height="44" rx="6" fill="#0C9DF7"></rect> <path d="M13.4736 26.5059C12.5052 25.3936 12.021 23.9077 12.021 22.0483C12.021 20.189 12.5052 18.7059 13.4736 17.5991C14.4421 16.4868 15.6291 15.9307 17.0347 15.9307C18.4403 15.9307 19.6273 16.4868 20.5957 17.5991C21.5641 18.7059 22.0483 20.189 22.0483 22.0483C22.0483 23.9077 21.5641 25.3936 20.5957 26.5059C19.6273 27.6126 18.4403 28.166 17.0347 28.166C15.6291 28.166 14.4421 27.6126 13.4736 26.5059ZM19.251 25.2939C19.8708 24.5026 20.1807 23.4207 20.1807 22.0483C20.1807 20.6759 19.8708 19.5968 19.251 18.811C18.6367 18.0252 17.8979 17.6323 17.0347 17.6323C16.1714 17.6323 15.4299 18.0252 14.8101 18.811C14.1958 19.5968 13.8887 20.6759 13.8887 22.0483C13.8887 23.4207 14.1958 24.5026 14.8101 25.2939C15.4299 26.0798 16.1714 26.4727 17.0347 26.4727C17.8979 26.4727 18.6367 26.0798 19.251 25.2939ZM29.7847 21.708C29.84 21.7301 29.9147 21.7633 30.0088 21.8076C30.1084 21.8464 30.2799 21.946 30.5234 22.1064C30.7669 22.2614 30.9827 22.4412 31.1709 22.646C31.359 22.8507 31.5278 23.1357 31.6772 23.501C31.8322 23.8607 31.9097 24.2563 31.9097 24.688C31.9097 25.6619 31.5195 26.4865 30.7393 27.1616C29.9645 27.8312 28.938 28.166 27.6597 28.166C27.1174 28.166 26.6027 28.1024 26.1157 27.9751C25.6287 27.8423 25.2248 27.6873 24.9038 27.5103C24.5884 27.3276 24.3145 27.145 24.082 26.9624C23.8496 26.7798 23.6808 26.6276 23.5757 26.5059L23.4097 26.2983L24.5967 25.1113C24.6188 25.1445 24.6576 25.1943 24.7129 25.2607C24.7738 25.3216 24.901 25.4323 25.0947 25.5928C25.2884 25.7477 25.4904 25.8861 25.7007 26.0078C25.9165 26.124 26.1987 26.2319 26.5474 26.3315C26.9015 26.4256 27.2723 26.4727 27.6597 26.4727C28.3957 26.4727 28.9767 26.2956 29.4028 25.9414C29.8289 25.5817 30.042 25.1362 30.042 24.605C30.042 24.0682 29.8289 23.6227 29.4028 23.2686C28.9767 22.9089 28.3957 22.729 27.6597 22.729H26.4727V21.0273H27.6597C28.2463 21.0273 28.7028 20.8752 29.0293 20.5708C29.3613 20.2664 29.5273 19.8542 29.5273 19.334C29.5273 18.8083 29.3613 18.3932 29.0293 18.0889C28.7028 17.7845 28.2463 17.6323 27.6597 17.6323C27.1616 17.6323 26.6912 17.7402 26.2485 17.9561C25.8058 18.1719 25.4932 18.3794 25.3105 18.5786L25.0283 18.9023L23.833 17.7153C23.8662 17.6711 23.916 17.6102 23.9824 17.5327C24.0544 17.4497 24.2093 17.3031 24.4473 17.0928C24.6852 16.8825 24.9398 16.7026 25.2109 16.5532C25.4821 16.3983 25.839 16.2572 26.2817 16.1299C26.7244 15.9971 27.1838 15.9307 27.6597 15.9307C28.8273 15.9307 29.7432 16.2323 30.4072 16.8354C31.0713 17.4331 31.4033 18.2078 31.4033 19.1597C31.4033 19.4862 31.3452 19.8016 31.229 20.106C31.1183 20.4048 30.9827 20.6483 30.8223 20.8364C30.6618 21.0246 30.5041 21.1878 30.3491 21.3262C30.1997 21.459 30.0669 21.5531 29.9507 21.6084L29.7847 21.708Z" fill="white"></path> </svg> 