<?xml version="1.0" encoding="UTF-8"?> <svg xmlns="http://www.w3.org/2000/svg" width="44" height="44" viewBox="0 0 44 44" fill="none"> <rect width="44" height="44" rx="6" fill="#0C9DF7"></rect> <path d="M12.4736 26.5059C11.5052 25.3936 11.021 23.9077 11.021 22.0483C11.021 20.189 11.5052 18.7059 12.4736 17.5991C13.4421 16.4868 14.6291 15.9307 16.0347 15.9307C17.4403 15.9307 18.6273 16.4868 19.5957 17.5991C20.5641 18.7059 21.0483 20.189 21.0483 22.0483C21.0483 23.9077 20.5641 25.3936 19.5957 26.5059C18.6273 27.6126 17.4403 28.166 16.0347 28.166C14.6291 28.166 13.4421 27.6126 12.4736 26.5059ZM18.251 25.2939C18.8708 24.5026 19.1807 23.4207 19.1807 22.0483C19.1807 20.6759 18.8708 19.5968 18.251 18.811C17.6367 18.0252 16.8979 17.6323 16.0347 17.6323C15.1714 17.6323 14.4299 18.0252 13.8101 18.811C13.1958 19.5968 12.8887 20.6759 12.8887 22.0483C12.8887 23.4207 13.1958 24.5026 13.8101 25.2939C14.4299 26.0798 15.1714 26.4727 16.0347 26.4727C16.8979 26.4727 17.6367 26.0798 18.251 25.2939ZM30.4033 23.916H31.9307V25.6177H30.4033V28H28.5273V25.6177H22.75V23.584L28.021 16.0967H30.4033V23.916ZM28.5273 23.916V18.2217L24.5347 23.916H28.5273Z" fill="white"></path> </svg> 