<?xml version="1.0" encoding="UTF-8"?> <svg xmlns="http://www.w3.org/2000/svg" width="44" height="44" viewBox="0 0 44 44" fill="none"> <rect width="44" height="44" rx="6" fill="#0C9DF7"></rect> <path d="M12.4736 26.5059C11.5052 25.3936 11.021 23.9077 11.021 22.0483C11.021 20.189 11.5052 18.7059 12.4736 17.5991C13.4421 16.4868 14.6291 15.9307 16.0347 15.9307C17.4403 15.9307 18.6273 16.4868 19.5957 17.5991C20.5641 18.7059 21.0483 20.189 21.0483 22.0483C21.0483 23.9077 20.5641 25.3936 19.5957 26.5059C18.6273 27.6126 17.4403 28.166 16.0347 28.166C14.6291 28.166 13.4421 27.6126 12.4736 26.5059ZM18.251 25.2939C18.8708 24.5026 19.1807 23.4207 19.1807 22.0483C19.1807 20.6759 18.8708 19.5968 18.251 18.811C17.6367 18.0252 16.8979 17.6323 16.0347 17.6323C15.1714 17.6323 14.4299 18.0252 13.8101 18.811C13.1958 19.5968 12.8887 20.6759 12.8887 22.0483C12.8887 23.4207 13.1958 24.5026 13.8101 25.2939C14.4299 26.0798 15.1714 26.4727 16.0347 26.4727C16.8979 26.4727 17.6367 26.0798 18.251 25.2939ZM27.6807 20.0977C28.8704 20.0977 29.8472 20.474 30.6108 21.2266C31.3745 21.9792 31.7563 22.9338 31.7563 24.0903C31.7563 25.2912 31.3662 26.2707 30.5859 27.0288C29.8057 27.7869 28.7791 28.166 27.5063 28.166C26.964 28.166 26.4494 28.1024 25.9624 27.9751C25.4754 27.8423 25.0715 27.6873 24.7505 27.5103C24.4351 27.3276 24.1611 27.145 23.9287 26.9624C23.6963 26.7798 23.5303 26.6276 23.4307 26.5059L23.2563 26.2983L24.4517 25.1113C24.4738 25.1445 24.5125 25.1943 24.5679 25.2607C24.6232 25.3216 24.7477 25.4323 24.9414 25.5928C25.1351 25.7477 25.3398 25.8861 25.5557 26.0078C25.7715 26.124 26.0537 26.2319 26.4023 26.3315C26.7565 26.4256 27.1245 26.4727 27.5063 26.4727C28.187 26.4727 28.7542 26.2458 29.208 25.792C29.6618 25.3382 29.8887 24.771 29.8887 24.0903C29.8887 23.4097 29.6618 22.8424 29.208 22.3887C28.7542 21.9349 28.187 21.708 27.5063 21.708C27.0083 21.708 26.5601 21.7993 26.1616 21.9819C25.7687 22.1646 25.4976 22.3472 25.3481 22.5298L25.1323 22.812H23.771L24.1113 16.0967H30.9927V17.7983H25.813L25.6387 20.604C26.0924 20.2664 26.7731 20.0977 27.6807 20.0977Z" fill="white"></path> </svg> 