<?xml version="1.0" encoding="UTF-8"?> <svg xmlns="http://www.w3.org/2000/svg" width="184" height="56" viewBox="0 0 184 56" fill="none"> <path d="M71.2196 22.1609H79.883V24.3562H68.8102V9H79.6686V11.1953H71.2196V15.2538H77.9126V17.4491H71.2196V22.1609ZM82.7425 24.3562V9H89.2107C90.6313 9 91.8091 9.45333 92.7446 10.36C93.6797 11.2666 94.1472 12.3875 94.1472 13.7225C94.1472 14.3507 94.0401 14.9397 93.8262 15.4894C93.6119 16.032 93.3547 16.4604 93.0552 16.7745C92.7551 17.0886 92.4555 17.3634 92.1555 17.599C91.8559 17.8346 91.5987 17.9952 91.3844 18.0809L91.0739 18.2201L94.5864 24.3562H91.9521L88.6644 18.4343H85.1519V24.3562H82.7425ZM90.9991 15.5216C91.4846 15.0361 91.7273 14.4364 91.7273 13.7225C91.7273 13.0015 91.4846 12.4018 90.9991 11.9234C90.5206 11.438 89.9245 11.1953 89.2107 11.1953H85.1519V16.239H89.2107C89.9245 16.239 90.5206 15.9999 90.9991 15.5216ZM97.6602 9H103.796C105.26 9 106.484 9.48189 107.469 10.4457C108.461 11.4023 108.958 12.5696 108.958 13.9474C108.958 15.3181 108.461 16.4817 107.469 17.4384C106.484 18.395 105.26 18.8733 103.796 18.8733H100.07V24.3562H97.6602V9ZM103.796 11.1953H100.07V16.6781H103.796C104.553 16.6781 105.199 16.4175 105.734 15.8963C106.27 15.368 106.537 14.7184 106.537 13.9474C106.537 13.1692 106.27 12.516 105.734 11.9877C105.199 11.4594 104.553 11.1953 103.796 11.1953ZM111.346 24.1527C111.061 23.8671 110.918 23.5352 110.918 23.1568C110.918 22.7713 111.061 22.4357 111.346 22.1502C111.632 21.8646 111.964 21.7218 112.342 21.7218C112.727 21.7218 113.063 21.8646 113.349 22.1502C113.634 22.4357 113.777 22.7713 113.777 23.1568C113.777 23.5352 113.634 23.8671 113.349 24.1527C113.063 24.4311 112.727 24.5703 112.342 24.5703C111.964 24.5703 111.632 24.4311 111.346 24.1527ZM111.346 16.0355C111.061 15.75 110.918 15.418 110.918 15.0397C110.918 14.6542 111.061 14.3186 111.346 14.0331C111.632 13.7475 111.964 13.6047 112.342 13.6047C112.727 13.6047 113.063 13.7475 113.349 14.0331C113.634 14.3186 113.777 14.6542 113.777 15.0397C113.777 15.418 113.634 15.75 113.349 16.0355C113.063 16.3211 112.727 16.4639 112.342 16.4639C111.964 16.4639 111.632 16.3211 111.346 16.0355ZM118.832 24.3562L125.193 9H127.603L133.964 24.3562H131.447L129.798 20.2976H122.998L121.349 24.3562H118.832ZM126.404 11.7414L123.876 18.1023H128.92L126.404 11.7414ZM144.169 16.4639L150.091 9H152.179V24.3562H149.77V13.1764L144.169 20.1905L138.579 13.1764V24.3562H136.17V9H138.247L144.169 16.4639ZM156.12 9H161.497C163.631 9 165.462 9.75673 166.99 11.2702C168.518 12.7837 169.282 14.5863 169.282 16.6781C169.282 18.7698 168.518 20.5725 166.99 22.0859C165.462 23.5994 163.631 24.3562 161.497 24.3562H156.12V9ZM161.497 11.1953H158.53V22.1609H161.497C162.988 22.1609 164.255 21.6326 165.298 20.576C166.34 19.5123 166.861 18.213 166.861 16.6781C166.861 15.1432 166.34 13.8475 165.298 12.7909C164.255 11.7271 162.988 11.1953 161.497 11.1953ZM75.6109 42.3953C75.6109 41.9241 75.4608 41.5314 75.1608 41.2173C74.8612 40.8961 74.4719 40.6462 73.9939 40.4677C73.5224 40.2821 72.9981 40.1179 72.4194 39.9751C71.8412 39.8252 71.263 39.6432 70.6848 39.429C70.1066 39.2148 69.5783 38.9578 69.0998 38.658C68.6288 38.3581 68.243 37.9334 67.9434 37.3837C67.6433 36.8268 67.4938 36.1593 67.4938 35.3811C67.4938 34.196 67.9469 33.2073 68.8535 32.4149C69.7602 31.6153 70.9884 31.2155 72.5375 31.2155C73.1087 31.2155 73.6545 31.2869 74.1759 31.4297C74.7042 31.5653 75.1393 31.7295 75.4823 31.9223C75.8322 32.1079 76.1352 32.2971 76.3924 32.4898C76.6566 32.6755 76.8495 32.8361 76.9706 32.9717L77.1421 33.1859L75.6109 34.7279C75.582 34.6994 75.5396 34.653 75.4823 34.5887C75.4324 34.5173 75.3108 34.4102 75.1179 34.2675C74.9325 34.1175 74.7291 33.9855 74.5078 33.8712C74.2935 33.7499 74.0079 33.6428 73.651 33.55C73.3011 33.4572 72.9298 33.4108 72.5375 33.4108C71.745 33.4108 71.106 33.6071 70.6205 33.9998C70.142 34.3924 69.9033 34.8528 69.9033 35.3811C69.9033 35.8524 70.0528 36.2486 70.3528 36.5698C70.6524 36.891 71.0382 37.1445 71.5092 37.3301C71.9877 37.5086 72.5161 37.6728 73.0942 37.8227C73.6724 37.9655 74.2506 38.144 74.8288 38.3581C75.4075 38.5652 75.9319 38.8186 76.4034 39.1185C76.8814 39.4183 77.2707 39.8466 77.5702 40.4035C77.8703 40.9603 78.0203 41.6243 78.0203 42.3953C78.0203 43.7517 77.5348 44.8583 76.5639 45.715C75.5929 46.5716 74.2506 47 72.5375 47C71.8377 47 71.1703 46.9179 70.5348 46.7537C69.9067 46.5824 69.3889 46.3825 68.9821 46.154C68.5754 45.9184 68.222 45.6828 67.922 45.4473C67.6219 45.2117 67.4046 45.0153 67.2685 44.8583L67.0547 44.5906L68.5859 43.0592C68.6143 43.1021 68.6607 43.1663 68.7249 43.252C68.7967 43.3305 68.9497 43.4733 69.1855 43.6803C69.4282 43.8802 69.6889 44.0587 69.9671 44.2158C70.2457 44.3657 70.6135 44.5049 71.0701 44.6334C71.5341 44.7547 72.0231 44.8154 72.5375 44.8154C73.487 44.8154 74.2367 44.5834 74.7859 44.1194C75.3357 43.6553 75.6109 43.0806 75.6109 42.3953ZM84.0494 35.0706C82.9503 36.17 82.4006 37.5157 82.4006 39.1077C82.4006 40.6998 82.9503 42.049 84.0494 43.1556C85.1559 44.2621 86.5052 44.8154 88.0972 44.8154C89.6967 44.8154 91.046 44.2621 92.145 43.1556C93.252 42.049 93.8053 40.6998 93.8053 39.1077C93.8053 37.5157 93.252 36.17 92.145 35.0706C91.046 33.964 89.6967 33.4108 88.0972 33.4108C86.5052 33.4108 85.1559 33.964 84.0494 35.0706ZM82.3253 44.7083C80.7692 43.1806 79.9911 41.3137 79.9911 39.1077C79.9911 36.9018 80.7692 35.0349 82.3253 33.5072C83.8819 31.9794 85.8059 31.2155 88.0972 31.2155C90.396 31.2155 92.324 31.9794 93.8801 33.5072C95.4362 35.0349 96.2148 36.9018 96.2148 39.1077C96.2148 41.3137 95.4362 43.1806 93.8801 44.7083C92.324 46.2361 90.396 47 88.0972 47C85.8059 47 83.8819 46.2361 82.3253 44.7083ZM109.162 46.7858H99.2991V31.4297H101.709V44.5906H109.162V46.7858ZM114.099 43.5947C114.906 44.4085 115.855 44.8154 116.947 44.8154C118.047 44.8154 118.996 44.4049 119.796 43.584C120.602 42.7629 121.006 41.7849 121.006 40.6498V31.4297H123.426V40.6498C123.426 42.406 122.794 43.9052 121.53 45.1474C120.274 46.3825 118.746 47 116.947 47C115.155 47 113.628 46.3789 112.364 45.1367C111.108 43.8945 110.479 42.3989 110.479 40.6498V31.4297H112.899V40.6498C112.899 41.792 113.299 42.7737 114.099 43.5947ZM125.386 31.4297H137.005V33.6249H132.4V46.7858H129.991V33.6249H125.386V31.4297ZM139.211 46.7858V31.4297H141.621V46.7858H139.211ZM148.743 35.0706C147.643 36.17 147.093 37.5157 147.093 39.1077C147.093 40.6998 147.643 42.049 148.743 43.1556C149.849 44.2621 151.198 44.8154 152.79 44.8154C154.389 44.8154 155.739 44.2621 156.838 43.1556C157.945 42.049 158.498 40.6998 158.498 39.1077C158.498 37.5157 157.945 36.17 156.838 35.0706C155.739 33.964 154.389 33.4108 152.79 33.4108C151.198 33.4108 149.849 33.964 148.743 35.0706ZM147.018 44.7083C145.462 43.1806 144.684 41.3137 144.684 39.1077C144.684 36.9018 145.462 35.0349 147.018 33.5072C148.575 31.9794 150.499 31.2155 152.79 31.2155C155.089 31.2155 157.017 31.9794 158.573 33.5072C160.129 35.0349 160.907 36.9018 160.907 39.1077C160.907 41.3137 160.129 43.1806 158.573 44.7083C157.017 46.2361 155.089 47 152.79 47C150.499 47 148.575 46.2361 147.018 44.7083ZM174.625 31.4297H177.035V46.7858H174.957L166.401 35.7131V46.7858H163.992V31.4297H166.069L174.625 42.5131V31.4297Z" fill="#E0E0E0"></path> <path d="M21.9608 0H4.39216C1.96644 0 0 1.96644 0 4.39216V21.9608C0 24.3865 1.96644 26.3529 4.39216 26.3529H21.9608C24.3865 26.3529 26.3529 24.3865 26.3529 21.9608V4.39216C26.3529 1.96644 24.3865 0 21.9608 0Z" fill="#0621A5"></path> <path d="M18.6701 16.4353L16.4768 15.3388C16.2699 15.2352 16.1414 15.0272 16.1414 14.7958V14.0195C16.194 13.9552 16.2492 13.882 16.3064 13.8012C16.5909 13.3994 16.8189 12.9522 16.9847 12.4698C17.3086 12.3212 17.5189 12.0009 17.5189 11.6394V10.721C17.5189 10.4999 17.4362 10.2857 17.2893 10.1183V8.89712C17.3022 8.77084 17.3527 8.01918 16.809 7.39906C16.3374 6.86113 15.5722 6.58838 14.5342 6.58838C13.4962 6.58838 12.731 6.86113 12.2595 7.39884C11.7158 8.01896 11.7663 8.77084 11.7791 8.8969V10.1181C11.6322 10.2855 11.5496 10.4997 11.5496 10.7208V11.6391C11.5496 11.9185 11.6765 12.1791 11.8933 12.3529C12.1035 13.1857 12.5437 13.8131 12.6975 14.0145V14.7742C12.6975 14.9965 12.5763 15.2003 12.3813 15.3068L10.3332 16.424C9.66737 16.7872 9.25391 17.4838 9.25391 18.2424V19.2158H19.815V18.2876C19.8148 17.4983 19.3761 16.7884 18.6701 16.4353Z" fill="white"></path> <path d="M10.1678 16.1219L12.216 15.0047C12.3002 14.9586 12.3528 14.8702 12.3528 14.7742V14.1282C12.1496 13.8453 11.7912 13.2759 11.5866 12.5417C11.3426 12.3048 11.2048 11.9822 11.2048 11.6392V10.7208C11.2048 10.4628 11.2857 10.2114 11.4344 9.99967V8.91305C11.4266 8.82509 11.4174 8.62168 11.4565 8.36315C11.1403 8.25296 10.7886 8.19531 10.4013 8.19531C8.01608 8.19531 7.87718 10.2283 7.87581 10.2617V11.3129C7.72702 11.475 7.64621 11.6622 7.64621 11.8479V12.6409C7.64621 12.8886 7.75711 13.1196 7.94718 13.2757C8.13659 13.9897 8.60244 14.5292 8.78383 14.7187V15.3484C8.78383 15.5291 8.68556 15.6949 8.51498 15.7881L6.98749 16.7462C6.40251 17.0653 6.03906 17.6777 6.03906 18.3439V19.2157H8.90895V18.2426C8.90895 17.3581 9.39132 16.5455 10.1678 16.1219Z" fill="white"></path> <path d="M21.9608 29.647H4.39216C1.96644 29.647 0 31.6134 0 34.0391V51.6078C0 54.0335 1.96644 55.9999 4.39216 55.9999H21.9608C24.3865 55.9999 26.3529 54.0335 26.3529 51.6078V34.0391C26.3529 31.6134 24.3865 29.647 21.9608 29.647Z" fill="#0C9DF7"></path> <path d="M16.0154 36.2354V48.1229H14.5356V39.2443H11.576V48.1229H10.0963V42.2038H7.13672V48.1229V48.8628H10.0963H11.576H14.5356H16.0154H18.975V48.1229V36.2354H16.0154Z" fill="white"></path> <path d="M51.6073 0H34.0386C31.6129 0 29.6465 1.96644 29.6465 4.39216V21.9608C29.6465 24.3865 31.6129 26.3529 34.0386 26.3529H51.6073C54.033 26.3529 55.9994 24.3865 55.9994 21.9608V4.39216C55.9994 1.96644 54.033 0 51.6073 0Z" fill="#0C9DF7"></path> <path d="M49.5761 18.5007L49.0067 6.58838H46.2327L45.6307 18.5007H44.7272L44.9074 13.0828H43.4446V10.7351L39.652 13.0828V10.7351L35.6784 13.0828V18.5007H35.1367V19.7649H50.3069V18.5007H49.5761ZM38.5681 16.695H37.304V15.4308H38.5681V16.695ZM40.7351 16.695H39.471V15.4308H40.7351V16.695ZM42.9024 16.695H41.6383V15.4308H42.9024V16.695Z" fill="white"></path> <path d="M51.6073 29.647H34.0386C31.6129 29.647 29.6465 31.6134 29.6465 34.0391V51.6078C29.6465 54.0335 31.6129 55.9999 34.0386 55.9999H51.6073C54.033 55.9999 55.9994 54.0335 55.9994 51.6078V34.0391C55.9994 31.6134 54.033 29.647 51.6073 29.647Z" fill="#0621A5"></path> <path d="M39.8145 43.5583C40.2139 43.5583 40.5999 43.5325 40.9652 43.4845V39.4805C40.5999 39.4325 40.2139 39.4067 39.8145 39.4067C37.5342 39.4067 35.6855 40.2452 35.6855 41.2794V41.6856C35.6855 42.7199 37.5342 43.5583 39.8145 43.5583Z" fill="white"></path> <path d="M39.8145 45.6492C40.2139 45.6492 40.5999 45.6234 40.9652 45.5755V44.4019C40.5998 44.4498 40.214 44.476 39.8145 44.476C37.824 44.476 36.1626 43.8371 35.7723 42.9868C35.7155 43.1107 35.6855 43.2389 35.6855 43.3704V43.7765C35.6855 44.8108 37.5342 45.6492 39.8145 45.6492Z" fill="white"></path> <path d="M40.9652 46.5839V46.4926C40.5998 46.5406 40.214 46.5667 39.8145 46.5667C37.824 46.5667 36.1626 45.9279 35.7724 45.0776C35.7156 45.2014 35.6855 45.3297 35.6855 45.4611V45.8673C35.6855 46.9016 37.5341 47.74 39.8145 47.74C40.2705 47.74 40.7091 47.7064 41.1193 47.6445C41.0176 47.4365 40.9652 47.2172 40.9652 46.9899V46.5839Z" fill="white"></path> <path d="M45.7696 36.2354C43.4892 36.2354 41.6406 37.0738 41.6406 38.1081V38.5142C41.6406 39.5485 43.4892 40.3869 45.7696 40.3869C48.0499 40.3869 49.8985 39.5485 49.8985 38.5142V38.1081C49.8985 37.0738 48.0499 36.2354 45.7696 36.2354Z" fill="white"></path> <path d="M45.7696 41.3041C43.7791 41.3041 42.1177 40.6653 41.7275 39.8149C41.6707 39.9387 41.6406 40.067 41.6406 40.1985V40.6047C41.6406 41.6389 43.4892 42.4774 45.7696 42.4774C48.0499 42.4774 49.8985 41.6389 49.8985 40.6047V40.1985C49.8985 40.067 49.8685 39.9387 49.8117 39.8149C49.4214 40.6653 47.7601 41.3041 45.7696 41.3041Z" fill="white"></path> <path d="M45.7696 43.3949C43.7791 43.3949 42.1177 42.756 41.7275 41.9058C41.6707 42.0296 41.6406 42.1578 41.6406 42.2894V42.6955C41.6406 43.7298 43.4892 44.5682 45.7696 44.5682C48.0499 44.5682 49.8985 43.7298 49.8985 42.6955V42.2894C49.8985 42.1578 49.8685 42.0296 49.8117 41.9058C49.4214 42.7561 47.7601 43.3949 45.7696 43.3949Z" fill="white"></path> <path d="M45.7696 45.5985C43.7791 45.5985 42.1177 44.9596 41.7275 44.1094C41.6707 44.2332 41.6406 44.3614 41.6406 44.4929V44.899C41.6406 45.9333 43.4892 46.7717 45.7696 46.7717C48.0499 46.7717 49.8985 45.9333 49.8985 44.899V44.4929C49.8985 44.3614 49.8685 44.2331 49.8117 44.1094C49.4214 44.9596 47.7601 45.5985 45.7696 45.5985Z" fill="white"></path> <path d="M45.7696 47.6894C43.7791 47.6894 42.1177 47.0505 41.7275 46.2003C41.6707 46.3241 41.6406 46.4524 41.6406 46.5838V46.9899C41.6406 48.0242 43.4892 48.8626 45.7696 48.8626C48.0499 48.8626 49.8985 48.0242 49.8985 46.9899V46.5837C49.8985 46.4523 49.8685 46.324 49.8117 46.2002C49.4214 47.0505 47.7601 47.6894 45.7696 47.6894Z" fill="white"></path> </svg> 