<svg width="612" height="612" xmlns="http://www.w3.org/2000/svg">

 <g>
  <title>background</title>
  <rect fill="none" id="canvas_background" height="402" width="582" y="-1" x="-1"/>
 </g>
 <g>
  <title>Layer 1</title>
  <g id="svg_1">
   <g id="svg_2">
    <path fill="#ffffff" stroke="null" id="svg_3" d="m535.672202,0l-460.343446,0c-41.224786,0 -74.764771,33.375 -74.764771,74.399l0,300.491c0,41.023 33.539984,74.399 74.76678,74.399l252.103104,0l0,144.555c0,7.58 4.733283,14.361 11.869386,17.011c2.080233,0.772 4.235836,1.144 6.370336,1.144c5.192542,0 10.259467,-2.207 13.794857,-6.268l136.189923,-156.442l40.01182,0c41.225791,0 74.765776,-33.375 74.765776,-74.399l0,-300.491c0.00201,-41.024 -33.537975,-74.399 -74.763766,-74.399zm38.276282,374.891c0,21.001 -17.169457,38.089 -38.276282,38.089c0,0 -47.204199,0.012 -47.481564,0c-5.392526,-0.251 -10.845349,1.891 -14.655089,6.268l-109.610176,125.913l0,-114.024c0,-10.026 -8.169185,-18.155 -18.244747,-18.155l-270.351871,0c-21.10582,0 -38.277287,-17.088 -38.277287,-38.089l0,-300.494c0.00201,-21.001 17.171467,-38.089 38.277287,-38.089l460.341436,0c21.10582,0 38.276282,17.088 38.276282,38.089l0,300.491l0.00201,0l0,0.001z"/>
   </g>
  </g>
  <g id="svg_7"/>
  <g id="svg_8"/>
  <g id="svg_9"/>
  <g id="svg_10"/>
  <g id="svg_11"/>
  <g id="svg_12"/>
  <g id="svg_13"/>
  <g id="svg_14"/>
  <g id="svg_15"/>
  <g id="svg_16"/>
  <g id="svg_17"/>
  <g id="svg_18"/>
  <g id="svg_19"/>
  <g id="svg_20"/>
  <g id="svg_21"/>
 </g>
</svg>