<svg width="80" height="29" viewBox="0 0 80 29" fill="none" xmlns="http://www.w3.org/2000/svg">
<path fill-rule="evenodd" clip-rule="evenodd" d="M15.7905 28.3918C15.7905 28.3918 15.4464 29.2024 16.8935 28.8536C18.3405 28.5047 20.0861 26.5551 20.0861 26.5551C22.3276 24.1749 27.1282 19.1988 27.7515 15.863C29.0953 8.67158 9.46567 12.9844 9.33409 14.1186C9.29361 14.4674 9.88054 14.3443 11.8235 14.1802C13.7664 14.0159 15.9117 14.0569 17.1664 14.2416C18.4213 14.4263 20.3845 14.9394 21.0928 15.7808C21.8012 16.6222 22.3274 17.4431 21.9024 19.0849C20.5936 24.1403 16.4072 26.4546 15.7905 28.3918Z" fill="#FFCF8B"/>
<path fill-rule="evenodd" clip-rule="evenodd" d="M26.8825 3.31797C26.8825 3.31797 26.8724 3.70787 25.0408 3.50265C23.2092 3.29743 18.0786 2.73304 13.9701 3.49236C9.8616 4.25168 6.90669 5.64718 6.50191 9.62846C6.09714 13.6097 9.05678 19.6267 9.05678 19.6267C9.05678 19.6267 11.3185 24.0862 12.0066 25.1328C12.6948 26.1795 13.1602 26.9593 13.2817 27.6981C13.4031 28.4368 12.8971 29.1141 11.3995 28.3754C9.90179 27.6366 8.50532 25.7279 7.91839 24.8455C7.33148 23.9631 4.45752 18.9557 3.18247 16.2468C1.90743 13.5379 -1.08793 6.88872 0.409745 3.60519C1.90741 0.321664 6.74442 0.0958767 7.85756 0.0548358C8.97069 0.0137948 13.0791 -0.253019 19.7984 0.916737C26.5177 2.08649 26.6998 2.80477 26.8825 3.31797Z" fill="#D39742"/>
<path d="M34.4443 13.7657C34.7744 13.7347 35.0648 13.7193 35.3154 13.7193C36.0978 13.7193 36.7061 13.9021 37.1401 14.2678C37.5771 14.6335 37.7956 15.1587 37.7956 15.8437C37.7956 16.4728 37.5771 16.9749 37.1401 17.3499C36.7061 17.7218 36.0978 17.9077 35.3154 17.9077H33.2615V11.102H37.3142V12.148H34.4443V13.7657ZM34.4443 16.899C34.6919 16.9176 34.9073 16.9268 35.0908 16.9268C35.6164 16.9268 35.9924 16.8276 36.2186 16.6293C36.4478 16.431 36.5624 16.1458 36.5624 15.774C36.5624 15.4486 36.4584 15.1867 36.2506 14.9884C36.0428 14.79 35.6685 14.6909 35.1274 14.6909C34.9135 14.6909 34.6858 14.7032 34.4443 14.728V16.899ZM43.9711 11.102C43.592 12.4904 43.1152 13.7673 42.5407 14.9325C41.9691 16.0978 41.419 16.8958 40.8902 17.3267C40.3645 17.7574 39.6691 17.9728 38.8043 17.9728V16.8617C38.8409 16.868 38.9127 16.8711 39.0198 16.8711C39.4109 16.8711 39.7333 16.7999 39.987 16.6573C40.2407 16.5147 40.4669 16.2992 40.6655 16.0111L38.2586 11.102H39.5836L41.3486 15.0627C41.8926 13.9409 42.3558 12.6206 42.7377 11.102H43.9711ZM51.1045 17.9077H49.9492L49.257 14.2445L47.9045 18.0007H47.4828L46.1212 14.2445L45.3968 17.9077H44.2506L45.6031 11.102H46.2312L47.689 15.6902L49.1057 11.102H49.7338L51.1045 17.9077ZM53.2135 12.1666V13.7657H55.4369V14.7931H53.2135V16.8339H56.253V17.9077H52.0214V11.102H56.3081V12.1666H53.2135ZM58.6232 15.4021V17.9077H57.4312V11.102C58.3085 11.0679 58.7745 11.0509 58.8294 11.0509C59.8747 11.0509 60.6449 11.2151 61.1401 11.5436C61.6383 11.8721 61.8874 12.3882 61.8874 13.0917C61.8874 14.6536 60.9797 15.4346 59.1642 15.4346C59.0266 15.4346 58.8463 15.4238 58.6232 15.4021ZM58.6232 12.148V14.3282C58.828 14.3469 58.9869 14.3561 59.1 14.3561C59.6441 14.3561 60.0413 14.2663 60.292 14.0865C60.5425 13.9036 60.6679 13.603 60.6679 13.1846C60.6679 12.4811 60.1071 12.1294 58.9854 12.1294C58.8173 12.1294 58.6966 12.1356 58.6232 12.148ZM66.9028 17.9077L66.4032 16.5271H64.1017L63.6433 17.9077H62.3091L64.9958 11.0044H65.5137L68.2141 17.9077H66.9028ZM65.2479 13.0917L64.441 15.602H66.0547L65.2479 13.0917ZM72.8123 17.9077V14.8443H70.1396V17.9077H68.9475V11.102H70.1396V13.7657H72.8123V11.102H73.9859V17.9077H72.8123ZM79.5517 12.1666H76.5763V17.9077H75.3751V11.102H79.5517V12.1666Z" fill="white"/>
</svg>
