<svg width="20" height="20" viewBox="0 0 20 20" fill="none" xmlns="http://www.w3.org/2000/svg">
<path d="M17.0755 2.92447C13.1762 -0.974823 6.82376 -0.974823 2.92447 2.92447C-0.974823 6.82376 -0.974823 13.1762 2.92447 17.0755C6.83409 20.9748 13.1659 20.9748 17.0755 17.0755C20.9748 13.1762 20.9748 6.82376 17.0755 2.92447ZM16.3473 16.3473C12.8457 19.8438 7.15429 19.8438 3.65784 16.3473C0.161394 12.8457 0.161394 7.15429 3.65784 3.65784C7.16462 0.161394 12.8405 0.161394 16.3473 3.65784C19.8438 7.15429 19.8438 12.8457 16.3473 16.3473Z" fill="white"/>
<path d="M12.3697 9.9999L15.0812 7.28847C15.2826 7.08705 15.2826 6.76168 15.0812 6.56026L13.444 4.92308C13.2426 4.72166 12.9172 4.72166 12.7158 4.92308L9.99917 7.62934L7.28774 4.91791C7.08632 4.71649 6.76095 4.71649 6.55953 4.91791L4.92234 6.5551C4.72092 6.75652 4.72092 7.08189 4.92234 7.28331L7.62861 9.9999L4.91718 12.7113C4.71576 12.9127 4.71576 13.2381 4.91718 13.4395L6.55436 15.0767C6.75578 15.2781 7.08116 15.2781 7.28258 15.0767L9.99917 12.3705L12.7106 15.0819C12.912 15.2833 13.2374 15.2833 13.4388 15.0819L15.076 13.4447C15.2774 13.2433 15.2774 12.9179 15.076 12.7165L12.3697 9.9999ZM13.0773 13.9818L10.3659 11.2704C10.1644 11.069 9.83906 11.069 9.63764 11.2704L6.92622 13.9818L6.01724 13.0728L8.72867 10.3614C8.93009 10.16 8.93009 9.83463 8.72867 9.63321L6.01208 6.92178L6.92105 6.01281L9.63248 8.72424C9.8339 8.92566 10.1593 8.92566 10.3607 8.72424L13.0721 6.01281L13.9811 6.92178L11.2748 9.63321C11.0734 9.83463 11.0734 10.16 11.2748 10.3614L13.9863 13.0728L13.0773 13.9818Z" fill="white"/>
</svg>
