<svg width="14" height="14" viewBox="0 0 14 14" fill="none" xmlns="http://www.w3.org/2000/svg">
<g clip-path="url(#clip0)">
<path d="M9.66843 4.82697L8.57255 4.78677L8.33496 11.275L9.43084 11.315L9.66843 4.82697Z" fill="#979797"/>
<path d="M7.54777 4.80688H6.45117V11.2952H7.54777V4.80688Z" fill="#979797"/>
<path d="M5.66502 11.2748L5.42743 4.78654L4.33154 4.82677L4.56916 11.315L5.66502 11.2748Z" fill="#979797"/>
<path d="M0.475098 2.10188V3.19848H1.61777L2.52427 13.4998C2.54912 13.7829 2.78619 14.0001 3.07037 14.0001H10.9109C11.1951 14.0001 11.4324 13.7828 11.457 13.4996L12.3636 3.19848H13.5247V2.10188H0.475098ZM10.4087 12.9035H3.57246L2.71857 3.19848H11.2628L10.4087 12.9035Z" fill="#979797"/>
<path d="M8.79099 0H5.20875C4.70486 0 4.29492 0.409937 4.29492 0.913828V2.65013H5.39151V1.09659H8.60822V2.65013H9.70481V0.913828C9.70481 0.409937 9.29488 0 8.79099 0Z" fill="#979797"/>
</g>
<defs>
<clipPath id="clip0">
<rect width="14" height="14" fill="white"/>
</clipPath>
</defs>
</svg>
