<svg width="20" height="20" viewBox="0 0 20 20" fill="none" xmlns="http://www.w3.org/2000/svg">
<g clip-path="url(#clip0)">
<path d="M16.4083 3.84113C16.2079 3.02594 15.6097 2.38937 14.8082 2.13918C14.0028 1.8873 13.1515 2.07105 12.5241 2.6275L11.5264 3.50937L16.3079 5.24965C16.4766 4.80629 16.526 4.32016 16.4083 3.84113Z" fill="#0278AE"/>
<path d="M10.8998 2.03616C10.775 1.20608 10.238 0.509595 9.46346 0.186118C8.68893 -0.137905 7.82162 -0.0343115 7.14268 0.46147C6.74486 0.752407 6.47045 1.16432 6.31494 1.61245L11.0971 3.35303L10.8998 2.03616Z" fill="#0278AE"/>
<path d="M8.41406 9.86194V20H9.58648V10.2887L8.41406 9.86194Z" fill="#0278AE"/>
<path d="M1.96609 9.48737C1.64207 9.48737 1.37988 9.74955 1.37988 10.0736V18.2414C1.37988 19.2111 2.16875 20 3.13852 20H7.24195V9.48737H1.96609Z" fill="#0278AE"/>
<path d="M10.7593 10.7155V20H14.8627C15.8324 20 16.6213 19.2112 16.6213 18.2414V12.849L10.7593 10.7155Z" fill="#0278AE"/>
<path d="M10.4157 4.35223L8.81201 8.75873L9.9141 9.15983L11.5178 4.75333L10.4157 4.35223Z" fill="#0278AE"/>
<path d="M17.5766 6.95881L12.619 5.15448L11.0151 9.56099L17.0746 11.7664C17.1404 11.7904 17.2085 11.8019 17.2749 11.8019C17.5142 11.8019 17.7392 11.6542 17.8256 11.416L18.6276 9.2126C18.9612 8.29736 18.4881 7.291 17.5766 6.95881Z" fill="#0278AE"/>
<path d="M4.35667 2.14719C3.44702 1.8145 2.43667 2.28078 2.10226 3.19825L1.30081 5.40168C1.18976 5.70567 1.34663 6.04231 1.65116 6.15278L7.71038 8.35813L9.31437 3.95161L4.35667 2.14719Z" fill="#0278AE"/>
</g>
<defs>
<clipPath id="clip0">
<rect width="20" height="20" fill="white"/>
</clipPath>
</defs>
</svg>
