<svg width="100" height="100" viewBox="0 0 100 100" fill="none" xmlns="http://www.w3.org/2000/svg">
<g clip-path="url(#clip0)">
<path d="M96.375 3.17246H94.6676V1.46484C94.6676 0.655859 94.0117 0 93.2027 0C92.3938 0 91.7379 0.655859 91.7379 1.46484V3.17246H90.0303C89.2213 3.17246 88.5654 3.82832 88.5654 4.6373C88.5654 5.44629 89.2213 6.10215 90.0303 6.10215H91.7379V7.80977C91.7379 8.61875 92.3938 9.27461 93.2027 9.27461C94.0117 9.27461 94.6676 8.61875 94.6676 7.80977V6.10215H96.3752C97.1842 6.10215 97.84 5.44629 97.84 4.6373C97.84 3.82832 97.184 3.17246 96.375 3.17246Z" fill="#0278AE"/>
<path d="M11.7688 88.0242H10.0611V86.3166C10.0611 85.5076 9.40528 84.8517 8.59629 84.8517C7.78731 84.8517 7.13145 85.5076 7.13145 86.3166V88.0242H5.42383C4.61484 88.0242 3.95898 88.6801 3.95898 89.489C3.95898 90.298 4.61484 90.9539 5.42383 90.9539H7.13145V92.6615C7.13145 93.4705 7.78731 94.1264 8.59629 94.1264C9.40528 94.1264 10.0611 93.4705 10.0611 92.6615V90.9539H11.7688C12.5777 90.9539 13.2336 90.298 13.2336 89.489C13.2336 88.6801 12.5777 88.0242 11.7688 88.0242Z" fill="#0278AE"/>
<path d="M84.5322 16.4406C85.3448 16.3089 85.8967 15.5434 85.765 14.7308C85.6333 13.9183 84.8678 13.3664 84.0552 13.4981C83.2427 13.6298 82.6908 14.3953 82.8225 15.2078C82.9542 16.0204 83.7197 16.5723 84.5322 16.4406Z" fill="#0278AE"/>
<path d="M33.8947 43.9377C33.8947 44.7467 34.5506 45.4026 35.3596 45.4026C36.1686 45.4026 36.8244 44.7467 36.8244 43.9377C36.8244 41.0264 34.4559 38.6578 31.5445 38.6578C28.6332 38.6578 26.2646 41.0264 26.2646 43.9377C26.2646 44.7467 26.9205 45.4026 27.7295 45.4026C28.5385 45.4026 29.1943 44.7467 29.1943 43.9377C29.1943 42.6418 30.2486 41.5875 31.5445 41.5875C32.8404 41.5875 33.8947 42.6418 33.8947 43.9377Z" fill="#0278AE"/>
<path d="M61.9473 43.9377C61.9473 42.6418 63.0016 41.5875 64.2975 41.5875C65.5934 41.5875 66.6477 42.6418 66.6477 43.9377C66.6477 44.7467 67.3035 45.4026 68.1125 45.4026C68.9215 45.4026 69.5773 44.7467 69.5773 43.9377C69.5773 41.0264 67.2088 38.6578 64.2975 38.6578C61.3861 38.6578 59.0176 41.0264 59.0176 43.9377C59.0176 44.7467 59.6734 45.4026 60.4824 45.4026C61.2914 45.4026 61.9473 44.7469 61.9473 43.9377Z" fill="#0278AE"/>
<path d="M39.126 60.0791C43.7602 64.7721 52.3223 65.0918 57.2779 60.0653C59.824 57.5907 61.2262 54.2715 61.2262 50.7194C61.2262 49.9104 60.5703 49.2545 59.7613 49.2545H36.624C35.815 49.2545 35.1592 49.9104 35.1592 50.7194C35.1592 54.2 36.515 57.4729 38.9812 59.9391C39.0293 59.9871 39.0777 60.0348 39.126 60.0791ZM47.7443 60.8125C46.0762 60.7225 44.2191 60.2612 42.5018 59.0651C44.1978 58.0032 46.1668 57.4313 48.1926 57.4313C50.2197 57.4313 52.1891 58.0033 53.8849 59.0656C52.2162 60.1733 50.1922 60.9276 47.7443 60.8125ZM58.1924 52.1842C57.9371 53.9608 57.2174 55.6196 56.0928 57.0219C53.7937 55.3899 51.0387 54.5016 48.1928 54.5016C45.3488 54.5016 42.5945 55.3893 40.2953 57.0201C39.1711 55.6166 38.4498 53.9571 38.1937 52.1842H58.1924Z" fill="#0278AE"/>
<path d="M48.1168 8.08673C41.5672 8.08673 35.2404 9.43634 29.3121 12.0981C23.5857 14.6692 18.5209 18.3266 14.258 22.969C13.7109 23.5649 13.7504 24.4914 14.3463 25.0387C14.9422 25.5859 15.8687 25.5463 16.416 24.9504C20.4082 20.6027 25.1508 17.1777 30.5121 14.7707C36.0605 12.2795 41.9836 11.0164 48.1168 11.0164C59.6098 11.0164 70.4148 15.492 78.5414 23.6186C86.668 31.7453 91.1436 42.5504 91.1436 54.0432C91.1436 65.5359 86.668 76.3412 78.5414 84.4678C70.4146 92.5947 59.6098 97.0703 48.1168 97.0703C36.6238 97.0703 25.8188 92.5947 17.6922 84.468C9.56563 76.3412 5.08984 65.5361 5.08984 54.0434C5.08984 45.4986 7.58828 37.2432 12.3152 30.1693C12.7646 29.4967 12.5838 28.5869 11.9111 28.1375C11.2385 27.6879 10.3287 27.869 9.8793 28.5416C4.82949 36.0988 2.16016 44.9172 2.16016 54.0434C2.16016 66.319 6.94043 77.8596 15.6205 86.5397C24.3006 95.2197 35.8412 100 48.1168 100C60.3924 100 71.933 95.2197 80.6131 86.5397C89.2932 77.8596 94.0734 66.319 94.0734 54.0434C94.0734 41.7678 89.2932 30.2272 80.6131 21.5471C71.933 12.867 60.3924 8.08673 48.1168 8.08673Z" fill="#0278AE"/>
<path d="M75.9836 75.999C76.6389 76.4736 77.5547 76.3269 78.0293 75.6719C82.607 69.3512 85.027 61.8721 85.027 54.0433C85.027 33.6908 68.4689 17.133 48.1166 17.133C27.7641 17.133 11.2061 33.691 11.2061 54.0433C11.2061 74.3959 27.7641 90.9539 48.1166 90.9539C57.4338 90.9539 66.3301 87.4726 73.1672 81.1516C73.7613 80.6023 73.7977 79.6756 73.2484 79.0816C72.6994 78.4875 71.7727 78.4512 71.1785 79.0004C64.8844 84.8193 56.6941 88.0242 48.1166 88.0242C29.3795 88.0242 14.1357 72.7805 14.1357 54.0433C14.1357 35.3062 29.3795 20.0627 48.1166 20.0627C66.8537 20.0627 82.0973 35.3064 82.0973 54.0433C82.0973 61.251 79.8701 68.1357 75.6566 73.9533C75.182 74.6086 75.3285 75.5244 75.9836 75.999Z" fill="#0278AE"/>
<path d="M71.4939 57.9682C75.4744 57.9682 78.5926 55.8924 78.5926 53.2424C78.5926 50.5924 75.4746 48.5164 71.4939 48.5164C67.5135 48.5164 64.3955 50.5922 64.3955 53.2424C64.3955 55.8924 67.5135 57.9682 71.4939 57.9682ZM68.2443 52.2043C69.0766 51.7225 70.2611 51.4463 71.4941 51.4463C72.7271 51.4463 73.9117 51.7227 74.7439 52.2043C75.3107 52.5324 75.6631 52.9303 75.6631 53.2424C75.6631 53.5545 75.3109 53.9523 74.7439 54.2805C73.9117 54.7623 72.7271 55.0385 71.4941 55.0385C70.2611 55.0385 69.0768 54.7621 68.2443 54.2805C67.6775 53.9523 67.3252 53.5545 67.3252 53.2424C67.3252 52.9301 67.6773 52.5324 68.2443 52.2043Z" fill="#0278AE"/>
<path d="M24.74 48.5164C20.7596 48.5164 17.6416 50.5922 17.6416 53.2424C17.6416 55.8924 20.7596 57.9682 24.74 57.9682C28.7205 57.9682 31.8385 55.8924 31.8385 53.2424C31.8385 50.5924 28.7205 48.5164 24.74 48.5164ZM27.9898 54.2805C27.1576 54.7623 25.9731 55.0385 24.74 55.0385C23.507 55.0385 22.3227 54.7621 21.4902 54.2805C20.9234 53.9523 20.5711 53.5545 20.5711 53.2424C20.5711 52.9301 20.9232 52.5324 21.4902 52.2043C22.3225 51.7225 23.507 51.4463 24.74 51.4463C25.9731 51.4463 27.1574 51.7227 27.9898 52.2043C28.5566 52.5324 28.909 52.9303 28.909 53.2424C28.9088 53.5545 28.5566 53.9523 27.9898 54.2805Z" fill="#0278AE"/>
</g>
<defs>
<clipPath id="clip0">
<rect width="100" height="100" fill="white"/>
</clipPath>
</defs>
</svg>
