<svg width="9" height="9" viewBox="0 0 9 9" fill="none" xmlns="http://www.w3.org/2000/svg">
<path d="M8.17948 3.69787H5.23604V0.754433C5.23604 0.348234 4.9071 0.0185547 4.50016 0.0185547C4.09322 0.0185547 3.76428 0.348234 3.76428 0.754433V3.69787H0.82084C0.413898 3.69787 0.0849609 4.02755 0.0849609 4.43375C0.0849609 4.83995 0.413898 5.16963 0.82084 5.16963H3.76428V8.11307C3.76428 8.51927 4.09322 8.84895 4.50016 8.84895C4.9071 8.84895 5.23604 8.51927 5.23604 8.11307V5.16963H8.17948C8.58642 5.16963 8.91536 4.83995 8.91536 4.43375C8.91536 4.02755 8.58642 3.69787 8.17948 3.69787Z" fill="#0278AE"/>
</svg>
