<svg width="20" height="20" viewBox="0 0 20 20" fill="none" xmlns="http://www.w3.org/2000/svg">
<g clip-path="url(#clip0)">
<path d="M19.883 7.26558L18.8341 5.86707L18.2509 9.94957C18.1975 10.3235 18.0209 10.6767 17.7537 10.9439L10.5722 18.1254C9.94578 18.7519 9.11195 19.0969 8.22437 19.0969C7.9591 19.0969 7.69883 19.0655 7.44727 19.0055C7.8293 19.6028 8.49793 20 9.25805 20H17.8518C19.0364 20 20.0002 19.0362 20.0002 17.8515V7.61714C20.0002 7.49039 19.9591 7.36703 19.883 7.26558Z" fill="#0278AE"/>
<path d="M12.0913 9.7345C12.4149 9.7345 12.6772 9.47216 12.6772 9.14856C12.6772 8.82496 12.4149 8.56262 12.0913 8.56262C11.7677 8.56262 11.5054 8.82496 11.5054 9.14856C11.5054 9.47216 11.7677 9.7345 12.0913 9.7345Z" fill="#0278AE"/>
<path d="M5.46191 9.7345C5.78551 9.7345 6.04784 9.47216 6.04784 9.14856C6.04784 8.82496 5.78551 8.56262 5.46191 8.56262C5.13831 8.56262 4.87598 8.82496 4.87598 9.14856C4.87598 9.47216 5.13831 9.7345 5.46191 9.7345Z" fill="#0278AE"/>
<path d="M9.7438 17.2968L16.9254 10.1152C17.015 10.0256 17.0732 9.90928 17.0911 9.78377L17.9198 3.98326C17.9458 3.80068 17.8845 3.61646 17.754 3.48607L16.5111 2.2431L14.8538 3.90041L15.2681 4.31475C15.497 4.54353 15.497 4.91455 15.2681 5.14338C15.1537 5.25779 15.0038 5.31502 14.8538 5.31502C14.7039 5.31502 14.5539 5.25779 14.4395 5.14338L12.7822 3.48607C12.5534 3.25728 12.5534 2.88627 12.7822 2.65744C13.011 2.42865 13.382 2.42865 13.6109 2.65744L14.0252 3.07178L15.6825 1.41447L14.4395 0.171503C14.3091 0.0410738 14.1249 -0.0200981 13.9423 0.00576126L8.14177 0.834433C8.01626 0.852363 7.89997 0.910527 7.81032 1.00018L0.62876 8.18174C-0.208936 9.01939 -0.208936 10.3824 0.62876 11.2201L6.70544 17.2968C7.12427 17.7156 7.67446 17.925 8.22462 17.925C8.77478 17.925 9.32497 17.7156 9.7438 17.2968ZM12.0916 7.39068C13.0609 7.39068 13.8494 8.17924 13.8494 9.1485C13.8494 10.1178 13.0609 10.9063 12.0916 10.9063C11.1224 10.9063 10.3338 10.1178 10.3338 9.1485C10.3338 8.17924 11.1224 7.39068 12.0916 7.39068ZM5.46247 10.9063C4.49321 10.9063 3.70466 10.1178 3.70466 9.1485C3.70466 8.17924 4.49321 7.39068 5.46247 7.39068C6.43173 7.39068 7.22028 8.17924 7.22028 9.1485C7.22028 10.1178 6.43177 10.9063 5.46247 10.9063ZM7.39606 13.8778C7.33466 13.8778 7.27216 13.8681 7.21071 13.8476C6.90372 13.7453 6.73782 13.4135 6.84013 13.1064L9.60224 4.81998C9.70458 4.51299 10.0364 4.34709 10.3434 4.44939C10.6504 4.55174 10.8163 4.88353 10.714 5.19057L7.95189 13.477C7.87001 13.7225 7.64138 13.8778 7.39606 13.8778Z" fill="#0278AE"/>
<path d="M17.7537 1.00022C17.9825 0.771436 17.9825 0.40042 17.7537 0.171592C17.5249 -0.0571973 17.1539 -0.0571973 16.9251 0.171592L15.6821 1.41456L16.5108 2.24319L17.7537 1.00022Z" fill="#0278AE"/>
</g>
<defs>
<clipPath id="clip0">
<rect width="20" height="20" fill="white"/>
</clipPath>
</defs>
</svg>
