<svg width="176" height="32" fill="none" xmlns="http://www.w3.org/2000/svg"><path d="M41.666 31.794l30.618-29.03h20.638l-29.937 29.03H41.666zm31.988-2.558L104.27.206h20.638l-29.937 29.03H73.654z" fill="#74B2DC"/><path d="M2.216 5.234h2.406v15.873L15.286 5.234h2.666v20.043h-2.406V9.445L4.868 25.277H2.216V5.234zm20.166 20.043V5.234h2.652v8.23h10.418v-8.23h2.652v20.043h-2.652V15.83H25.034v9.447h-2.652zm25.252 0V7.6H41.03V5.234h15.887V7.6h-6.631v17.678h-2.652zm12.072 0V5.234h14.492V7.6h-11.84v6.14h11.088v2.35H62.358v6.823h12.305v2.365H59.706zm18.621 0V5.234h7.56c1.331 0 2.348.064 3.05.192.984.164 1.809.478 2.474.943.665.456 1.199 1.098 1.6 1.928.41.83.615 1.74.615 2.734 0 1.705-.543 3.15-1.627 4.334-1.085 1.176-3.044 1.764-5.879 1.764h-5.14v8.148h-2.653zm2.652-10.514h5.182c1.714 0 2.93-.319 3.65-.957.72-.637 1.08-1.535 1.08-2.693 0-.838-.214-1.554-.642-2.146a2.932 2.932 0 00-1.668-1.19c-.447-.118-1.272-.178-2.475-.178H80.98v7.165zm22.942-7.122V5.07h2.488v2.57c2.552.136 4.566.906 6.043 2.31 1.477 1.395 2.215 3.13 2.215 5.209 0 2.033-.716 3.76-2.147 5.182-1.431 1.422-3.468 2.205-6.111 2.351v2.584h-2.488v-2.584c-2.37-.09-4.343-.811-5.92-2.16-1.577-1.358-2.365-3.149-2.365-5.373 0-2.233.784-4.02 2.351-5.36 1.577-1.34 3.555-2.06 5.934-2.16zm2.488 2.269v10.5c1.714-.082 3.063-.579 4.047-1.49.984-.912 1.476-2.165 1.476-3.76 0-1.568-.483-2.807-1.449-3.719-.966-.92-2.324-1.43-4.074-1.531zm-2.488.014c-1.65.073-2.985.56-4.006 1.463-1.02.902-1.531 2.16-1.531 3.773 0 1.595.501 2.848 1.504 3.76 1.011.911 2.356 1.403 4.033 1.476V9.924zm14.109 15.353V5.234h14.492V7.6h-11.84v6.14h11.088v2.35h-11.088v6.823h12.305v2.365H118.03zm18.662-20.043h2.407v15.873l10.664-15.873h2.666v20.043h-2.407V9.445l-10.677 15.832h-2.653V5.234zm9.967-4.771h1.682c-.137 1.14-.556 2.014-1.258 2.625-.693.61-1.618.916-2.776.916-1.166 0-2.1-.301-2.802-.903-.693-.61-1.108-1.49-1.244-2.638h1.681c.128.62.379 1.084.752 1.394.383.301.893.451 1.531.451.739 0 1.295-.145 1.668-.437.383-.3.638-.77.766-1.408zm24.418 17.787l2.652.67c-.556 2.178-1.558 3.842-3.007 4.99-1.441 1.14-3.204 1.709-5.291 1.709-2.161 0-3.92-.438-5.278-1.313-1.349-.884-2.379-2.16-3.09-3.828-.701-1.668-1.052-3.459-1.052-5.373 0-2.087.396-3.905 1.189-5.455.802-1.558 1.937-2.739 3.404-3.54 1.477-.812 3.099-1.218 4.868-1.218 2.005 0 3.691.51 5.058 1.532 1.367 1.02 2.32 2.456 2.858 4.306l-2.612.616c-.465-1.459-1.139-2.52-2.023-3.186-.884-.665-1.996-.998-3.336-.998-1.54 0-2.83.37-3.869 1.107-1.03.739-1.755 1.732-2.174 2.98a11.918 11.918 0 00-.629 3.843c0 1.704.246 3.194.738 4.47.502 1.267 1.276 2.215 2.324 2.844a6.502 6.502 0 003.405.944c1.485 0 2.743-.429 3.773-1.286 1.03-.856 1.727-2.128 2.092-3.814z" fill="#181889"/></svg>