<svg xmlns="http://www.w3.org/2000/svg" width="44" height="44" fill="none"><rect width="44" height="44" rx="6" fill="#0C9DF7"/><path d="M13.474 26.506c-.969-1.112-1.453-2.598-1.453-4.458 0-1.859.484-3.342 1.453-4.449.968-1.112 2.155-1.668 3.56-1.668 1.406 0 2.593.556 3.562 1.668.968 1.107 1.452 2.59 1.452 4.45 0 1.859-.484 3.345-1.452 4.457-.969 1.107-2.156 1.66-3.561 1.66-1.406 0-2.593-.553-3.561-1.66zm5.777-1.212c.62-.791.93-1.873.93-3.246 0-1.372-.31-2.451-.93-3.237-.614-.786-1.353-1.179-2.216-1.179-.864 0-1.605.393-2.225 1.179-.614.786-.921 1.865-.921 3.237 0 1.373.307 2.455.921 3.246.62.786 1.361 1.179 2.225 1.179.863 0 1.602-.393 2.216-1.18zM31.652 28H23.75c0-.736.11-1.403.332-2 .221-.604.51-1.105.863-1.503a9.21 9.21 0 011.179-1.096c.432-.332.86-.633 1.287-.904.426-.277.816-.548 1.17-.814.36-.265.65-.575.872-.93.221-.36.332-.75.332-1.17 0-.603-.189-1.08-.565-1.428-.37-.348-.89-.523-1.56-.523-.327 0-.634.061-.922.183a1.937 1.937 0 00-.664.423c-.155.16-.293.324-.415.49-.116.166-.196.31-.24.432l-.059.174-1.527-.68c.022-.078.053-.178.091-.3.045-.121.16-.337.349-.647a4.1 4.1 0 01.672-.822c.255-.238.623-.456 1.104-.655a4.175 4.175 0 011.61-.3c1.168 0 2.126.352 2.873 1.055.747.703 1.12 1.569 1.12 2.598 0 .542-.11 1.046-.332 1.51a3.768 3.768 0 01-.846 1.171c-.338.31-.728.631-1.17.963-.438.326-.864.625-1.28.896a8.827 8.827 0 00-1.228.98 4.448 4.448 0 00-.921 1.195h5.777V28z" fill="#fff"/></svg>