<svg xmlns="http://www.w3.org/2000/svg" width="44" height="44" fill="none"><rect width="44" height="44" rx="6" fill="#0C9DF7"/><path d="M13.474 26.506c-.969-1.112-1.453-2.598-1.453-4.458 0-1.859.484-3.342 1.453-4.449.968-1.112 2.155-1.668 3.56-1.668 1.406 0 2.593.556 3.562 1.668.968 1.107 1.452 2.59 1.452 4.45 0 1.859-.484 3.345-1.452 4.457-.969 1.107-2.156 1.66-3.561 1.66-1.406 0-2.593-.553-3.561-1.66zm5.777-1.212c.62-.791.93-1.873.93-3.246 0-1.372-.31-2.451-.93-3.237-.614-.786-1.353-1.179-2.216-1.179-.864 0-1.605.393-2.225 1.179-.614.786-.921 1.865-.921 3.237 0 1.373.307 2.455.921 3.246.62.786 1.361 1.179 2.225 1.179.863 0 1.602-.393 2.216-1.18zm10.534-3.586c.055.022.13.055.224.1.1.038.27.138.514.298.244.155.46.335.648.54.188.205.357.49.506.855.155.36.233.755.233 1.187 0 .974-.39 1.799-1.17 2.474-.775.67-1.802 1.004-3.08 1.004a6.083 6.083 0 01-1.544-.19 5.56 5.56 0 01-1.212-.466 7.073 7.073 0 01-.822-.548 3.793 3.793 0 01-.506-.456l-.166-.208 1.187-1.187c.022.034.06.083.116.15.06.06.188.171.382.332.193.155.395.293.606.415a4.288 4.288 0 001.959.465c.736 0 1.317-.177 1.743-.532.426-.36.639-.805.639-1.336 0-.537-.213-.982-.64-1.336-.425-.36-1.006-.54-1.742-.54h-1.187v-1.702h1.187c.586 0 1.043-.152 1.37-.456.331-.305.497-.717.497-1.237 0-.526-.166-.94-.498-1.245-.326-.304-.783-.457-1.37-.457-.497 0-.968.108-1.41.324-.443.216-.756.423-.938.623l-.283.323-1.195-1.187c.033-.044.083-.105.15-.182.071-.083.226-.23.464-.44a4.3 4.3 0 01.764-.54c.271-.155.628-.296 1.07-.423a4.77 4.77 0 011.379-.2c1.167 0 2.083.302 2.747.905.664.598.996 1.373.996 2.325 0 .326-.058.642-.174.946a2.37 2.37 0 01-.407.73c-.16.189-.318.352-.473.49a1.79 1.79 0 01-.398.282l-.166.1z" fill="#fff"/></svg>