<svg width="612" height="612" xmlns="http://www.w3.org/2000/svg"><path fill="none" id="canvas_background" d="M-1-1h582v402H-1z"/><g id="svg_1"><g id="svg_2"><path fill="#fff" stroke="null" id="svg_3" d="M535.672 0H75.33C34.104 0 .564 33.375.564 74.399V374.89c0 41.023 33.54 74.399 74.767 74.399h252.103v144.555c0 7.58 4.733 14.361 11.87 17.011a18.29 18.29 0 006.37 1.144c5.192 0 10.26-2.207 13.794-6.268l136.19-156.442h40.012c41.226 0 74.766-33.375 74.766-74.399V74.399C610.438 33.375 576.898 0 535.672 0zm38.276 374.891c0 21.001-17.169 38.089-38.276 38.089 0 0-47.204.012-47.481 0a18.272 18.272 0 00-14.655 6.268l-109.61 125.913V431.137c0-10.026-8.17-18.155-18.245-18.155H75.329c-21.106 0-38.278-17.088-38.278-38.089V74.399C37.053 53.398 54.223 36.31 75.33 36.31h460.34c21.106 0 38.276 17.088 38.276 38.089V374.89h.002v.001z"/></g></g></svg>