<svg version="1.1" id="Ebene_1" xmlns="http://www.w3.org/2000/svg" x="0" y="0" viewBox="0 0 129 138.1" xml:space="preserve"><style>.st0{fill:#ca7c34}</style><g id="Gruppe_121" transform="translate(-1324.504 -468.706)"><path id="Pfad_136" class="st0" d="M1371 554.4c3.6 0 7.2-.7 10.5-2.2 1.2-.6 1.7-2 1.1-3.2-.5-1.1-1.8-1.6-3-1.2-10.9 4.8-23.6-.2-28.4-11.1-4.8-10.9.2-23.6 11.1-28.4 1.5-.7 3.1-1.2 4.8-1.5 1.3-.2 2.2-1.5 1.9-2.8 0-.2-.1-.3-.1-.5-4.5-11 .9-23.6 11.9-28.1s23.6.9 28.1 11.9c1.5 3.7 1.9 7.6 1.3 11.5-.2 1 .4 2 1.3 2.5 10.7 5.2 15.2 18.1 10 28.8-3.6 7.4-11.1 12.1-19.4 12.1h-1.4c-1.3-.1-2.5.8-2.6 2.1s.8 2.5 2.1 2.6h1.9c14.5 0 26.3-11.8 26.3-26.4 0-9.4-5.1-18.1-13.2-22.8.1-.8.1-1.6.1-2.3-.1-14.5-12-26.2-26.5-26.1s-26.2 12-26.1 26.5c0 2.2.3 4.4.9 6.6-14 4-22.1 18.5-18.1 32.5 3.2 11.7 13.6 19.6 25.5 19.5z"/><path id="Pfad_137" class="st0" d="M1406.8 517.8c.3-1.3-.4-2.6-1.7-2.9s-2.6.4-2.9 1.7c0 .1 0 .2-.1.3-1.4 7.1-6.7 12-10.1 14.5-1.4-9.2-4.6-18-9.4-26-.6-1.2-2.1-1.6-3.2-1-1.2.6-1.6 2.1-1 3.2l.1.1.1.1c19.4 32.1 3.6 71.7 3.4 72.1-.5 1.2.1 2.6 1.3 3.1.3.1.6.2.9.2 1 0 1.8-.6 2.2-1.5 5.4-14.4 7.5-29.8 6.3-45.1 3.5-2.2 12-8.4 14.1-18.8z"/><path id="Pfad_138" class="st0" d="M1431.1 556.4v-3h-2.6v3h-3.3v2.6h3.3v6.2h2.6V559h3.3v-2.6h-3.3z"/><path id="Rechteck_32" class="st0" d="M1407.7 580.5h44.1v2.6h-44.1z"/><path id="Pfad_139" class="st0" d="M1447.5 578.3h-2.6v-21.5c0-8.3-6.7-15.1-15.1-15.1s-15.1 6.7-15.1 15.1v21.6h-2.6v-21.5c0-9.8 7.9-17.8 17.7-17.8 9.8 0 17.8 7.9 17.8 17.7v.1l-.1 21.4z"/><path class="st0" d="M1387.6 605.9c-7.4 0-14.8-1.4-22-4.1-15.3-5.9-27.5-17.4-34.1-32.3a61.06 61.06 0 017.6-62.7l2.4 1.8c-13.2 17.1-16 39.9-7.2 59.6 6.4 14.3 17.9 25.2 32.5 30.8 14.6 5.6 30.5 5.1 44.7-1.2l1.2 2.7c-8.1 3.6-16.6 5.4-25.1 5.4z"/></g></svg>