<svg version="1.1" id="Ebene_1" xmlns="http://www.w3.org/2000/svg" x="0" y="0" viewBox="0 0 20.5 32" xml:space="preserve"><style>.st0{fill:#fff}</style><g id="Gruppe_29"><g id="Gruppe_11"><path id="Pfad_41" class="st0" d="M15.6 21.8l-1.3 2c2 .5 3.6 1.4 3.6 2.5 0 1.9-4.5 3.1-7.6 3.1s-7.6-1.2-7.6-3.1c0-1.1 1.6-2 3.6-2.5l-1.3-2c-2.8.9-4.6 2.6-4.6 4.6 0 3.1 4.3 5.4 9.9 5.4s9.9-2.3 9.9-5.4c0-2-1.8-3.7-4.6-4.6"/><path id="Pfad_42" class="st0" d="M9.2 25c.4.6 1.2.8 1.8.4.1-.1.3-.2.4-.4l6.9-10.7c.9-1.5 1.3-3.1 1.2-4.8-.1-5.1-4.3-9.2-9.4-9.1S.9 4.6 1 9.7c0 1.6.4 3.2 1.2 4.6l7 10.7zm1-19.8c2.5 0 4.5 2 4.5 4.5s-2 4.5-4.5 4.5-4.5-2-4.5-4.5 2-4.5 4.5-4.5"/></g></g></svg>