<svg version="1.1" id="Ebene_1" xmlns="http://www.w3.org/2000/svg" x="0" y="0" viewBox="0 0 44.3 44.2" xml:space="preserve"><style/><path d="M22.2.6C10.4.6.7 10.3.7 22.1c0 6.2 2.7 12.1 7.3 16.2.4.4 1.1.3 1.5-.1.4-.4.3-1.1-.1-1.5-4.2-3.7-6.6-9-6.6-14.6 0-10.7 8.7-19.4 19.4-19.4s19.4 8.7 19.4 19.4-8.7 19.4-19.4 19.4c-2.6 0-4.2-.5-4.8-1.3-.6-1.1.3-3 1.2-4.5l.4.2c.5.2 1 .3 1.6.3 1.6 0 3-.9 3.6-2.4L25 32c.9-2 0-4.3-2-5.2l-2.7-1.2c-.2-.1-.5-.6-.5-1.7.1-1.5.4-3 1.1-4.3 1.1-2.6 2.6-4.1 3.6-4.5.2-.1.4-.1.5 0l2.7 1.2c2 .8 4.3 0 5.2-2l.8-1.8c.4-1 .4-2 .1-3-.4-1-1.1-1.8-2.1-2.2L29 6.1c-.6-.2-1.1-.4-1.8-.4-3.9 0-8.7 4.7-11.7 11.5-1.7 3.8-2.6 7.8-2.4 11 .1 3.3 1.3 5.6 3.3 6.4l.4.2c-1.1 1.9-2.2 4.4-1 6.4.9 1.6 3.1 2.3 6.5 2.3 11.8 0 21.5-9.7 21.5-21.5C43.7 10.3 34 .6 22.2.6zm4.9 7.3c.4 0 .7.1 1 .2l2.7 1.2c.5.2.8.6 1 1 .2.5.2 1 0 1.4l-.8 1.8c-.4.9-1.5 1.4-2.5 1l-2.7-1.2c-.3-.1-.6-.2-.9-.2-2.3 0-4.5 2.9-5.8 5.8-.8 1.6-1.2 3.3-1.3 5.1 0 1.8.6 3.1 1.7 3.6l2.7 1.2c.9.4 1.4 1.5 1 2.5l-.9 1.7c-.4.9-1.5 1.4-2.5 1l-2.7-1.2c-1.3-.6-2-2.4-2.1-4.9-.1-2.8.7-6.3 2.3-9.8 2.6-5.8 6.8-10.2 9.8-10.2z" fill="#fff"/></svg>