<svg version="1.1" id="Ebene_1" xmlns="http://www.w3.org/2000/svg" x="0" y="0" viewBox="0 0 31.2 30.9" xml:space="preserve"><style>.st0{fill:#03322c}</style><g transform="translate(0 -.006)" id="Gruppe_32"><g id="Gruppe_31" transform="translate(0 .006)"><path id="Pfad_49" class="st0" d="M22.8 17.7c-.1 0-2.2-1.1-2.6-1.2-.2-.1-.3-.1-.5-.1-.3 0-.6.2-.7.4-.2.3-.9 1.1-1.1 1.3l-.1.1s-.4-.2-.5-.2c-1.8-.9-3.3-2.2-4.4-3.9V14c0-.1.1-.1.1-.2.1-.1.2-.3.4-.4l.2-.2c.1-.2.3-.4.4-.6v-.1c.2-.3.1-.7 0-1-.1-.1-1-2.3-1.1-2.6-.2-.6-.5-.8-1-.8h-.2c-.6 0-1.2.2-1.8.5-1 .8-1.5 2-1.4 3.2.1 1.4.6 2.7 1.5 3.8l.1.1c1.5 2.3 3.6 4.2 6.1 5.3 1.2.5 2.4.9 3.7.9h.7c1.1-.2 2.1-.9 2.7-1.9.3-.6.3-1.3.2-2-.2-.1-.4-.2-.7-.3"/><path id="Pfad_50" class="st0" d="M15.9.5C7.8.4 1.2 7 1.1 15.1c0 2.6.7 5.2 2 7.4L.6 30c-.1.2 0 .4.2.5H1L8.9 28c7.2 3.8 16.1 1.1 20-6.1 1.1-2.1 1.7-4.4 1.7-6.8C30.6 7 24 .4 15.9.5m0 26.2c-2.3 0-4.5-.7-6.4-1.9-.1-.1-.2-.1-.3 0L5.3 26l1.3-3.7c0-.1 0-.3-.1-.4-1.4-2-2.2-4.3-2.2-6.8-.2-6.5 5-11.7 11.5-11.8s11.7 5.1 11.8 11.6S22.4 26.6 16 26.7h-.1"/></g></g></svg>